<svg width="62" height="63" viewBox="0 0 62 63" fill="none" xmlns="http://www.w3.org/2000/svg">
<rect y="0.443359" width="62" height="62" rx="31" fill="#7AED08"/>
<mask id="mask0_13388_5813" style="mask-type:alpha" maskUnits="userSpaceOnUse" x="16" y="16" width="30" height="31">
<rect x="16" y="16.4434" width="30" height="30" fill="#D9D9D9"/>
</mask>
<g mask="url(#mask0_13388_5813)">
<path d="M31 41.4434C28.0785 41.4434 25.6815 41.0712 23.8088 40.3268C21.9363 39.5824 21 38.6245 21 37.453V25.1934C21 24.1548 21.9748 23.2702 23.9244 22.5396C25.8738 21.8088 28.2323 21.4434 31 21.4434C33.7677 21.4434 36.1262 21.8088 38.0756 22.5396C40.0252 23.2702 41 24.1548 41 25.1934V37.453C41 38.6245 40.0638 39.5824 38.1912 40.3268C36.3185 41.0712 33.9215 41.4434 31 41.4434ZM31 27.5565C32.79 27.5565 34.5945 27.3068 36.4134 26.8074C38.2324 26.3083 39.3205 25.7646 39.6778 25.1765C39.3366 24.5563 38.2656 23.9874 36.465 23.4699C34.6646 22.9522 32.8429 22.6934 31 22.6934C29.1844 22.6934 27.3651 22.9429 25.5422 23.4421C23.7193 23.9413 22.6299 24.4873 22.2741 25.0802C22.6139 25.7052 23.6872 26.2742 25.4941 26.7871C27.3009 27.3 29.1362 27.5565 31 27.5565ZM31 33.8471C31.859 33.8471 32.7027 33.8054 33.5313 33.7221C34.3598 33.6388 35.1519 33.515 35.9075 33.3509C36.6631 33.1865 37.365 32.9817 38.0131 32.7365C38.6615 32.4915 39.2404 32.2151 39.75 31.9074V26.7871C39.2404 27.0948 38.6615 27.3713 38.0131 27.6165C37.365 27.8617 36.6631 28.0664 35.9075 28.2305C35.1519 28.3949 34.3598 28.5188 33.5313 28.6021C32.7027 28.6854 31.859 28.7271 31 28.7271C30.109 28.7271 29.2428 28.6814 28.4016 28.5899C27.5601 28.4987 26.7656 28.3709 26.0181 28.2065C25.2704 28.0423 24.5777 27.8416 23.94 27.6043C23.3021 27.3672 22.7387 27.0948 22.25 26.7871V31.9074C22.7387 32.2151 23.3021 32.4875 23.94 32.7246C24.5777 32.9617 25.2704 33.1624 26.0181 33.3268C26.7656 33.491 27.5601 33.6188 28.4016 33.7102C29.2428 33.8015 30.109 33.8471 31 33.8471ZM31 40.1934C32.0704 40.1934 33.0884 40.1324 34.0541 40.0105C35.0197 39.8889 35.8871 39.7163 36.6563 39.4927C37.4254 39.2692 38.0793 39.0023 38.6178 38.6921C39.1564 38.3821 39.5338 38.0468 39.75 37.6862V33.1574C39.2404 33.4651 38.6615 33.7415 38.0131 33.9865C37.365 34.2317 36.6631 34.4365 35.9075 34.6009C35.1519 34.765 34.3598 34.8888 33.5313 34.9721C32.7027 35.0554 31.859 35.0971 31 35.0971C30.109 35.0971 29.2428 35.0515 28.4016 34.9602C27.5601 34.8688 26.7656 34.741 26.0181 34.5768C25.2704 34.4124 24.5777 34.2117 23.94 33.9746C23.3021 33.7375 22.7387 33.4651 22.25 33.1574V37.6934C22.4663 38.07 22.8425 38.4082 23.3787 38.7077C23.9148 39.0075 24.5674 39.2692 25.3366 39.4927C26.1057 39.7163 26.9743 39.8889 27.9422 40.0105C28.9103 40.1324 29.9296 40.1934 31 40.1934Z" fill="#1C1B1F"/>
</g>
</svg>
