<svg width="62" height="63" viewBox="0 0 62 63" fill="none" xmlns="http://www.w3.org/2000/svg">
<rect y="0.443359" width="62" height="62" rx="31" fill="#7AED08"/>
<mask id="mask0_13388_5820" style="mask-type:alpha" maskUnits="userSpaceOnUse" x="16" y="16" width="30" height="31">
<rect x="16" y="16.4434" width="30" height="30" fill="#D9D9D9"/>
</mask>
<g mask="url(#mask0_13388_5820)">
<path d="M25.25 35.554L29.0625 31.7655L31.5625 34.2655L36.625 29.2102V32.0684H37.875V27.0684H32.875V28.3184H35.7331L31.5625 32.489L29.0625 29.989L24.3894 34.6934L25.25 35.554ZM23.0194 41.4434C22.444 41.4434 21.9635 41.2507 21.5781 40.8652C21.1927 40.4798 21 39.9994 21 39.424V23.4627C21 22.8873 21.1927 22.4069 21.5781 22.0215C21.9635 21.6361 22.444 21.4434 23.0194 21.4434H38.9806C39.556 21.4434 40.0365 21.6361 40.4219 22.0215C40.8073 22.4069 41 22.8873 41 23.4627V39.424C41 39.9994 40.8073 40.4798 40.4219 40.8652C40.0365 41.2507 39.556 41.4434 38.9806 41.4434H23.0194ZM23.0194 40.1934H38.9806C39.1731 40.1934 39.3495 40.1133 39.5097 39.953C39.6699 39.7928 39.75 39.6165 39.75 39.424V23.4627C39.75 23.2702 39.6699 23.0939 39.5097 22.9337C39.3495 22.7735 39.1731 22.6934 38.9806 22.6934H23.0194C22.8269 22.6934 22.6505 22.7735 22.4903 22.9337C22.3301 23.0939 22.25 23.2702 22.25 23.4627V39.424C22.25 39.6165 22.3301 39.7928 22.4903 39.953C22.6505 40.1133 22.8269 40.1934 23.0194 40.1934Z" fill="#1C1B1F"/>
</g>
</svg>
