<svg width="62" height="63" viewBox="0 0 62 63" fill="none" xmlns="http://www.w3.org/2000/svg">
<rect y="0.443359" width="62" height="62" rx="31" fill="#7AED08"/>
<mask id="mask0_13388_5806" style="mask-type:alpha" maskUnits="userSpaceOnUse" x="16" y="16" width="30" height="31">
<rect x="16" y="16.4434" width="30" height="30" fill="#D9D9D9"/>
</mask>
<g mask="url(#mask0_13388_5806)">
<path d="M28.1153 38.078L29 37.1934L26.3894 34.5684H32.25V33.3184H26.3894L29 30.6934L28.1153 29.8087L23.9806 33.9434L28.1153 38.078ZM33.8847 33.078L38.0194 28.9434L33.8847 24.8087L33 25.6934L35.6106 28.3184H29.75V29.5684H35.6106L33 32.1934L33.8847 33.078ZM31.0041 42.6934C29.4484 42.6934 27.9858 42.3982 26.6163 41.8077C25.2469 41.2173 24.0556 40.4161 23.0425 39.404C22.0294 38.3919 21.2274 37.2017 20.6366 35.8334C20.0455 34.4652 19.75 33.0033 19.75 31.4474C19.75 29.8918 20.0452 28.4292 20.6356 27.0596C21.226 25.6902 22.0273 24.499 23.0394 23.4859C24.0515 22.4727 25.2417 21.6708 26.61 21.0799C27.9781 20.4889 29.4401 20.1934 30.9959 20.1934C32.5516 20.1934 34.0142 20.4886 35.3838 21.079C36.7531 21.6694 37.9444 22.4707 38.9575 23.4827C39.9706 24.4948 40.7726 25.685 41.3634 27.0534C41.9545 28.4215 42.25 29.8835 42.25 31.4393C42.25 32.9949 41.9548 34.4575 41.3644 35.8271C40.774 37.1965 39.9727 38.3877 38.9606 39.4009C37.9485 40.414 36.7583 41.216 35.39 41.8068C34.0219 42.3978 32.5599 42.6934 31.0041 42.6934ZM31 41.4434C33.7917 41.4434 36.1562 40.4746 38.0938 38.5371C40.0312 36.5996 41 34.235 41 31.4434C41 28.6517 40.0312 26.2871 38.0938 24.3496C36.1562 22.4121 33.7917 21.4434 31 21.4434C28.2083 21.4434 25.8438 22.4121 23.9062 24.3496C21.9688 26.2871 21 28.6517 21 31.4434C21 34.235 21.9688 36.5996 23.9062 38.5371C25.8438 40.4746 28.2083 41.4434 31 41.4434Z" fill="#1C1B1F"/>
</g>
</svg>
