<svg width="62" height="63" viewBox="0 0 62 63" fill="none" xmlns="http://www.w3.org/2000/svg">
<rect y="0.907227" width="62" height="62" rx="31" fill="#DADADA"/>
<mask id="mask0_12601_3978" style="mask-type:alpha" maskUnits="userSpaceOnUse" x="16" y="16" width="30" height="31">
<rect x="16" y="16.9072" width="30" height="30" fill="#D9D9D9"/>
</mask>
<g mask="url(#mask0_12601_3978)">
<path d="M33.9373 27.5706C33.6873 26.9456 33.3175 26.456 32.8279 26.1019C32.3383 25.7477 31.7498 25.5706 31.0623 25.5706C30.6873 25.5706 30.2906 25.6387 29.8723 25.775C29.4542 25.9112 29.0993 26.1493 28.8076 26.4891L27.9086 25.59C28.2163 25.2502 28.6 24.9766 29.0598 24.7691C29.5198 24.5616 29.9581 24.4345 30.3748 24.3878V22.34H31.6248V24.3734C32.3058 24.4488 32.9686 24.7009 33.6129 25.1297C34.2571 25.5582 34.7563 26.2068 35.1104 27.0753L33.9373 27.5706ZM40.1729 42.8494L34.9517 37.6284C34.6071 38.1172 34.124 38.5286 33.5023 38.8628C32.8804 39.197 32.2546 39.3688 31.6248 39.3784V41.4266H30.3748V39.3159C29.3363 39.1203 28.5066 38.6932 27.8857 38.0347C27.2647 37.3759 26.7771 36.5113 26.4229 35.4409L27.6248 34.9697C27.8908 35.8447 28.3167 36.5947 28.9023 37.2197C29.4881 37.8447 30.2706 38.1572 31.2498 38.1572C31.8492 38.1572 32.3893 38.0261 32.8701 37.7641C33.3507 37.5022 33.7449 37.1573 34.0526 36.7294L20.0576 22.7341L20.942 21.8494L41.0576 41.965L40.1729 42.8494Z" fill="#1C1B1F"/>
</g>
</svg>
