<svg width="63" height="63" viewBox="0 0 63 63" fill="none" xmlns="http://www.w3.org/2000/svg">
<rect x="0.449707" y="0.907227" width="62" height="62" rx="31" fill="#DADADA"/>
<mask id="mask0_12601_3961" style="mask-type:alpha" maskUnits="userSpaceOnUse" x="16" y="16" width="31" height="31">
<rect x="16.4497" y="16.9072" width="30" height="30" fill="#D9D9D9"/>
</mask>
<g mask="url(#mask0_12601_3961)">
<path d="M24.7191 43.1572C24.1597 43.1572 23.6832 42.9606 23.2897 42.5672C22.8964 42.1737 22.6997 41.6972 22.6997 41.1379V30.1766C22.6997 29.6172 22.8964 29.1408 23.2897 28.7472C23.6832 28.3539 24.1597 28.1572 24.7191 28.1572H26.4497V25.6572C26.4497 24.2645 26.9349 23.0831 27.9053 22.1129C28.8755 21.1424 30.057 20.6572 31.4497 20.6572C32.8424 20.6572 34.0239 21.1424 34.9941 22.1129C35.9645 23.0831 36.4497 24.2645 36.4497 25.6572V28.1572H38.1803C38.7397 28.1572 39.2162 28.3539 39.6097 28.7472C40.003 29.1408 40.1997 29.6172 40.1997 30.1766V41.1379C40.1997 41.6972 40.003 42.1737 39.6097 42.5672C39.2162 42.9606 38.7397 43.1572 38.1803 43.1572H24.7191ZM24.7191 41.9072H38.1803C38.4047 41.9072 38.5891 41.8351 38.7335 41.691C38.8776 41.5466 38.9497 41.3622 38.9497 41.1379V30.1766C38.9497 29.9522 38.8776 29.7679 38.7335 29.6235C38.5891 29.4793 38.4047 29.4072 38.1803 29.4072H24.7191C24.4947 29.4072 24.3103 29.4793 24.166 29.6235C24.0218 29.7679 23.9497 29.9522 23.9497 30.1766V41.1379C23.9497 41.3622 24.0218 41.5466 24.166 41.691C24.3103 41.8351 24.4947 41.9072 24.7191 41.9072ZM31.4497 37.5322C31.977 37.5322 32.4213 37.3515 32.7825 36.99C33.144 36.6288 33.3247 36.1845 33.3247 35.6572C33.3247 35.1299 33.144 34.6857 32.7825 34.3244C32.4213 33.963 31.977 33.7822 31.4497 33.7822C30.9224 33.7822 30.4781 33.963 30.1169 34.3244C29.7554 34.6857 29.5747 35.1299 29.5747 35.6572C29.5747 36.1845 29.7554 36.6288 30.1169 36.99C30.4781 37.3515 30.9224 37.5322 31.4497 37.5322ZM27.6997 28.1572H35.1997V25.6572C35.1997 24.6156 34.8351 23.7301 34.106 23.001C33.3768 22.2718 32.4914 21.9072 31.4497 21.9072C30.408 21.9072 29.5226 22.2718 28.7935 23.001C28.0643 23.7301 27.6997 24.6156 27.6997 25.6572V28.1572Z" fill="#1C1B1F"/>
</g>
</svg>
