<svg width="57" height="58" viewBox="0 0 57 58" fill="none" xmlns="http://www.w3.org/2000/svg">
<rect y="0.907227" width="57" height="57" rx="28.5" fill="#DADADA"/>
<path d="M23.029 29.4072C23.0347 31.4565 22.5611 33.4788 21.6462 35.3125C21.6025 35.4076 21.5402 35.4929 21.4629 35.5634C21.3856 35.634 21.295 35.6883 21.1963 35.7231C21.0977 35.7579 20.993 35.7726 20.8886 35.7662C20.7842 35.7598 20.6821 35.7325 20.5884 35.686C20.4947 35.6394 20.4114 35.5745 20.3432 35.495C20.2751 35.4156 20.2237 35.3234 20.1919 35.2237C20.1601 35.124 20.1487 35.0189 20.1583 34.9148C20.1679 34.8106 20.1983 34.7094 20.2477 34.6172C21.0544 32.9992 21.4717 31.2151 21.4665 29.4072C21.4647 28.353 21.7008 27.3119 22.1573 26.3616C22.6139 25.4113 23.279 24.5764 24.1032 23.9189C24.1833 23.8548 24.2752 23.8071 24.3738 23.7785C24.4723 23.7499 24.5755 23.741 24.6775 23.7523C24.7794 23.7636 24.8782 23.7949 24.9681 23.8443C25.058 23.8938 25.1372 23.9604 25.2014 24.0405C25.2655 24.1206 25.3132 24.2125 25.3418 24.3111C25.3704 24.4096 25.3793 24.5128 25.368 24.6148C25.3567 24.7168 25.3254 24.8155 25.276 24.9054C25.2265 24.9953 25.1599 25.0746 25.0798 25.1387C24.4386 25.6498 23.9212 26.2992 23.5661 27.0383C23.211 27.7775 23.0274 28.5872 23.029 29.4072ZM28.4977 28.626C28.2905 28.626 28.0918 28.7083 27.9453 28.8548C27.7988 29.0013 27.7165 29.2 27.7165 29.4072C27.7164 32.451 26.9436 35.4449 25.4704 38.1084C25.3699 38.2897 25.3455 38.5035 25.4027 38.7028C25.4598 38.902 25.5938 39.0704 25.7751 39.1709C25.9564 39.2714 26.1702 39.2957 26.3694 39.2386C26.5687 39.1815 26.7371 39.0475 26.8376 38.8662C28.4387 35.9706 29.2787 32.716 29.279 29.4072C29.279 29.2 29.1967 29.0013 29.0502 28.8548C28.9037 28.7083 28.7049 28.626 28.4977 28.626ZM28.4977 25.501C27.4617 25.501 26.4682 25.9125 25.7356 26.6451C25.003 27.3777 24.5915 28.3712 24.5915 29.4072C24.5915 29.6144 24.6738 29.8131 24.8203 29.9597C24.9668 30.1062 25.1655 30.1885 25.3727 30.1885C25.5799 30.1885 25.7787 30.1062 25.9252 29.9597C26.0717 29.8131 26.154 29.6144 26.154 29.4072C26.154 28.7856 26.4009 28.1895 26.8405 27.7499C27.28 27.3104 27.8761 27.0635 28.4977 27.0635C29.1193 27.0635 29.7155 27.3104 30.155 27.7499C30.5946 28.1895 30.8415 28.7856 30.8415 29.4072C30.8496 32.5136 30.1653 35.5828 28.8386 38.3916C28.7948 38.4846 28.7697 38.5854 28.7649 38.6881C28.76 38.7908 28.7754 38.8935 28.8103 38.9903C28.8451 39.087 28.8986 39.176 28.9678 39.252C29.037 39.3281 29.1205 39.3898 29.2136 39.4336C29.3066 39.4774 29.4074 39.5024 29.5101 39.5073C29.6128 39.5121 29.7155 39.4967 29.8122 39.4619C29.909 39.4271 29.9979 39.3735 30.074 39.3043C30.1501 39.2351 30.2118 39.1516 30.2556 39.0586C31.6797 36.041 32.4136 32.744 32.404 29.4072C32.404 28.3712 31.9924 27.3777 31.2599 26.6451C30.5273 25.9125 29.5337 25.501 28.4977 25.501ZM28.4977 19.251C25.805 19.2538 23.2234 20.3248 21.3193 22.2288C19.4153 24.1329 18.3443 26.7145 18.3415 29.4072C18.3429 30.3828 18.1777 31.3515 17.8532 32.2715C17.7842 32.4669 17.7956 32.6817 17.885 32.8687C17.9744 33.0557 18.1344 33.1995 18.3298 33.2686C18.5252 33.3376 18.74 33.3261 18.927 33.2368C19.114 33.1474 19.2578 32.9874 19.3268 32.792C19.7101 31.7047 19.9053 30.5601 19.904 29.4072C19.904 27.128 20.8094 24.9422 22.421 23.3305C24.0327 21.7189 26.2185 20.8135 28.4977 20.8135C30.7769 20.8135 32.9628 21.7189 34.5744 23.3305C36.1861 24.9422 37.0915 27.128 37.0915 29.4072C37.092 31.1922 36.919 32.9731 36.5749 34.7246C36.555 34.8253 36.5551 34.9289 36.5753 35.0295C36.5954 35.1301 36.6352 35.2258 36.6923 35.311C36.7495 35.3963 36.8228 35.4694 36.9082 35.5263C36.9937 35.5832 37.0894 35.6227 37.1901 35.6426C37.24 35.6524 37.2907 35.6573 37.3415 35.6572C37.5223 35.657 37.6974 35.5942 37.837 35.4793C37.9766 35.3644 38.0721 35.2047 38.1071 35.0273C38.4709 33.1761 38.6541 31.2939 38.654 29.4072C38.6509 26.7146 37.5799 24.1331 35.6759 22.2291C33.7719 20.3251 31.1904 19.2541 28.4977 19.251ZM25.2165 31.7676C25.0139 31.7273 24.8035 31.7689 24.6315 31.8832C24.4595 31.9976 24.3397 32.1755 24.2985 32.3779C23.9815 33.9381 23.414 35.4367 22.6179 36.8154C22.5143 36.9949 22.4862 37.2082 22.5399 37.4084C22.5935 37.6086 22.7245 37.7792 22.904 37.8828C23.0835 37.9864 23.2968 38.0145 23.4969 37.9608C23.6971 37.9071 23.8678 37.7762 23.9714 37.5967C24.8511 36.072 25.4777 34.4148 25.8268 32.6895C25.8474 32.5888 25.8479 32.4852 25.8283 32.3844C25.8087 32.2836 25.7695 32.1876 25.7128 32.102C25.6561 32.0164 25.5831 31.9428 25.4979 31.8854C25.4128 31.828 25.3171 31.788 25.2165 31.7676ZM28.4977 22.376C28.2039 22.3761 27.9104 22.3943 27.6188 22.4307C27.4171 22.4609 27.2352 22.5689 27.112 22.7316C26.9889 22.8942 26.9342 23.0985 26.9597 23.3009C26.9852 23.5033 27.0889 23.6877 27.2485 23.8147C27.4082 23.9417 27.6112 24.0012 27.8141 23.9805C28.5838 23.8848 29.365 23.9536 30.106 24.1825C30.8471 24.4114 31.531 24.795 32.1127 25.3081C32.6943 25.8211 33.1603 26.4518 33.4799 27.1585C33.7995 27.8652 33.9654 28.6317 33.9665 29.4072C33.9663 30.4192 33.9037 31.4303 33.779 32.4346C33.7653 32.5367 33.7719 32.6405 33.7985 32.7401C33.8251 32.8397 33.8711 32.933 33.934 33.0147C33.9968 33.0964 34.0751 33.1648 34.1645 33.2161C34.2539 33.2674 34.3525 33.3005 34.4548 33.3135C34.4872 33.3175 34.5198 33.3194 34.5524 33.3193C34.7424 33.3189 34.9258 33.2493 35.0681 33.1235C35.2105 32.9976 35.3021 32.8242 35.3259 32.6357C35.4575 31.5666 35.5227 30.4903 35.5212 29.4131C35.5207 27.5493 34.781 25.7617 33.4643 24.4425C32.1477 23.1233 30.3616 22.3801 28.4977 22.376ZM34.155 34.9004C34.0556 34.8747 33.9521 34.8688 33.8504 34.8831C33.7488 34.8975 33.6509 34.9317 33.5625 34.9838C33.4741 35.036 33.3968 35.105 33.3351 35.1871C33.2734 35.2691 33.2284 35.3625 33.2028 35.4619C33.0602 36.0176 32.8952 36.5752 32.7145 37.1221C32.6484 37.318 32.6627 37.5322 32.7542 37.7176C32.8458 37.903 33.0071 38.0446 33.2028 38.1113C33.283 38.1386 33.3671 38.1524 33.4518 38.1523C33.6155 38.1522 33.775 38.1007 33.9079 38.005C34.0407 37.9093 34.1401 37.7744 34.1921 37.6191C34.3874 37.041 34.5622 36.4473 34.7145 35.8564C34.7407 35.7571 34.747 35.6535 34.7331 35.5516C34.7192 35.4498 34.6853 35.3517 34.6334 35.263C34.5816 35.1743 34.5127 35.0966 34.4307 35.0346C34.3488 34.9725 34.2554 34.9273 34.1559 34.9014L34.155 34.9004Z" fill="#26292E"/>
</svg>
