<svg width="14" height="17" viewBox="0 0 14 17" fill="none" xmlns="http://www.w3.org/2000/svg">
<g clip-path="url(#clip0_6132_771)">
<path d="M11.6189 8.98908C11.6189 7.59429 12.2479 6.57641 13.469 5.78475C12.766 4.76693 11.7299 4.23916 10.3608 4.12606C9.0287 4.01297 7.58555 4.88002 7.06755 4.88002C6.5125 4.88002 5.2544 4.16376 4.25532 4.16376C2.18317 4.20146 -1.3893e-08 5.82248 0 9.17756C4.0586e-09 10.1578 0.148011 11.1756 0.51804 12.2311C0.999075 13.6259 2.70121 17.0187 4.47734 16.9434C5.4024 16.9434 6.06845 16.2648 7.28955 16.2648C8.47365 16.2648 9.0657 16.9434 10.1018 16.9434C11.9149 16.9434 13.469 13.8521 13.9131 12.4573C11.5079 11.2887 11.6189 9.0645 11.6189 8.98908ZM9.5467 2.80663C10.5458 1.6003 10.4348 0.469365 10.4348 0.0546875C9.5467 0.130083 8.51065 0.695554 7.9186 1.37412C7.25255 2.12807 6.8825 3.07052 6.9565 4.08837C7.9186 4.16376 8.80665 3.67369 9.5467 2.80663Z" fill="black"/>
</g>
<defs>
<clipPath id="clip0_6132_771">
<rect width="14" height="17" fill="white"/>
</clipPath>
</defs>
</svg>
