<svg width="190" height="41" viewBox="0 0 190 41" fill="none" xmlns="http://www.w3.org/2000/svg">
<g clip-path="url(#clip0_6132_889)">
<path d="M10.1987 18.8253L9.63762 18.2656L4.02734 23.862L4.30785 24.7015L10.1987 18.8253Z" fill="#333333"/>
<path d="M21.1385 23.3024L20.297 23.0225L8.23486 35.0548L8.51538 35.8943L21.1385 23.3024Z" fill="#333333"/>
<path d="M11.8817 19.3853L11.0402 19.1055L4.58838 25.2615L4.86889 26.101L11.8817 19.3853Z" fill="#333333"/>
<path d="M14.9672 20.7842L14.1256 20.2246L5.99072 28.6192L6.27124 29.4587L14.9672 20.7842Z" fill="#333333"/>
<path d="M16.3698 21.3443L15.5282 21.0645L6.55176 30.2986L6.83227 30.8582L16.3698 21.3443Z" fill="#333333"/>
<path d="M19.4554 22.7427L18.6139 22.4629L7.67383 33.3759L7.95434 34.2154L19.4554 22.7427Z" fill="#333333"/>
<path d="M18.0528 21.9039L17.2113 21.624L7.11279 31.6976L7.39331 32.537L18.0528 21.9039Z" fill="#333333"/>
<path d="M13.2841 19.9448L12.723 19.665L5.42969 26.9403L5.7102 27.7798L13.2841 19.9448Z" fill="#333333"/>
<path d="M2.62474 15.4679L1.78319 14.9082L1.22217 15.7477L1.50268 16.5872L2.62474 15.4679Z" fill="#333333"/>
<path d="M4.02731 16.0269L3.46628 15.7471L1.7832 17.426L2.06371 18.2654L4.02731 16.0269Z" fill="#333333"/>
<path d="M0.661133 14.6279L0.941647 14.9078V14.6279H0.661133Z" fill="#333333"/>
<path d="M7.11298 17.4263L6.55195 17.1465L2.90527 20.5043L3.18578 21.3438L7.11298 17.4263Z" fill="#333333"/>
<path d="M5.7104 16.5864L4.86886 16.3066L2.34424 19.1048L2.62475 19.6644L5.7104 16.5864Z" fill="#333333"/>
<path d="M8.79607 17.9859L7.95453 17.7061L3.46631 22.1832L3.74682 23.0227L8.79607 17.9859Z" fill="#333333"/>
<path d="M36.5671 31.9767V30.8574L27.8711 39.5318H28.9932L36.5671 31.9767Z" fill="#333333"/>
<path d="M33.2008 28.6187L32.6398 28.3389L21.1387 39.5317H22.2608L33.2008 28.6187Z" fill="#333333"/>
<path d="M36.567 34.215V33.0957L30.1152 39.5316H31.2372L36.567 34.215Z" fill="#333333"/>
<path d="M34.8839 29.1782L34.0423 28.8984L23.3828 39.5315H24.5048L34.8839 29.1782Z" fill="#333333"/>
<path d="M36.2865 30.0177L35.7255 29.458L25.627 39.5316H26.7491L36.2865 30.0177Z" fill="#333333"/>
<path d="M36.5669 38.6925V37.5732L34.3228 39.5319H35.4449L36.5669 38.6925Z" fill="#333333"/>
<path d="M36.5671 36.4543V35.335L32.3594 39.5324H33.2009L36.5671 36.4543Z" fill="#333333"/>
<path d="M28.7127 26.6607L27.8711 26.3809L14.687 39.5325H15.809L28.7127 26.6607Z" fill="#333333"/>
<path d="M31.7981 28.0596L30.9566 27.5L18.8945 39.5323H20.0166L31.7981 28.0596Z" fill="#333333"/>
<path d="M25.627 25.2612L24.7855 24.9814L10.1987 39.5321H11.3208L25.627 25.2612Z" fill="#333333"/>
<path d="M24.2242 24.7018L23.3826 24.4219L9.35693 38.1332L9.63745 38.9726L24.2242 24.7018Z" fill="#333333"/>
<path d="M27.3102 26.1006L26.4686 25.541L12.4429 39.532H13.565L27.3102 26.1006Z" fill="#333333"/>
<path d="M30.3953 27.2202L29.5538 26.9404L16.9307 39.5323H18.0527L30.3953 27.2202Z" fill="#333333"/>
<path d="M22.5411 23.8619L21.6995 23.582L8.7959 36.4538L9.07641 37.2933L22.5411 23.8619Z" fill="#333333"/>
<path d="M20.2972 7.63281L18.6142 8.19245L14.687 12.1099L15.5285 12.3898L20.2972 7.63281Z" fill="#333333"/>
<path d="M22.5414 7.35313V6.51367L22.2609 6.79349L16.3701 12.6697L16.9311 13.2293L22.5414 7.35313Z" fill="#333333"/>
<path d="M11.6011 10.9903L12.4426 11.2701L13.2841 10.4307L11.6011 10.9903Z" fill="#333333"/>
<path d="M16.6505 9.03125L14.9674 9.59089L13.0039 11.5496L13.8454 11.8294L16.6505 9.03125Z" fill="#333333"/>
<path d="M22.5412 9.59096V8.47168L17.7725 13.5084L18.614 13.7882L22.5412 9.59096Z" fill="#333333"/>
<path d="M22.5413 11.8301V10.7109L19.4556 14.0687L20.2972 14.3485L22.5413 11.8301Z" fill="#333333"/>
<path d="M22.5413 14.0685V12.9492L21.1387 14.6281L21.6998 14.908L22.5413 14.0685Z" fill="#333333"/>
<path d="M35.4447 1.19629L33.4811 2.03575L29.2734 6.51288V7.63216L35.4447 1.19629Z" fill="#333333"/>
<path d="M36.8473 4.27455V3.15527L29.2734 10.7104V11.8297L36.8473 4.27455Z" fill="#333333"/>
<path d="M36.8473 6.51283V5.39355L29.2734 12.9487V14.068L36.8473 6.51283Z" fill="#333333"/>
<path d="M36.8473 9.59082L29.2734 17.4258V17.7056L29.8345 17.9854L36.8473 10.7101V9.59082Z" fill="#333333"/>
<path d="M31.7981 2.87598L29.8345 3.71544L29.2734 4.27508V5.39437L31.7981 2.87598Z" fill="#333333"/>
<path d="M36.8473 2.03627V0.916992L29.2734 8.47215V9.59143L36.8473 2.03627Z" fill="#333333"/>
<path d="M36.8474 17.4259V16.3066L33.7617 19.3846L34.6033 19.6644L36.8474 17.4259Z" fill="#333333"/>
<path d="M36.8473 8.75209V7.63281L29.2734 15.188V16.3073L36.8473 8.75209Z" fill="#333333"/>
<path d="M36.8477 19.6652V18.5459L35.1646 20.2248L36.0061 20.5047L36.8477 19.6652Z" fill="#333333"/>
<path d="M36.8473 15.1877V14.0684L32.0786 18.8253L32.9201 19.1051L36.8473 15.1877Z" fill="#333333"/>
<path d="M36.8476 12.9494V11.8301L30.6763 18.266L31.2373 18.5458L36.8476 12.9494Z" fill="#333333"/>
</g>
<g clip-path="url(#clip1_6132_889)">
<path d="M57.1852 10.8838H61.26L69.8173 30.8013H65.3349L63.705 26.33H55.1477L53.1103 30.8013H48.6279L57.1852 10.8838ZM61.6675 22.6717L59.2226 16.168L56.3702 22.6717H61.6675Z" fill="#333333"/>
<path d="M73.0771 11.29H82.0418C84.0792 11.29 86.1167 11.6965 87.7466 13.3224C88.9691 14.5419 89.7841 16.1678 89.7841 17.7937C89.7841 20.6391 88.1541 23.078 85.7092 23.8909L90.599 31.2076H84.8942L80.8193 24.7039H77.5594V31.2076H73.0771V11.29ZM81.6343 21.0456C83.6718 21.0456 84.8942 19.8261 84.8942 18.2002C84.8942 16.1678 83.6717 15.3548 81.2268 15.3548H77.152V21.0456H81.6343Z" fill="#333333"/>
<path d="M92.6362 21.046C93.0437 14.9488 97.9335 10.4776 103.638 10.884C106.491 10.884 108.936 12.1035 110.973 14.1359L108.121 17.3877C106.898 16.1683 104.861 15.3553 103.231 14.9488C99.5635 14.9488 97.1185 17.3877 97.1185 20.6395C97.1185 20.6395 97.1185 20.6395 97.1185 21.046C97.1185 24.2978 99.5635 27.1432 102.823 27.1432C102.823 27.1432 102.823 27.1432 103.231 27.1432C105.268 27.1432 106.898 26.3302 108.528 25.1108L111.381 27.9562C109.343 30.395 106.491 31.6145 103.231 31.6145C97.526 31.6145 93.0437 27.1432 93.0437 21.859C92.6362 21.4525 92.6362 21.4525 92.6362 21.046Z" fill="#333333"/>
<path d="M121.568 10.8838H125.643L133.793 31.2078H129.31L127.273 26.7365H118.716L117.493 31.2078H113.011L121.568 10.8838ZM126.05 22.6717L123.198 16.168L120.753 22.6717H126.05Z" fill="#333333"/>
<path d="M137.053 11.2907H144.795C150.092 10.8842 154.982 14.949 155.39 20.6397C155.39 21.0462 155.39 21.0462 155.39 21.4526C155.39 27.1434 150.907 31.6146 145.61 31.6146C145.203 31.6146 145.203 31.6146 144.795 31.6146H137.053V11.2907ZM144.795 27.1434C148.055 27.5498 150.5 25.111 150.907 21.8591C150.907 21.4526 150.907 21.4526 150.907 21.0462C150.907 17.7944 148.462 15.3555 145.61 14.949H145.203H141.943V27.1434H144.795Z" fill="#333333"/>
<path d="M159.464 11.29H163.947V31.2076H159.464V11.29Z" fill="#333333"/>
<path d="M175.764 10.8838H179.839L188.396 30.8013H183.914L181.876 26.33H173.319L171.282 30.8013H166.799L175.764 10.8838ZM180.246 22.6717L177.394 16.168L174.541 22.6717H180.246Z" fill="#333333"/>
</g>
<defs>
<clipPath id="clip0_6132_889">
<rect width="37" height="40" fill="white" transform="translate(0.661133 0.224609)"/>
</clipPath>
<clipPath id="clip1_6132_889">
<rect width="141" height="22" fill="white" transform="translate(48.3389 10.2363)"/>
</clipPath>
</defs>
</svg>
