<svg width="20" height="21" viewBox="0 0 20 21" fill="none" xmlns="http://www.w3.org/2000/svg">
<path d="M16.0583 5.34857C14.9499 4.8319 13.7499 4.4569 12.4999 4.24023C12.478 4.24055 12.457 4.24953 12.4416 4.26523C12.2916 4.54023 12.1166 4.89857 11.9999 5.17357C10.6741 4.97369 9.32578 4.97369 7.99994 5.17357C7.88327 4.89023 7.70827 4.54023 7.54994 4.26523C7.5416 4.24857 7.5166 4.24023 7.4916 4.24023C6.2416 4.4569 5.04993 4.8319 3.93327 5.34857C3.92493 5.34857 3.9166 5.3569 3.90827 5.36523C1.6416 8.7569 1.0166 12.0569 1.32493 15.3236C1.32493 15.3402 1.33327 15.3569 1.34993 15.3652C2.84993 16.4652 4.2916 17.1319 5.7166 17.5736C5.7416 17.5819 5.7666 17.5736 5.77493 17.5569C6.10827 17.0986 6.40827 16.6152 6.6666 16.1069C6.68327 16.0736 6.6666 16.0402 6.63327 16.0319C6.15827 15.8486 5.70827 15.6319 5.2666 15.3819C5.23327 15.3652 5.23327 15.3152 5.25827 15.2902C5.34994 15.2236 5.4416 15.1486 5.53327 15.0819C5.54993 15.0652 5.57493 15.0652 5.5916 15.0736C8.45827 16.3819 11.5499 16.3819 14.3833 15.0736C14.3999 15.0652 14.4249 15.0652 14.4416 15.0819C14.5333 15.1569 14.6249 15.2236 14.7166 15.2986C14.7499 15.3236 14.7499 15.3736 14.7083 15.3902C14.2749 15.6486 13.8166 15.8569 13.3416 16.0402C13.3083 16.0486 13.2999 16.0902 13.3083 16.1152C13.5749 16.6236 13.8749 17.1069 14.1999 17.5652C14.2249 17.5736 14.2499 17.5819 14.2749 17.5736C15.7083 17.1319 17.1499 16.4652 18.6499 15.3652C18.6666 15.3569 18.6749 15.3402 18.6749 15.3236C19.0416 11.5486 18.0666 8.27357 16.0916 5.36523C16.0833 5.3569 16.0749 5.34857 16.0583 5.34857ZM7.09994 13.3319C6.2416 13.3319 5.52493 12.5402 5.52493 11.5652C5.52493 10.5902 6.22494 9.79857 7.09994 9.79857C7.98327 9.79857 8.68327 10.5986 8.67493 11.5652C8.67493 12.5402 7.97494 13.3319 7.09994 13.3319ZM12.9083 13.3319C12.0499 13.3319 11.3333 12.5402 11.3333 11.5652C11.3333 10.5902 12.0333 9.79857 12.9083 9.79857C13.7916 9.79857 14.4916 10.5986 14.4833 11.5652C14.4833 12.5402 13.7916 13.3319 12.9083 13.3319Z" fill="#33332F"/>
</svg>
