<svg width="20" height="21" viewBox="0 0 20 21" fill="none" xmlns="http://www.w3.org/2000/svg">
<g clip-path="url(#clip0_12602_4113)">
<path fill-rule="evenodd" clip-rule="evenodd" d="M1.33325 2.90674C1.33325 2.37631 1.54397 1.8676 1.91904 1.49252C2.29411 1.11745 2.80282 0.906738 3.33325 0.906738L14.2759 0.906738L18.6666 5.29741V18.9067C18.6666 19.4372 18.4559 19.9459 18.0808 20.321C17.7057 20.696 17.197 20.9067 16.6666 20.9067H3.33325C2.80282 20.9067 2.29411 20.696 1.91904 20.321C1.54397 19.9459 1.33325 19.4372 1.33325 18.9067V2.90674ZM5.33325 6.23607L11.9999 6.24007V7.57341L5.33325 7.56941V6.23607ZM14.6666 10.2334H5.33325V11.5667H14.6666V10.2334ZM14.6666 14.2414L5.33325 14.2307V15.5641L14.6666 15.5734V14.2414Z" fill="#33332F"/>
</g>
<defs>
<clipPath id="clip0_12602_4113">
<rect width="20" height="20" fill="white" transform="translate(0 0.906738)"/>
</clipPath>
</defs>
</svg>
