<svg width="103" height="30" viewBox="0 0 103 30" fill="none" xmlns="http://www.w3.org/2000/svg">
<g clip-path="url(#clip0_34204_10764)">
<path d="M7.80697 2.91663L12.4214 0.171369C12.5528 0.0932677 12.7158 0.0932677 12.8472 0.171369L25.0087 7.40485C25.1401 7.48295 25.221 7.62744 25.2222 7.78364L25.2387 12.7587C25.2387 12.9162 25.1578 13.062 25.0251 13.1401L20.417 15.8814C20.134 16.0507 19.7789 15.8398 19.7777 15.5026L19.7625 11.0379C19.7625 10.8817 19.6804 10.7372 19.549 10.6591L7.80697 3.67681C7.52268 3.50759 7.52268 3.08585 7.80697 2.91663Z" fill="#010101"/>
<path d="M4.8267 25.4518L0.213537 22.7078C0.0808661 22.6297 0 22.4852 0 22.3277V7.86076C0 7.70456 0.0808661 7.56007 0.212274 7.48067L4.38699 4.97752C4.51966 4.89812 4.68265 4.89812 4.81406 4.97752L9.42217 7.71888C9.7052 7.88809 9.70646 8.30854 9.42343 8.47906L5.67832 10.7245C5.54691 10.8026 5.46604 10.9471 5.46604 11.1046V25.073C5.46604 25.4114 5.11099 25.6223 4.8267 25.4531V25.4518Z" fill="#010101"/>
<path d="M25.2446 16.8385V22.3264C25.2446 22.4839 25.1637 22.6284 25.0311 22.7065L12.8695 29.94C12.7381 30.0181 12.5764 30.0181 12.445 29.94L8.25386 27.4668C8.12119 27.3887 8.03906 27.2429 8.03906 27.0854V21.604C8.03906 21.2669 8.39285 21.056 8.67715 21.2226L12.4374 23.442C12.5688 23.5201 12.7306 23.5188 12.862 23.442L24.604 16.4571C24.8883 16.2879 25.2433 16.4988 25.2433 16.8372L25.2446 16.8385Z" fill="#010101"/>
<path d="M64.6777 7.65913H59.9673C59.7626 7.65913 59.5983 7.82965 59.5983 8.04053V17.2708C59.5983 18.4514 59.4126 19.4394 59.0398 20.2334C58.6671 21.004 58.1554 21.582 57.5034 21.9673C56.8514 22.3279 56.1059 22.5101 55.2682 22.5101C54.0565 22.5101 53.1139 22.1365 52.4391 21.3906C51.7872 20.62 51.4612 19.4264 51.4612 17.8136V8.04183C51.4612 7.83095 51.2956 7.66043 51.0922 7.66043H47.6706C47.6428 7.65523 47.615 7.65262 47.5872 7.65262H40.7717V7.26212C40.7717 6.3223 40.9814 5.62459 41.4009 5.1664C41.8431 4.68477 42.461 4.44396 43.252 4.44396C43.6715 4.44396 44.067 4.50384 44.4397 4.6249C44.6697 4.70039 44.8958 4.79802 45.0917 4.90476C45.2875 5.0115 45.5301 4.90997 45.6047 4.69389L46.7823 1.33683C46.8429 1.16241 46.7747 0.967154 46.6193 0.874734C46.1594 0.600078 45.6198 0.39311 44.9982 0.252527C44.2767 0.0846097 43.5199 0 42.7276 0C40.4002 0 38.6072 0.662559 37.3488 1.98768C36.0915 3.28806 35.4623 5.03493 35.4623 7.22697V7.65262H33.0009C32.7596 7.65262 32.5625 7.82314 32.5625 8.03402V11.6058C32.5625 11.8167 32.7583 11.9872 33.0009 11.9872H35.4623V26.7158C35.4623 26.9267 35.6278 27.0972 35.8313 27.0972H40.5404C40.7439 27.0972 40.9094 26.9267 40.9094 26.7158V11.9872H46.0115V18.6428C46.0115 20.6422 46.3489 22.2927 47.0249 23.5931C47.7009 24.87 48.6435 25.8216 49.8539 26.4477C51.0884 27.0738 52.4859 27.3875 54.0451 27.3875C55.4893 27.3875 56.816 27.0504 58.0265 26.3748C58.7467 25.9674 59.3633 25.4467 59.8776 24.8167V26.7158C59.8776 26.9267 60.0431 27.0972 60.2465 27.0972H64.6777C64.8824 27.0972 65.0467 26.9267 65.0467 26.7158V8.04183C65.0467 7.83095 64.8811 7.66043 64.6777 7.66043V7.65913Z" fill="#010101"/>
<path d="M80.5352 16.9079C79.8832 16.4979 79.1491 16.1855 78.3341 15.9681C77.5204 15.752 76.7041 15.5945 75.8892 15.4982C75.0982 15.3771 74.3641 15.2457 73.6881 15.1012C73.0134 14.9567 72.465 14.764 72.0468 14.5232C71.65 14.2824 71.4529 13.9218 71.4529 13.4389C71.4529 12.9091 71.7321 12.4757 72.2919 12.1385C72.8504 11.8014 73.7361 11.6335 74.9466 11.6335C75.8083 11.6335 76.6928 11.7415 77.6012 11.9589C78.4162 12.1268 79.2211 12.434 80.0184 12.8792C80.2067 12.9833 80.4391 12.9065 80.5301 12.7074L82.0337 9.38806C82.1159 9.20713 82.0489 8.98844 81.8796 8.89342C81.0482 8.42611 80.0424 8.06294 78.8597 7.80651C77.533 7.51753 76.229 7.37305 74.9478 7.37305C73.1321 7.37305 71.5717 7.65031 70.2677 8.20352C68.9637 8.73461 67.963 9.46876 67.2643 10.4086C66.5896 11.3484 66.2509 12.4314 66.2509 13.6602C66.2509 14.7679 66.4493 15.6713 66.8448 16.3703C67.2643 17.068 67.8114 17.6225 68.4861 18.0326C69.1621 18.4426 69.9063 18.755 70.7213 18.9724C71.5363 19.165 72.3399 19.3212 73.1309 19.4423C73.9458 19.5634 74.6913 19.6831 75.3661 19.8029C76.0408 19.9239 76.5765 20.1049 76.9733 20.3457C77.3928 20.563 77.6025 20.9002 77.6025 21.3571C77.6025 21.9116 77.3346 22.3451 76.7989 22.6575C76.2872 22.9699 75.4014 23.1274 74.1442 23.1274C73.0033 23.1274 71.8395 22.9595 70.6518 22.6223C69.6397 22.3086 68.7426 21.922 67.9592 21.4625C67.771 21.3519 67.5322 21.43 67.4412 21.633L65.9325 24.9953C65.8529 25.1723 65.9174 25.3819 66.0778 25.4834C66.9054 26.0041 67.9757 26.448 69.2885 26.8138C70.7782 27.1991 72.3273 27.3917 73.9332 27.3917V27.3891C75.8184 27.3891 77.4142 27.1249 78.7182 26.5951C80.0449 26.0653 81.0583 25.3428 81.757 24.4278C82.4557 23.4892 82.8045 22.4167 82.8045 21.2126C82.8045 20.1049 82.5947 19.2132 82.1752 18.5389C81.7557 17.8399 81.2086 17.2984 80.5339 16.9131L80.5352 16.9079Z" fill="#010101"/>
<path d="M101.675 12.0694C100.813 10.5516 99.638 9.39571 98.147 8.60038C96.6801 7.78161 95.0969 7.37158 93.1877 7.37158C91.2785 7.37158 89.5664 7.80504 88.0539 8.67197C86.5402 9.51416 85.3411 10.6948 84.4567 12.2126C83.5949 13.7056 83.1641 15.4525 83.1641 17.379C83.1641 19.3055 83.6063 21.0289 84.4908 22.5454C85.3752 24.0384 86.6211 25.219 88.227 26.0859C89.857 26.9529 91.7422 27.3863 93.8851 27.3863V27.3889C95.5859 27.3889 97.0882 27.1234 98.3909 26.5949C99.5799 26.0899 100.584 25.3934 101.406 24.5083C101.54 24.3638 101.54 24.1347 101.408 23.9863L98.9885 21.2723C98.8521 21.12 98.6247 21.1096 98.4718 21.2463C97.9145 21.7474 97.3055 22.1327 96.6434 22.4022C95.8979 22.7146 95.0248 22.8721 94.0241 22.8721C92.9072 22.8721 91.9292 22.6677 91.0902 22.2577C90.2752 21.8242 89.6346 21.2098 89.1696 20.4158C88.9283 19.9706 88.7565 19.4877 88.6465 18.9696H102.526C102.716 18.9696 102.875 18.8199 102.893 18.6247C102.906 18.4906 102.918 18.3513 102.93 18.2107C102.954 17.9218 102.965 17.6692 102.965 17.4519C102.965 15.3561 102.534 13.5624 101.672 12.0681L101.675 12.0694ZM90.7427 12.2868C91.4642 11.8533 92.2918 11.6359 93.2231 11.6359C94.1543 11.6359 94.9693 11.8533 95.668 12.2868C96.3667 12.6955 96.9138 13.2747 97.3093 14.0206C97.5721 14.5152 97.7452 15.0698 97.8337 15.6816H88.5834C88.6743 15.0802 88.8462 14.5374 89.1014 14.0557C89.4982 13.2852 90.044 12.6955 90.7427 12.2855V12.2868Z" fill="#010101"/>
</g>
<defs>
<clipPath id="clip0_34204_10764">
<rect width="102.964" height="30" fill="white"/>
</clipPath>
</defs>
</svg>
