<svg width="20" height="21" viewBox="0 0 20 21" fill="none" xmlns="http://www.w3.org/2000/svg">
<path d="M10.0001 2.57324C8.90573 2.57324 7.8221 2.78879 6.81105 3.20758C5.80001 3.62637 4.88135 4.2402 4.10752 5.01402C2.54472 6.57682 1.66675 8.69644 1.66675 10.9066C1.66675 14.5899 4.05841 17.7149 7.36675 18.8232C7.78341 18.8899 7.91675 18.6316 7.91675 18.4066V16.9982C5.60841 17.4982 5.11675 15.8816 5.11675 15.8816C4.73341 14.9149 4.19175 14.6566 4.19175 14.6566C3.43341 14.1399 4.25008 14.1566 4.25008 14.1566C5.08341 14.2149 5.52508 15.0149 5.52508 15.0149C6.25008 16.2816 7.47508 15.9066 7.95008 15.7066C8.02508 15.1649 8.24175 14.7982 8.47508 14.5899C6.62508 14.3816 4.68341 13.6649 4.68341 10.4899C4.68341 9.56491 5.00008 8.82324 5.54175 8.23158C5.45841 8.02324 5.16675 7.15658 5.62508 6.03158C5.62508 6.03158 6.32508 5.80658 7.91675 6.88158C8.57508 6.69824 9.29175 6.60658 10.0001 6.60658C10.7084 6.60658 11.4251 6.69824 12.0834 6.88158C13.6751 5.80658 14.3751 6.03158 14.3751 6.03158C14.8334 7.15658 14.5417 8.02324 14.4584 8.23158C15.0001 8.82324 15.3167 9.56491 15.3167 10.4899C15.3167 13.6732 13.3667 14.3732 11.5084 14.5816C11.8084 14.8399 12.0834 15.3482 12.0834 16.1232V18.4066C12.0834 18.6316 12.2167 18.8982 12.6417 18.8232C15.9501 17.7066 18.3334 14.5899 18.3334 10.9066C18.3334 9.81223 18.1179 8.72859 17.6991 7.71755C17.2803 6.7065 16.6665 5.78784 15.8926 5.01402C15.1188 4.2402 14.2002 3.62637 13.1891 3.20758C12.1781 2.78879 11.0944 2.57324 10.0001 2.57324Z" fill="#33332F"/>
</svg>
