<svg width="20" height="21" viewBox="0 0 20 21" fill="none" xmlns="http://www.w3.org/2000/svg">
<path d="M6.66675 5.90674C7.99283 5.90674 9.2646 6.43352 10.2023 7.3712C11.14 8.30889 11.6667 9.58066 11.6667 10.9067C11.6667 12.2328 11.14 13.5046 10.2023 14.4423C9.2646 15.38 7.99283 15.9067 6.66675 15.9067C5.34067 15.9067 4.0689 15.38 3.13121 14.4423C2.19353 13.5046 1.66675 12.2328 1.66675 10.9067C1.66675 9.58066 2.19353 8.30889 3.13121 7.3712C4.0689 6.43352 5.34067 5.90674 6.66675 5.90674ZM14.1667 6.74007C15.4167 6.74007 16.2501 8.60591 16.2501 10.9067C16.2501 13.2076 15.4167 15.0734 14.1667 15.0734C12.9167 15.0734 12.0834 13.2076 12.0834 10.9067C12.0834 8.60591 12.9167 6.74007 14.1667 6.74007ZM17.5001 7.15674C17.8167 7.15674 18.0934 7.84591 18.2334 9.02841L18.2726 9.39757L18.2884 9.5934L18.3134 10.0051L18.3217 10.2209L18.3317 10.6717L18.3334 10.9067L18.3317 11.1417L18.3217 11.5926L18.3134 11.8092L18.2884 12.2201L18.2717 12.4159L18.2342 12.7851C18.0934 13.9684 17.8176 14.6567 17.5001 14.6567C17.1834 14.6567 16.9067 13.9676 16.7667 12.7851L16.7276 12.4159L16.7117 12.2201L16.6867 11.8084L16.6784 11.5926L16.6684 11.1417V10.6717L16.6784 10.2209L16.6867 10.0042L16.7117 9.5934L16.7284 9.39757L16.7659 9.02841C16.9067 7.84507 17.1826 7.15674 17.5001 7.15674Z" fill="#33332F"/>
</svg>
