<svg width="20" height="21" viewBox="0 0 20 21" fill="none" xmlns="http://www.w3.org/2000/svg">
<g clip-path="url(#clip0_12602_4107)">
<path fill-rule="evenodd" clip-rule="evenodd" d="M1.28022 3.10711L0.526412 3.06719L0.522998 3.82848L0.522617 3.98717C0.52239 4.11079 0.52209 4.32419 0.52179 4.68374C0.52119 5.40279 0.52059 6.70677 0.52059 9.04669V9.34726L1.41375 10.2481C1.0601 10.4725 0.704781 10.6943 0.347829 10.9135L0.00279512 11.1254L0 16.1438L4.11976 20.3014L4.39021 20.3192C9.44531 20.6523 14.6441 20.2828 19.5151 18.5879L20 18.4192V12.3889L18.9462 11.3261C19.1258 11.1473 19.3049 10.9671 19.4827 10.7857L19.6906 10.5736V10.2755C19.6906 10.0696 19.6912 8.99179 19.6918 7.96493L19.6932 5.66234L15.4499 1.38281L15.0275 1.52551C10.642 3.00719 5.93833 3.35376 1.28022 3.10711ZM15.2561 2.21357L18.9735 5.96272C18.9735 5.96272 18.9711 9.86324 18.9711 10.2755C18.7944 10.4557 18.6162 10.635 18.4374 10.813C18.2662 10.9834 18.0944 11.1526 17.9228 11.3202L19.2805 12.6895V17.902C14.5266 19.5561 9.42979 19.9241 4.43712 19.5951L0.719674 15.8436L0.722074 11.5333C1.12859 11.2836 1.53306 11.0306 1.93541 10.7741C2.14305 10.6418 2.35013 10.5086 2.55662 10.3745L1.2401 9.04669C1.2401 6.56303 1.24077 5.24676 1.24141 4.55834C1.24197 3.94962 1.2425 3.83174 1.2425 3.83174C1.48209 3.84443 1.72191 3.85557 1.9619 3.8651C6.44405 4.043 10.9862 3.65617 15.2561 2.21357Z" fill="white"/>
<path fill-rule="evenodd" clip-rule="evenodd" d="M1.24255 3.83206C5.95692 4.0817 10.7577 3.7337 15.2561 2.21387L18.9736 5.96301C18.9736 5.96301 18.9712 9.86353 18.9712 10.2758C18.6252 10.6286 18.2736 10.9779 17.9229 11.3205L19.2805 12.6897V17.9023C14.5267 19.5563 9.42983 19.9244 4.43716 19.5954L0.719727 15.8438L0.722129 11.5336C1.33844 11.155 1.95003 10.7688 2.55668 10.3747L1.24015 9.04699C1.24015 4.36732 1.24255 3.83206 1.24255 3.83206Z" fill="#33332F"/>
<path d="M17.5322 7.85936V9.9492C15.213 12.1793 12.8938 14.1241 10.577 15.8583C12.9993 15.6963 15.4192 15.3069 17.844 14.6006C17.844 15.3722 17.844 16.1414 17.844 16.913C14.5006 17.8901 11.1598 18.2602 7.81886 18.2602C7.17132 18.2602 6.52377 18.2457 5.87622 18.2191V16.1292C8.19541 14.6417 10.5146 12.9993 12.8314 11.1199C11.1646 11.3352 9.4977 11.4271 7.83084 11.4271C7.35117 11.4271 6.87391 11.4198 6.39424 11.4053C6.39424 10.6337 6.39424 9.86453 6.39424 9.09293C6.8691 9.10746 7.3416 9.1147 7.81648 9.1147C11.0542 9.1147 14.292 8.76881 17.5298 7.85693L17.5322 7.85936Z" fill="white"/>
</g>
<defs>
<clipPath id="clip0_12602_4107">
<rect width="20" height="20" fill="white" transform="translate(0 0.906738)"/>
</clipPath>
</defs>
</svg>
