<svg width="54" height="51" viewBox="0 0 54 51" fill="none" xmlns="http://www.w3.org/2000/svg">
<path fill-rule="evenodd" clip-rule="evenodd" d="M41.8999 0.155273C28.9335 4.53609 15.0958 5.5391 1.507 4.81952C1.507 4.81952 1.50008 6.36244 1.50008 19.8512L5.29488 23.6784C3.54624 24.8143 1.78338 25.9274 0.00692474 27.0185L0 39.4426L10.7152 50.2562C25.1061 51.2043 39.7975 50.1435 53.5 45.3757V30.3511L49.5867 26.4044C50.5977 25.4169 51.6111 24.4101 52.6082 23.393C52.6082 22.2048 52.6152 10.9619 52.6152 10.9619L41.8999 0.155273ZM48.4603 22.4516V16.4278L48.4534 16.4208C39.1207 19.0493 29.7882 20.0462 20.4556 20.0462C19.0868 20.0462 17.7248 20.0254 16.3561 19.9835V26.6488C17.7387 26.6906 19.1144 26.7115 20.497 26.7115C25.3015 26.7115 30.1062 26.4466 34.9108 25.8261C28.2328 31.2433 21.5478 35.9773 14.8629 40.2651V46.2889C16.7294 46.3657 18.5959 46.4075 20.4624 46.4075C30.0923 46.4075 39.7221 45.3408 49.359 42.5241V35.8588C42.3698 37.8946 35.3947 39.0171 28.4125 39.4842C35.0904 34.4853 41.7754 28.8798 48.4603 22.4516Z" fill="#2B2B2B"/>
</svg>
