<svg width="190" height="41" viewBox="0 0 190 41" fill="none" xmlns="http://www.w3.org/2000/svg">
<g clip-path="url(#clip0_6300_2857)">
<path d="M22.3563 0.962891V4.81198H27.839L0.811279 30.7677V34.6168H31.9834C32.666 34.6168 33.3207 34.3463 33.8035 33.8652C34.2862 33.384 34.5574 32.7312 34.5574 32.0507V17.7577H30.6963V30.7677H6.39703L30.7092 7.40369V13.1517H34.5702V3.6552C34.5702 2.16828 33.3619 0.962891 31.8712 0.962891H22.3563Z" fill="#333333"/>
<path d="M4.68508 4.81101H17.7357V0.961914H3.39805C2.71536 0.961914 2.06063 1.23226 1.5779 1.71349C1.09517 2.19472 0.823975 2.84741 0.823975 3.52797V18.9243H4.68508V4.81101Z" fill="#333333"/>
<mask id="mask0_6300_2857" style="mask-type:luminance" maskUnits="userSpaceOnUse" x="47" y="2" width="93" height="33">
<path d="M139.505 2.15234H47.2991V34.8748H139.505V2.15234Z" fill="white"/>
</mask>
<g mask="url(#mask0_6300_2857)">
<path d="M51.5652 9.96656V8.4375H66.7169V12.4245L56.8822 23.0056H66.9986V27.0461H51.0134V23.3572L60.909 12.3557H53.944C53.6293 12.3641 53.3162 12.3081 53.0239 12.191C52.7315 12.0739 52.4659 11.8982 52.2434 11.6747C52.0207 11.4511 51.8458 11.1844 51.7292 10.8907C51.6127 10.597 51.5569 10.2826 51.5652 9.96656Z" fill="#333333"/>
<path d="M85.1798 17.8064C85.1798 24.2246 82.3366 27.47 76.719 27.47C71.1014 27.47 68.2925 24.2246 68.2925 17.8064C68.2925 11.308 71.1014 8.1084 76.719 8.1084C82.3366 8.1084 85.1798 11.3194 85.1798 17.8064ZM73.0309 17.8064C73.069 21.4379 74.2946 23.2727 76.6847 23.2727C79.0748 23.2727 80.2662 21.3615 80.3005 17.6649C80.3005 14.0335 79.1053 12.2369 76.719 12.2369C74.2603 12.2369 73.0309 14.1023 73.0309 17.8064Z" fill="#333333"/>
<path d="M91.5739 4.61515V15.3185L97.5265 8.46072H103.373L96.7273 15.609L103.445 27.0769H97.6141L94.1886 20.7314C93.5683 19.638 93.2295 19.0915 92.4417 19.0915C92.2092 19.1004 91.9889 19.1992 91.8272 19.3673C91.6656 19.5355 91.5747 19.7599 91.5739 19.9936V27.0311H86.7593V2.24512H89.2637C89.8796 2.26197 90.465 2.51861 90.8961 2.96084C91.3271 3.40307 91.5702 3.99627 91.5739 4.61515Z" fill="#333333"/>
<path d="M107.662 30.353C110.216 30.353 111.125 29.0877 110.391 26.626L104.092 8.45312H109.375L113.047 21.3545L116.267 10.1083C116.549 9.01889 117.283 8.45312 118.475 8.45312H121.729L114.41 30.2116C113.291 33.2697 112.172 34.3209 108.32 34.3209C107.133 34.3209 106.501 34.2866 106.36 34.1833V30.3606L107.662 30.353Z" fill="#333333"/>
<path d="M139.811 17.8064C139.811 24.2246 136.964 27.47 131.347 27.47C125.729 27.47 122.924 24.2246 122.924 17.8064C122.924 11.308 125.733 8.1084 131.347 8.1084C136.961 8.1084 139.811 11.3194 139.811 17.8064ZM127.663 17.8064C127.697 21.4379 128.926 23.2727 131.313 23.2727C133.699 23.2727 134.894 21.3615 134.928 17.6649C134.928 14.0335 133.737 12.2369 131.347 12.2369C128.892 12.2369 127.663 14.1023 127.663 17.8064Z" fill="#333333"/>
</g>
</g>
<defs>
<clipPath id="clip0_6300_2857">
<rect width="139" height="35" fill="white" transform="translate(0.811279 0.962891)"/>
</clipPath>
</defs>
</svg>
