<svg width="212" height="211" viewBox="0 0 212 211" fill="none" xmlns="http://www.w3.org/2000/svg">
<circle cx="105.964" cy="105.5" r="105.332" fill="#EDEDED"/>
<path d="M84.3828 48.2084L106.035 35.7043C106.652 35.3486 107.417 35.3486 108.033 35.7043L165.099 68.6512C165.716 69.0069 166.095 69.665 166.101 70.3765L166.178 93.0369C166.178 93.7539 165.799 94.4185 165.176 94.7742L143.553 107.26C142.225 108.031 140.559 107.07 140.553 105.535L140.482 85.1988C140.482 84.4873 140.097 83.8292 139.48 83.4735L84.3828 51.6708C83.0488 50.9001 83.0488 48.9791 84.3828 48.2084Z" fill="white"/>
<path d="M70.3979 150.844L48.7515 138.345C48.129 137.99 47.7495 137.331 47.7495 136.614V70.7202C47.7495 70.0087 48.129 69.3506 48.7456 68.9889L68.3347 57.5877C68.9572 57.226 69.722 57.226 70.3386 57.5877L91.9613 70.074C93.2894 70.8447 93.2953 72.7598 91.9673 73.5364L74.394 83.7638C73.7774 84.1195 73.398 84.7776 73.398 85.495V149.118C73.398 150.66 71.7319 151.614 70.3979 150.844Z" fill="white"/>
<path d="M166.178 111.618V136.614C166.178 137.332 165.799 137.99 165.176 138.345L108.111 171.293C107.494 171.648 106.735 171.648 106.119 171.293L86.4523 160.027C85.8297 159.672 85.4443 159.008 85.4443 158.29V133.324C85.4443 131.788 87.1045 130.828 88.4385 131.586L106.083 141.695C106.7 142.051 107.458 142.045 108.075 141.695L163.172 109.881C164.506 109.11 166.172 110.071 166.172 111.612L166.178 111.618Z" fill="white"/>
</svg>
