<svg width="63" height="63" viewBox="0 0 63 63" fill="none" xmlns="http://www.w3.org/2000/svg">
<path d="M0.224609 31.5004C0.224609 14.3796 14.1038 0.500397 31.2246 0.500397C48.3454 0.500397 62.2246 14.3796 62.2246 31.5004C62.2246 48.6212 48.3454 62.5004 31.2246 62.5004C14.1038 62.5004 0.224609 48.6212 0.224609 31.5004Z" fill="#333333"/>
<mask id="mask0_12860_773" style="mask-type:alpha" maskUnits="userSpaceOnUse" x="16" y="16" width="31" height="31">
<rect x="16.2246" y="16.5004" width="30" height="30" fill="#D9D9D9"/>
</mask>
<g mask="url(#mask0_12860_773)">
<path d="M27.9022 39.0004C26.266 39.0004 24.8682 38.4323 23.7088 37.296C22.5494 36.1598 21.9697 34.7808 21.9697 33.1591C21.9697 31.5373 22.5494 30.1623 23.7088 29.0341C24.8682 27.9058 26.266 27.3416 27.9022 27.3416H37.58L33.8735 23.6351L34.7582 22.7504L39.9744 27.9666L34.7582 33.1832L33.8735 32.2985L37.58 28.5916H27.9022C26.6058 28.5916 25.5012 29.0324 24.5885 29.9138C23.676 30.7953 23.2197 31.8771 23.2197 33.1591C23.2197 34.4412 23.676 35.527 24.5885 36.4163C25.5012 37.3057 26.6058 37.7504 27.9022 37.7504H36.9697V39.0004H27.9022Z" fill="white"/>
</g>
</svg>
