<svg width="63" height="63" viewBox="0 0 63 63" fill="none" xmlns="http://www.w3.org/2000/svg">
<path d="M0.224609 31.5004C0.224609 14.3796 14.1038 0.500397 31.2246 0.500397C48.3454 0.500397 62.2246 14.3796 62.2246 31.5004C62.2246 48.6212 48.3454 62.5004 31.2246 62.5004C14.1038 62.5004 0.224609 48.6212 0.224609 31.5004Z" fill="#333333"/>
<mask id="mask0_12860_767" style="mask-type:alpha" maskUnits="userSpaceOnUse" x="16" y="16" width="31" height="31">
<rect x="16.2246" y="16.5004" width="30" height="30" fill="#D9D9D9"/>
</mask>
<g mask="url(#mask0_12860_767)">
<path d="M31.2246 42.7504C29.6765 42.7504 28.2182 42.4544 26.8496 41.8623C25.4811 41.27 24.2892 40.4662 23.274 39.451C22.2588 38.4358 21.455 37.2439 20.8627 35.8754C20.2707 34.5069 19.9746 33.0485 19.9746 31.5004C19.9746 29.9475 20.2707 28.4879 20.8627 27.1216C21.455 25.7556 22.2588 24.565 23.274 23.5498C24.2892 22.5346 25.4811 21.7308 26.8496 21.1385C28.2182 20.5464 29.6765 20.2504 31.2246 20.2504C32.7775 20.2504 34.2371 20.5464 35.6034 21.1385C36.9694 21.7308 38.16 22.5346 39.1752 23.5498C40.1904 24.565 40.9942 25.7556 41.5865 27.1216C42.1786 28.4879 42.4746 29.9475 42.4746 31.5004C42.4746 33.0485 42.1786 34.5069 41.5865 35.8754C40.9942 37.2439 40.1904 38.4358 39.1752 39.451C38.16 40.4662 36.9694 41.27 35.6034 41.8623C34.2371 42.4544 32.7775 42.7504 31.2246 42.7504ZM31.2246 41.5101C31.9586 40.5678 32.5636 39.6423 33.0396 38.7335C33.5154 37.825 33.9024 36.8082 34.2005 35.6832H28.2487C28.5789 36.8722 28.9739 37.921 29.4337 38.8298C29.8937 39.7383 30.4907 40.6318 31.2246 41.5101ZM29.6334 41.3226C29.05 40.6351 28.5175 39.7853 28.0359 38.7732C27.5544 37.7611 27.1959 36.7311 26.9602 35.6832H22.1668C22.8833 37.2376 23.8989 38.5124 25.2137 39.5076C26.5287 40.5028 28.0019 41.1078 29.6334 41.3226ZM32.8159 41.3226C34.4473 41.1078 35.9205 40.5028 37.2355 39.5076C38.5503 38.5124 39.566 37.2376 40.2824 35.6832H35.489C35.1734 36.7472 34.7747 37.7852 34.293 38.7973C33.8116 39.8094 33.3192 40.6511 32.8159 41.3226ZM21.6574 34.4332H26.7005C26.606 33.9203 26.5391 33.4206 26.4999 32.9341C26.4605 32.4479 26.4409 31.97 26.4409 31.5004C26.4409 31.0308 26.4605 30.5529 26.4999 30.0666C26.5391 29.5802 26.606 29.0805 26.7005 28.5676H21.6574C21.5212 29.0003 21.4149 29.4719 21.3387 29.9823C21.2626 30.4927 21.2246 30.9987 21.2246 31.5004C21.2246 32.0021 21.2626 32.5081 21.3387 33.0185C21.4149 33.5289 21.5212 34.0005 21.6574 34.4332ZM27.9505 34.4332H34.4987C34.5933 33.9203 34.6601 33.4286 34.6993 32.9582C34.7387 32.488 34.7584 32.0021 34.7584 31.5004C34.7584 30.9987 34.7387 30.5128 34.6993 30.0426C34.6601 29.5722 34.5933 29.0805 34.4987 28.5676H27.9505C27.856 29.0805 27.7891 29.5722 27.7499 30.0426C27.7105 30.5128 27.6909 30.9987 27.6909 31.5004C27.6909 32.0021 27.7105 32.488 27.7499 32.9582C27.7891 33.4286 27.856 33.9203 27.9505 34.4332ZM35.7487 34.4332H40.7918C40.928 34.0005 41.0343 33.5289 41.1105 33.0185C41.1866 32.5081 41.2246 32.0021 41.2246 31.5004C41.2246 30.9987 41.1866 30.4927 41.1105 29.9823C41.0343 29.4719 40.928 29.0003 40.7918 28.5676H35.7487C35.8433 29.0805 35.9101 29.5802 35.9493 30.0666C35.9887 30.5529 36.0084 31.0308 36.0084 31.5004C36.0084 31.97 35.9887 32.4479 35.9493 32.9341C35.9101 33.4206 35.8433 33.9203 35.7487 34.4332ZM35.489 27.3176H40.2824C39.5499 25.7311 38.5463 24.4563 37.2715 23.4932C35.9967 22.5301 34.5115 21.9171 32.8159 21.6541C33.3992 22.4219 33.9237 23.2997 34.3893 24.2876C34.8549 25.2757 35.2215 26.2857 35.489 27.3176ZM28.2487 27.3176H34.2005C33.8703 26.1447 33.4633 25.0838 32.9793 24.1351C32.4953 23.1863 31.9104 22.3049 31.2246 21.4907C30.5388 22.3049 29.9539 23.1863 29.4699 24.1351C28.986 25.0838 28.5789 26.1447 28.2487 27.3176ZM22.1668 27.3176H26.9602C27.2277 26.2857 27.5943 25.2757 28.0599 24.2876C28.5255 23.2997 29.05 22.4219 29.6334 21.6541C27.9217 21.9171 26.4325 22.534 25.1659 23.5051C23.899 24.4763 22.8993 25.7472 22.1668 27.3176Z" fill="white"/>
</g>
</svg>
