<svg width="655" height="418" viewBox="0 0 655 418" fill="none" xmlns="http://www.w3.org/2000/svg">
<path d="M538.883 43.0388L520.894 37.4276L501.016 54.8694L518.896 61.0939L538.883 43.0388Z" fill="#363636"/>
<path d="M568.572 16.2209L551.495 10.5755L541.411 19.4239L558.913 24.9456L568.572 16.2209Z" fill="white"/>
<path d="M513.861 112.161L531.867 118.419L535.829 100.128L515.285 105.01L513.861 112.161Z" fill="#D9D9D9"/>
<path d="M540.204 79.9322L518.868 87.0196L515.285 105.01L535.829 100.128L540.204 79.9322Z" fill="white"/>
<path d="M520.894 37.4276L538.883 43.0388L558.913 24.9456L541.411 19.4239L520.894 37.4276Z" fill="#D9D9D9"/>
<path d="M590.157 68.3526L564.012 59.789L544.619 60.9946L584.438 73.2752L590.157 68.3526Z" fill="white"/>
<path d="M564.012 59.789L572.047 13.0812L568.572 16.2209L558.913 24.9456L538.883 43.0388L518.896 61.0939L516.407 63.3416L523.124 65.6504L541.899 72.1038L540.204 79.9322L535.829 100.128L531.867 118.419L531.956 118.45L584.438 73.2752L544.619 60.9946L564.012 59.789Z" fill="#A9FB5C"/>
<path d="M572.047 13.0812L554.854 7.62773L551.495 10.5755L568.572 16.2209L572.047 13.0812Z" fill="#D9D9D9"/>
<path d="M498.411 57.1558L516.407 63.3416L518.896 61.0939L501.016 54.8694L498.411 57.1558Z" fill="#D9D9D9"/>
<path d="M541.899 72.1038L523.124 65.6504L518.868 87.0196L540.204 79.9322L541.899 72.1038Z" fill="#363636"/>
<path d="M572.047 13.0812L564.012 59.789M572.047 13.0812L554.854 7.62773L551.495 10.5755M572.047 13.0812L568.572 16.2209M564.012 59.789L590.157 68.3526L584.438 73.2752M564.012 59.789L544.619 60.9946L584.438 73.2752M516.407 63.3416L498.411 57.1559L501.016 54.8694M516.407 63.3416L523.124 65.6504M516.407 63.3416L518.896 61.0939M531.956 118.45L531.838 118.551L531.867 118.419M531.956 118.45L584.438 73.2752M531.956 118.45L531.867 118.419M523.124 65.6504L541.899 72.1038L540.204 79.9322M523.124 65.6504L518.868 87.0196M520.894 37.4276L538.883 43.0388M520.894 37.4276L501.016 54.8694M520.894 37.4276L541.411 19.4239M538.883 43.0388L518.896 61.0939M538.883 43.0388L558.913 24.9456M501.016 54.8694L518.896 61.0939M518.868 87.0196L540.204 79.9322M518.868 87.0196L515.285 105.01M540.204 79.9322L535.829 100.128M515.285 105.01L513.861 112.161L531.867 118.419M515.285 105.01L535.829 100.128M535.829 100.128L531.867 118.419M551.495 10.5755L568.572 16.2209M551.495 10.5755L541.411 19.4239M568.572 16.2209L558.913 24.9456M541.411 19.4239L558.913 24.9456" stroke="black" stroke-width="0.5"/>
<path d="M83.2808 112.302L83.3256 112.365L83.398 112.391C92.7588 115.834 102.734 123.76 110.839 134.936C118.943 146.111 123.389 158.19 123.959 168.341L123.963 168.414L124.006 168.473L130.416 177.32L116.993 187.266L116.992 187.267C111.341 191.49 103.26 191.266 94.6918 187.385C86.1304 183.507 77.1353 175.998 69.7244 165.758L69.7239 165.757C62.3027 155.576 57.9198 144.597 56.8223 135.104C55.7238 125.603 57.9194 117.65 63.5716 113.427L76.9884 103.486L83.2808 112.302Z" fill="white" stroke="black" stroke-width="0.5"/>
<path fill-rule="evenodd" clip-rule="evenodd" d="M111.44 134.479C108.206 130.025 104.646 125.986 100.937 122.646L61.8558 151.85C63.9604 156.548 66.6868 161.137 69.9206 165.592C76.4508 174.757 84.3015 181.652 92.0111 185.847L123.852 162.023C122.247 153.299 117.995 143.527 111.44 134.479Z" fill="#70DB27"/>
<path fill-rule="evenodd" clip-rule="evenodd" d="M74.1932 171.085C76.5156 173.645 78.8626 176.089 81.3968 178.206L119.191 147.757C117.792 144.786 116.191 141.652 114.31 138.702L74.1932 171.085Z" fill="white"/>
<path d="M124.458 124.842L124.458 124.842C131.823 135.01 136.178 145.983 137.276 155.476C138.375 164.978 136.208 172.938 130.613 177.174C124.975 181.337 116.872 181.079 108.274 177.192C99.6835 173.308 90.6536 165.822 83.2307 155.641C75.8775 145.413 71.5225 134.44 70.436 124.965C69.3484 115.481 71.5378 107.556 77.1901 103.333L77.1913 103.333C82.7841 99.0989 90.8635 99.3222 99.4471 103.206C108.023 107.087 117.047 114.603 124.458 124.842Z" fill="white" stroke="black" stroke-width="0.5"/>
<path d="M88.7775 151.475L88.7769 151.474C82.7906 143.238 79.0937 134.497 77.9368 127.039C76.7777 119.565 78.1754 113.454 82.2656 110.364C86.3519 107.278 92.4869 107.742 99.1618 111.099C105.823 114.449 112.95 120.65 118.938 128.888C124.912 137.184 128.63 145.96 129.801 153.422C130.975 160.9 129.582 166.978 125.452 169.996L125.452 169.996L125.449 169.998C121.362 173.085 115.22 172.649 108.543 169.307C101.879 165.972 94.7528 159.771 88.7775 151.475Z" fill="white" stroke="black" stroke-width="0.5"/>
<path fill-rule="evenodd" clip-rule="evenodd" d="M119.14 128.742C107.128 112.214 90.5182 103.817 82.1149 110.165C81.6981 110.44 81.2568 110.831 80.9517 111.133C89.8625 107.446 104.71 115.711 115.777 131.065C127.225 146.864 130.413 164.428 123.4 171.556C124.209 171.12 124.992 170.803 125.599 170.203C134.09 163.992 131.125 145.384 119.14 128.742Z" fill="#D9D9D9"/>
<path fill-rule="evenodd" clip-rule="evenodd" d="M105.13 175.905L91.7464 185.951C92.4317 186.36 93.3398 186.916 94.0516 187.201C101.986 191.465 110.396 192.036 118.084 186.881C120.918 184.473 124.68 181.468 128.035 179.037C121.752 180.711 112.854 180.17 105.13 175.905Z" fill="#363636"/>
<path fill-rule="evenodd" clip-rule="evenodd" d="M113.447 145.102L100.539 128.532L99.322 126.827L97.0182 128.745L101.597 134.702L103.829 137.586L102.324 138.711L102.139 138.831C97.2588 132.81 92.9212 128.672 92.0031 129.281L90.2832 130.682C89.4813 131.475 92.3134 136.737 96.979 143.035L92.9841 146.201L97.5956 152.006L101.591 148.839C102.573 150.171 103.583 151.354 104.478 152.345C104.598 152.53 104.713 152.718 104.866 152.75C108.326 156.542 110.989 158.877 111.726 158.389L113.446 156.988C114.03 156.471 112.386 153.067 109.271 148.386C108.561 147.271 107.732 145.967 106.718 144.788L108.289 143.355L111.144 147.017L115.099 152.2L117.523 150.466L113.447 145.102ZM103.861 147.077L105.432 145.644C106.415 146.976 107.244 148.28 108.106 149.427C110.475 153.145 112.068 156.057 112.259 157.384C111.08 156.973 108.722 154.703 105.798 151.348C105.258 150.911 104.75 150.321 104.396 149.763C103.112 148.367 101.744 146.626 100.526 144.921C95.2877 138.342 91.6512 132.427 91.4718 130.299C92.918 130.929 96.7121 134.628 100.969 139.875L99.2487 141.277L101.481 144.161L103.861 147.077Z" fill="#76EC00"/>
<path d="M-114.836 549.953C-114.836 549.953 -87.7305 353.439 94.0991 257.077C153.159 225.778 228.544 205.045 324.625 205.045C473.61 205.045 570.596 254.895 633.588 316.692C661.549 344.123 682.812 373.908 698.951 402.731C718.914 438.384 731.039 472.567 738.304 499.005M748.625 549.953C748.625 549.953 747.588 538.821 743.616 520.557M743.616 520.557C743.616 520.557 742.341 510.547 738.304 499.005M743.616 520.557C742.229 514.185 740.486 506.944 738.304 499.005" stroke="black" stroke-width="2.5"/>
<path d="M-106.477 544.571C-106.477 544.571 -79.896 351.861 98.4126 257.365C156.329 226.672 230.254 206.341 324.475 206.341C470.575 206.341 565.683 255.226 627.455 315.826C654.874 342.726 675.725 371.934 691.552 400.199C711.129 435.162 723.019 468.682 730.143 494.608M740.264 544.571C740.264 544.571 739.248 533.654 735.352 515.743M735.352 515.743C735.352 515.743 734.102 505.927 730.143 494.608M735.352 515.743C733.993 509.494 732.283 502.394 730.143 494.608" stroke="black" stroke-width="0.5"/>
<path d="M-105.211 548.066C-105.211 548.066 -78.7097 355.931 99.0666 261.718C156.81 231.116 230.514 210.846 324.454 210.846C470.118 210.846 564.942 259.585 626.529 320.004C653.867 346.824 674.656 375.944 690.436 404.126C709.954 438.984 721.808 472.404 728.911 498.253M739.002 548.066C739.002 548.066 737.989 537.182 734.105 519.325M734.105 519.325C734.105 519.325 732.859 509.538 728.911 498.253M734.105 519.325C732.749 513.094 731.045 506.015 728.911 498.253" stroke="black" stroke-width="0.5"/>
<path d="M-105.211 555.066C-105.211 555.066 -78.7097 362.931 99.0667 268.718C156.811 238.116 230.514 217.846 324.454 217.846C470.118 217.846 564.942 266.585 626.53 327.004C653.867 353.824 674.656 382.944 690.436 411.126C709.954 445.984 721.808 479.404 728.912 505.253M739.002 555.066C739.002 555.066 737.989 544.182 734.105 526.325M734.105 526.325C734.105 526.325 732.859 516.538 728.912 505.253M734.105 526.325C732.75 520.094 731.045 513.015 728.912 505.253" stroke="black" stroke-width="0.5"/>
<path d="M-103.223 562.271C-103.223 562.271 -76.8463 371.043 100.092 277.273C157.564 246.816 230.92 226.641 324.417 226.641C469.395 226.641 563.772 275.15 625.069 335.285C652.278 361.978 672.969 390.961 688.674 419.009C708.1 453.703 719.898 486.966 726.968 512.693M737.011 562.271C737.011 562.271 736.003 551.439 732.137 533.666M732.137 533.666C732.137 533.666 730.897 523.925 726.968 512.693M732.137 533.666C730.788 527.465 729.091 520.419 726.968 512.693" stroke="black" stroke-width="0.5"/>
<path d="M-101.641 581.64C-101.641 581.64 -75.3635 391.13 100.909 297.714C158.165 267.371 231.245 247.271 324.39 247.271C468.823 247.271 562.845 295.598 623.911 355.507C651.018 382.099 671.631 410.974 687.277 438.917C706.63 473.48 718.384 506.618 725.427 532.248M735.433 581.64C735.433 581.64 734.428 570.848 730.577 553.142M730.577 553.142C730.577 553.142 729.341 543.438 725.427 532.248M730.577 553.142C729.233 546.964 727.543 539.944 725.427 532.248" stroke="black" stroke-width="0.5"/>
<path d="M-108.277 579.552C-108.277 579.552 -81.5836 386.022 97.4841 291.124C155.647 260.3 229.887 239.882 324.509 239.882C471.231 239.882 566.744 288.975 628.779 349.833C656.315 376.847 677.255 406.18 693.149 434.566C712.809 469.677 724.749 503.34 731.904 529.377M742.068 579.552C742.068 579.552 741.048 568.589 737.135 550.602M737.135 550.602C737.135 550.602 735.88 540.744 731.904 529.377M737.135 550.602C735.77 544.326 734.053 537.195 731.904 529.377" stroke="black" stroke-width="0.5"/>
<path d="M-68.6211 565.972C-68.6211 565.972 -44.4172 390.493 117.948 304.447C170.686 276.498 238.001 257.984 323.797 257.984C456.834 257.984 543.438 302.498 599.687 357.68C624.655 382.175 643.641 408.771 658.053 434.509C675.879 466.346 686.706 496.869 693.194 520.477M702.409 565.972C702.409 565.972 701.484 556.031 697.936 539.722M697.936 539.722C697.936 539.722 696.798 530.784 693.194 520.477M697.936 539.722C696.699 534.032 695.142 527.566 693.194 520.477" stroke="black" stroke-width="0.5"/>
<path d="M-43.6484 582.518C-43.6484 582.518 -21.0125 418.407 130.835 337.935C180.156 311.797 243.11 294.482 323.348 294.482C447.767 294.482 528.761 336.113 581.365 387.72C604.716 410.627 622.473 435.501 635.951 459.572C652.622 489.346 662.747 517.892 668.815 539.97M677.433 582.518C677.433 582.518 676.568 573.221 673.25 557.969M673.25 557.969C673.25 557.969 672.186 549.609 668.815 539.97M673.25 557.969C672.093 552.647 670.637 546.6 668.815 539.97" stroke="black" stroke-width="0.5"/>
<path d="M51.3984 544.552C51.3984 544.552 68.067 423.704 179.884 364.447C216.203 345.199 262.561 332.449 321.646 332.449C413.265 332.449 472.907 363.105 511.644 401.107C528.839 417.976 541.914 436.292 551.839 454.017C564.116 475.942 571.572 496.963 576.04 513.221M582.386 544.552C582.386 544.552 581.749 537.706 579.306 526.474M579.306 526.474C579.306 526.474 578.522 520.319 576.04 513.221M579.306 526.474C578.454 522.556 577.381 518.103 576.04 513.221" stroke="black" stroke-width="0.5"/>
<path d="M207.227 482.307C207.227 482.307 214.112 432.388 260.3 407.911C275.303 399.96 294.452 394.693 318.859 394.693C356.704 394.693 381.34 407.356 397.342 423.054C404.444 430.022 409.845 437.588 413.945 444.91C419.016 453.966 422.096 462.649 423.942 469.365M426.563 482.307C426.563 482.307 426.3 479.479 425.291 474.84M425.291 474.84C425.291 474.84 424.967 472.297 423.942 469.365M425.291 474.84C424.939 473.221 424.496 471.382 423.942 469.365" stroke="black" stroke-width="0.5"/>
<path d="M193.621 376.223C244.363 185.306 388.89 74.9053 496.083 74.9053" stroke="#A9FB5C" stroke-width="3" stroke-dasharray="5 5"/>
<path d="M138.352 126.282C245.798 73.991 463.101 151.652 563.95 366.038" stroke="#A9FB5C" stroke-width="3" stroke-dasharray="5 5"/>
</svg>
