<svg width="395" height="291" viewBox="0 0 395 291" fill="none" xmlns="http://www.w3.org/2000/svg">
<path fill-rule="evenodd" clip-rule="evenodd" d="M316.95 9.94596L160.646 90.659C147.081 97.6728 140.361 111.144 142.352 126.952L163.135 287.265L341.218 195.308C354.782 188.294 361.502 174.823 359.511 159.014L341.965 24.1952C341.218 18.6289 337.858 13.7302 332.631 10.7246C327.404 7.71936 321.679 7.49637 316.95 9.94596Z" fill="white"/>
<path fill-rule="evenodd" clip-rule="evenodd" d="M304.384 150.555L344.331 137.752C344.331 137.752 354.162 125.394 347.318 116.265C340.349 107.136 306.126 121.164 300.774 128.289C295.299 135.302 304.384 150.555 304.384 150.555Z" fill="#A9FB5C"/>
<path fill-rule="evenodd" clip-rule="evenodd" d="M311.841 12.501L160.639 90.6538C147.447 97.4447 140.728 110.359 142.221 125.611C148.194 128.172 153.047 128.283 153.421 123.718C154.541 111.472 159.519 96.6656 178.061 86.9801C196.479 77.2946 310.721 13.169 311.841 12.501Z" fill="#A9FB5C"/>
<path fill-rule="evenodd" clip-rule="evenodd" d="M238.305 71.1768C238.305 71.1768 233.825 103.462 239.549 136.749C245.274 170.148 248.385 103.128 243.531 90.1027C238.553 77.0771 238.305 71.1768 238.305 71.1768Z" fill="#A9FB5C"/>
<path fill-rule="evenodd" clip-rule="evenodd" d="M282.487 49.1396C282.487 49.1396 259.962 112.597 261.206 153.454C262.326 194.312 303.02 176.499 296.424 138.425C289.954 100.24 282.487 49.1396 282.487 49.1396Z" fill="#A9FB5C"/>
<path fill-rule="evenodd" clip-rule="evenodd" d="M15.2865 195.092L171.592 114.379C185.032 107.477 200.837 107.811 213.904 115.492L312.341 172.826C321.923 178.393 329.514 185.629 341.461 184.738C359.506 183.402 359.88 165.144 359.88 165.144C359.506 183.291 351.292 190.082 336.857 197.541L168.356 284.6C154.792 291.614 139.111 291.169 126.044 283.598L14.5398 218.694C9.93521 215.91 7.44624 211.68 7.57087 206.67C7.6955 201.772 10.5573 197.653 15.2865 195.092Z" fill="url(#paint0_linear_242_644)"/>
<path fill-rule="evenodd" clip-rule="evenodd" d="M352.422 186.743C348.564 190.974 343.337 194.202 336.866 197.542L168.366 284.601C154.801 291.615 139.121 291.169 126.054 283.599L31.8477 228.714C57.4836 235.282 133.272 251.759 197.611 236.618C276.51 217.915 352.049 186.854 352.049 186.854L352.422 186.743Z" fill="#D9D9D9"/>
<path fill-rule="evenodd" clip-rule="evenodd" d="M282.353 44.1217C282.105 42.1176 283.722 40.3365 285.962 40.114C288.203 39.8915 290.194 41.2271 290.442 43.2312L304.505 152.111C304.754 154.003 303.261 155.896 301.02 156.118C298.78 156.341 296.789 154.894 296.416 152.89C287.829 117.932 282.851 81.7506 282.353 44.1217Z" fill="#363636"/>
<path fill-rule="evenodd" clip-rule="evenodd" d="M213.906 115.482L312.343 172.817C321.801 178.272 329.393 185.397 341.09 184.729C341.215 184.729 341.339 184.729 341.464 184.729C356.397 183.616 359.259 170.812 359.757 166.471C359.882 165.58 359.882 165.135 359.882 165.135C359.882 163.131 359.757 161.127 359.508 159.011L341.962 24.1923C341.215 18.626 337.855 13.7273 332.628 10.7216C330.015 9.27451 327.277 8.38349 324.539 8.27246C326.904 10.9441 328.272 14.0617 328.77 17.5129L346.193 152.332C346.691 155.56 346.691 158.677 346.441 161.683C345.943 166.248 341.464 169.587 336.486 169.253C326.654 168.474 319.81 162.24 311.347 157.341L212.786 100.007C199.719 92.3256 184.039 91.9916 170.474 99.0054L9.19129 182.28C-3.25356 188.737 0.355521 211.336 11.5556 216.346C8.94203 213.786 7.44906 210.446 7.57318 206.661C7.69781 201.762 10.5601 197.643 15.2888 195.083L171.594 114.37C185.034 107.467 200.839 107.801 213.906 115.482Z" fill="#363636"/>
<path fill-rule="evenodd" clip-rule="evenodd" d="M28.2317 172.481L9.19129 182.278C-3.25356 188.736 0.355521 211.335 11.5556 216.345C8.94203 213.784 7.44906 210.445 7.57317 206.66C7.6978 201.761 10.5601 197.642 15.2888 195.082L27.3603 188.847L28.2317 172.481Z" fill="#A9FB5C"/>
<path fill-rule="evenodd" clip-rule="evenodd" d="M238.047 67.0538C237.798 65.0497 239.291 63.2686 241.531 63.0461C243.771 62.7121 245.762 64.1591 246.011 66.1632L253.727 124.834C253.975 126.838 252.358 128.619 250.118 128.841C247.877 129.064 245.886 127.617 245.638 125.613C240.038 107.243 239.166 87.0928 238.047 67.0538Z" fill="#D9D9D9"/>
<path fill-rule="evenodd" clip-rule="evenodd" d="M230.948 125.399L312.336 172.825C321.794 178.28 329.386 185.405 341.083 184.737C341.208 184.737 341.332 184.737 341.457 184.737C356.39 183.624 359.252 170.821 359.75 166.479C359.875 165.588 359.875 165.143 359.875 165.143C359.875 163.139 359.75 161.135 359.501 159.019L358.133 148.443L344.319 137.756L346.186 152.34C346.684 155.569 346.684 158.686 346.435 161.692C345.937 166.256 341.457 169.596 336.479 169.262C326.647 168.482 319.803 162.248 311.34 157.35L229.703 109.812L230.948 125.399Z" fill="white"/>
<path fill-rule="evenodd" clip-rule="evenodd" d="M213.906 115.484L230.956 125.392L229.712 109.807L212.787 100.01C199.72 92.3278 184.04 91.9937 170.475 99.0076L154.795 107.134L153.426 123.722L171.595 114.371C185.035 107.469 200.839 107.803 213.906 115.484Z" fill="#A9FB5C"/>
<path fill-rule="evenodd" clip-rule="evenodd" d="M15.2943 195.092L171.599 114.379C185.04 107.477 200.844 107.811 213.911 115.492L291.815 160.803C302.269 166.926 317.825 177.502 328.154 182.178C332.136 183.959 336.367 185.072 341.469 184.738C359.514 183.402 359.888 165.144 359.888 165.144C359.763 174.051 357.648 180.285 353.79 185.184C351.052 188.078 346.945 190.416 340.971 190.861C335.745 191.195 331.389 190.082 327.282 188.189C319.193 184.404 308.74 177.056 300.526 172.269L213.413 121.615C200.346 113.933 184.666 113.6 171.101 120.613L14.7963 201.326C11.3118 203.107 8.82287 205.891 7.70276 209.231C7.57813 208.451 7.57812 207.561 7.57812 206.67C7.70327 201.772 10.5651 197.653 15.2943 195.092Z" fill="#A9FB5C"/>
<path fill-rule="evenodd" clip-rule="evenodd" d="M296.539 163.695C306.619 169.819 319.313 178.168 328.148 182.176C332.131 183.957 336.362 185.07 341.464 184.736C359.509 183.4 359.882 165.142 359.882 165.142C359.758 174.049 357.642 180.283 353.784 185.181C351.047 188.076 346.94 190.414 340.966 190.859C335.739 191.193 331.384 190.08 327.277 188.187C321.802 185.626 315.081 181.396 308.859 177.5C302.762 172.268 298.779 167.258 296.539 163.695Z" fill="#363636"/>
<path d="M219.387 118.702L219.387 118.702C238.891 129.873 256.577 143.284 274.088 156.705C270.643 154.868 267.298 153.06 264.037 151.298C244.831 140.92 228.509 132.101 211.438 127.734C191.256 122.572 170.033 123.63 141.74 135.613L158.425 124.147L158.284 123.941L158.425 124.147C172.914 114.189 183.007 109.882 192.035 109.523C201.058 109.164 209.062 112.748 219.387 118.702Z" fill="white" stroke="black" stroke-width="0.5"/>
<path fill-rule="evenodd" clip-rule="evenodd" d="M157.659 179.834L160.148 171.596C161.144 164.805 159.526 160.018 153.553 155.676L132.397 140.201C128.912 137.418 128.414 136.305 128.041 132.075L129.659 120.051L122.814 113.037L119.578 135.192V136.75V138.197L119.952 139.644L120.45 141.092L121.196 142.316L122.192 143.541L123.312 144.654L124.556 145.656L151.063 164.025L151.935 164.582L152.806 165.361L153.553 166.029L154.3 166.809L154.922 167.588L155.544 168.368L156.042 169.147L156.54 170.038L156.913 170.928L157.287 171.819L157.535 172.71L157.784 173.712L157.909 174.714L158.033 175.716V176.718L157.909 177.72L157.659 179.834Z" fill="#A9FB5C"/>
<path fill-rule="evenodd" clip-rule="evenodd" d="M128.788 136.082C128.414 134.969 128.29 133.856 128.041 132.075L129.659 120.051L122.814 113.037L119.578 135.192V136.75V138.197L119.952 139.644L120.45 141.092L121.196 142.316L122.192 143.541L123.312 144.654L124.556 145.656L139.739 156.121C139.365 155.898 128.539 147.548 127.916 143.429C127.792 142.094 128.166 139.31 128.788 136.082Z" fill="white"/>
<path fill-rule="evenodd" clip-rule="evenodd" d="M74.6561 141.092L70.9229 159.684C70.0515 164.36 72.043 168.813 76.523 171.485L111.243 191.97C116.345 195.087 122.07 196.645 127.795 196.757C139.742 197.091 157.04 189.632 157.911 177.719C158.409 172.264 155.92 167.366 151.066 164.026L124.559 145.657C120.825 143.096 119.083 139.311 119.581 135.192L122.816 113.037L79.1355 135.414C76.7717 136.639 75.1541 138.643 74.6561 141.092Z" fill="#949494"/>
<path fill-rule="evenodd" clip-rule="evenodd" d="M119.457 136.528C119.457 136.082 119.581 135.637 119.581 135.192L122.817 113.037L79.136 135.414L76.2737 149.998C76.0249 151.557 76.7717 153.004 78.2646 154.006C79.7581 154.897 81.5004 154.897 83.118 154.229L119.457 136.528Z" fill="#A9FB5C"/>
<path fill-rule="evenodd" clip-rule="evenodd" d="M118.084 165.807C108.253 168.257 104.644 176.049 109.995 183.286C115.346 190.522 127.542 194.419 137.249 191.969C147.08 189.631 150.689 181.838 145.338 174.602C140.111 167.366 127.791 163.358 118.084 165.807Z" fill="#363636"/>
<path fill-rule="evenodd" clip-rule="evenodd" d="M119.452 166.144C110.741 168.259 107.506 175.385 112.235 181.841C116.964 188.41 128.039 191.861 136.751 189.746C145.586 187.519 148.822 180.505 144.093 174.049C139.24 167.48 128.288 164.029 119.452 166.144Z" fill="#70DB27"/>
<path fill-rule="evenodd" clip-rule="evenodd" d="M123.437 167.808C120.201 168.588 117.961 170.369 117.09 172.484C117.961 171.928 119.205 171.482 120.45 171.148C127.917 169.367 137.25 172.373 141.357 177.939C141.855 178.607 142.352 179.275 142.601 180.054C143.348 178.05 142.975 175.712 141.357 173.486C137.872 168.811 129.908 166.25 123.437 167.808Z" fill="#A9FB5C"/>
<path fill-rule="evenodd" clip-rule="evenodd" d="M160.272 89.9981L316.452 9.28513C317.696 8.6171 319.066 8.1716 320.434 7.94907C321.803 7.61506 323.172 7.50357 324.666 7.61506C326.035 7.61506 327.528 7.94907 328.897 8.28309C330.266 8.72859 331.635 9.39616 333.003 10.1757C335.741 11.7343 337.981 13.7383 339.724 16.076C341.341 18.5251 342.461 21.1972 342.835 24.0919L360.257 158.911C360.382 160.024 360.506 161.026 360.63 162.028C360.63 163.03 360.63 164.032 360.63 165.145V165.479C360.506 169.932 360.008 173.717 358.888 177.057C357.893 180.286 356.399 183.18 354.408 185.629L353.786 186.409L353.039 187.188C352.417 187.968 351.795 188.636 351.048 189.193C350.302 189.861 349.555 190.529 348.808 191.085C347.813 192.087 346.568 192.866 345.448 193.757C344.204 194.536 342.959 195.315 341.591 195.983C281.856 226.71 222.246 257.659 162.512 288.497V287.94C156.538 289.945 150.316 290.724 144.093 290.167C137.747 289.611 131.4 287.606 125.551 284.155L14.1711 219.251C13.5489 218.917 13.0509 218.583 12.4288 218.137C11.9308 217.803 11.5575 217.358 11.06 217.024C8.44637 215.8 6.20666 213.573 4.46443 210.901C2.34883 207.561 0.979977 203.331 0.606605 199.212C0.357863 194.981 0.979976 190.751 2.97095 187.299C4.3398 184.961 6.20666 182.958 8.69563 181.733L72.2877 148.891L73.9053 140.987C74.1541 139.651 74.6521 138.426 75.5229 137.424C76.3943 136.311 77.3898 135.42 78.7586 134.752L122.937 112.152L129.906 119.166L142.226 112.709C143.346 107.922 145.462 103.468 148.448 99.5721C151.56 95.7874 155.418 92.4473 160.272 89.9981ZM317.323 10.6207L161.018 91.3342C156.538 93.6723 152.681 96.7895 149.818 100.463C146.832 104.248 144.84 108.59 143.72 113.377L143.595 113.711L129.533 120.948L122.564 113.934L79.63 135.977C78.3858 136.645 77.5144 137.313 76.8923 138.204C76.1456 139.094 75.6481 140.096 75.3988 141.209L73.7812 149.782L9.56649 182.958C7.32626 184.071 5.58403 185.852 4.46443 187.967C2.59757 191.085 1.97546 195.092 2.2242 199.101C2.59757 203.108 3.8418 207.005 5.9574 210.234C7.45089 212.683 9.56649 214.687 11.9308 215.8L12.1796 215.911C12.5529 216.357 13.0509 216.691 13.5484 217.024C13.9218 217.358 14.5439 217.692 15.0419 218.026L126.421 282.931C132.021 286.271 138.12 288.163 144.342 288.72C150.564 289.277 156.787 288.386 162.884 286.271L163.88 285.826V286.048C222.867 255.656 281.855 225.152 340.843 194.648C342.087 193.98 343.332 193.312 344.452 192.533C345.572 191.754 346.692 190.974 347.688 190.084L347.812 189.972C348.559 189.415 349.181 188.859 349.928 188.191C350.55 187.634 351.172 186.966 351.795 186.298L352.417 185.519L353.039 184.851C354.906 182.402 356.399 179.73 357.395 176.612C358.39 173.384 358.888 169.71 359.012 165.368V165.146C359.012 164.144 359.012 163.142 359.012 162.14C358.888 161.138 358.764 160.136 358.639 159.134L341.217 24.3158C340.843 21.5326 339.848 19.0835 338.354 16.8569C336.737 14.6303 334.745 12.8492 332.132 11.4016C330.888 10.6221 329.643 10.0656 328.399 9.73156C327.03 9.28605 325.785 9.06353 324.541 9.06353C323.297 8.95204 322.052 9.06353 320.808 9.28606C319.563 9.61914 318.443 9.95316 317.323 10.6207Z" fill="black" stroke="white"/>
<path fill-rule="evenodd" clip-rule="evenodd" d="M300.529 144.1L390.379 98.5672C393.242 97.1201 394.984 93.5574 394.362 90.6628L376.441 3.93798C375.819 1.15484 373.206 -0.181218 370.468 1.15484L287.711 43.1259L300.529 144.1Z" fill="#70DB27"/>
<path fill-rule="evenodd" clip-rule="evenodd" d="M300.653 144.654L390.504 99.0094C393.615 97.4508 395.482 93.6656 394.86 90.437L376.939 3.71213C376.317 0.48348 373.33 -0.852573 370.343 0.594977L287.711 42.566V43.1226L370.468 1.15151C373.206 -0.18455 375.819 1.15151 376.441 3.93465L394.362 90.6595C394.984 93.5541 393.242 97.1163 390.379 98.5639L300.529 144.097L300.653 144.654Z" fill="white"/>
<path fill-rule="evenodd" clip-rule="evenodd" d="M350.055 117.827L388.509 98.3445C391.496 96.7859 393.363 93.1122 392.741 89.9951L375.442 6.16442C374.82 3.04726 371.833 1.71121 369.096 3.15876L287.832 44.3503L288.454 49.026L350.055 117.827Z" fill="white"/>
<path fill-rule="evenodd" clip-rule="evenodd" d="M300.893 147.445L390.37 102.023L390.495 99.0176L300.645 144.662L300.893 147.445Z" fill="#363636"/>
<path fill-rule="evenodd" clip-rule="evenodd" d="M310.484 142.534L334.502 130.4L334.627 127.394L311.231 139.306L310.484 142.534Z" fill="#363636"/>
<path fill-rule="evenodd" clip-rule="evenodd" d="M394.981 92.2284L394.856 95.2345V94.6775L394.73 94.0095V93.4529L394.856 90.4473L394.981 91.0038V91.6718V92.2284Z" fill="white"/>
<path fill-rule="evenodd" clip-rule="evenodd" d="M390.5 99.0159L390.375 102.022L390.873 101.688L391.495 101.354L391.993 100.909L392.366 100.463L392.864 100.018L393.237 99.461L393.611 98.9044L393.984 98.3479L394.233 97.7909L394.357 97.1233L394.606 96.5663L394.731 95.8983L394.855 95.2307L394.98 92.2246L394.855 92.8926L394.731 93.5607L394.606 94.1172L394.357 94.7852L394.109 95.3418L393.735 95.8983L393.362 96.4553L392.989 97.0118L392.615 97.4569L392.117 98.0139L391.62 98.3479L391.122 98.7929L390.5 99.0159Z" fill="#A9FB5C"/>
<path fill-rule="evenodd" clip-rule="evenodd" d="M370.71 90.7736L370.834 102.686L368.221 104.022L368.096 92.1097L370.71 90.7736ZM383.279 92.1092L383.901 87.322L385.519 90.9957L383.279 92.1092ZM387.012 94.4473L389.501 93.2228L385.146 83.4258L382.905 84.6503C382.407 84.8729 382.034 85.4299 381.91 85.9864L380.043 98.01L382.781 96.5629L383.029 94.6703L386.389 93.0002L387.012 94.4473ZM379.421 94.4473C378.799 91.5527 375.065 93.3343 374.817 91.9982C374.817 91.5527 375.066 90.9961 375.812 90.5511C376.186 90.3286 377.181 89.6606 378.55 89.6606L378.425 87.2114C377.803 87.2114 376.932 87.4339 375.936 87.8795C373.323 89.2155 371.705 91.6646 372.203 93.7798C372.452 95.3383 373.945 95.5609 375.066 95.5609C376.186 95.5609 376.683 95.6723 376.808 96.2289C376.932 96.8969 376.186 97.676 375.439 98.01C374.07 98.7895 373.199 98.678 372.577 98.7895V101.35C373.199 101.35 374.443 101.016 375.564 100.46C378.425 99.012 379.919 96.6739 379.421 94.4473ZM366.976 92.6662L364.986 105.692L362.123 107.028L358.265 99.569C358.017 99.0125 357.892 98.901 357.394 98.901C356.772 98.7895 355.652 99.0125 354.656 99.235V98.901L359.136 96.6744C359.758 96.3404 360.256 96.5629 360.63 97.1199L362.994 102.798L364.238 94.1142L366.976 92.6662Z" fill="#363636"/>
<path fill-rule="evenodd" clip-rule="evenodd" d="M321.308 47.4582C321.059 47.6807 321.059 48.0147 321.183 48.1262L331.636 59.8158C331.761 59.9273 332.134 59.8158 332.259 59.4818L336.365 40.4444C336.49 40.1104 336.24 39.9989 335.992 40.1104L332.632 41.7804C332.507 41.7804 332.507 42.003 332.383 42.1144L330.641 51.4659C330.641 51.7999 330.268 52.0225 330.019 51.7999L325.166 45.7881C325.041 45.6766 324.917 45.6766 324.792 45.7881L321.308 47.4582ZM360.633 31.0929C360.757 31.3154 360.881 31.4269 361.131 31.3154L363.371 30.2019C363.496 30.0904 363.744 30.0904 363.744 30.3134L365.113 36.8817C365.735 40.2214 368.473 41.3349 371.335 39.8878C372.953 39.1083 374.073 37.8837 374.446 37.3272C374.571 37.2157 374.571 36.9932 374.446 36.8817L372.829 34.8776C372.704 34.6551 372.455 34.7661 372.331 34.8776C372.082 35.2116 371.709 35.6571 371.211 35.8797C370.215 36.4362 369.095 36.3252 368.722 34.4326L367.477 28.4208C367.477 28.1983 367.602 27.9753 367.726 27.8642L371.584 25.9717C371.709 25.8602 371.833 25.6376 371.833 25.4151L371.211 22.632C371.211 22.4095 370.962 22.298 370.837 22.4095L366.98 24.302C366.855 24.4135 366.606 24.302 366.606 24.1906L366.482 23.3C366.357 23.1885 366.357 23.1885 366.233 23.0775L362.624 21.9644C362.375 21.8529 362.002 22.1869 362.126 22.5209L362.872 26.0836C362.872 26.3061 362.748 26.5291 362.624 26.5291L360.383 27.7537C360.135 27.8652 360.01 28.0877 360.135 28.1992L360.633 31.0929ZM357.273 46.2336C357.398 46.3451 357.522 46.4562 357.771 46.3451L360.758 44.7866C361.007 44.6751 361.131 44.4525 361.007 44.23L356.527 22.0754C356.402 21.9639 356.278 21.8529 356.153 21.9639L353.042 23.5225C352.793 23.634 352.669 23.8565 352.793 23.968L357.273 46.2336ZM343.833 35.6576C339.477 37.8842 336.739 43.228 337.61 47.9037C338.606 52.468 342.837 54.3606 347.193 52.1344C351.673 49.9078 354.411 44.4525 353.415 39.8883C352.544 35.2121 348.312 33.431 343.833 35.6576ZM346.446 48.3492C343.957 49.6853 341.966 48.3492 341.468 45.9001C340.97 43.562 342.09 40.6678 344.579 39.3318C347.192 38.1072 349.183 39.3318 349.681 41.7809C350.179 44.23 349.059 47.1242 346.446 48.3492Z" fill="#363636"/>
<path fill-rule="evenodd" clip-rule="evenodd" d="M306.619 62.6004L311.97 46.6806C312.095 46.3466 312.468 46.3466 312.468 46.5691L314.335 55.1415L318.691 52.9149C318.94 52.8034 319.189 53.0264 319.065 53.249L313.712 69.1688C313.588 69.5028 313.214 69.6143 313.214 69.2802L311.347 60.7078L306.991 62.9344C306.743 63.0459 306.495 62.9344 306.619 62.6004Z" fill="#363636"/>
<path fill-rule="evenodd" clip-rule="evenodd" d="M298.663 129.284C298.912 129.284 299.036 129.284 299.161 129.284C299.908 129.395 300.405 129.84 300.654 130.62C300.903 131.844 300.281 133.18 299.285 133.959L299.037 132.067C299.037 131.844 299.037 131.733 299.037 131.51C299.037 131.399 298.912 131.288 298.912 131.288L298.663 129.284ZM298.414 126.946L299.534 126.389L299.908 127.836L298.539 128.504L298.414 126.946ZM302.521 127.168C302.645 127.057 302.769 126.946 302.894 126.834C304.138 126.166 305.258 126.834 305.508 128.059C305.756 129.506 305.134 131.065 303.765 131.733C302.148 132.512 301.152 131.51 300.779 130.063C300.53 128.95 300.654 127.725 301.277 126.5C301.65 125.72 302.272 125.053 303.019 124.496C303.268 124.384 303.393 124.273 303.641 124.162L304.015 123.939L304.388 125.498L303.89 125.72C303.765 125.832 303.641 125.832 303.392 125.943C303.019 126.278 302.645 126.723 302.521 127.168ZM307.623 123.94L305.134 125.276L304.761 123.717L309.117 121.491L309.365 122.604L307.872 129.506L306.254 130.397L307.623 123.94ZM310.61 124.274C310.236 124.051 309.988 123.717 309.863 123.272C309.614 121.936 310.485 120.711 311.605 120.155C312.601 119.598 313.721 119.821 313.969 121.045C314.094 121.602 313.969 122.158 313.721 122.604C314.219 122.715 314.592 123.16 314.716 123.828C314.965 125.164 314.094 126.5 312.849 127.057C311.729 127.725 310.485 127.502 310.236 126.277C310.112 125.498 310.236 124.83 310.61 124.274ZM319.445 121.268C319.321 121.491 319.072 121.602 318.947 121.602C317.703 122.27 316.707 121.714 316.458 120.489C316.21 119.042 316.832 117.483 318.201 116.815C319.818 116.036 320.69 117.038 321.063 118.596C321.312 119.71 321.188 120.935 320.565 122.159C320.192 122.939 319.57 123.495 318.947 123.94C318.699 124.163 318.449 124.274 318.201 124.386L317.827 124.608L317.454 123.05L317.952 122.827C318.077 122.827 318.325 122.716 318.45 122.605C318.823 122.382 319.072 122.048 319.321 121.603C319.321 121.491 319.445 121.379 319.445 121.268ZM322.806 114.477C324.548 113.586 325.419 115.145 325.793 116.703C326.041 118.262 325.917 120.489 324.175 121.379C322.433 122.27 321.562 120.6 321.188 119.153C320.814 117.594 321.064 115.368 322.806 114.477ZM327.161 114.366L326.414 115.368L325.792 114.032L327.161 112.362L328.405 111.694L329.774 118.485L328.157 119.264L327.161 114.366ZM332.014 109.801C333.757 108.911 334.628 110.469 335.001 112.028C335.25 113.586 335.25 115.813 333.384 116.703C331.642 117.594 330.77 115.924 330.397 114.477C330.148 112.918 330.272 110.692 332.014 109.801ZM303.392 130.286C303.89 130.063 304.014 129.395 303.89 128.95C303.765 128.393 303.517 128.17 303.019 128.393C302.645 128.616 302.521 128.95 302.397 129.284C302.397 129.395 302.397 129.395 302.397 129.395C302.521 129.952 302.77 130.62 303.392 130.286ZM312.228 124.274C311.979 124.608 311.73 124.942 311.73 125.387C311.854 125.832 312.228 125.832 312.601 125.609C312.975 125.498 313.223 125.164 313.223 124.719C313.099 124.163 312.601 124.163 312.228 124.274ZM312.103 122.715C312.352 122.493 312.477 122.159 312.477 121.825C312.352 121.491 312.103 121.491 311.854 121.602C311.481 121.825 311.232 122.048 311.356 122.382C311.481 122.715 311.73 122.715 312.103 122.715ZM318.45 118.262C317.952 118.485 317.952 119.153 317.952 119.598C318.077 120.044 318.325 120.266 318.823 120.044C319.072 119.932 319.321 119.71 319.445 119.264C319.321 118.708 319.072 117.928 318.45 118.262ZM323.055 115.924C322.432 116.258 322.681 117.928 322.806 118.262C322.806 118.708 323.304 120.267 323.926 119.933C324.548 119.599 324.299 118.04 324.175 117.483C324.05 117.037 323.801 115.59 323.055 115.924ZM332.264 111.249C331.642 111.583 331.89 113.253 332.015 113.587C332.14 114.032 332.513 115.591 333.135 115.257C333.757 114.923 333.508 113.253 333.384 112.808C333.259 112.362 333.01 110.915 332.264 111.249Z" fill="#363636"/>
<path fill-rule="evenodd" clip-rule="evenodd" d="M184.16 207.782L190.88 204.108C196.854 200.768 205.067 203.552 206.685 209.786L215.894 244.521C218.134 253.204 206.436 258.882 198.969 253.315L182.044 240.847L175.324 244.521C169.475 247.749 161.137 244.966 159.52 238.843L150.435 204.108C148.071 195.425 159.768 189.747 167.235 195.313L184.16 207.782Z" fill="white"/>
<path fill-rule="evenodd" clip-rule="evenodd" d="M168.485 236.95L159.401 202.215C159.152 201.435 160.521 201.102 161.392 201.658L183.419 217.912L195.739 211.121C196.361 210.787 197.481 211.121 197.73 211.678L206.814 246.412C207.063 247.192 205.694 247.526 204.823 246.969L182.797 230.715L170.476 237.506C169.854 237.84 168.735 237.506 168.485 236.95Z" fill="#70DB27"/>
<path fill-rule="evenodd" clip-rule="evenodd" d="M160.77 207.225L159.401 202.215C159.152 201.435 160.521 201.102 161.392 201.658L183.419 217.912L195.739 211.121C196.361 210.787 197.481 211.121 197.73 211.678L206.814 246.412C207.063 247.192 205.694 247.526 204.823 246.969L203.206 245.744L195.365 216.019C195.241 215.463 194.121 215.129 193.499 215.463L181.178 222.254L160.77 207.225Z" fill="#A9FB5C"/>
<path fill-rule="evenodd" clip-rule="evenodd" d="M346.435 161.687C345.937 166.251 341.457 169.591 336.479 169.257C329.634 168.701 324.159 165.583 318.684 162.021L325.404 180.835C326.275 181.392 327.146 181.837 328.141 182.171C331.999 183.952 336.231 185.066 341.084 184.732H341.209H341.457C352.035 183.841 356.515 177.273 358.507 171.929C358.755 169.925 359.005 167.81 359.005 165.361V165.138C359.005 164.136 359.005 163.134 359.005 162.133C358.88 161.131 358.756 160.129 358.631 159.127L357.138 147.771L344.32 137.752L346.187 152.336C346.684 155.564 346.684 158.681 346.435 161.687Z" fill="#949494"/>
<defs>
<linearGradient id="paint0_linear_242_644" x1="183.723" y1="109.453" x2="183.723" y2="289.582" gradientUnits="userSpaceOnUse">
<stop stop-color="#F5F5F5"/>
<stop offset="1" stop-color="#E5E5E5"/>
</linearGradient>
</defs>
</svg>
