<svg width="63" height="63" viewBox="0 0 63 63" fill="none" xmlns="http://www.w3.org/2000/svg">
<path d="M0.224609 31.5004C0.224609 14.3796 14.1038 0.500397 31.2246 0.500397C48.3454 0.500397 62.2246 14.3796 62.2246 31.5004C62.2246 48.6212 48.3454 62.5004 31.2246 62.5004C14.1038 62.5004 0.224609 48.6212 0.224609 31.5004Z" fill="#333333"/>
<mask id="mask0_12860_761" style="mask-type:alpha" maskUnits="userSpaceOnUse" x="16" y="16" width="31" height="31">
<rect x="16.2246" y="16.5004" width="30" height="30" fill="#D9D9D9"/>
</mask>
<g mask="url(#mask0_12860_761)">
<path d="M30.5996 37.1254H31.8496V35.8754H33.388C33.662 35.8754 33.8908 35.7836 34.0743 35.6001C34.2578 35.4165 34.3496 35.1878 34.3496 34.9138V31.837C34.3496 31.563 34.2578 31.3343 34.0743 31.1507C33.8908 30.9672 33.662 30.8754 33.388 30.8754H29.3496V28.3754H34.3496V27.1254H31.8496V25.8754H30.5996V27.1254H29.0612C28.7872 27.1254 28.5585 27.2172 28.3749 27.4007C28.1914 27.5843 28.0996 27.813 28.0996 28.087V31.1638C28.0996 31.4378 28.1914 31.6665 28.3749 31.8501C28.5585 32.0336 28.7872 32.1254 29.0612 32.1254H33.0996V34.6254H28.0996V35.8754H30.5996V37.1254ZM21.994 40.2504C21.4186 40.2504 20.9382 40.0577 20.5527 39.6723C20.1673 39.2869 19.9746 38.8064 19.9746 38.231V24.7698C19.9746 24.1944 20.1673 23.7139 20.5527 23.3285C20.9382 22.9431 21.4186 22.7504 21.994 22.7504H40.4552C41.0307 22.7504 41.5111 22.9431 41.8965 23.3285C42.2819 23.7139 42.4746 24.1944 42.4746 24.7698V38.231C42.4746 38.8064 42.2819 39.2869 41.8965 39.6723C41.5111 40.0577 41.0307 40.2504 40.4552 40.2504H21.994ZM21.994 39.0004H40.4552C40.6477 39.0004 40.8241 38.9203 40.9843 38.7601C41.1445 38.5999 41.2246 38.4235 41.2246 38.231V24.7698C41.2246 24.5773 41.1445 24.4009 40.9843 24.2407C40.8241 24.0805 40.6477 24.0004 40.4552 24.0004H21.994C21.8015 24.0004 21.6251 24.0805 21.4649 24.2407C21.3047 24.4009 21.2246 24.5773 21.2246 24.7698V38.231C21.2246 38.4235 21.3047 38.5999 21.4649 38.7601C21.6251 38.9203 21.8015 39.0004 21.994 39.0004Z" fill="white"/>
</g>
</svg>
