<svg width="327" height="205" viewBox="0 0 327 205" fill="none" xmlns="http://www.w3.org/2000/svg">
<path d="M160.556 192.169C160.519 191.019 161.425 190.062 162.575 190.025C163.725 189.994 164.682 190.894 164.718 192.044C164.75 193.194 163.85 194.152 162.7 194.188H162.637C161.513 194.188 160.592 193.298 160.556 192.169ZM149.03 194.146C147.88 194.105 146.985 193.137 147.027 191.987C147.068 190.843 148.036 189.942 149.186 189.989C150.336 190.03 151.231 190.993 151.189 192.143C151.148 193.267 150.222 194.147 149.108 194.147H149.03V194.146ZM174.064 191.456C173.955 190.311 174.792 189.297 175.937 189.182C177.082 189.073 178.097 189.911 178.211 191.056C178.32 192.201 177.483 193.215 176.338 193.33C176.27 193.335 176.203 193.34 176.134 193.34C175.073 193.34 174.168 192.534 174.064 191.457V191.456ZM135.392 193.168C134.247 193.043 133.42 192.018 133.545 190.879C133.664 189.734 134.689 188.907 135.834 189.031C136.979 189.151 137.806 190.176 137.681 191.321C137.567 192.387 136.667 193.178 135.615 193.178C135.543 193.178 135.465 193.178 135.392 193.167V193.168ZM187.494 189.838C187.302 188.703 188.066 187.627 189.2 187.44C190.335 187.247 191.407 188.012 191.599 189.146C191.786 190.281 191.021 191.352 189.887 191.545C189.773 191.565 189.658 191.571 189.544 191.571C188.545 191.571 187.66 190.852 187.494 189.838ZM121.847 191.228C120.717 191.024 119.963 189.942 120.171 188.808C120.374 187.679 121.456 186.924 122.585 187.133C123.72 187.335 124.469 188.418 124.266 189.552C124.084 190.556 123.21 191.264 122.221 191.264C122.096 191.264 121.971 191.248 121.847 191.228ZM200.768 187.257C200.492 186.143 201.173 185.014 202.287 184.738C203.405 184.463 204.534 185.144 204.811 186.264C205.086 187.377 204.405 188.506 203.286 188.782C203.12 188.824 202.953 188.844 202.787 188.844C201.85 188.839 201.001 188.204 200.768 187.257ZM108.474 188.282C107.36 187.991 106.699 186.852 106.991 185.737C107.282 184.629 108.416 183.964 109.53 184.254C110.644 184.546 111.304 185.68 111.013 186.794C110.768 187.73 109.925 188.35 109.004 188.35C108.828 188.35 108.651 188.324 108.474 188.282V188.282ZM213.797 183.651C213.428 182.559 214.016 181.377 215.103 181.014C216.191 180.644 217.371 181.227 217.741 182.315C218.111 183.407 217.528 184.588 216.435 184.952C216.216 185.03 215.992 185.067 215.769 185.067C214.9 185.067 214.093 184.515 213.797 183.651ZM95.376 184.255C94.2937 183.87 93.7265 182.678 94.1116 181.596C94.4966 180.508 95.6882 179.947 96.7706 180.332C97.8529 180.717 98.4201 181.908 98.035 182.991C97.7332 183.844 96.9267 184.375 96.0733 184.375C95.8391 184.375 95.605 184.333 95.376 184.255ZM226.462 178.901C225.993 177.855 226.457 176.621 227.508 176.148C228.554 175.68 229.787 176.143 230.26 177.194C230.729 178.24 230.266 179.474 229.214 179.947C228.939 180.071 228.647 180.129 228.361 180.129C227.57 180.129 226.81 179.671 226.462 178.901V178.901ZM82.6744 179.042C81.6337 178.552 81.1914 177.314 81.6805 176.273C82.1644 175.233 83.408 174.785 84.4487 175.274C85.4894 175.763 85.9369 177.002 85.4478 178.043C85.0888 178.797 84.3395 179.239 83.559 179.239C83.2624 179.239 82.9606 179.177 82.6744 179.042ZM238.575 172.885C237.987 171.897 238.31 170.622 239.299 170.034C240.282 169.441 241.562 169.769 242.15 170.752C242.738 171.741 242.416 173.021 241.426 173.609C241.093 173.806 240.729 173.9 240.365 173.9C239.657 173.9 238.965 173.541 238.575 172.885ZM70.5659 172.511C69.5876 171.902 69.2858 170.622 69.8894 169.644C70.493 168.665 71.7783 168.364 72.7565 168.967C73.7348 169.571 74.0366 170.856 73.433 171.834C73.0375 172.469 72.3559 172.818 71.6586 172.818C71.284 172.818 70.9093 172.719 70.5659 172.511ZM249.862 165.439C249.139 164.544 249.279 163.233 250.174 162.51C251.069 161.792 252.38 161.932 253.098 162.827C253.822 163.722 253.681 165.028 252.786 165.751C252.401 166.064 251.938 166.215 251.48 166.215C250.871 166.215 250.273 165.949 249.862 165.439ZM59.3472 164.451C58.4678 163.706 58.3481 162.395 59.0922 161.516C59.8311 160.636 61.1424 160.522 62.0218 161.261C62.9012 162 63.0157 163.311 62.2768 164.19C61.8657 164.685 61.2777 164.935 60.6845 164.935C60.211 164.935 59.7375 164.778 59.3472 164.451ZM259.852 156.338C258.978 155.594 258.874 154.278 259.618 153.404C260.362 152.529 261.679 152.425 262.553 153.169C263.428 153.919 263.532 155.23 262.787 156.104C262.376 156.588 261.788 156.838 261.2 156.838C260.721 156.838 260.243 156.671 259.852 156.338ZM49.5543 154.58C48.8258 153.69 48.9663 152.379 49.8561 151.655C50.7511 150.927 52.0624 151.062 52.7856 151.957C53.5089 152.847 53.3736 154.158 52.4838 154.887C52.0936 155.199 51.6305 155.35 51.1726 155.35C50.5638 155.35 49.9654 155.09 49.5543 154.58ZM267.767 145.401C266.737 144.891 266.315 143.642 266.825 142.612C267.33 141.581 268.578 141.155 269.609 141.665C270.639 142.175 271.066 143.423 270.556 144.454C270.192 145.187 269.453 145.614 268.687 145.614C268.375 145.614 268.064 145.546 267.766 145.401H267.767ZM42.0977 142.716C41.619 141.67 42.0821 140.431 43.1228 139.953C44.1687 139.479 45.4071 139.937 45.8806 140.983H45.8858C46.3646 142.029 45.9014 143.262 44.8556 143.741C44.5746 143.871 44.2832 143.928 43.9918 143.928C43.2008 143.928 42.4463 143.481 42.0977 142.716ZM272.46 132.756C271.326 132.585 270.535 131.528 270.706 130.389C270.873 129.254 271.93 128.469 273.069 128.635C274.204 128.802 274.994 129.863 274.822 130.997C274.671 132.033 273.782 132.777 272.767 132.777C272.663 132.777 272.564 132.772 272.46 132.756ZM38.2674 129.119C38.1374 127.974 38.9595 126.944 40.1043 126.819C41.249 126.689 42.2741 127.511 42.4042 128.656C42.5343 129.795 41.7121 130.826 40.5674 130.956C40.4893 130.961 40.4113 130.966 40.3332 130.966C39.2873 130.966 38.3871 130.181 38.2674 129.119ZM270.399 117.645C270.176 116.516 270.909 115.424 272.038 115.2C273.168 114.976 274.26 115.715 274.484 116.844C274.703 117.968 273.969 119.061 272.84 119.284C272.704 119.31 272.569 119.326 272.439 119.326C271.46 119.326 270.592 118.634 270.399 117.645ZM40.661 117.479C39.5371 117.219 38.8398 116.1 39.1 114.981C39.3602 113.862 40.4789 113.165 41.5977 113.425C42.7164 113.68 43.4189 114.799 43.1587 115.923C42.935 116.88 42.0764 117.531 41.1293 117.531C40.9732 117.531 40.8171 117.515 40.661 117.479ZM265.987 105.584C265.435 104.569 265.81 103.305 266.824 102.758C267.834 102.212 269.098 102.587 269.645 103.596C270.191 104.605 269.816 105.87 268.807 106.416C268.49 106.588 268.151 106.671 267.818 106.671C267.08 106.671 266.361 106.276 265.987 105.584ZM45.11 104.746C44.1109 104.174 43.7727 102.899 44.3503 101.905C44.9279 100.911 46.2027 100.573 47.1966 101.15C48.1905 101.723 48.5287 102.998 47.9511 103.991C47.566 104.658 46.8688 105.032 46.1507 105.032C45.7969 105.032 45.4378 104.939 45.11 104.746ZM258.421 95.0051C257.651 94.1517 257.718 92.8353 258.572 92.0651C259.425 91.295 260.742 91.3627 261.511 92.2212C262.281 93.0746 262.214 94.3911 261.36 95.1612C260.96 95.515 260.461 95.692 259.966 95.692C259.399 95.692 258.832 95.463 258.42 95.0051H258.421ZM52.8528 93.6886C52.0202 92.9029 51.9786 91.5864 52.7695 90.7487C53.5552 89.9109 54.8769 89.8745 55.7095 90.6654C56.5472 91.4511 56.5837 92.7676 55.7979 93.6054C55.3869 94.0373 54.8353 94.261 54.2837 94.261C53.7686 94.261 53.2586 94.0685 52.8528 93.6886ZM248.753 86.1072C247.842 85.3995 247.676 84.0934 248.383 83.188C249.086 82.2774 250.397 82.1109 251.303 82.8186C252.213 83.521 252.379 84.8271 251.672 85.7377C251.261 86.2633 250.646 86.5443 250.028 86.5443C249.58 86.5443 249.132 86.3986 248.753 86.1072ZM62.7394 84.4785C62.0525 83.5575 62.245 82.2514 63.166 81.5645C64.087 80.8777 65.3879 81.0702 66.08 81.9912C66.7668 82.9122 66.5743 84.2131 65.6533 84.9V84.9052C65.2786 85.181 64.8415 85.3162 64.4097 85.3162C63.7748 85.3162 63.1504 85.0248 62.7394 84.4785ZM237.748 78.7599C236.749 78.1823 236.411 76.9126 236.983 75.9136C237.56 74.9197 238.83 74.5763 239.829 75.1539C240.823 75.7262 241.166 77.0011 240.589 78.0002C240.204 78.6662 239.506 79.0357 238.783 79.0357C238.429 79.0357 238.075 78.9472 237.748 78.7599ZM73.958 76.9335C73.4013 75.9292 73.7603 74.6595 74.7646 74.1028C75.7688 73.5408 77.0385 73.905 77.5953 74.9093C78.1572 75.9136 77.793 77.1832 76.7887 77.74C76.4713 77.9169 76.1227 78.0054 75.7792 78.0054C75.0508 78.0054 74.3431 77.6203 73.958 76.9335ZM231.758 75.5337C230.729 75.0186 230.312 73.7697 230.827 72.7395C231.342 71.7144 232.596 71.2981 233.621 71.8132C234.652 72.3284 235.068 73.5772 234.547 74.6075C234.183 75.336 233.45 75.7575 232.69 75.7575C232.372 75.7575 232.055 75.6846 231.758 75.5337ZM86.0249 70.8246C85.5774 69.7631 86.0769 68.5455 87.1332 68.098C88.1947 67.6505 89.4123 68.1448 89.8598 69.2063C90.3073 70.2626 89.813 71.4854 88.7515 71.9329C88.4861 72.0422 88.2103 72.0942 87.945 72.0942C87.1332 72.0942 86.3579 71.6207 86.0249 70.8246ZM219.561 70.195C218.489 69.7839 217.948 68.5819 218.354 67.51C218.765 66.4329 219.967 65.8917 221.039 66.3028C222.116 66.7086 222.657 67.9106 222.246 68.9878C221.929 69.8203 221.138 70.3302 220.3 70.3302C220.055 70.3302 219.806 70.2834 219.561 70.195ZM98.6537 65.9854C98.3103 64.8874 98.9191 63.7218 100.017 63.3732C101.11 63.0298 102.281 63.6386 102.624 64.7313C102.973 65.8293 102.364 67 101.266 67.3435C101.058 67.4111 100.85 67.4423 100.641 67.4423C99.7568 67.4423 98.9347 66.8751 98.6537 65.9854ZM206.891 66.0166C205.783 65.7044 205.137 64.5544 205.455 63.4461C205.767 62.3429 206.917 61.6977 208.02 62.0099C209.129 62.3221 209.774 63.4721 209.462 64.5804C209.202 65.4962 208.364 66.0946 207.458 66.0946C207.271 66.0946 207.079 66.0686 206.891 66.0166ZM111.662 62.2909C111.407 61.1721 112.11 60.0586 113.234 59.8036C114.353 59.5487 115.466 60.2511 115.721 61.3699C115.976 62.4938 115.274 63.6074 114.155 63.8623C113.999 63.8988 113.843 63.9144 113.692 63.9144C112.739 63.9144 111.881 63.2587 111.662 62.2909ZM193.888 62.8997C192.764 62.6759 192.03 61.5832 192.254 60.4541C192.477 59.3249 193.575 58.5964 194.699 58.8202C195.828 59.0439 196.562 60.1367 196.338 61.2658C196.14 62.2545 195.271 62.9413 194.298 62.9413C194.163 62.9413 194.028 62.9309 193.887 62.8997H193.888ZM124.926 59.6423C124.754 58.508 125.54 57.4465 126.674 57.2747C127.814 57.1082 128.87 57.8888 129.042 59.0283C129.214 60.1627 128.428 61.2242 127.294 61.3959C127.19 61.4115 127.085 61.4167 126.981 61.4167C125.967 61.4167 125.082 60.6778 124.926 59.6423ZM180.681 60.7715C179.536 60.631 178.73 59.5903 178.871 58.4507C179.011 57.306 180.052 56.4994 181.197 56.6399C182.336 56.7856 183.143 57.8211 183.002 58.9659C182.872 60.017 181.973 60.7871 180.937 60.7871C180.853 60.7871 180.765 60.7819 180.682 60.7715H180.681ZM138.346 57.9668C138.257 56.822 139.111 55.8178 140.261 55.7293C141.405 55.6357 142.404 56.4942 142.498 57.639C142.587 58.7838 141.733 59.788 140.583 59.8765C140.531 59.8817 140.474 59.8869 140.417 59.8869C139.345 59.8869 138.434 59.0543 138.346 57.9668ZM167.345 59.5747C166.195 59.507 165.316 58.5288 165.383 57.3788C165.445 56.2341 166.429 55.3547 167.574 55.4171C168.724 55.4796 169.602 56.463 169.54 57.613C169.478 58.7213 168.557 59.5747 167.459 59.5747H167.344H167.345ZM151.854 57.2175C151.838 56.0675 152.765 55.1257 153.909 55.1153C155.059 55.0997 156.001 56.0207 156.017 57.1707C156.032 58.3206 155.106 59.2625 153.961 59.2781H153.935C152.796 59.2781 151.869 58.3623 151.854 57.2175Z" fill="black"/>
<path d="M325.993 106.361C326.06 129.044 310.046 156.774 290.309 168.17C270.565 179.567 254.453 170.387 254.386 147.704C254.325 125.015 270.333 97.2849 290.076 85.8887C309.813 74.4916 325.932 83.6777 325.993 106.361Z" fill="white" stroke="#1B1B1B" stroke-width="0.5" stroke-miterlimit="10"/>
<path d="M317.423 113.79C317.471 129.782 306.181 149.331 292.265 157.366C278.346 165.401 266.987 158.929 266.94 142.937C266.896 126.941 278.182 107.392 292.102 99.357C306.017 91.3225 317.38 97.7988 317.423 113.79Z" fill="white" stroke="#1B1B1B" stroke-width="0.5" stroke-miterlimit="10"/>
<path d="M298.703 73.6355C292.188 69.8498 283.173 70.3738 273.239 76.1094C253.497 87.5074 237.488 115.237 237.552 137.921C237.584 149.19 241.577 157.127 248.008 160.864L264.841 170.646C258.41 166.909 254.417 158.972 254.385 147.703C254.321 125.019 270.331 97.2889 290.072 85.8918C300.006 80.1562 309.022 79.6322 315.536 83.4179L298.703 73.6355Z" fill="#1B1B1B" stroke="#1B1B1B" stroke-width="0.5" stroke-miterlimit="10"/>
<path d="M295.619 110.575L294.511 111.214C294.475 111.24 294.437 111.271 294.4 111.295C292.037 112.789 289.828 114.802 287.787 117.349C285.265 120.495 283.352 123.956 282.045 127.713C281.728 128.628 281.464 129.538 281.245 130.443C281.231 130.505 281.214 130.541 281.158 130.572C279.498 131.529 277.837 132.488 276.176 133.446V133.515C276.201 133.691 276.229 133.864 276.251 134.04C276.372 134.991 276.493 135.941 276.614 136.893C276.616 136.913 276.622 136.932 276.628 136.96L280.574 134.681C280.563 135.141 280.545 135.596 280.546 136.039C280.548 136.482 280.569 136.908 280.582 137.353L276.942 139.454C276.963 139.634 276.984 139.799 277.004 139.965C277.112 140.803 277.218 141.641 277.326 142.477C277.343 142.614 277.363 142.75 277.376 142.89C277.382 142.961 277.408 142.962 277.467 142.929L277.473 142.926C277.952 142.648 278.431 142.371 278.91 142.094C279.389 141.818 279.867 141.542 280.347 141.265C280.486 141.185 280.625 141.105 280.764 141.025C280.903 140.945 281.043 140.864 281.182 140.781C281.238 140.749 281.258 140.758 281.276 140.808C281.946 142.747 282.999 144.208 284.455 145.159C286.45 146.462 288.868 146.7 291.699 145.878C292.649 145.602 293.615 145.196 294.593 144.673C294.624 144.658 294.652 144.648 294.682 144.635L295.638 144.084C295.763 144.001 295.889 143.916 296.015 143.836C297.304 143.011 298.56 142.01 299.78 140.822C300.894 139.737 301.941 138.536 302.932 137.238C303.274 136.792 303.603 136.332 303.938 135.879C303.959 135.851 303.98 135.826 304.001 135.798V135.764C303.965 135.699 303.925 135.639 303.891 135.572C303.389 134.595 302.888 133.618 302.386 132.641C302.374 132.618 302.362 132.598 302.347 132.57C302.226 132.748 302.112 132.918 301.998 133.088C301.217 134.238 300.394 135.336 299.497 136.341C298.558 137.389 297.576 138.284 296.547 139.023C296.084 139.357 295.62 139.659 295.155 139.927C294.885 140.083 294.615 140.227 294.345 140.36C292.979 141.03 291.677 141.375 290.444 141.395C289.382 141.41 288.43 141.182 287.589 140.71C286.681 140.2 285.956 139.433 285.411 138.416L285.393 138.378C285.392 138.373 285.394 138.366 285.396 138.35L285.499 138.291C289.213 136.146 292.926 134.003 296.641 131.859C296.717 131.815 296.754 131.769 296.786 131.669C297.247 130.211 297.712 128.753 298.176 127.296C298.187 127.261 298.197 127.227 298.212 127.177L298.109 127.236L284.594 135.039C284.467 135.112 284.465 135.113 284.453 134.976C284.38 134.196 284.382 133.372 284.45 132.511C284.455 132.456 284.472 132.427 284.511 132.404L284.522 132.398C284.543 132.388 284.563 132.376 284.584 132.364C284.612 132.349 284.639 132.332 284.666 132.316C289.495 129.527 294.323 126.74 299.152 123.955C299.235 123.907 299.273 123.856 299.308 123.749C299.769 122.291 300.234 120.833 300.699 119.375C300.708 119.344 300.716 119.313 300.729 119.266L285.351 128.145C285.409 127.969 285.459 127.813 285.516 127.654C286.998 123.504 289.291 120.031 292.401 117.258C293.273 116.481 294.159 115.85 295.055 115.333C295.377 115.146 295.701 114.976 296.025 114.817C297.828 113.939 299.462 113.702 300.956 114.001C301.392 114.087 301.807 114.222 302.232 114.336C302.252 114.342 302.27 114.348 302.297 114.356C302.351 114.189 302.401 114.031 302.452 113.872C302.93 112.372 303.407 110.871 303.886 109.372C303.897 109.339 303.913 109.304 303.927 109.269V109.234C303.689 109.184 303.453 109.13 303.214 109.085C302.066 108.872 300.849 108.861 299.538 109.118C298.706 109.281 297.856 109.543 296.985 109.927C296.559 110.116 296.13 110.334 295.703 110.539C295.675 110.553 295.648 110.562 295.621 110.572" fill="black"/>
<path d="M9.62685 133.155C9.55547 157.193 26.5263 186.578 47.442 198.655C68.3648 210.732 85.4391 201.005 85.5105 176.967C85.5758 152.922 68.6111 123.537 47.6884 111.46C26.7717 99.383 9.69126 109.118 9.62598 133.155H9.62685Z" fill="white" stroke="#1B1B1B" stroke-width="0.5" stroke-miterlimit="10"/>
<path d="M38.5437 98.473C45.4466 94.461 55.0009 95.0164 65.5284 101.095C86.4486 113.174 103.415 142.559 103.346 166.598C103.312 178.54 99.0809 186.952 92.2659 190.911L74.4273 201.278C81.2423 197.317 85.4736 188.907 85.5076 176.965C85.5755 152.926 68.6099 123.54 47.6898 111.461C37.1623 105.384 27.6079 104.828 20.7051 108.84L38.5437 98.4739V98.473Z" fill="#1B1B1B" stroke="#1B1B1B" stroke-width="0.5" stroke-miterlimit="10"/>
<mask id="mask0_12861_1853" style="mask-type:luminance" maskUnits="userSpaceOnUse" x="28" y="111" width="33" height="86">
<path d="M28.0225 177.356L28.2105 111.073L60.949 129.975L60.761 196.258L28.0225 177.356Z" fill="white"/>
</mask>
<g mask="url(#mask0_12861_1853)">
<path d="M44.478 144.387L28.1191 143.284L44.4257 162.901L60.8586 162.024L44.478 144.387Z" fill="#1B1B1B"/>
<path d="M44.5829 120.524L28.1318 139.139L44.4898 140.499L60.8704 157.885L44.5829 120.524Z" fill="#1B1B1B"/>
<path d="M60.8449 166.395C55.3505 166.532 49.856 166.664 44.3616 166.8C38.9429 160.416 33.5242 154.033 28.1055 147.655C33.4946 160.682 38.8793 173.706 44.2684 186.732V186.726C49.7925 179.952 55.3209 173.175 60.8449 166.395" fill="#1B1B1B"/>
</g>
<path d="M137.198 26.9876C137.149 43.6653 148.923 64.0535 163.436 72.4331C177.953 80.8126 189.799 74.0629 189.849 57.3852C189.894 40.7024 178.124 20.3143 163.607 11.9353C149.095 3.55575 137.243 10.3099 137.198 26.9876Z" fill="white" stroke="#1B1B1B" stroke-width="0.5" stroke-miterlimit="10"/>
<path d="M157.263 2.92429C162.053 0.140782 168.682 0.525978 175.986 4.74292C190.501 13.1231 202.273 33.5119 202.225 50.1903C202.202 58.4757 199.266 64.3118 194.538 67.0593L182.161 74.2517C186.889 71.5042 189.825 65.6682 189.848 57.3827C189.896 40.7037 178.125 20.3155 163.61 11.9353C156.306 7.71839 149.676 7.3332 144.887 10.1167L157.263 2.92429Z" fill="#1B1B1B" stroke="#1B1B1B" stroke-width="0.5" stroke-miterlimit="10"/>
<path d="M181.978 53.4795C181.943 65.8733 173.14 70.8896 162.354 64.6621C151.567 58.4346 142.819 43.285 142.855 30.8912C142.889 18.4974 151.695 13.4817 162.481 19.7098C173.268 25.9374 182.013 41.0856 181.978 53.4795Z" fill="white" stroke="#1B1B1B" stroke-width="0.5" stroke-miterlimit="10"/>
<path d="M160.822 47.5167C160.396 47.2704 159.958 46.9888 159.504 46.6661C159.497 44.8759 159.486 43.1198 159.53 41.3599C160.091 41.6699 160.633 41.9585 161.164 42.2648C161.999 42.7466 162.802 43.2719 163.596 43.9912C164.178 44.5185 164.722 45.1057 165.104 45.8963C165.786 47.3095 165.572 48.6963 164.578 48.7733C164.053 48.8137 163.438 48.6773 162.84 48.4613C162.182 48.2245 161.517 47.9177 160.822 47.516M160.474 39.4093C160.171 39.2343 159.864 39.0481 159.552 38.8586L159.566 33.9471C159.983 34.1637 160.397 34.3796 160.806 34.6158C161.746 35.1582 162.66 35.8067 163.531 36.8101C164.201 37.5805 164.527 38.4557 164.506 39.3063C164.487 40.1342 164.12 40.5396 163.466 40.5187C162.518 40.4878 161.523 40.0148 160.474 39.4093ZM159.446 27.042L157.311 25.8087L157.299 29.8362L153.082 27.4013L153.075 30.0067C153.414 30.2025 153.731 30.3723 154.037 30.5498C154.222 30.6565 154.404 30.7664 154.585 30.8857C155.412 31.4307 155.792 32.1095 155.792 33.0472C155.792 36.483 155.782 39.9132 155.766 43.3401C155.761 44.2514 155.522 44.3783 154.733 43.9451C154.576 43.8586 154.418 43.7689 154.259 43.6767C153.981 43.5163 153.697 43.3484 153.399 43.176C153.246 44.1263 153.111 44.9636 152.954 45.9431L157.281 48.4411L157.27 52.4661L159.417 53.7063L159.429 49.7502L161.12 50.7271L161.109 54.6573L163.282 55.912L163.293 51.9325C164.031 52.2426 164.708 52.5476 165.38 52.8071C167.953 53.8048 169.319 53.1607 169.678 50.7624C169.747 50.3046 169.747 49.7881 169.732 49.2715C169.681 47.5249 168.983 45.8995 167.591 44.4288C167.341 44.1655 167.089 43.9066 166.769 43.5763C167.478 43.4746 167.998 43.1981 168.275 42.5413C168.868 41.1325 168.626 38.1861 166.264 35.7417C165.856 35.3192 165.429 34.9246 165.002 34.5609C164.468 34.1087 163.924 33.7021 163.292 33.2026L163.304 29.2723L161.158 28.0334L161.147 31.8411L159.435 30.8529L159.446 27.042Z" fill="black"/>
<path d="M95.3216 37.697C99.753 37.697 103.345 34.1047 103.345 29.6733C103.345 25.2419 99.753 21.6495 95.3216 21.6495C90.8902 21.6495 87.2979 25.2419 87.2979 29.6733C87.2979 34.1047 90.8902 37.697 95.3216 37.697Z" fill="white" stroke="#242424" stroke-width="0.5" stroke-linecap="round" stroke-linejoin="round"/>
<path d="M226.281 105.267C228.712 105.267 230.683 103.296 230.683 100.865C230.683 98.4333 228.712 96.4624 226.281 96.4624C223.85 96.4624 221.879 98.4333 221.879 100.865C221.879 103.296 223.85 105.267 226.281 105.267Z" fill="white" stroke="#242424" stroke-width="0.5" stroke-linecap="round" stroke-linejoin="round"/>
<path d="M291.608 1.72357L295.989 10.9039L296.047 11.0264L296.182 11.0441L306.267 12.3735L298.889 19.3766L298.791 19.47L298.816 19.6034L300.668 29.6054L291.728 24.7532L291.608 24.6885L291.489 24.7532L282.549 29.6054L284.401 19.6034L284.426 19.47L284.327 19.3766L276.95 12.3735L287.035 11.0441L287.169 11.0264L287.228 10.9039L291.608 1.72357Z" fill="white" stroke="black" stroke-width="0.5"/>
<path d="M9.62391 75.2391L11.9836 80.1843L12.0421 80.3067L12.1766 80.3244L17.6089 81.0405L13.635 84.8129L13.5366 84.9063L13.5613 85.0397L14.5589 90.4275L9.74317 87.8138L9.62391 87.749L9.50466 87.8138L4.6889 90.4275L5.68655 85.0397L5.71125 84.9063L5.61285 84.8129L1.63889 81.0405L7.07123 80.3244L7.20576 80.3067L7.26419 80.1843L9.62391 75.2391Z" fill="white" stroke="black" stroke-width="0.5"/>
</svg>
