<svg width="332" height="229" viewBox="0 0 332 229" fill="none" xmlns="http://www.w3.org/2000/svg">
<path d="M184.024 191.886C183.988 190.736 184.893 189.778 186.043 189.742C187.193 189.711 188.151 190.611 188.187 191.761C188.218 192.911 187.318 193.869 186.168 193.905H186.106C184.982 193.905 184.061 193.015 184.024 191.886ZM172.499 193.863C171.349 193.822 170.454 192.854 170.495 191.704C170.537 190.559 171.505 189.659 172.655 189.706C173.805 189.747 174.7 190.71 174.658 191.86C174.617 192.984 173.69 193.864 172.577 193.864H172.499V193.863ZM197.533 191.173C197.423 190.028 198.261 189.014 199.406 188.899C200.551 188.79 201.565 189.628 201.68 190.773C201.789 191.918 200.952 192.932 199.807 193.047C199.739 193.052 199.671 193.057 199.603 193.057C198.542 193.057 197.637 192.251 197.533 191.174V191.173ZM158.86 192.885C157.716 192.76 156.888 191.735 157.013 190.596C157.133 189.451 158.158 188.624 159.303 188.748C160.448 188.868 161.275 189.893 161.15 191.038C161.036 192.104 160.135 192.895 159.084 192.895C159.011 192.895 158.933 192.895 158.86 192.884V192.885ZM210.962 189.555C210.77 188.42 211.535 187.344 212.669 187.156C213.803 186.964 214.875 187.729 215.068 188.863C215.255 189.998 214.49 191.069 213.356 191.261C213.241 191.282 213.127 191.288 213.012 191.288C212.013 191.288 211.129 190.569 210.962 189.555ZM145.315 190.945C144.186 190.741 143.432 189.659 143.64 188.525C143.843 187.396 144.925 186.641 146.054 186.849C147.189 187.052 147.938 188.135 147.735 189.269C147.553 190.273 146.679 190.98 145.69 190.98C145.565 190.98 145.44 190.965 145.315 190.945ZM224.236 186.974C223.961 185.86 224.642 184.731 225.756 184.455C226.874 184.18 228.003 184.861 228.279 185.98C228.555 187.094 227.874 188.223 226.755 188.499C226.588 188.541 226.421 188.561 226.255 188.561C225.319 188.556 224.47 187.921 224.236 186.974ZM131.942 187.999C130.829 187.707 130.168 186.568 130.459 185.454C130.751 184.346 131.885 183.681 132.999 183.971C134.112 184.263 134.773 185.397 134.482 186.511C134.237 187.447 133.394 188.067 132.473 188.067C132.296 188.067 132.119 188.04 131.942 187.999V187.999ZM237.266 183.368C236.896 182.276 237.484 181.094 238.572 180.731C239.659 180.361 240.84 180.943 241.21 182.032C241.579 183.124 240.997 184.305 239.903 184.669C239.685 184.747 239.461 184.784 239.238 184.784C238.368 184.784 237.562 184.232 237.266 183.368ZM118.845 183.972C117.762 183.587 117.195 182.395 117.58 181.313C117.965 180.225 119.157 179.663 120.239 180.048C121.322 180.434 121.889 181.625 121.504 182.707C121.202 183.561 120.395 184.092 119.542 184.092C119.308 184.092 119.074 184.05 118.845 183.972ZM249.931 178.618C249.462 177.572 249.925 176.338 250.976 175.865C252.022 175.397 253.256 175.86 253.729 176.911C254.197 177.957 253.734 179.19 252.683 179.663C252.407 179.788 252.116 179.846 251.829 179.846C251.038 179.846 250.279 179.388 249.931 178.618V178.618ZM106.143 178.759C105.102 178.269 104.66 177.031 105.149 175.99C105.633 174.95 106.877 174.502 107.917 174.991C108.958 175.48 109.406 176.719 108.917 177.759C108.558 178.513 107.808 178.956 107.028 178.956C106.731 178.956 106.429 178.894 106.143 178.759ZM262.044 172.602C261.456 171.614 261.778 170.339 262.767 169.751C263.751 169.158 265.031 169.485 265.618 170.469C266.206 171.458 265.884 172.738 264.895 173.326C264.562 173.523 264.198 173.617 263.834 173.617C263.126 173.617 262.434 173.258 262.044 172.602ZM94.0346 172.228C93.0564 171.619 92.7546 170.339 93.3582 169.361C93.9618 168.382 95.247 168.081 96.2253 168.684C97.2035 169.288 97.5054 170.573 96.9017 171.551C96.5063 172.186 95.8246 172.535 95.1274 172.535C94.7527 172.535 94.3781 172.436 94.0346 172.228ZM273.331 165.156C272.607 164.261 272.748 162.95 273.643 162.227C274.538 161.509 275.849 161.649 276.567 162.544C277.291 163.439 277.15 164.745 276.255 165.468C275.87 165.781 275.407 165.931 274.949 165.931C274.34 165.931 273.742 165.666 273.331 165.156ZM82.816 164.167C81.9366 163.423 81.8169 162.112 82.561 161.233C83.2999 160.353 84.6112 160.239 85.4905 160.978C86.3699 161.717 86.4844 163.028 85.7455 163.907C85.3344 164.402 84.7464 164.651 84.1532 164.651C83.6797 164.651 83.2062 164.495 82.816 164.167ZM283.321 156.055C282.447 155.311 282.343 153.995 283.087 153.121C283.831 152.246 285.148 152.142 286.022 152.886C286.897 153.636 287.001 154.947 286.256 155.821C285.845 156.305 285.257 156.555 284.669 156.555C284.19 156.555 283.711 156.388 283.321 156.055ZM73.023 154.297C72.2945 153.407 72.435 152.095 73.3248 151.372C74.2198 150.644 75.5311 150.779 76.2544 151.674C76.9777 152.564 76.8424 153.875 75.9526 154.604C75.5623 154.916 75.0992 155.067 74.6413 155.067C74.0325 155.067 73.4341 154.806 73.023 154.297ZM291.236 145.118C290.205 144.608 289.784 143.359 290.293 142.329C290.799 141.298 292.047 140.872 293.078 141.382C294.107 141.891 294.535 143.14 294.025 144.171C293.66 144.904 292.922 145.331 292.156 145.331C291.844 145.331 291.532 145.263 291.235 145.118H291.236ZM65.5665 142.433C65.0877 141.387 65.5509 140.148 66.5915 139.67C67.6374 139.196 68.8759 139.654 69.3494 140.7H69.3546C69.8333 141.746 69.3702 142.979 68.3243 143.458C68.0433 143.588 67.7519 143.645 67.4605 143.645C66.6696 143.645 65.9151 143.198 65.5665 142.433ZM295.929 132.473C294.794 132.301 294.004 131.245 294.175 130.106C294.342 128.971 295.398 128.186 296.537 128.352C297.672 128.519 298.463 129.58 298.291 130.714C298.14 131.75 297.25 132.494 296.236 132.494C296.132 132.494 296.033 132.489 295.929 132.473ZM61.7362 128.836C61.6061 127.691 62.4283 126.661 63.573 126.536C64.7178 126.406 65.7429 127.228 65.8729 128.373C66.003 129.512 65.1809 130.543 64.0361 130.673C63.9581 130.678 63.88 130.683 63.802 130.683C62.7561 130.683 61.8559 129.897 61.7362 128.836ZM293.868 117.362C293.644 116.233 294.378 115.14 295.507 114.917C296.636 114.693 297.729 115.432 297.953 116.561C298.171 117.685 297.438 118.778 296.309 119.001C296.173 119.027 296.037 119.043 295.907 119.043C294.929 119.043 294.061 118.351 293.868 117.362ZM64.1298 117.196C63.0058 116.936 62.3086 115.817 62.5687 114.698C62.8289 113.579 63.9477 112.882 65.0664 113.142C66.1852 113.397 66.8876 114.516 66.6274 115.64C66.4037 116.597 65.5451 117.248 64.5981 117.248C64.442 117.248 64.2859 117.232 64.1298 117.196ZM289.456 105.301C288.903 104.286 289.279 103.022 290.293 102.475C291.302 101.929 292.567 102.303 293.114 103.313C293.66 104.322 293.285 105.587 292.276 106.133C291.958 106.305 291.62 106.388 291.287 106.388C290.548 106.388 289.83 105.993 289.456 105.301ZM68.5788 104.463C67.5797 103.891 67.2415 102.616 67.819 101.622C68.3966 100.628 69.6715 100.29 70.6653 100.867C71.6592 101.44 71.9974 102.715 71.4198 103.708C71.0348 104.374 70.3375 104.749 69.6194 104.749C69.2656 104.749 68.9066 104.655 68.5788 104.463ZM281.89 94.722C281.12 93.8686 281.187 92.5522 282.041 91.7821C282.894 91.0119 284.21 91.0796 284.98 91.9382C285.75 92.7915 285.683 94.108 284.829 94.8781C284.429 95.232 283.929 95.4089 283.435 95.4089C282.867 95.4089 282.3 95.1799 281.889 94.722H281.89ZM76.3215 93.4055C75.489 92.6198 75.4473 91.3033 76.2383 90.4656C77.024 89.6278 78.3457 89.5914 79.1782 90.3823C80.016 91.168 80.0524 92.4845 79.2667 93.3223C78.8556 93.7542 78.304 93.9779 77.7525 93.9779C77.2373 93.9779 76.7274 93.7854 76.3215 93.4055ZM272.222 85.8241C271.311 85.1164 271.145 83.8103 271.852 82.9049C272.555 81.9943 273.866 81.8278 274.771 82.5355C275.682 83.238 275.848 84.544 275.141 85.4546C274.73 85.9802 274.115 86.2612 273.497 86.2612C273.049 86.2612 272.601 86.1155 272.222 85.8241ZM86.2081 84.1954C85.5212 83.2744 85.7138 81.9683 86.6348 81.2815C87.5558 80.5946 88.8567 80.7871 89.5487 81.7081C90.2356 82.6292 90.0431 83.93 89.122 84.6169V84.6221C88.7474 84.8979 88.3103 85.0332 87.8784 85.0332C87.2436 85.0332 86.6192 84.7418 86.2081 84.1954ZM261.216 78.4768C260.217 77.8992 259.88 76.6296 260.451 75.6305C261.029 74.6366 262.299 74.2932 263.298 74.8708C264.292 75.4432 264.635 76.718 264.057 77.7171C263.673 78.3831 262.975 78.7526 262.252 78.7526C261.898 78.7526 261.544 78.6641 261.216 78.4768ZM97.4268 76.6504C96.87 75.6461 97.2291 74.3765 98.2333 73.8197C99.2376 73.2577 100.507 73.622 101.064 74.6262C101.626 75.6305 101.262 76.9001 100.257 77.4569C99.9401 77.6338 99.5914 77.7223 99.248 77.7223C98.5195 77.7223 97.8118 77.3372 97.4268 76.6504ZM255.227 75.2506C254.197 74.7355 253.781 73.4867 254.296 72.4564C254.811 71.4313 256.065 71.015 257.09 71.5302C258.12 72.0453 258.537 73.2941 258.016 74.3244C257.652 75.0529 256.918 75.4744 256.159 75.4744C255.841 75.4744 255.524 75.4015 255.227 75.2506ZM109.494 70.5415C109.046 69.48 109.546 68.2624 110.602 67.8149C111.663 67.3674 112.881 67.8617 113.329 68.9232C113.776 69.9795 113.282 71.2023 112.22 71.6498C111.955 71.7591 111.679 71.8111 111.414 71.8111C110.602 71.8111 109.827 71.3376 109.494 70.5415ZM243.03 69.9119C241.958 69.5008 241.417 68.2988 241.823 67.2269C242.234 66.1498 243.436 65.6086 244.508 66.0197C245.585 66.4256 246.126 67.6276 245.715 68.7047C245.398 69.5372 244.606 70.0472 243.769 70.0472C243.524 70.0472 243.275 70.0003 243.03 69.9119ZM122.122 65.7023C121.779 64.6043 122.388 63.4388 123.486 63.0901C124.578 62.7467 125.749 63.3555 126.093 64.4482C126.441 65.5462 125.833 66.717 124.735 67.0604C124.526 67.128 124.318 67.1592 124.11 67.1592C123.226 67.1592 122.403 66.5921 122.122 65.7023ZM230.36 65.7335C229.251 65.4213 228.606 64.2713 228.924 63.163C229.236 62.0598 230.386 61.4146 231.489 61.7268C232.597 62.039 233.243 63.189 232.931 64.2973C232.671 65.2131 231.833 65.8115 230.927 65.8115C230.74 65.8115 230.548 65.7855 230.36 65.7335ZM135.131 62.0078C134.876 60.8891 135.579 59.7755 136.703 59.5206C137.821 59.2656 138.935 59.968 139.19 61.0868C139.445 62.2107 138.742 63.3243 137.624 63.5793C137.467 63.6157 137.311 63.6313 137.16 63.6313C136.208 63.6313 135.35 62.9757 135.131 62.0078ZM217.356 62.6166C216.233 62.3929 215.499 61.3001 215.722 60.171C215.946 59.0418 217.044 58.3133 218.168 58.5371C219.297 58.7608 220.031 59.8536 219.807 60.9827C219.609 61.9714 218.74 62.6582 217.767 62.6582C217.632 62.6582 217.496 62.6478 217.356 62.6166H217.356ZM148.395 59.3592C148.223 58.2249 149.009 57.1634 150.143 56.9917C151.283 56.8252 152.339 57.6057 152.511 58.7452C152.682 59.8796 151.897 60.9411 150.762 61.1128C150.658 61.1284 150.554 61.1336 150.45 61.1336C149.435 61.1336 148.551 60.3947 148.395 59.3592ZM204.15 60.4884C203.005 60.3479 202.199 59.3072 202.34 58.1677C202.48 57.0229 203.521 56.2163 204.666 56.3568C205.805 56.5025 206.612 57.538 206.471 58.6828C206.341 59.7339 205.441 60.504 204.405 60.504C204.322 60.504 204.234 60.4988 204.15 60.4884H204.15ZM161.814 57.6837C161.726 56.539 162.579 55.5347 163.729 55.4462C164.874 55.3526 165.873 56.2111 165.967 57.3559C166.055 58.5007 165.202 59.5049 164.052 59.5934C164 59.5986 163.943 59.6038 163.885 59.6038C162.814 59.6038 161.903 58.7713 161.814 57.6837ZM190.813 59.2916C189.663 59.224 188.785 58.2457 188.852 57.0957C188.914 55.951 189.898 55.0716 191.042 55.134C192.192 55.1965 193.071 56.1799 193.009 57.3299C192.947 58.4382 192.025 59.2916 190.927 59.2916H190.813H190.813ZM175.323 56.9344C175.307 55.7845 176.233 54.8426 177.378 54.8322C178.528 54.8166 179.47 55.7376 179.485 56.8876C179.501 58.0376 178.575 58.9794 177.43 58.995H177.404C176.265 58.995 175.338 58.0792 175.323 56.9344Z" fill="black"/>
<path d="M321.914 134.501C321.958 149.315 311.499 167.425 298.609 174.868C285.715 182.311 275.192 176.316 275.149 161.501C275.109 146.683 285.563 128.573 298.458 121.131C311.348 113.687 321.875 119.687 321.914 134.501Z" fill="#C4E1F5" stroke="#1B1B1B" stroke-width="0.5" stroke-miterlimit="10"/>
<path d="M304.093 113.129C299.839 110.657 293.951 110.999 287.463 114.745C274.57 122.189 264.114 140.299 264.156 155.113C264.177 162.473 266.785 167.656 270.985 170.097L281.979 176.486C277.779 174.045 275.171 168.862 275.15 161.502C275.108 146.687 285.564 128.577 298.457 121.133C304.944 117.388 310.833 117.045 315.087 119.518L304.093 113.129Z" fill="#1B1B1B" stroke="#1B1B1B" stroke-width="0.5" stroke-miterlimit="10"/>
<path d="M54.4616 152.072C54.4085 169.951 67.031 191.807 82.5876 200.79C98.1495 209.773 110.849 202.538 110.902 184.659C110.951 166.775 98.3327 144.919 82.7709 135.936C67.2135 126.954 54.5095 134.194 54.4609 152.072H54.4616Z" fill="#ECECEC" stroke="#1B1B1B" stroke-width="0.5" stroke-miterlimit="10"/>
<path d="M75.9711 126.277C81.1053 123.293 88.2116 123.706 96.0417 128.227C111.602 137.211 124.221 159.067 124.17 176.947C124.144 185.829 120.997 192.085 115.928 195.03L102.66 202.741C107.729 199.795 110.876 193.539 110.902 184.657C110.952 166.777 98.3336 144.921 82.7737 135.937C74.9436 131.417 67.8373 131.004 62.7031 133.988L75.9711 126.277V126.277Z" fill="#1B1B1B" stroke="#1B1B1B" stroke-width="0.5" stroke-miterlimit="10"/>
<mask id="mask0_314_1389" style="mask-type:luminance" maskUnits="userSpaceOnUse" x="68" y="135" width="25" height="65">
<path d="M68.1445 184.948L68.2844 135.648L92.6346 149.707L92.4947 199.007L68.1445 184.948Z" fill="white"/>
</mask>
<g mask="url(#mask0_314_1389)">
<path d="M80.3861 160.43L68.2188 159.609L80.3472 174.2L92.5696 173.548L80.3861 160.43Z" fill="#1B1B1B"/>
<path d="M80.4625 142.68L68.2266 156.525L80.3932 157.536L92.5767 170.468L80.4625 142.68Z" fill="#1B1B1B"/>
<path d="M92.5579 176.798C88.4712 176.9 84.3846 176.997 80.2979 177.099C76.2676 172.351 72.2373 167.603 68.207 162.859C72.2153 172.548 76.2204 182.235 80.2287 191.924V191.92C84.3373 186.881 88.4492 181.84 92.5579 176.797" fill="#1B1B1B"/>
</g>
<path d="M223.91 57.6464C223.864 73.1599 234.817 92.1249 248.316 99.9195C261.82 107.714 272.839 101.436 272.886 85.922C272.927 70.4038 261.979 51.4388 248.475 43.6448C234.976 35.8501 223.952 42.1328 223.91 57.6464Z" fill="#FFC6CC" stroke="#1B1B1B" stroke-width="0.5" stroke-miterlimit="10"/>
<path d="M242.575 35.2624C247.031 32.6731 253.197 33.0315 259.991 36.954C273.493 44.7493 284.443 63.7149 284.399 79.229C284.377 86.9361 281.646 92.3647 277.248 94.9204L265.735 101.611C270.133 99.0551 272.864 93.6264 272.886 85.9193C272.93 70.4046 261.98 51.4396 248.479 43.6444C241.684 39.7218 235.518 39.3635 231.062 41.9527L242.575 35.2624Z" fill="#1B1B1B" stroke="#1B1B1B" stroke-width="0.5" stroke-miterlimit="10"/>
<path d="M265.564 82.2883C265.532 93.817 257.344 98.4832 247.31 92.6903C237.276 86.8975 229.139 72.8055 229.172 61.2768C229.204 49.7482 237.395 45.0825 247.429 50.8759C257.462 56.6688 265.597 70.7596 265.564 82.2883Z" fill="#FFC6CC" stroke="#1B1B1B" stroke-width="0.5" stroke-miterlimit="10"/>
<path d="M242.893 73.611C241.843 72.9111 240.983 72.0416 240.314 71.0026C239.651 69.9599 239.32 68.8753 239.32 67.766C239.32 67.5289 239.341 67.2636 239.384 66.953C239.496 66.266 239.659 65.4595 239.87 64.525C240.469 62.0112 242.019 61.5881 244.513 63.2509C245.19 63.7019 245.803 64.246 246.338 64.8825C246.874 65.502 247.296 66.1903 247.606 66.9389C247.916 67.6791 248.071 68.4175 248.071 69.1543C248.071 69.3744 248.05 69.6398 248.008 69.9503C247.874 70.801 247.719 71.6207 247.529 72.383C247.219 73.6244 246.69 74.3645 245.929 74.577C245.175 74.7857 244.161 74.4565 242.893 73.611ZM243.083 71.4514C243.576 71.7802 243.992 71.8795 244.337 71.7625C244.689 71.6502 244.943 71.2858 245.091 70.6562C245.295 69.7932 245.45 69.0328 245.556 68.358C245.591 68.1613 245.612 67.9468 245.612 67.7097C245.612 66.7443 245.197 65.9845 244.358 65.4255C243.865 65.0967 243.442 64.9927 243.09 65.105C242.745 65.2221 242.498 65.5912 242.35 66.2208C242.188 66.8241 242.033 67.5845 241.871 68.5095C241.836 68.6977 241.815 68.9038 241.815 69.1409C241.808 70.1185 242.237 70.8878 243.083 71.4514Z" fill="#1B1B1B"/>
<path d="M248.683 77.3208C248.585 77.2551 248.514 77.1742 248.458 77.0604C248.415 76.9476 248.401 76.845 248.415 76.7443L250.24 67.6298C250.254 67.5207 250.304 67.4604 250.388 67.4406C250.466 67.416 250.55 67.4385 250.642 67.4996L254.158 69.8435C255.137 70.4964 255.919 71.2634 256.511 72.1407C257.11 73.0311 257.413 73.9359 257.413 74.8589C257.413 75.1214 257.385 75.3821 257.336 75.6371C257.117 76.7109 256.673 77.3126 255.997 77.446C255.335 77.5887 254.426 77.2707 253.27 76.5004L251.487 75.3119L250.882 78.3884C250.86 78.4928 250.818 78.5578 250.734 78.5776C250.656 78.6022 250.571 78.5797 250.48 78.5186L248.683 77.3208ZM253.362 74.3682C253.735 74.6171 254.052 74.71 254.327 74.6476C254.609 74.5899 254.792 74.3648 254.884 73.9686C254.912 73.8096 254.926 73.6581 254.926 73.5226C254.926 73.2177 254.848 72.929 254.7 72.6694C254.552 72.4014 254.292 72.1429 253.932 71.9034L252.347 70.8465L251.847 73.3583L253.362 74.3682Z" fill="#1B1B1B"/>
<path d="M124.168 70.6201C124.213 85.8551 113.457 104.48 100.2 112.134C86.9389 119.789 76.1173 113.623 76.0717 98.3882C76.0308 83.1486 86.7826 64.524 100.044 56.8698C113.301 49.2151 124.127 55.385 124.168 70.6201Z" fill="#A9C4FF" stroke="#1B1B1B" stroke-width="0.5" stroke-miterlimit="10"/>
<path d="M105.838 48.6389C101.463 46.0961 95.4073 46.448 88.735 50.3002C75.4756 57.9555 64.7227 76.5806 64.7659 91.8162C64.7873 99.385 67.469 104.716 71.7884 107.226L83.0946 113.796C78.7752 111.286 76.0934 105.955 76.0721 98.3865C76.0288 83.1503 86.7818 64.5257 100.041 56.8704C106.713 53.0183 112.769 52.6664 117.145 55.2091L105.838 48.6389Z" fill="#1B1B1B" stroke="#1B1B1B" stroke-width="0.5" stroke-miterlimit="10"/>
<path d="M83.2609 94.8204C83.2927 106.142 91.3339 110.725 101.188 105.036C111.041 99.3469 119.032 85.5078 119 74.1861C118.968 62.8643 110.924 58.2825 101.071 63.9719C91.2174 69.6607 83.2286 83.4986 83.2609 94.8204Z" fill="#A9C4FF" stroke="#1B1B1B" stroke-width="0.5" stroke-miterlimit="10"/>
<path d="M128.817 24.8756C133.248 24.8756 136.84 21.2833 136.84 16.8519C136.84 12.4205 133.248 8.82812 128.817 8.82812C124.385 8.82812 120.793 12.4205 120.793 16.8519C120.793 21.2833 124.385 24.8756 128.817 24.8756Z" fill="white" stroke="#242424" stroke-width="0.5" stroke-linecap="round" stroke-linejoin="round"/>
<path d="M307.554 216.015C309.986 216.015 311.957 214.044 311.957 211.613C311.957 209.182 309.986 207.211 307.554 207.211C305.123 207.211 303.152 209.182 303.152 211.613C303.152 214.044 305.123 216.015 307.554 216.015Z" fill="white" stroke="#242424" stroke-width="0.5" stroke-linecap="round" stroke-linejoin="round"/>
<path d="M315.079 1.43988L319.46 10.6202L319.518 10.7427L319.653 10.7604L329.737 12.0898L322.36 19.0929L322.262 19.1863L322.286 19.3197L324.138 29.3217L315.198 24.4695L315.079 24.4048L314.96 24.4695L306.02 29.3217L307.872 19.3197L307.897 19.1863L307.798 19.0929L300.421 12.0898L310.506 10.7604L310.64 10.7427L310.698 10.6202L315.079 1.43988Z" fill="white" stroke="black" stroke-width="0.5"/>
<path d="M9.59755 139.604L11.9573 144.549L12.0157 144.672L12.1502 144.689L17.5826 145.405L13.6086 149.178L13.5102 149.271L13.5349 149.405L14.5326 154.792L9.7168 152.179L9.59755 152.114L9.47829 152.179L4.66253 154.792L5.66018 149.405L5.68489 149.271L5.58648 149.178L1.61253 145.405L7.04487 144.689L7.17939 144.672L7.23782 144.549L9.59755 139.604Z" fill="white" stroke="black" stroke-width="0.5"/>
<path d="M232.359 181.618C231.143 200.459 214.197 215.039 194.488 214.161C174.78 213.284 159.809 197.281 161.026 178.44C162.242 159.599 179.188 145.018 198.897 145.896C218.605 146.774 233.576 162.777 232.359 181.618Z" fill="#1B1B1B" stroke="black" stroke-width="0.5"/>
<path d="M236.601 187.629C235.385 206.47 218.439 221.051 198.73 220.173C179.022 219.295 164.051 203.293 165.268 184.452C166.484 165.611 183.43 151.03 203.139 151.908C222.847 152.786 237.818 168.788 236.601 187.629Z" fill="#D6BEF1" stroke="black" stroke-width="0.5"/>
<g clip-path="url(#clip0_314_1389)">
<path d="M209.355 180.37C208.754 180.023 207.98 180.023 207.293 180.37L202.48 183.226L199.215 185.044L194.488 187.901C193.887 188.247 193.113 188.247 192.426 187.901L188.73 185.65C188.129 185.304 187.699 184.611 187.699 183.832V179.504C187.699 178.811 188.043 178.119 188.73 177.686L192.426 175.522C193.027 175.176 193.801 175.176 194.488 175.522L198.184 177.773C198.785 178.119 199.215 178.811 199.215 179.59V182.447L202.48 180.543V177.599C202.48 176.907 202.137 176.214 201.449 175.781L194.574 171.713C193.973 171.367 193.199 171.367 192.512 171.713L185.465 175.868C184.777 176.214 184.434 176.907 184.434 177.599V185.737C184.434 186.429 184.777 187.122 185.465 187.555L192.426 191.623C193.027 191.97 193.801 191.97 194.488 191.623L199.215 188.853L202.48 186.949L207.207 184.178C207.809 183.832 208.582 183.832 209.27 184.178L212.965 186.343C213.566 186.689 213.996 187.381 213.996 188.161V192.489C213.996 193.181 213.652 193.874 212.965 194.307L209.355 196.471C208.754 196.817 207.98 196.817 207.293 196.471L203.598 194.307C202.996 193.961 202.566 193.268 202.566 192.489V189.719L199.301 191.623V194.48C199.301 195.173 199.645 195.865 200.332 196.298L207.293 200.367C207.895 200.713 208.668 200.713 209.355 200.367L216.316 196.298C216.918 195.952 217.348 195.259 217.348 194.48V186.256C217.348 185.564 217.004 184.871 216.316 184.438L209.355 180.37Z" fill="#1B1B1B"/>
</g>
<path d="M227.359 186.51C226.44 200.739 213.641 211.755 198.75 211.092C183.859 210.428 172.552 198.338 173.471 184.109C174.39 169.88 187.189 158.864 202.08 159.527C216.97 160.19 228.277 172.28 227.359 186.51Z" fill="#D6BEF1" stroke="black" stroke-width="0.5"/>
<g clip-path="url(#clip1_314_1389)">
<path d="M206.791 181.017C206.335 180.754 205.75 180.754 205.229 181.017L201.586 183.179L199.113 184.556L195.535 186.719C195.079 186.981 194.494 186.981 193.973 186.719L191.175 185.015C190.72 184.752 190.394 184.228 190.394 183.638V180.361C190.394 179.837 190.655 179.312 191.175 178.985L193.973 177.346C194.428 177.084 195.014 177.084 195.535 177.346L198.332 179.05C198.788 179.312 199.113 179.837 199.113 180.427V182.59L201.586 181.148V178.919C201.586 178.395 201.325 177.87 200.805 177.543L195.6 174.462C195.144 174.2 194.559 174.2 194.038 174.462L188.703 177.608C188.182 177.87 187.922 178.395 187.922 178.919V185.08C187.922 185.604 188.182 186.129 188.703 186.457L193.973 189.537C194.428 189.799 195.014 189.799 195.535 189.537L199.113 187.44L201.586 185.998L205.164 183.9C205.62 183.638 206.205 183.638 206.726 183.9L209.524 185.539C209.979 185.801 210.304 186.325 210.304 186.915V190.192C210.304 190.717 210.044 191.241 209.524 191.569L206.791 193.207C206.335 193.47 205.75 193.47 205.229 193.207L202.432 191.569C201.976 191.307 201.651 190.782 201.651 190.192V188.095L199.178 189.537V191.7C199.178 192.224 199.439 192.749 199.959 193.076L205.229 196.157C205.685 196.419 206.27 196.419 206.791 196.157L212.061 193.076C212.517 192.814 212.842 192.29 212.842 191.7V185.473C212.842 184.949 212.582 184.425 212.061 184.097L206.791 181.017Z" fill="#1B1B1B"/>
</g>
<path d="M199.938 54.3598C198.878 70.1328 185.15 82.3926 169.272 81.7401C153.394 81.0876 141.384 67.7701 142.444 51.9971C143.503 36.2241 157.231 23.9644 173.109 24.6169C188.987 25.2694 200.997 38.5869 199.938 54.3598Z" fill="#1B1B1B" stroke="black" stroke-width="0.5"/>
<path d="M203.336 59.3794C202.277 75.1523 188.548 87.4121 172.671 86.7596C156.793 86.1071 144.783 72.7896 145.842 57.0166C146.901 41.2437 160.63 28.9839 176.507 29.6364C192.385 30.2889 204.395 43.6064 203.336 59.3794Z" fill="#FFE080" stroke="black" stroke-width="0.5"/>
<path d="M164.901 57.5126L164.918 63.7861L170.249 66.9228V70.5956L161.799 65.6396V55.6781L164.901 57.5126ZM164.901 51.2392V54.8949L161.797 53.0585V49.4028L164.901 47.5664L168.021 49.4028L164.901 51.2392ZM172.475 49.4028L175.579 47.5664L178.699 49.4028L175.579 51.2392L172.475 49.4028Z" fill="#1B1B1B"/>
<path d="M167.145 62.4858V58.813L170.249 60.6494V64.3051L167.145 62.4858ZM172.475 68.2383L175.579 70.0747L178.699 68.2383V71.894L175.579 73.7304L172.475 71.894V68.2383ZM183.151 49.4028L186.256 47.5664L189.375 49.4028V53.0585L186.256 54.8949V51.2392L183.151 49.4028ZM186.256 63.7861L186.273 57.5126L189.377 55.6762V65.6377L180.927 70.5937V66.9209L186.256 63.7861Z" fill="#1B1B1B"/>
<path d="M184.03 62.4853L180.926 64.3046V60.6489L184.03 58.8125V62.4853Z" fill="#1B1B1B"/>
<path d="M184.03 52.5415L184.047 56.2143L178.701 59.351V65.6397L175.597 67.459L172.492 65.6397V59.351L167.146 56.2143V52.5415L170.264 50.7051L175.578 53.857L180.923 50.7051L184.043 52.5415H184.03ZM167.145 46.27L175.579 41.2969L184.03 46.27L180.925 48.1064L175.579 44.9545L170.249 48.1064L167.145 46.27Z" fill="#1B1B1B"/>
<g clip-path="url(#clip2_314_1389)">
<path d="M286.832 149.807V163.611C286.832 164.498 287.219 165.043 287.863 165.064L297.813 165.332C298.446 165.347 299.231 164.824 299.864 163.965L309.814 150.43C310.446 149.572 310.845 148.489 310.845 147.602V133.799C310.845 132.912 310.458 132.367 309.814 132.346L299.864 132.077C299.231 132.062 298.446 132.586 297.813 133.444L287.863 146.979C287.23 147.838 286.844 148.912 286.844 149.8L286.832 149.807Z" fill="#1B1B1B"/>
<path d="M300.999 149.938L299.581 155.56C299.546 155.71 299.546 155.851 299.581 155.968L302.019 162.386L304.843 158.545L301.456 149.633C301.374 149.435 301.081 149.63 300.999 149.938Z" fill="#C4E1F5"/>
<path d="M303.847 140.18C303.765 139.981 303.472 140.177 303.39 140.485L301.972 146.107C301.937 146.257 301.937 146.398 301.972 146.515L305.968 157.02L308.792 153.179L303.847 140.194V140.18Z" fill="#C4E1F5"/>
<path d="M298.833 133.284C298.903 133.237 298.973 133.219 299.032 133.222L309.79 133.515C309.919 133.513 309.989 133.635 309.989 133.804V148.734C309.989 148.903 309.907 149.127 309.79 149.29L299.032 163.927C298.973 164.008 298.903 164.083 298.833 164.13C298.762 164.177 298.692 164.196 298.633 164.193L287.875 163.9C287.746 163.901 287.676 163.779 287.676 163.61V148.666C287.676 148.497 287.758 148.273 287.875 148.111L298.633 133.473C298.692 133.392 298.762 133.317 298.833 133.27V133.284ZM298.833 131.101C298.446 131.359 298.071 131.722 297.719 132.195L286.961 146.833C286.27 147.773 285.848 148.927 285.848 149.885V164.815C285.848 165.773 286.27 166.365 286.961 166.382L297.719 166.675C298.059 166.688 298.446 166.543 298.833 166.285C299.219 166.027 299.594 165.665 299.946 165.191L310.704 150.554C311.396 149.614 311.818 148.459 311.818 147.501V132.571C311.818 131.614 311.396 131.022 310.704 131.004L299.934 130.719C299.594 130.706 299.208 130.851 298.821 131.109L298.833 131.101Z" fill="#C4E1F5"/>
<path d="M291.707 166.541L292.703 162.609L294.695 163.267L292.832 166.566L291.707 166.541Z" fill="#1B1B1B"/>
<path d="M297.918 140.779L295.188 142.6C294.989 142.733 294.801 143.013 294.731 143.285L288.883 166.452L291.707 166.526L298.153 141.003C298.211 140.767 298.094 140.648 297.93 140.758L297.918 140.779Z" fill="#C4E1F5"/>
<path d="M302.7 137.592L299.969 139.412C299.77 139.545 299.582 139.825 299.512 140.097L292.832 166.551L295.656 166.626L302.922 137.824C302.981 137.587 302.864 137.468 302.7 137.578V137.592Z" fill="#C4E1F5"/>
</g>
<g clip-path="url(#clip3_314_1389)">
<path d="M101.113 97.016C106.867 93.1796 111.532 84.474 111.532 77.57C111.532 70.666 106.867 68.1796 101.113 72.016C95.6537 75.6553 91.1756 83.6787 90.7305 90.3865L104.502 81.2057V83.3077L90.7305 92.4885C91.1756 98.6027 95.6537 100.655 101.113 97.016Z" fill="black"/>
</g>
<defs>
<clipPath id="clip0_314_1389">
<rect width="33" height="29" fill="white" transform="translate(184.434 171.539)"/>
</clipPath>
<clipPath id="clip1_314_1389">
<rect width="24.9853" height="21.9567" fill="white" transform="translate(187.922 174.332)"/>
</clipPath>
<clipPath id="clip2_314_1389">
<rect width="30.7561" height="30.7561" fill="white" transform="matrix(0.83205 -0.5547 0 1 286.039 141.859)"/>
</clipPath>
<clipPath id="clip3_314_1389">
<rect width="25" height="25" fill="white" transform="matrix(0.83205 -0.5547 0 1 90.7305 78.9375)"/>
</clipPath>
</defs>
</svg>
