<svg width="65" height="29" viewBox="0 0 65 29" fill="none" xmlns="http://www.w3.org/2000/svg">
<g clip-path="url(#clip0_11335_761)">
<path d="M0 22.0372V5.51516L3.97699 0.0078125H4.19081V17.8207H12.658V22.0372H0Z" fill="black"/>
<path d="M53.8729 13.0688L47.7731 4.60478H52.4988L53.4037 5.88618C54.141 6.96526 55.0571 8.33658 56.1519 10.0001L63.2897 0.09375H63.5463V6.2465L58.565 13.1025L64.9999 22.0049H60.2743L59.6375 21.0944C58.9672 20.1277 57.8388 18.4866 56.2525 16.1711C56.2525 16.1711 52.9571 20.7684 52.0857 22.0049H47.438L53.8729 13.0688Z" fill="black"/>
<path d="M24.5904 4.63184L23.1834 9.01133C21.9997 12.9192 21.0728 16.142 20.4028 18.6799C19.5541 15.311 18.6384 12.077 17.6557 8.97764L16.2487 4.63184H11.6926L16.7177 18.9157C17.2537 20.4204 17.5217 21.5883 17.5217 22.4193C17.5217 23.2503 17.2761 23.924 16.7847 24.4406C16.2934 24.9571 15.5899 25.2154 14.6742 25.2154H12.7435L9.99854 29.0078H14.9087C16.9857 29.0078 18.5714 28.626 19.6658 27.8624C20.7378 27.1213 21.6312 25.4063 22.3459 23.4299L29.0126 4.63184H24.5904Z" fill="black"/>
<path d="M40.1209 4.22754C41.9969 4.22754 43.471 4.77778 44.543 5.87826C45.6374 6.95629 46.1846 8.49472 46.1846 10.4935V22.0149H41.9634V11.201C41.9634 9.00005 40.8802 7.89956 38.7138 7.89956C37.6418 7.89956 36.7261 8.29259 35.9667 9.07866C35.2297 9.84226 34.8612 10.909 34.8612 12.279V22.0149H30.6401V4.63179H34.7272V7.12473C36.0449 5.19327 37.8428 4.22754 40.1209 4.22754Z" fill="black"/>
</g>
<defs>
<clipPath id="clip0_11335_761">
<rect width="65" height="29" fill="white" transform="translate(0 0.0078125)"/>
</clipPath>
</defs>
</svg>
