<svg width="122" height="39" viewBox="0 0 122 39" fill="none" xmlns="http://www.w3.org/2000/svg">
<path d="M52.8297 14.2486C52.7502 14.2133 52.6749 14.1689 52.6054 14.1163C52.4898 14.0403 52.3633 13.9829 52.2303 13.946C52.0305 13.8735 51.8236 13.8226 51.6131 13.7944C51.3631 13.7571 51.0449 13.7509 50.6584 13.7758V11.865C51.2076 11.8779 51.7627 11.9409 52.3238 12.0539C52.898 12.1546 53.3598 12.3186 53.7094 12.5461C53.6344 12.7101 53.5471 12.893 53.4476 13.0947C53.3476 13.2841 53.2539 13.467 53.1666 13.6434C53.0789 13.8075 53.0041 13.9462 52.9422 14.0597C52.9083 14.1248 52.8708 14.1879 52.8297 14.2486ZM46.3718 15.7623C46.3718 15.2068 46.4654 14.7086 46.6527 14.2679C46.8315 13.8407 47.0852 13.4495 47.4015 13.1134C47.7203 12.7761 48.102 12.506 48.5246 12.3186C48.958 12.118 49.4186 11.9841 49.8912 11.9216V13.9081C49.4935 14.0457 49.1472 14.3034 48.899 14.6463C48.6363 14.9868 48.5051 15.3338 48.5056 15.6871C48.5056 16.1788 48.6365 16.5761 48.8984 16.8789C49.1611 17.1809 49.4918 17.4458 49.8906 17.6737V19.8305C49.4739 19.626 49.0621 19.4116 48.6556 19.1873C48.2516 18.9531 47.8748 18.6738 47.5324 18.3547C47.1945 18.0375 46.9099 17.6668 46.6896 17.2574C46.4777 16.841 46.3718 16.3427 46.3718 15.7623ZM46.6711 23.4823C46.8457 23.5834 47.064 23.684 47.3258 23.7843C47.6008 23.8729 47.8818 23.9614 48.1687 24.0496C48.4556 24.1254 48.7426 24.1886 49.0299 24.2391C49.3164 24.2893 49.5846 24.3143 49.8347 24.3143H49.8906V26.112H49.8537C49.5537 26.112 49.2416 26.0931 48.9174 26.0554C48.5959 26.0294 48.2767 25.9788 47.9627 25.9038C47.6428 25.8302 47.3298 25.729 47.0271 25.6012C46.7558 25.4736 46.5037 25.3079 46.2783 25.1091L46.6711 23.4823ZM50.6584 18.0521C51.0699 18.241 51.4879 18.4427 51.9125 18.6573C52.3403 18.8653 52.7372 19.1328 53.0916 19.4521C53.4478 19.7639 53.7403 20.143 53.9529 20.568C54.1775 21.0096 54.2898 21.5583 54.2898 22.2141C54.2898 22.6681 54.2025 23.1097 54.0279 23.5388C53.8634 23.9705 53.6221 24.3681 53.316 24.712C52.9968 25.068 52.6165 25.3627 52.1935 25.5819C51.7443 25.8218 51.2326 25.9796 50.6584 26.0554V24.2391C51.6818 23.9864 52.1935 23.299 52.1935 22.1768C52.1935 21.7348 52.0498 21.3688 51.7625 21.0788C51.4756 20.7893 51.1076 20.5181 50.6584 20.2654V18.0521ZM56.517 11.335H58.7824V26.0361H56.517V11.335ZM64.3791 16.5384C64.591 16.7526 64.7533 17.0049 64.866 17.2953C64.9906 17.5728 65.0779 17.8692 65.1279 18.1844C65.1901 18.4868 65.2276 18.7959 65.2404 19.1115C65.2526 19.4268 65.2588 19.7358 65.2588 20.0386V26.0368H62.975V20.2269C62.975 19.7986 62.9563 19.3887 62.919 18.9972C62.8902 18.6378 62.8016 18.286 62.6572 17.9564C62.5203 17.654 62.333 17.4205 62.0953 17.2561C61.858 17.0796 61.5274 16.9914 61.1037 16.9914C60.9291 16.9914 60.6918 17.0231 60.3918 17.0865C60.1011 17.1384 59.8181 17.2273 59.5496 17.3512V15.894C59.8865 15.7175 60.2484 15.5664 60.6352 15.4404C61.0103 15.318 61.4017 15.2541 61.7959 15.2509C62.3578 15.2509 62.832 15.3708 63.2184 15.6107C63.6053 15.8377 63.9922 16.1474 64.3791 16.5384ZM72.8774 15.3074C73.5639 15.3456 74.1879 15.516 74.7493 15.8188C75.2983 16.0985 75.7782 16.4992 76.1535 16.9914C76.5399 17.4711 76.8393 18.0324 77.0516 18.6753C77.2671 19.3409 77.3747 20.0373 77.37 20.7376C77.3746 21.4395 77.2607 22.1369 77.0332 22.8C76.8344 23.4049 76.53 23.969 76.1344 24.4653C75.741 24.9371 75.2571 25.3233 74.7118 25.6006C74.1405 25.8937 73.5166 26.0674 72.8774 26.1113V24.295C73.5016 24.1563 74.0069 23.759 74.3934 23.1032C74.793 22.4475 74.9928 21.659 74.9928 20.7376C74.9928 20.2712 74.9428 19.836 74.8428 19.4321C74.7645 19.0405 74.6255 18.6639 74.4309 18.3162C74.2579 18.0053 74.0294 17.7296 73.7571 17.5028C73.5029 17.292 73.2004 17.1489 72.8774 17.0865V15.3074ZM67.6551 20.7004C67.6551 19.968 67.761 19.2867 67.9729 18.6567C68.1848 18.0258 68.4844 17.4771 68.8717 17.0106C69.2663 16.5353 69.7497 16.1432 70.2942 15.8568C70.8597 15.5625 71.4766 15.3824 72.1102 15.3267V17.0865C71.486 17.2252 70.9869 17.6225 70.6127 18.2782C70.2381 18.9336 70.0508 19.7219 70.0508 20.6432C70.0508 21.1101 70.0944 21.5517 70.1817 21.968C70.2817 22.3843 70.419 22.7563 70.5936 23.084C70.7682 23.4116 70.9803 23.6828 71.2299 23.8973C71.4922 24.1115 71.7856 24.2441 72.1102 24.295V26.1113C71.4237 26.0608 70.8059 25.8905 70.2567 25.6006C69.7175 25.3057 69.2406 24.9072 68.8526 24.4274C68.4662 23.9477 68.1668 23.3864 67.9545 22.7435C67.7525 22.0818 67.6516 21.3928 67.6551 20.7004ZM85.213 15.2702C85.8868 15.3331 86.4921 15.516 87.029 15.8188C87.5782 16.1212 88.046 16.5121 88.4325 16.9914C88.8242 17.4804 89.1225 18.0388 89.3122 18.638C89.5245 19.2561 89.6307 19.8992 89.6307 20.5674C89.6307 20.8706 89.612 21.1735 89.5747 21.4759H83.1542V19.8106H87.4778C87.4778 19.4833 87.4216 19.1681 87.3093 18.8648C87.2078 18.5595 87.049 18.2767 86.8415 18.0322C86.6452 17.7706 86.4044 17.5465 86.1303 17.3704C85.8532 17.193 85.5393 17.0828 85.213 17.0485V15.2702ZM85.138 24.2571C85.2753 24.2571 85.4438 24.2445 85.6434 24.2192C85.8658 24.1794 86.0849 24.1225 86.2987 24.049C86.5373 23.9596 86.7689 23.8522 86.9915 23.7277C87.2288 23.6014 87.4348 23.45 87.6094 23.2735L88.4325 24.5411C88.021 25.0581 87.5407 25.4491 86.9915 25.7143C86.4424 25.979 85.7434 26.1113 84.8946 26.1113C84.2297 26.1158 83.5718 25.9737 82.9667 25.695C82.3805 25.4151 81.8579 25.0156 81.4317 24.5218C80.9973 24.0124 80.6551 23.4296 80.4211 22.8C80.171 22.1447 80.0462 21.4384 80.0467 20.6811C80.0467 19.9615 80.159 19.2805 80.3836 18.638C80.6034 18.0253 80.9264 17.4556 81.3383 16.9541C81.7232 16.4737 82.1928 16.0694 82.7233 15.7617C83.2518 15.4618 83.8408 15.2872 84.4458 15.2509V17.0672C83.984 17.1554 83.6032 17.3447 83.3036 17.6351C83.007 17.9217 82.7658 18.2616 82.5924 18.6374C82.4308 19.0008 82.3115 19.382 82.237 19.7733C82.1798 20.1044 82.1483 20.4395 82.143 20.7756C82.143 21.2681 82.1991 21.7286 82.3114 22.1569C82.4364 22.5732 82.6237 22.939 82.8733 23.2542C83.1233 23.5566 83.4291 23.8027 83.7905 23.9924C84.1651 24.1689 84.6143 24.2571 85.138 24.2571ZM92.7382 11.3344H95.003V24.7685C94.988 24.9704 94.9693 25.172 94.9471 25.3731C94.9216 25.6001 94.9028 25.8209 94.8905 26.0355H92.7382V11.3344ZM101.966 18.6001C102.116 19.1801 102.191 19.817 102.191 20.5109C102.191 21.2304 102.104 21.9305 101.929 22.6111C101.767 23.2921 101.511 23.8976 101.162 24.4274C100.831 24.9382 100.389 25.3655 99.87 25.6764C99.3585 25.9788 98.7532 26.13 98.054 26.13C97.6314 26.1325 97.2101 26.0818 96.7999 25.979C96.4007 25.8783 96.0575 25.7395 95.7702 25.5626V23.5947C95.9579 23.8093 96.1763 23.986 96.4255 24.1248C96.6874 24.2636 96.9745 24.3329 97.2868 24.3329C97.661 24.3329 97.9979 24.2383 98.2974 24.049C98.6116 23.8585 98.8802 23.6 99.0837 23.2921C99.3083 22.964 99.4831 22.5794 99.6081 22.1382C99.7483 21.6786 99.8178 21.2 99.8141 20.719C99.8157 20.2456 99.7526 19.7743 99.6265 19.3184C99.5254 18.9044 99.3611 18.5089 99.1396 18.1459C98.9546 17.8205 98.6985 17.5421 98.3909 17.3319C98.0919 17.1304 97.7396 17.0251 97.3802 17.0299C97.0556 17.0299 96.7563 17.0991 96.4821 17.2374C96.2194 17.3638 95.9821 17.5531 95.7702 17.8054V15.7809C96.0701 15.6117 96.3912 15.4842 96.7249 15.4019C97.0801 15.313 97.4447 15.2688 97.8105 15.2702C98.2224 15.2702 98.6407 15.3269 99.0653 15.4404C99.4896 15.5544 99.8893 15.7468 100.244 16.0077C100.619 16.2724 100.955 16.6194 101.255 17.0485C101.567 17.4769 101.804 17.9941 101.966 18.6001ZM107.002 26.0355H104.718V15.364H107.002V26.0355ZM107.208 11.9588C107.208 12.3375 107.077 12.6591 106.815 12.9238C106.688 13.0474 106.539 13.1445 106.375 13.2094C106.211 13.2744 106.036 13.3059 105.86 13.3023C105.486 13.3023 105.167 13.1697 104.905 12.9046C104.784 12.7797 104.689 12.6319 104.625 12.4696C104.56 12.3073 104.529 12.1337 104.531 11.9588C104.531 11.5802 104.662 11.2585 104.924 10.9938C105.045 10.8662 105.19 10.7651 105.351 10.6967C105.512 10.6284 105.685 10.5944 105.86 10.5968C106.234 10.5968 106.553 10.7291 106.815 10.9938C107.077 11.2585 107.208 11.5802 107.208 11.9588ZM112.43 22.7814C112.43 23.2101 112.486 23.5506 112.598 23.8029C112.711 24.0428 112.867 24.2257 113.067 24.3516C113.266 24.4655 113.491 24.5413 113.741 24.579C114.003 24.6167 114.283 24.6355 114.583 24.6355V26.0361C114.415 26.0616 114.247 26.0802 114.078 26.092C113.94 26.1049 113.778 26.1113 113.591 26.1113C113.217 26.1371 112.841 26.1371 112.467 26.1113C112.298 26.101 112.13 26.0821 111.962 26.0548C111.538 25.9665 111.207 25.7772 110.97 25.4868C110.735 25.1994 110.551 24.8729 110.427 24.5218C110.308 24.1788 110.226 23.8235 110.184 23.4624C110.159 23.1219 110.146 22.857 110.146 22.6676V11.335H112.43V22.7814ZM119.225 22.7814C119.225 23.2101 119.281 23.5506 119.393 23.8029C119.506 24.0428 119.662 24.2257 119.862 24.3516C120.061 24.4655 120.285 24.5413 120.536 24.579C120.797 24.6167 121.078 24.6355 121.378 24.6355V26.0361C121.21 26.0616 121.042 26.0802 120.872 26.092C120.735 26.1049 120.573 26.1113 120.385 26.1113C120.012 26.1371 119.636 26.1371 119.262 26.1113C119.093 26.101 118.924 26.0821 118.757 26.0548C118.333 25.9665 118.002 25.7772 117.765 25.4868C117.53 25.1994 117.346 24.8729 117.222 24.5218C117.103 24.1788 117.021 23.8235 116.979 23.4624C116.954 23.1219 116.942 22.857 116.942 22.6676V11.335H119.225V22.7814Z" fill="black"/>
<path d="M38.1352 19.2961C38.1352 29.8475 29.6725 38.4014 19.2335 38.4014C8.79463 38.4014 0.33252 29.8475 0.33252 19.2961C0.33252 8.74469 8.79463 0.191406 19.2335 0.191406C29.6725 0.191406 38.1352 8.74469 38.1352 19.2961Z" fill="url(#paint0_linear_11335_552)"/>
<mask id="mask0_11335_552" style="mask-type:luminance" maskUnits="userSpaceOnUse" x="4" y="1" width="27" height="32">
<path d="M4.88428 1.73389H30.5573V32.7636H4.88428V1.73389Z" fill="white"/>
</mask>
<g mask="url(#mask0_11335_552)">
<path d="M20.6293 28.8177L19.8755 30.9571C20.184 30.9366 20.4887 30.904 20.7895 30.8595V28.3628L20.6293 28.8177Z" fill="black"/>
<path d="M30.5587 19.423C30.5587 13.0388 25.438 7.86426 19.1231 7.86426C12.8068 7.86426 7.6875 13.0388 7.6875 19.4224C7.6875 25.8061 12.5634 30.7313 18.6686 30.9722L17.9561 30.6696L19.9596 24.9818L20.8386 25.355H22.6756V30.4126C27.2521 28.9021 30.558 24.5526 30.558 19.4224" fill="black"/>
<path d="M22.6753 25.3555H22.1572L22.6753 27.0857V25.3555Z" fill="black"/>
<path d="M22.6753 25.3555H22.1572L22.6753 27.0857V25.3555Z" fill="url(#paint1_linear_11335_552)"/>
<path d="M22.1573 25.3555H20.8384L21.1092 25.4705L22.1573 25.3555Z" fill="black"/>
<path d="M22.1573 25.3555H20.8384L21.1092 25.4705L22.1573 25.3555Z" fill="url(#paint2_linear_11335_552)"/>
<path d="M21.1283 27.4011L20.7896 28.3629V30.8596C21.1023 30.8133 21.411 30.7546 21.7157 30.6835L21.1283 27.4011ZM21.7176 25.7287L21.129 27.4005L21.7157 30.6835C22.0415 30.6064 22.3615 30.5163 22.6755 30.413V27.085L22.1574 25.3555L21.1093 25.4705L21.7176 25.7287Z" fill="black"/>
<path d="M21.7177 25.7287L21.1291 27.4005L21.7158 30.6835C22.0416 30.6064 22.3616 30.5163 22.6756 30.413V27.085L22.1575 25.3555L21.1094 25.4705L21.7177 25.7287Z" fill="#C5C5C5"/>
<path d="M19.91 25.1221L20.7903 25.3888V25.3554H20.8386L19.9596 24.9814L17.9561 30.6699L18.6686 30.9719C18.7669 30.9762 18.8661 30.979 18.9661 30.9802L19.91 25.1221Z" fill="black"/>
<path d="M20.7896 25.3885L21.0724 25.474L21.1093 25.4701L20.8385 25.3545H20.7896V25.3885Z" fill="black"/>
<path d="M20.7896 25.3885L21.0724 25.474L21.1093 25.4701L20.8385 25.3545H20.7896V25.3885Z" fill="#D0D0D0"/>
<path d="M20.7896 25.3885L21.0724 25.474L21.1093 25.4701L20.8385 25.3545H20.7896V25.3885Z" fill="url(#paint3_linear_11335_552)"/>
<path d="M21.1091 25.4702L21.0723 25.4747L21.2343 25.5242L21.1492 27.3424L21.1288 27.4002L21.7174 25.7291L21.1091 25.4702Z" fill="black"/>
<path d="M21.1091 25.4702L21.0723 25.4747L21.2343 25.5242L21.1492 27.3424L21.1288 27.4002L21.7174 25.7291L21.1091 25.4702Z" fill="#CDCDCD"/>
<path d="M21.1091 25.4702L21.0723 25.4747L21.2343 25.5242L21.1492 27.3424L21.1288 27.4002L21.7174 25.7291L21.1091 25.4702Z" fill="#D5D5D5"/>
<path d="M20.7897 25.5058V25.3889L19.91 25.1216L18.9648 30.9816H19.1218C19.3748 30.9816 19.6259 30.9735 19.8751 30.9572L20.6289 28.8184L20.7891 28.3629L20.7897 25.5058Z" fill="black"/>
<path d="M20.7897 25.5058V25.3889L19.91 25.1216L18.9648 30.9816H19.1218C19.3748 30.9816 19.6259 30.9735 19.8751 30.9572L20.6289 28.8184L20.7891 28.3629L20.7897 25.5058Z" fill="#C2C2C2"/>
<path d="M20.7896 28.362L21.1283 27.4002L20.7896 25.5049V28.362Z" fill="black"/>
<path d="M20.7896 28.362L21.1283 27.4002L20.7896 25.5049V28.362Z" fill="url(#paint4_linear_11335_552)"/>
<path d="M20.7896 28.362L21.1283 27.4002L20.7896 25.5049V28.362Z" fill="#ABABAB"/>
<path d="M21.0724 25.4746L20.7896 25.3892V25.5061L21.0724 25.4746Z" fill="black"/>
<path d="M21.0724 25.4746L20.7896 25.3892V25.5061L21.0724 25.4746Z" fill="url(#paint5_linear_11335_552)"/>
<path d="M21.0724 25.4746L20.7896 25.3892V25.5061L21.0724 25.4746Z" fill="#828282"/>
<path d="M20.7896 25.5051L21.1283 27.4004L21.1493 27.342L21.2345 25.5237L21.0724 25.4736L20.7896 25.5051Z" fill="black"/>
<path d="M20.7896 25.5051L21.1283 27.4004L21.1493 27.342L21.2345 25.5237L21.0724 25.4736L20.7896 25.5051Z" fill="#CACACA"/>
<path d="M20.7896 25.5051L21.1283 27.4004L21.1493 27.342L21.2345 25.5237L21.0724 25.4736L20.7896 25.5051Z" fill="#B6B6B6"/>
<path d="M20.6287 28.8177L19.8755 30.9571C20.1811 30.9369 20.4858 30.9044 20.7889 30.8595V28.3628L20.6287 28.8177Z" fill="#A8A8A8"/>
<path d="M30.557 19.423C30.557 13.0388 25.4377 7.86426 19.1221 7.86426C12.8059 7.86426 7.68652 13.0388 7.68652 19.4224C7.68652 25.8061 12.5624 30.7313 18.6676 30.9722L17.9551 30.6696L19.9586 24.9818L20.8377 25.355H22.6746V30.4126C27.2511 28.9021 30.557 24.5532 30.557 19.423Z" fill="#A8A8A8"/>
<path d="M22.6748 25.3555H22.1567L22.6748 27.0857V25.3555Z" fill="#A8A8A8"/>
<path d="M22.6748 25.3555H22.1567L22.6748 27.0857V25.3555Z" fill="url(#paint6_linear_11335_552)"/>
<path d="M22.1568 25.3555H20.8379L21.1087 25.4705L22.1568 25.3555Z" fill="#A8A8A8"/>
<path d="M22.1568 25.3555H20.8379L21.1087 25.4705L22.1568 25.3555Z" fill="url(#paint7_linear_11335_552)"/>
<path d="M21.1279 27.4011L20.7891 28.3629V30.8596C21.1018 30.8133 21.4105 30.7546 21.7152 30.6835L21.1279 27.4011ZM21.7171 25.7287L21.1279 27.4011L21.7152 30.6835C22.0406 30.6064 22.3605 30.5163 22.675 30.413V27.085L22.1569 25.3555L21.1081 25.4705L21.7171 25.7287Z" fill="#A8A8A8"/>
<path d="M21.7168 25.7287L21.1276 27.4005L21.7149 30.6835C22.0404 30.6064 22.3603 30.5163 22.6747 30.413V27.085L22.1567 25.3555L21.1079 25.4705L21.7168 25.7287Z" fill="#ECECEC"/>
<path d="M19.9096 25.1221L20.7893 25.3888V25.3554H20.8383L19.9586 24.9814L17.9551 30.6699L18.6683 30.9719C18.7666 30.9762 18.8655 30.979 18.9651 30.9802L19.9096 25.1221Z" fill="#A8A8A8"/>
<path d="M20.7891 25.3885L21.0719 25.474L21.1088 25.4701L20.838 25.3545H20.7891V25.3885Z" fill="#A8A8A8"/>
<path d="M20.7891 25.3885L21.0719 25.474L21.1088 25.4701L20.838 25.3545H20.7891V25.3885Z" fill="#D0D0D0"/>
<path d="M20.7891 25.3885L21.0719 25.474L21.1088 25.4701L20.838 25.3545H20.7891V25.3885Z" fill="url(#paint8_linear_11335_552)"/>
<path d="M21.1086 25.4702L21.0718 25.4747L21.2345 25.5242L21.1487 27.3424L21.1283 27.4002L21.7169 25.7291L21.1086 25.4702Z" fill="#A8A8A8"/>
<path d="M21.1086 25.4702L21.0718 25.4747L21.2345 25.5242L21.1487 27.3424L21.1283 27.4002L21.7169 25.7291L21.1086 25.4702Z" fill="#CACACA"/>
<path d="M21.1086 25.4702L21.0718 25.4747L21.2345 25.5242L21.1487 27.3424L21.1283 27.4002L21.7169 25.7291L21.1086 25.4702Z" fill="#CBCBCB"/>
<path d="M20.7891 25.5058V25.3889L19.9094 25.1216L18.9648 30.9816H19.1218C19.3752 30.9816 19.6265 30.9728 19.8757 30.9566L20.6289 28.8178L20.7891 28.3629V25.5058Z" fill="#A8A8A8"/>
<path d="M20.7891 25.5058V25.3889L19.9094 25.1216L18.9648 30.9816H19.1218C19.3752 30.9816 19.6265 30.9735 19.8757 30.9572L20.6289 28.8184L20.7891 28.3629V25.5058Z" fill="#EDEDED"/>
<path d="M20.7891 28.362L21.1279 27.4002L20.7891 25.5049V28.362Z" fill="#A8A8A8"/>
<path d="M20.7891 28.362L21.1279 27.4002L20.7891 25.5049V28.362Z" fill="url(#paint9_linear_11335_552)"/>
<path d="M20.7891 28.362L21.1279 27.4002L20.7891 25.5049V28.362Z" fill="#ABABAB"/>
<path d="M21.0719 25.4746L20.7891 25.3892V25.5061L21.0719 25.4746Z" fill="#A8A8A8"/>
<path d="M21.0719 25.4746L20.7891 25.3892V25.5061L21.0719 25.4746Z" fill="url(#paint10_linear_11335_552)"/>
<path d="M21.0719 25.4746L20.7891 25.3892V25.5061L21.0719 25.4746Z" fill="#828282"/>
<path d="M20.7891 25.5051L21.1279 27.4004L21.1488 27.342L21.234 25.5237L21.0719 25.4736L20.7891 25.5051Z" fill="#A8A8A8"/>
<path d="M20.7891 25.5051L21.1279 27.4004L21.1488 27.342L21.234 25.5237L21.0719 25.4736L20.7891 25.5051Z" fill="#CACACA"/>
<path d="M20.7891 25.5051L21.1279 27.4004L21.1488 27.342L21.234 25.5237L21.0719 25.4736L20.7891 25.5051Z" fill="#B6B6B6"/>
<path d="M17.3374 3.67224C17.3374 3.67224 18.6627 3.24692 18.6156 1.73389C18.6156 1.73389 19.2392 3.2784 18.2413 4.08214L17.3374 3.67224Z" fill="#CECECE"/>
<path d="M17.8649 4.04899C17.8649 4.04899 19.2499 4.17748 19.7883 2.76468C19.7883 2.76468 19.7692 4.43254 18.5405 4.78141L17.8649 4.04899ZM16.3394 3.15209C16.3394 3.15209 17.7098 3.38852 18.3543 2.02197C18.3543 2.02197 18.2081 3.68342 16.9572 3.93527L16.3394 3.15209Z" fill="#CECECE"/>
<mask id="mask1_11335_552" style="mask-type:luminance" maskUnits="userSpaceOnUse" x="9" y="3" width="20" height="28">
<path d="M13.945 7.78403C14.2675 8.24901 14.7132 8.61264 15.2309 8.8332H15.2296C15.1152 11.5843 9.80518 10.769 9.80518 16.2577C9.80518 17.6326 10.2838 18.895 11.0828 19.8832C11.3661 20.2334 11.6891 20.5489 12.0451 20.8231L12.6916 21.2536L26.9614 30.7539C27.9924 29.1738 28.5402 27.3218 28.5365 25.429C28.5365 22.2333 27.0065 19.3994 24.6464 17.6338C22.0868 15.718 19.7305 15.5214 16.6852 16.0084C16.3801 16.0575 16.0681 16.0392 15.7707 15.9547C15.4733 15.8701 15.1975 15.7213 14.9625 15.5186C14.7275 15.3159 14.5388 15.064 14.4095 14.7804C14.2801 14.4969 14.2132 14.1883 14.2133 13.876C14.2133 10.9726 19.4648 12.0379 19.4648 6.74836C19.4648 5.80649 19.1362 3.06055 16.3801 3.06055C15.5792 3.06055 14.8165 3.385 14.2571 3.96323C13.7129 4.52379 13.4083 5.27808 13.4092 6.06348C13.4092 6.70339 13.6075 7.29704 13.945 7.78403Z" fill="white"/>
</mask>
<g mask="url(#mask1_11335_552)">
<path d="M28.5371 3.06055H9.80518V30.7539H28.5371V3.06055Z" fill="#C5C5C5"/>
</g>
<mask id="mask2_11335_552" style="mask-type:luminance" maskUnits="userSpaceOnUse" x="13" y="3" width="7" height="9">
<path d="M13.9454 7.78403C14.2678 8.24925 14.7135 8.61311 15.2312 8.83384L15.23 8.8332L15.6228 10.2132L15.898 11.7276C17.4337 10.8705 19.4651 10.0385 19.4651 6.74836C19.4651 5.80649 19.1372 3.06055 16.3811 3.06055C15.5796 3.06055 14.8174 3.38564 14.2581 3.96387C13.714 4.52428 13.4095 5.2783 13.4102 6.06348C13.4102 6.70339 13.6072 7.29704 13.9454 7.78403Z" fill="white"/>
</mask>
<g mask="url(#mask2_11335_552)">
<path d="M19.4651 3.06055H13.4102V11.7276H19.4651V3.06055Z" fill="#CECECE"/>
</g>
<path fill-rule="evenodd" clip-rule="evenodd" d="M18.1716 10.237C18.9153 9.50587 19.4651 8.46056 19.4651 6.74836C19.4651 5.80649 19.1372 3.06055 16.3811 3.06055C15.5796 3.06055 14.8174 3.38564 14.2581 3.96387C13.714 4.52428 13.4095 5.2783 13.4102 6.06348C13.411 6.31919 13.4411 6.56547 13.5004 6.80233C13.5023 6.80104 18.0839 3.69917 18.1716 10.2364" fill="#B1B1B1"/>
<mask id="mask3_11335_552" style="mask-type:luminance" maskUnits="userSpaceOnUse" x="13" y="15" width="17" height="18">
<path d="M23.3137 28.1116L27.6982 32.7631C29.0696 30.918 29.8095 28.6718 29.806 26.3641C29.806 21.746 26.9037 17.8127 22.842 16.3267C21.6894 15.9057 20.4731 15.6909 19.2476 15.6919C17.5987 15.6919 16.0383 16.0742 14.6482 16.7546C13.0807 17.5223 13.6235 17.8307 14.6571 18.9281L23.3137 28.1116Z" fill="white"/>
</mask>
<g mask="url(#mask3_11335_552)">
<path d="M29.8052 15.6919H13.0806V32.7638H29.8052V15.6919Z" fill="#F5F5F5"/>
</g>
<path fill-rule="evenodd" clip-rule="evenodd" d="M23.3129 28.1122L27.6974 32.7637C28.3116 31.9363 28.8034 31.023 29.1575 30.0524L13.8516 18.0542C14.0276 18.2893 14.3156 18.5656 14.6563 18.928L23.3129 28.1122Z" fill="#ACACAC"/>
<mask id="mask4_11335_552" style="mask-type:luminance" maskUnits="userSpaceOnUse" x="9" y="8" width="8" height="14">
<path d="M13.3132 21.6671C9.73399 14.9365 15.529 11.94 15.529 11.94C15.6477 11.8685 15.7703 11.7974 15.897 11.7267C17.3043 9.931 15.8926 9.11505 15.3911 8.89597C15.3386 8.87256 15.2852 8.85155 15.2309 8.83301H15.2296C15.1152 11.5841 9.80518 10.7688 9.80518 16.2575C9.80518 17.6324 10.2838 18.8948 11.0828 19.8823C11.366 20.2328 11.689 20.5485 12.0451 20.8229L12.6916 21.2534L13.3132 21.6671Z" fill="white"/>
</mask>
<g mask="url(#mask4_11335_552)">
<path d="M17.3042 8.83252H9.73389V21.6673H17.3042V8.83252Z" fill="#8B8B8B"/>
</g>
<path fill-rule="evenodd" clip-rule="evenodd" d="M12.4501 19.5735C10.9436 14.3117 15.5291 11.9409 15.5291 11.9409C15.5291 11.9409 10.4618 14.2127 12.4494 19.571L12.4501 19.5735Z" fill="white"/>
<path fill-rule="evenodd" clip-rule="evenodd" d="M13.4321 10.9619C11.8525 11.8723 9.80518 12.8495 9.80518 16.2578C9.80518 17.3391 10.1014 18.3504 10.6156 19.2132C8.79707 13.6648 13.4321 10.9619 13.4321 10.9619Z" fill="#727272"/>
<path fill-rule="evenodd" clip-rule="evenodd" d="M14.2783 3.94267C14.6139 3.8675 18.6152 3.05862 19.2979 6.63464C19.3608 6.96359 19.3958 7.32852 19.397 7.73521C19.4419 7.43367 19.4646 7.10494 19.465 6.749C19.4635 6.23408 19.3864 5.72223 19.2362 5.23019C19.1897 5.078 19.1338 4.92888 19.069 4.78367C18.6711 3.8842 17.89 3.06055 16.381 3.06055C15.6056 3.06037 14.861 3.36683 14.3063 3.9144L14.2783 3.94267Z" fill="#9C9C9C"/>
<path fill-rule="evenodd" clip-rule="evenodd" d="M13.3139 21.6674C13.3139 21.6674 11.7477 17.4039 14.9665 15.5208C14.7307 15.3182 14.5412 15.0661 14.4112 14.7821C14.2813 14.4981 14.214 14.189 14.2139 13.8761C14.2139 12.9271 14.7746 12.4022 15.5297 11.9409C15.5297 11.9409 9.73405 14.9368 13.3139 21.6674Z" fill="#868686"/>
<path fill-rule="evenodd" clip-rule="evenodd" d="M13.9425 18.167C14.8121 19.5612 17.5872 24.115 16.4882 23.7803L23.8539 28.6843L23.3136 28.1112L14.657 18.927C14.369 18.6212 14.1199 18.3771 13.9425 18.167Z" fill="#C6C6C6"/>
<path fill-rule="evenodd" clip-rule="evenodd" d="M22.1363 16.7359C26.47 18.3216 29.5668 22.5182 29.5668 27.446C29.5663 28.0268 29.5246 28.5958 29.4415 29.1531C29.6842 28.2439 29.8067 27.3063 29.8058 26.3647C29.8058 21.746 26.9028 17.8127 22.8412 16.3267C21.6886 15.9057 20.4722 15.6909 19.2467 15.6919C17.8382 15.6919 16.4944 15.9707 15.2651 16.477C16.2535 16.1985 17.2749 16.058 18.3009 16.0594C19.6472 16.0594 20.9387 16.2971 22.1363 16.7359Z" fill="#858585"/>
<path fill-rule="evenodd" clip-rule="evenodd" d="M15.3918 8.89597C15.8926 9.11505 17.305 9.931 15.8971 11.7274C16.0564 11.6391 16.2191 11.55 16.3853 11.4601C17.2789 9.92265 16.1634 9.20886 15.564 8.95187C15.4559 8.90449 15.3446 8.86477 15.231 8.83301C15.2405 8.83622 15.3009 8.85678 15.3918 8.89597Z" fill="#C1C1C1"/>
<path fill-rule="evenodd" clip-rule="evenodd" d="M15.6632 10.4379C15.9156 10.9583 15.8978 11.7274 15.8978 11.7274C17.3044 9.93164 15.8927 9.1157 15.3918 8.89597C15.3394 8.87256 15.2859 8.85155 15.2316 8.83301H15.2297C15.2094 9.32514 15.0225 9.70356 14.7295 10.0242C15.2132 9.86033 15.4961 10.0948 15.6632 10.4379Z" fill="#868686"/>
<path fill-rule="evenodd" clip-rule="evenodd" d="M23.3138 28.1114L23.8534 28.6839L14.1048 17.8042C14.1048 17.8042 13.6649 17.3467 14.5815 16.7891C13.0967 17.5324 13.6382 17.8472 14.6571 18.9285L23.3138 28.1114Z" fill="#858585"/>
<path d="M14.2579 3.95759V3.94727H14.2559L14.2565 3.95828L14.2579 3.95759Z" fill="#6B6B6B"/>
<path d="M14.2581 3.96353V3.98409L14.3083 3.93012L14.3064 3.91406L14.2581 3.95582V3.96353ZM13.5112 5.28703L13.5519 5.25491L13.5621 5.25041C13.6898 4.77048 13.932 4.3381 14.2575 3.98473V3.96418C13.9002 4.33311 13.6432 4.78897 13.5112 5.28768" fill="#858585"/>
<path d="M5.15137 11.9491C6.09527 11.9157 9.14629 11.4897 13.9459 7.78329C13.698 7.42423 13.5306 7.01477 13.4555 6.58353C13.3804 6.15229 13.3994 5.70967 13.5111 5.28662L5.15137 11.9491Z" fill="#8F8F8F"/>
<path d="M14.2566 3.9569L14.2553 3.94727L4.88428 11.9487H4.89572L14.2566 3.9569Z" fill="#AEAEAE"/>
<path d="M5.15074 11.9494L13.5111 5.28696C13.6433 4.78818 13.9005 4.33232 14.258 3.96346L14.2567 3.95703L4.89648 11.9494C4.94733 11.9514 5.03251 11.9539 5.15074 11.9494Z" fill="#858585"/>
</g>
<defs>
<linearGradient id="paint0_linear_11335_552" x1="19.2335" y1="0.191406" x2="19.2335" y2="38.4008" gradientUnits="userSpaceOnUse">
<stop/>
<stop offset="1"/>
</linearGradient>
<linearGradient id="paint1_linear_11335_552" x1="22.7051" y1="27.9228" x2="23.4913" y2="34.7639" gradientUnits="userSpaceOnUse">
<stop stop-color="#0067AF"/>
<stop offset="1" stop-color="#3AB6A8"/>
</linearGradient>
<linearGradient id="paint2_linear_11335_552" x1="21.7982" y1="28.0269" x2="22.5844" y2="34.8681" gradientUnits="userSpaceOnUse">
<stop stop-color="#0067AF"/>
<stop offset="1" stop-color="#3AB6A8"/>
</linearGradient>
<linearGradient id="paint3_linear_11335_552" x1="21.1188" y1="24.8951" x2="18.2319" y2="33.6054" gradientUnits="userSpaceOnUse">
<stop stop-color="#0067AF"/>
<stop offset="1" stop-color="#3AB6A8"/>
</linearGradient>
<linearGradient id="paint4_linear_11335_552" x1="20.986" y1="28.1198" x2="21.7722" y2="34.9609" gradientUnits="userSpaceOnUse">
<stop stop-color="#0067AF"/>
<stop offset="1" stop-color="#3AB6A8"/>
</linearGradient>
<linearGradient id="paint5_linear_11335_552" x1="21.2237" y1="28.0933" x2="22.0099" y2="34.9344" gradientUnits="userSpaceOnUse">
<stop stop-color="#0067AF"/>
<stop offset="1" stop-color="#3AB6A8"/>
</linearGradient>
<linearGradient id="paint6_linear_11335_552" x1="22.7047" y1="27.9228" x2="23.4909" y2="34.7639" gradientUnits="userSpaceOnUse">
<stop stop-color="#0067AF"/>
<stop offset="1" stop-color="#3AB6A8"/>
</linearGradient>
<linearGradient id="paint7_linear_11335_552" x1="21.7977" y1="28.0269" x2="22.5839" y2="34.8681" gradientUnits="userSpaceOnUse">
<stop stop-color="#0067AF"/>
<stop offset="1" stop-color="#3AB6A8"/>
</linearGradient>
<linearGradient id="paint8_linear_11335_552" x1="21.1183" y1="24.8951" x2="18.2314" y2="33.6054" gradientUnits="userSpaceOnUse">
<stop stop-color="#0067AF"/>
<stop offset="1" stop-color="#3AB6A8"/>
</linearGradient>
<linearGradient id="paint9_linear_11335_552" x1="20.9855" y1="28.1198" x2="21.7717" y2="34.9609" gradientUnits="userSpaceOnUse">
<stop stop-color="#0067AF"/>
<stop offset="1" stop-color="#3AB6A8"/>
</linearGradient>
<linearGradient id="paint10_linear_11335_552" x1="21.2232" y1="28.0933" x2="22.0094" y2="34.9344" gradientUnits="userSpaceOnUse">
<stop stop-color="#0067AF"/>
<stop offset="1" stop-color="#3AB6A8"/>
</linearGradient>
</defs>
</svg>
