<svg width="87" height="26" viewBox="0 0 87 26" fill="none" xmlns="http://www.w3.org/2000/svg">
<g clip-path="url(#clip0_9147_241)">
<mask id="mask0_9147_241" style="mask-type:luminance" maskUnits="userSpaceOnUse" x="0" y="0" width="87" height="25">
<path d="M86.3876 0.046875H0.816895V24.2483H86.3876V0.046875Z" fill="white"/>
</mask>
<g mask="url(#mask0_9147_241)">
<path d="M7.30513 2.40056L11.1401 0.185926C11.2493 0.12292 11.3848 0.12292 11.494 0.185926L21.6011 6.02127C21.7103 6.08427 21.7775 6.20083 21.7786 6.32684L21.7922 10.3403C21.7922 10.4673 21.725 10.585 21.6147 10.648L17.7851 12.8594C17.5498 12.996 17.2548 12.8258 17.2537 12.5539L17.2411 8.95207C17.2411 8.82606 17.1729 8.7095 17.0637 8.64649L7.30513 3.01381C7.06886 2.8773 7.06886 2.53707 7.30513 2.40056Z" fill="#010101"/>
<path d="M4.82823 20.5786L0.99436 18.365C0.8841 18.302 0.816895 18.1854 0.816895 18.0583V6.38767C0.816895 6.26166 0.8841 6.1451 0.99331 6.08104L4.4628 4.06172C4.57306 3.99766 4.70852 3.99766 4.81773 4.06172L8.6474 6.27321C8.88262 6.40972 8.88367 6.7489 8.64845 6.88646L5.53599 8.69786C5.42678 8.76087 5.35958 8.87743 5.35958 9.00449V20.273C5.35958 20.546 5.0645 20.7151 4.82823 20.5786Z" fill="#010101"/>
<path d="M21.7923 13.6311V18.0583C21.7923 18.1854 21.7251 18.3019 21.6148 18.3649L11.5077 24.2003C11.3985 24.2633 11.2641 24.2633 11.1549 24.2003L7.67168 22.2051C7.56142 22.1421 7.49316 22.0245 7.49316 21.8974V17.4755C7.49316 17.2036 7.78719 17.0334 8.02346 17.1678L11.1486 18.9582C11.2578 19.0213 11.3922 19.0202 11.5014 18.9582L21.2599 13.3235C21.4961 13.187 21.7912 13.3571 21.7912 13.6301L21.7923 13.6311Z" fill="#010101"/>
<path d="M54.568 6.22559H50.6533C50.4832 6.22559 50.3466 6.36316 50.3466 6.53328V13.9795C50.3466 14.9319 50.1923 15.7289 49.8825 16.3695C49.5727 16.9911 49.1474 17.4574 48.6056 17.7682C48.0638 18.0591 47.4442 18.2061 46.748 18.2061C45.741 18.2061 44.9576 17.9047 44.3968 17.303C43.855 16.6814 43.5841 15.7184 43.5841 14.4174V6.53433C43.5841 6.36421 43.4465 6.22664 43.2774 6.22664H40.4338C40.4107 6.22245 40.3876 6.22035 40.3645 6.22035H34.7003V5.90532C34.7003 5.14715 34.8746 4.5843 35.2233 4.21467C35.5908 3.82614 36.1043 3.63188 36.7616 3.63188C37.1103 3.63188 37.439 3.68018 37.7487 3.77784C37.9398 3.83874 38.1278 3.9175 38.2906 4.00361C38.4533 4.08972 38.655 4.00781 38.7169 3.83349L39.6956 1.12531C39.746 0.984604 39.6893 0.827091 39.5601 0.752535C39.1779 0.530966 38.7295 0.364002 38.2129 0.250592C37.6133 0.115131 36.9843 0.046875 36.3259 0.046875C34.3916 0.046875 32.9015 0.58137 31.8556 1.65036C30.8108 2.69939 30.2878 4.10861 30.2878 5.87697V6.22035H28.2423C28.0417 6.22035 27.8779 6.35791 27.8779 6.52803V9.40946C27.8779 9.57959 28.0407 9.71714 28.2423 9.71714H30.2878V21.5989C30.2878 21.769 30.4254 21.9066 30.5945 21.9066H34.5082C34.6772 21.9066 34.8148 21.769 34.8148 21.5989V9.71714H39.055V15.0863C39.055 16.6992 39.3354 18.0307 39.8972 19.0798C40.459 20.1099 41.2424 20.8775 42.2484 21.3826C43.2743 21.8877 44.4357 22.1408 45.7315 22.1408C46.9318 22.1408 48.0343 21.8688 49.0403 21.3238C49.6389 20.9951 50.1513 20.5751 50.5787 20.0668V21.5989C50.5787 21.769 50.7163 21.9066 50.8853 21.9066H54.568C54.7381 21.9066 54.8746 21.769 54.8746 21.5989V6.53433C54.8746 6.36421 54.7371 6.22664 54.568 6.22664V6.22559Z" fill="#010101"/>
<path d="M67.7487 13.6861C67.2068 13.3553 66.5967 13.1033 65.9194 12.9279C65.2432 12.7536 64.5648 12.6266 63.8875 12.5488C63.2301 12.4512 62.62 12.3451 62.0583 12.2286C61.4975 12.112 61.0418 11.9566 60.6942 11.7623C60.3645 11.5681 60.2006 11.2772 60.2006 10.8876C60.2006 10.4602 60.4327 10.1105 60.8979 9.83852C61.362 9.56655 62.0981 9.43108 63.1041 9.43108C63.8203 9.43108 64.5554 9.51824 65.3104 9.69361C65.9877 9.82907 66.6566 10.0769 67.3192 10.4361C67.4757 10.5201 67.6689 10.4581 67.7445 10.2975L68.9941 7.61968C69.0623 7.47372 69.0067 7.2973 68.866 7.22065C68.175 6.84366 67.3391 6.55069 66.3563 6.34382C65.2537 6.1107 64.17 5.99414 63.1052 5.99414C61.5962 5.99414 60.2994 6.21781 59.2157 6.6641C58.132 7.09254 57.3003 7.68479 56.7196 8.44295C56.1588 9.20111 55.8774 10.0748 55.8774 11.0661C55.8774 11.9597 56.0423 12.6885 56.371 13.2524C56.7196 13.8153 57.1743 14.2626 57.735 14.5934C58.2968 14.9241 58.9153 15.1762 59.5926 15.3515C60.2699 15.5069 60.9378 15.633 61.5952 15.7306C62.2725 15.8283 62.892 15.9249 63.4528 16.0215C64.0135 16.1192 64.4588 16.2651 64.7885 16.4594C65.1371 16.6347 65.3114 16.9067 65.3114 17.2753C65.3114 17.7226 65.0888 18.0723 64.6436 18.3243C64.2183 18.5764 63.4822 18.7034 62.4373 18.7034C61.4891 18.7034 60.522 18.568 59.5349 18.296C58.6938 18.0429 57.9482 17.731 57.2971 17.3604C57.1407 17.2711 56.9422 17.3341 56.8666 17.4979L55.6128 20.2102C55.5466 20.3531 55.6002 20.5222 55.7336 20.6041C56.4214 21.0241 57.3108 21.3822 58.4018 21.6773C59.6399 21.9881 60.9273 22.1435 62.262 22.1435V22.1413C63.8287 22.1413 65.155 21.9282 66.2387 21.5008C67.3412 21.0735 68.1834 20.4907 68.7641 19.7524C69.3448 18.9952 69.6346 18.1301 69.6346 17.1587C69.6346 16.2651 69.4603 15.5458 69.1117 15.0019C68.7631 14.438 68.3084 14.001 67.7476 13.6903L67.7487 13.6861Z" fill="#010101"/>
<path d="M85.3145 9.78391C84.5983 8.5595 83.6217 7.62702 82.3826 6.98542C81.1635 6.32491 79.8477 5.99414 78.261 5.99414C76.6743 5.99414 75.2515 6.34382 73.9945 7.04317C72.7365 7.72258 71.74 8.67501 71.0049 9.89942C70.2888 11.1039 69.9307 12.5131 69.9307 14.0672C69.9307 15.6214 70.2982 17.0117 71.0333 18.235C71.7683 19.4395 72.8037 20.3919 74.1384 21.0913C75.493 21.7906 77.0597 22.1403 78.8407 22.1403V22.1424C80.2541 22.1424 81.5027 21.9282 82.5853 21.5019C83.5734 21.0944 84.4082 20.5326 85.0908 19.8186C85.2021 19.702 85.2021 19.5172 85.0929 19.3975L83.082 17.2081C82.9686 17.0852 82.7796 17.0768 82.6525 17.1871C82.1894 17.5913 81.6833 17.9022 81.133 18.1195C80.5135 18.3716 79.7879 18.4986 78.9562 18.4986C78.0279 18.4986 77.2151 18.3338 76.5179 18.003C75.8406 17.6533 75.3082 17.1576 74.9217 16.5171C74.7212 16.158 74.5784 15.7684 74.487 15.3504H86.0222C86.1797 15.3504 86.3121 15.2297 86.3268 15.0722C86.3373 14.964 86.3478 14.8517 86.3572 14.7382C86.3772 14.5051 86.3866 14.3014 86.3866 14.126C86.3866 12.4354 86.0285 10.9884 85.3124 9.78286L85.3145 9.78391ZM76.2291 9.95927C76.8287 9.60959 77.5165 9.43423 78.2904 9.43423C79.0643 9.43423 79.7417 9.60959 80.3224 9.95927C80.9031 10.289 81.3577 10.7563 81.6864 11.358C81.9048 11.757 82.0487 12.2044 82.1222 12.6979H74.4345C74.5101 12.2128 74.6529 11.7749 74.865 11.3864C75.1948 10.7647 75.6484 10.289 76.2291 9.95822V9.95927Z" fill="#010101"/>
</g>
</g>
<defs>
<clipPath id="clip0_9147_241">
<rect width="86" height="25" fill="white" transform="translate(0.816895 0.046875)"/>
</clipPath>
</defs>
</svg>
