<svg width="168" height="236" viewBox="0 0 168 236" fill="none" xmlns="http://www.w3.org/2000/svg">
<path d="M37.0749 54.0201C52.2931 20.9821 77.2625 2.36779 99.6881 3.01593C68.8879 -5.27555 30.7457 8.21639 9.75905 48.6903C11.4292 46.8468 22.184 48.9652 37.0749 54.0201Z" fill="url(#paint0_linear_9169_1266)"/>
<path d="M89.5413 71.8422C99.5717 46.9306 105.595 32.9921 117.69 8.21629C112.07 4.8956 105.979 3.19776 99.6881 3.01593C77.2625 2.36779 52.2931 20.9821 37.0749 54.0201C39.3369 53.8456 41.7716 53.9188 44.3449 54.2116C57.3483 55.6911 73.8885 62.7775 89.5413 71.8422Z" fill="url(#paint1_linear_9169_1266)"/>
<path d="M117.69 8.21629C105.595 32.9921 99.5717 46.9306 89.5413 71.8422C110.986 79.4514 123.345 84.398 133.654 94.3667C135.084 95.7493 136.474 97.2285 137.844 98.8249C157.023 58.8964 148.935 23.0208 117.69 8.21629Z" fill="url(#paint2_linear_9169_1266)"/>
<path d="M117.69 8.21629C148.935 23.0208 157.023 58.8964 137.844 98.8249C145.732 102.975 151.088 106.223 154.63 108.741C159.318 112.075 160.829 114.131 160.829 115.314C181.94 50.8081 144.238 20.2812 117.69 8.21629Z" fill="url(#paint3_linear_9169_1266)"/>
<path d="M151.786 116.98C157.362 117.469 159.389 117.262 160.829 115.314C160.829 114.131 159.318 112.075 154.63 108.741L151.786 116.98Z" fill="url(#paint4_linear_9169_1266)"/>
<path d="M151.786 116.98C157.26 123.581 154.853 125.712 143.711 122.765L151.786 116.98Z" fill="url(#paint5_linear_9169_1266)"/>
<path d="M154.63 108.741C151.088 106.223 145.732 102.975 137.844 98.8249L129.887 106.588L126.684 116.98C133.716 119.701 139.375 121.617 143.711 122.765L151.786 116.98L154.63 108.741Z" fill="url(#paint6_linear_9169_1266)"/>
<path d="M78.5483 99.8242C96.2065 110.476 106.437 114.613 119.907 116.326L129.887 106.588L133.654 94.3667C123.345 84.398 110.986 79.4514 89.5413 71.8422L77.0718 99.3526C77.558 99.5089 78.0501 99.6661 78.5483 99.8242Z" fill="url(#paint7_linear_9169_1266)"/>
<path d="M137.844 98.8249C136.474 97.2285 135.084 95.7493 133.654 94.3667L129.887 106.588L137.844 98.8249Z" fill="url(#paint8_linear_9169_1266)"/>
<path d="M126.684 116.98L129.887 106.588L119.907 116.326C122.068 116.601 124.312 116.813 126.684 116.98Z" fill="url(#paint9_linear_9169_1266)"/>
<path d="M89.5413 71.8422C73.8885 62.7775 57.3483 55.6911 44.3449 54.2116L36.3362 68.3648L35.8295 78.2025C45.4605 87.2236 55.3927 92.3847 77.0718 99.3526L89.5413 71.8422Z" fill="url(#paint10_linear_9169_1266)"/>
<path d="M44.3449 54.2116C41.7716 53.9188 39.3369 53.8456 37.0749 54.0201L36.7055 61.1925L36.3362 68.3648L44.3449 54.2116Z" fill="url(#paint11_linear_9169_1266)"/>
<path d="M16.1231 66.0513C20.094 68.6048 25.6653 71.6153 32.5777 75.0068L36.3362 68.3648L36.7055 61.1925L37.0749 54.0201C22.184 48.9652 11.4292 46.8468 9.75905 48.6903C9.30385 50.5175 11.2495 52.4625 15.2314 56.6783L16.1231 66.0513Z" fill="url(#paint12_linear_9169_1266)"/>
<path d="M35.8295 78.2025L36.3362 68.3648L32.5777 75.0068C33.6687 76.1262 34.7472 77.1887 35.8295 78.2025Z" fill="url(#paint13_linear_9169_1266)"/>
<path d="M15.2314 56.6783L16.1231 66.0513C7.60143 60.5717 6.44994 57.197 15.2314 56.6783Z" fill="url(#paint14_linear_9169_1266)"/>
<path d="M37.0749 54.0201C52.2931 20.9821 77.2625 2.36779 99.6881 3.01593M37.0749 54.0201C22.184 48.9652 11.4292 46.8468 9.75905 48.6903M37.0749 54.0201C39.3369 53.8456 41.7717 53.9188 44.3449 54.2116M37.0749 54.0201L36.7055 61.1925L36.3362 68.3648M117.69 8.21629C105.595 32.9921 99.5717 46.9306 89.5413 71.8422M117.69 8.21629C148.935 23.0208 157.023 58.8964 137.844 98.8249M117.69 8.21629C144.238 20.2812 181.94 50.8081 160.829 115.314M117.69 8.21629C112.07 4.8956 105.979 3.19776 99.6881 3.01593M89.5413 71.8422C110.986 79.4514 123.345 84.398 133.654 94.3667M89.5413 71.8422C73.8885 62.7775 57.3483 55.6911 44.3449 54.2116M89.5413 71.8422L77.0718 99.3526M137.844 98.8249C145.732 102.975 151.088 106.223 154.63 108.741M137.844 98.8249C136.474 97.2285 135.084 95.7493 133.654 94.3667M137.844 98.8249L129.887 106.588M160.829 115.314C159.389 117.262 157.362 117.469 151.786 116.98M160.829 115.314C160.829 114.131 159.318 112.075 154.63 108.741M151.786 116.98L154.63 108.741M151.786 116.98C157.26 123.581 154.853 125.712 143.711 122.765M151.786 116.98L143.711 122.765M126.684 116.98L44.3449 165.527M126.684 116.98C133.716 119.701 139.375 121.617 143.711 122.765M126.684 116.98L129.887 106.588M126.684 116.98C124.312 116.813 122.068 116.601 119.907 116.326M78.5483 99.8242L44.3449 165.527M78.5483 99.8242C96.2065 110.476 106.437 114.613 119.907 116.326M78.5483 99.8242C78.0501 99.6661 77.558 99.5089 77.0718 99.3526M32.5777 75.0068L44.3449 165.527M32.5777 75.0068C33.6687 76.1262 34.7472 77.1887 35.8296 78.2025M32.5777 75.0068L36.3362 68.3648M32.5777 75.0068C25.6653 71.6153 20.094 68.6048 16.1231 66.0513M15.2314 56.6783C11.2495 52.4625 9.30385 50.5175 9.75905 48.6903M15.2314 56.6783L16.1231 66.0513M15.2314 56.6783C6.44994 57.197 7.60143 60.5717 16.1231 66.0513M9.75905 48.6903C30.7457 8.21639 68.8879 -5.27555 99.6881 3.01593M133.654 94.3667L129.887 106.588M44.3449 54.2116L36.3362 68.3648M44.3449 165.527L143.711 122.765M44.3449 165.527L77.0718 99.3526M44.3449 165.527L119.907 116.326M44.3449 165.527L35.8296 78.2025M44.3449 165.527L16.1231 66.0513M129.887 106.588L119.907 116.326M77.0718 99.3526C55.3927 92.3847 45.4605 87.2236 35.8296 78.2025M36.3362 68.3648L35.8296 78.2025" stroke="white" stroke-width="0.5"/>
<path d="M53.2028 210.356C44.1225 226.856 26.7805 234.739 14.4684 227.964C2.15617 221.188 -0.463842 202.32 8.6164 185.82C17.6966 169.319 35.0386 161.436 47.3508 168.212C59.663 174.987 62.283 193.856 53.2028 210.356Z" fill="url(#paint15_linear_9169_1266)"/>
<path fill-rule="evenodd" clip-rule="evenodd" d="M54.2628 210.941C45.0686 227.648 28.0234 236.167 14.981 231.109C14.1263 230.778 13.2887 230.388 12.4717 229.938C-0.812133 222.628 -3.6389 202.27 6.1579 184.468C15.9547 166.666 34.6652 158.16 47.949 165.471C61.2329 172.781 64.0596 193.139 54.2628 210.941ZM13.1965 228.543C25.9129 235.541 43.8243 227.399 53.2027 210.357C62.581 193.315 59.875 173.827 47.1586 166.829C34.4421 159.831 16.5308 167.973 7.15244 185.015C-2.22592 202.057 0.480113 221.545 13.1965 228.543Z" fill="url(#paint16_linear_9169_1266)"/>
<path fill-rule="evenodd" clip-rule="evenodd" d="M53.2027 210.357C43.8243 227.399 25.9129 235.541 13.1965 228.543C0.480113 221.545 -2.22592 202.057 7.15244 185.015C16.5308 167.973 34.4421 159.831 47.1586 166.829C59.875 173.827 62.581 193.315 53.2027 210.357ZM14.4684 227.964C26.7805 234.739 44.1225 226.856 53.2028 210.356C62.283 193.856 59.663 174.987 47.3508 168.212C35.0386 161.436 17.6966 169.319 8.6164 185.82C-0.463842 202.32 2.15617 221.188 14.4684 227.964Z" fill="url(#paint17_linear_9169_1266)"/>
<path d="M47.949 165.471C61.2329 172.781 64.0596 193.139 54.2628 210.941C45.0686 227.648 28.0234 236.167 14.981 231.109L18.6058 232.956C19.5104 233.454 20.5597 233.754 21.51 234.107C34.516 238.94 50.8188 230.554 59.9485 213.963C68.8271 197.83 67.3376 179.597 57.0925 170.88C56.033 169.978 54.8798 169.178 53.6348 168.493L47.949 165.471Z" fill="url(#paint18_linear_9169_1266)"/>
<path d="M60.0088 184.237C59.0761 177.52 56.2312 171.651 51.6048 167.697L53.5142 168.712C53.5147 168.713 53.5152 168.713 53.5158 168.713C54.7453 169.39 55.8841 170.18 56.9305 171.07C67.0514 179.682 68.5753 197.769 59.7295 213.843C50.6313 230.376 34.4394 238.645 21.5971 233.872C21.3375 233.776 21.0753 233.685 20.8137 233.594C20.092 233.343 19.3745 233.094 18.7264 232.737L18.7264 232.737L18.7193 232.733L17.6975 232.213C30.4434 235.224 45.8964 226.662 54.4818 211.061C59.4037 202.118 61.1595 192.524 60.0088 184.237ZM54.0438 210.82C44.8821 227.469 27.9502 235.871 15.0714 230.876C14.2269 230.549 13.3995 230.164 12.5922 229.719C6.03518 226.111 2.04163 219.273 0.907182 211.103C-0.227275 202.933 1.50194 193.447 6.37693 184.589C11.2519 175.73 18.3403 169.193 25.8493 165.78C33.3583 162.366 41.2715 162.081 47.8285 165.69C54.3855 169.298 58.3791 176.136 59.5135 184.306C60.648 192.476 58.9188 201.962 54.0438 210.82ZM52.9837 210.235C48.467 218.443 41.9 224.499 34.9441 227.661C27.9883 230.823 20.6601 231.086 14.5889 227.745C8.51768 224.404 4.81872 218.072 3.76784 210.504C2.71696 202.936 4.31872 194.148 8.83542 185.94C13.3521 177.733 19.9192 171.677 26.8751 168.515C33.8309 165.353 41.1591 165.09 47.2303 168.431C53.3015 171.772 57.0004 178.103 58.0513 185.671C59.1022 193.24 57.5005 202.028 52.9837 210.235ZM14.3478 228.183C18.4275 230.428 23.0446 231.081 27.7263 230.368C22.6729 231.325 17.6809 230.726 13.3171 228.324C7.04373 224.872 3.22222 218.33 2.13657 210.511C1.05091 202.693 2.7057 193.614 7.37146 185.136C12.0372 176.657 18.8212 170.401 26.0072 167.135C33.1932 163.868 40.7647 163.596 47.038 167.048C51.3874 169.442 54.5582 173.32 56.4558 178.08C54.5524 173.764 51.5367 170.23 47.4713 167.993C41.2304 164.558 33.7314 164.849 26.6682 168.06C19.6049 171.27 12.9609 177.406 8.39737 185.699C3.83384 193.992 2.20549 202.888 3.27259 210.573C4.33971 218.258 8.10685 224.748 14.3478 228.183ZM13.076 228.762C19.5191 232.308 27.2614 232.008 34.5548 228.693C41.8482 225.377 48.7091 219.041 53.4217 210.478C58.1343 201.914 59.8157 192.728 58.7138 184.792C57.6119 176.857 53.7222 170.156 47.2791 166.61C40.836 163.064 33.0937 163.364 25.8003 166.68C18.5069 169.995 11.646 176.331 6.93341 184.895C2.22082 193.458 0.539444 202.645 1.64132 210.58C2.7432 218.516 6.63291 225.217 13.076 228.762Z" stroke="white" stroke-width="0.5"/>
<path d="M32.2453 183.18L38.6229 181.496C38.8045 181.448 38.9828 181.494 39.0886 181.615L48.8817 192.828C48.9876 192.949 49.0059 193.128 48.9316 193.297L46.5373 198.683C46.4609 198.853 46.3018 198.988 46.1188 199.036L39.75 200.717C39.3584 200.822 39.0724 200.495 39.2344 200.13L41.3827 195.296C41.4584 195.127 41.4387 194.948 41.3328 194.827L31.8767 184.002C31.6478 183.74 31.8523 183.284 32.2453 183.18Z" fill="url(#paint19_linear_9169_1266)"/>
<path d="M18.0569 206.73L14.3422 202.476C14.2349 202.355 14.2166 202.176 14.2929 202.006L21.3075 186.357C21.3832 186.188 21.5417 186.054 21.724 186.005L27.5033 184.461C27.6869 184.412 27.8652 184.457 27.9704 184.58L31.6808 188.829C31.9083 189.091 31.7058 189.546 31.3136 189.651L26.1291 191.037C25.9475 191.085 25.789 191.218 25.7126 191.389L18.9398 206.498C18.7757 206.864 18.2851 206.993 18.0562 206.731L18.0569 206.73Z" fill="url(#paint20_linear_9169_1266)"/>
<path d="M44.5575 203.095L41.8966 209.031C41.8202 209.202 41.6617 209.335 41.4788 209.383L24.6711 213.819C24.4895 213.867 24.3126 213.822 24.2068 213.701L20.8223 209.858C20.7151 209.736 20.696 209.556 20.7723 209.385L23.4301 203.456C23.5936 203.091 24.0827 202.962 24.3129 203.221L27.3492 206.67C27.455 206.791 27.6325 206.834 27.8135 206.788L44.0418 202.504C44.4348 202.4 44.7209 202.727 44.5568 203.093L44.5575 203.095Z" fill="url(#paint21_linear_9169_1266)"/>
<defs>
<linearGradient id="paint0_linear_9169_1266" x1="88.0831" y1="0.683596" x2="36.2737" y2="50.9685" gradientUnits="userSpaceOnUse">
<stop stop-color="#94F037"/>
<stop offset="1" stop-color="#70E000"/>
</linearGradient>
<linearGradient id="paint1_linear_9169_1266" x1="106.562" y1="3.41842" x2="72.2008" y2="56.3555" gradientUnits="userSpaceOnUse">
<stop stop-color="#94F037"/>
<stop offset="1" stop-color="#70E000"/>
</linearGradient>
<linearGradient id="paint2_linear_9169_1266" x1="120.591" y1="8.49908" x2="113.275" y2="70.3088" gradientUnits="userSpaceOnUse">
<stop stop-color="#94F037"/>
<stop offset="1" stop-color="#70E000"/>
</linearGradient>
<linearGradient id="paint3_linear_9169_1266" x1="135.103" y1="11.6256" x2="146.603" y2="88.3314" gradientUnits="userSpaceOnUse">
<stop stop-color="#94F037"/>
<stop offset="1" stop-color="#70E000"/>
</linearGradient>
<linearGradient id="paint4_linear_9169_1266" x1="88.0831" y1="69.6721" x2="71.004" y2="102.7" gradientUnits="userSpaceOnUse">
<stop stop-color="#5BA015"/>
<stop offset="1" stop-color="#6DB722"/>
</linearGradient>
<linearGradient id="paint5_linear_9169_1266" x1="88.0831" y1="69.6721" x2="71.004" y2="102.7" gradientUnits="userSpaceOnUse">
<stop stop-color="#5BA015"/>
<stop offset="1" stop-color="#6DB722"/>
</linearGradient>
<linearGradient id="paint6_linear_9169_1266" x1="88.0831" y1="69.6721" x2="71.004" y2="102.7" gradientUnits="userSpaceOnUse">
<stop stop-color="#5BA015"/>
<stop offset="1" stop-color="#6DB722"/>
</linearGradient>
<linearGradient id="paint7_linear_9169_1266" x1="88.0831" y1="69.6721" x2="71.004" y2="102.7" gradientUnits="userSpaceOnUse">
<stop stop-color="#5BA015"/>
<stop offset="1" stop-color="#6DB722"/>
</linearGradient>
<linearGradient id="paint8_linear_9169_1266" x1="88.0831" y1="69.6721" x2="71.004" y2="102.7" gradientUnits="userSpaceOnUse">
<stop stop-color="#5BA015"/>
<stop offset="1" stop-color="#6DB722"/>
</linearGradient>
<linearGradient id="paint9_linear_9169_1266" x1="88.0831" y1="69.6721" x2="71.004" y2="102.7" gradientUnits="userSpaceOnUse">
<stop stop-color="#5BA015"/>
<stop offset="1" stop-color="#6DB722"/>
</linearGradient>
<linearGradient id="paint10_linear_9169_1266" x1="88.0831" y1="69.6721" x2="71.004" y2="102.7" gradientUnits="userSpaceOnUse">
<stop stop-color="#5BA015"/>
<stop offset="1" stop-color="#6DB722"/>
</linearGradient>
<linearGradient id="paint11_linear_9169_1266" x1="88.0831" y1="69.6721" x2="71.004" y2="102.7" gradientUnits="userSpaceOnUse">
<stop stop-color="#5BA015"/>
<stop offset="1" stop-color="#6DB722"/>
</linearGradient>
<linearGradient id="paint12_linear_9169_1266" x1="88.0831" y1="69.6721" x2="71.004" y2="102.7" gradientUnits="userSpaceOnUse">
<stop stop-color="#5BA015"/>
<stop offset="1" stop-color="#6DB722"/>
</linearGradient>
<linearGradient id="paint13_linear_9169_1266" x1="88.0831" y1="69.6721" x2="71.004" y2="102.7" gradientUnits="userSpaceOnUse">
<stop stop-color="#5BA015"/>
<stop offset="1" stop-color="#6DB722"/>
</linearGradient>
<linearGradient id="paint14_linear_9169_1266" x1="88.0831" y1="69.6721" x2="71.004" y2="102.7" gradientUnits="userSpaceOnUse">
<stop stop-color="#5BA015"/>
<stop offset="1" stop-color="#6DB722"/>
</linearGradient>
<linearGradient id="paint15_linear_9169_1266" x1="47.3508" y1="168.212" x2="14.4683" y2="227.964" gradientUnits="userSpaceOnUse">
<stop stop-color="#B6F07C"/>
<stop offset="1" stop-color="#70E000"/>
</linearGradient>
<linearGradient id="paint16_linear_9169_1266" x1="47.3508" y1="168.212" x2="14.4683" y2="227.964" gradientUnits="userSpaceOnUse">
<stop stop-color="#A3F5AA"/>
<stop offset="1" stop-color="#52A959"/>
</linearGradient>
<linearGradient id="paint17_linear_9169_1266" x1="47.3508" y1="168.203" x2="14.5499" y2="227.904" gradientUnits="userSpaceOnUse">
<stop stop-color="#4D9A00"/>
<stop offset="1" stop-color="#70E000"/>
</linearGradient>
<linearGradient id="paint18_linear_9169_1266" x1="47.3508" y1="168.212" x2="14.4683" y2="227.964" gradientUnits="userSpaceOnUse">
<stop stop-color="#70E000"/>
<stop offset="1" stop-color="#57AD00"/>
</linearGradient>
<linearGradient id="paint19_linear_9169_1266" x1="43.0202" y1="182.546" x2="38.4565" y2="200.46" gradientUnits="userSpaceOnUse">
<stop stop-color="#507854"/>
<stop offset="1" stop-color="#3C6A41"/>
</linearGradient>
<linearGradient id="paint20_linear_9169_1266" x1="28.0031" y1="184.516" x2="22.065" y2="207.824" gradientUnits="userSpaceOnUse">
<stop stop-color="#507854"/>
<stop offset="1" stop-color="#3C6A41"/>
</linearGradient>
<linearGradient id="paint21_linear_9169_1266" x1="35.363" y1="200.221" x2="31.4414" y2="215.614" gradientUnits="userSpaceOnUse">
<stop stop-color="#507854"/>
<stop offset="1" stop-color="#3C6A41"/>
</linearGradient>
</defs>
</svg>
