<svg width="308" height="372" viewBox="0 0 308 372" fill="none" xmlns="http://www.w3.org/2000/svg">
<g clip-path="url(#clip0_12610_5997)">
<rect x="4" y="4.88208" width="300" height="646.4" rx="25.6" fill="#EDEDED"/>
<g clip-path="url(#clip1_12610_5997)">
<path opacity="0.35" d="M273.2 21.1243C273.2 20.167 273.976 19.391 274.934 19.391H288.267C289.224 19.391 290 20.167 290 21.1243V25.9243C290 26.8816 289.224 27.6576 288.267 27.6576H274.934C273.976 27.6576 273.2 26.8816 273.2 25.9243V21.1243Z" stroke="black" stroke-width="0.8"/>
<path opacity="0.4" d="M291.2 21.9243V25.1243C291.844 24.8533 292.263 24.2228 292.263 23.5243C292.263 22.8258 291.844 22.1953 291.2 21.9243Z" fill="black"/>
<path d="M274.4 21.4709C274.4 20.9849 274.794 20.5909 275.28 20.5909H287.92C288.406 20.5909 288.8 20.9849 288.8 21.4709V25.5776C288.8 26.0636 288.406 26.4576 287.92 26.4576H275.28C274.794 26.4576 274.4 26.0636 274.4 25.5776V21.4709Z" fill="black"/>
<path fill-rule="evenodd" clip-rule="evenodd" d="M262.664 20.8106C264.437 20.8107 266.142 21.4919 267.427 22.7133C267.524 22.8076 267.678 22.8064 267.774 22.7106L268.698 21.7773C268.747 21.7287 268.773 21.6629 268.773 21.5945C268.773 21.526 268.745 21.4605 268.696 21.4125C265.324 18.1809 260.004 18.1809 256.632 21.4125C256.583 21.4605 256.556 21.5259 256.555 21.5944C256.555 21.6629 256.582 21.7287 256.63 21.7773L257.555 22.7106C257.65 22.8066 257.805 22.8077 257.902 22.7133C259.186 21.4918 260.892 20.8106 262.664 20.8106ZM262.664 23.8472C263.638 23.8471 264.578 24.2091 265.3 24.8629C265.397 24.9557 265.551 24.9537 265.646 24.8584L266.57 23.925C266.619 23.8761 266.646 23.8097 266.645 23.7407C266.644 23.6716 266.616 23.6058 266.566 23.5578C264.368 21.5127 260.963 21.5127 258.764 23.5578C258.715 23.6058 258.686 23.6717 258.686 23.7407C258.685 23.8097 258.712 23.8761 258.761 23.925L259.684 24.8584C259.78 24.9537 259.933 24.9557 260.031 24.8629C260.753 24.2096 261.691 23.8476 262.664 23.8472ZM264.515 25.8902C264.516 25.9594 264.489 26.0261 264.44 26.0746L262.842 27.6872C262.795 27.7346 262.731 27.7612 262.664 27.7612C262.598 27.7612 262.534 27.7346 262.487 27.6872L260.889 26.0746C260.84 26.0261 260.812 25.9594 260.814 25.8902C260.815 25.821 260.845 25.7554 260.897 25.709C261.917 24.8459 263.412 24.8459 264.432 25.709C264.484 25.7555 264.513 25.821 264.515 25.8902Z" fill="black"/>
<path fill-rule="evenodd" clip-rule="evenodd" d="M251.734 19.2576H250.934C250.492 19.2576 250.134 19.6157 250.134 20.0576V26.9909C250.134 27.4327 250.492 27.7909 250.934 27.7909H251.734C252.175 27.7909 252.534 27.4327 252.534 26.9909V20.0576C252.534 19.6157 252.175 19.2576 251.734 19.2576ZM247.2 21.1242H248C248.442 21.1242 248.8 21.4824 248.8 21.9242V26.9909C248.8 27.4327 248.442 27.7909 248 27.7909H247.2C246.758 27.7909 246.4 27.4327 246.4 26.9909V21.9242C246.4 21.4824 246.758 21.1242 247.2 21.1242ZM244.267 22.9909H243.467C243.025 22.9909 242.667 23.3491 242.667 23.7909V26.9909C242.667 27.4327 243.025 27.7909 243.467 27.7909H244.267C244.709 27.7909 245.067 27.4327 245.067 26.9909V23.7909C245.067 23.3491 244.709 22.9909 244.267 22.9909ZM240.534 24.5909H239.734C239.292 24.5909 238.934 24.9491 238.934 25.3909V26.9909C238.934 27.4327 239.292 27.7909 239.734 27.7909H240.534C240.975 27.7909 241.334 27.4327 241.334 26.9909V25.3909C241.334 24.9491 240.975 24.5909 240.534 24.5909Z" fill="black"/>
<path d="M37.3609 18.9227C39.2242 18.9227 40.7769 20.2294 40.7769 23.1942V23.2059C40.7769 26.0009 39.482 27.6708 37.3257 27.6708C35.7613 27.6708 34.5894 26.7684 34.3257 25.4911L34.314 25.4266H35.814L35.8316 25.4794C36.0601 26.0594 36.5757 26.4344 37.3316 26.4344C38.691 26.4344 39.2593 25.1337 39.3179 23.5341C39.3238 23.4462 39.3296 23.3583 39.3296 23.2645H39.2945C38.9605 24.038 38.1167 24.6239 36.9742 24.6239C35.3453 24.6239 34.1968 23.452 34.1968 21.8641V21.8524C34.1968 20.1473 35.5386 18.9227 37.3609 18.9227ZM37.3609 23.4579C38.3277 23.4579 39.066 22.7782 39.066 21.8348V21.829C39.066 20.8915 38.3277 20.1591 37.3785 20.1591C36.441 20.1591 35.6851 20.8856 35.6851 21.7997V21.8114C35.6851 22.7723 36.4 23.4579 37.3609 23.4579ZM42.2636 21.993C41.789 21.993 41.414 21.618 41.414 21.1434C41.414 20.6688 41.789 20.2997 42.2636 20.2997C42.7382 20.2997 43.1074 20.6688 43.1074 21.1434C43.1074 21.618 42.7382 21.993 42.2636 21.993ZM42.2636 26.2938C41.789 26.2938 41.414 25.9188 41.414 25.4442C41.414 24.9696 41.789 24.6005 42.2636 24.6005C42.7382 24.6005 43.1074 24.9696 43.1074 25.4442C43.1074 25.9188 42.7382 26.2938 42.2636 26.2938ZM47.9046 27.5243V25.9012H43.6859V24.6122L47.1957 19.0692H49.346V24.6591H50.4945V25.9012H49.346V27.5243H47.9046ZM45.0453 24.6942H47.9281V20.2118H47.8929L45.0453 24.6532V24.6942ZM53.1589 27.5243V20.5106H53.1238L50.9382 22.0106V20.6219L53.1472 19.0692H54.6414V27.5243H53.1589Z" fill="black"/>
</g>
<path d="M19.712 57.7402H25.104V59.7562H19.712V57.7402ZM19.904 62.3482H26V64.4282H17.328V53.2282H25.792V55.3082H19.904V62.3482ZM33.1039 64.4282V62.7482L32.9439 62.3802V59.3722C32.9439 58.8389 32.7785 58.4229 32.4479 58.1242C32.1279 57.8256 31.6319 57.6762 30.9599 57.6762C30.5012 57.6762 30.0479 57.7509 29.5999 57.9002C29.1625 58.0389 28.7892 58.2309 28.4799 58.4762L27.5839 56.7322C28.0532 56.4016 28.6185 56.1456 29.2799 55.9642C29.9412 55.7829 30.6132 55.6922 31.2959 55.6922C32.6079 55.6922 33.6265 56.0016 34.3519 56.6202C35.0772 57.2389 35.4399 58.2042 35.4399 59.5162V64.4282H33.1039ZM30.4799 64.5562C29.8079 64.5562 29.2319 64.4442 28.7519 64.2202C28.2719 63.9856 27.9039 63.6709 27.6479 63.2762C27.3919 62.8816 27.2639 62.4389 27.2639 61.9482C27.2639 61.4362 27.3865 60.9882 27.6319 60.6042C27.8879 60.2202 28.2879 59.9216 28.8319 59.7082C29.3759 59.4842 30.0852 59.3722 30.9599 59.3722H33.2479V60.8282H31.2319C30.6452 60.8282 30.2399 60.9242 30.0159 61.1162C29.8025 61.3082 29.6959 61.5482 29.6959 61.8362C29.6959 62.1562 29.8185 62.4122 30.0639 62.6042C30.3199 62.7856 30.6665 62.8762 31.1039 62.8762C31.5199 62.8762 31.8932 62.7802 32.2239 62.5882C32.5545 62.3856 32.7945 62.0922 32.9439 61.7082L33.3279 62.8602C33.1465 63.4149 32.8159 63.8362 32.3359 64.1242C31.8559 64.4122 31.2372 64.5562 30.4799 64.5562ZM37.6989 64.4282V55.8202H40.0829V58.2522L39.7469 57.5482C40.0029 56.9402 40.4135 56.4816 40.9789 56.1722C41.5442 55.8522 42.2322 55.6922 43.0429 55.6922V57.9962C42.9362 57.9856 42.8402 57.9802 42.7549 57.9802C42.6695 57.9696 42.5789 57.9642 42.4829 57.9642C41.8002 57.9642 41.2455 58.1616 40.8189 58.5562C40.4029 58.9402 40.1949 59.5429 40.1949 60.3642V64.4282H37.6989ZM49.759 55.6922C50.4417 55.6922 51.0497 55.8309 51.583 56.1082C52.127 56.3749 52.5537 56.7909 52.863 57.3562C53.1723 57.9109 53.327 58.6256 53.327 59.5002V64.4282H50.831V59.8842C50.831 59.1909 50.6763 58.6789 50.367 58.3482C50.0683 58.0176 49.6417 57.8522 49.087 57.8522C48.6923 57.8522 48.335 57.9376 48.015 58.1082C47.7057 58.2682 47.4603 58.5189 47.279 58.8602C47.1083 59.2016 47.023 59.6389 47.023 60.1722V64.4282H44.527V55.8202H46.911V58.2042L46.463 57.4842C46.7723 56.9082 47.215 56.4656 47.791 56.1562C48.367 55.8469 49.023 55.6922 49.759 55.6922Z" fill="black"/>
<rect x="16" y="92.8813" width="276" height="72.8" rx="9.6" fill="white"/>
<path d="M34.8539 119.643V112.777H32.1659V111.803H38.6507V112.777H35.9627V119.643H34.8539ZM41.6436 119.71C41.0463 119.71 40.5162 119.58 40.0532 119.318C39.5903 119.057 39.2244 118.699 38.9556 118.243C38.6868 117.78 38.5524 117.257 38.5524 116.675C38.5524 116.085 38.6868 115.563 38.9556 115.107C39.2244 114.652 39.5903 114.297 40.0532 114.043C40.5162 113.782 41.0463 113.651 41.6436 113.651C42.2335 113.651 42.7599 113.782 43.2228 114.043C43.6932 114.297 44.0591 114.652 44.3204 115.107C44.5892 115.555 44.7236 116.078 44.7236 116.675C44.7236 117.265 44.5892 117.788 44.3204 118.243C44.0591 118.699 43.6932 119.057 43.2228 119.318C42.7599 119.58 42.2335 119.71 41.6436 119.71ZM41.6436 118.769C42.0244 118.769 42.3642 118.684 42.6628 118.512C42.969 118.34 43.2079 118.097 43.3796 117.784C43.5514 117.463 43.6372 117.093 43.6372 116.675C43.6372 116.249 43.5514 115.884 43.3796 115.577C43.2079 115.264 42.969 115.021 42.6628 114.849C42.3642 114.678 42.0244 114.592 41.6436 114.592C41.2628 114.592 40.9231 114.678 40.6244 114.849C40.3258 115.021 40.0868 115.264 39.9076 115.577C39.7284 115.884 39.6388 116.249 39.6388 116.675C39.6388 117.093 39.7284 117.463 39.9076 117.784C40.0868 118.097 40.3258 118.34 40.6244 118.512C40.9231 118.684 41.2628 118.769 41.6436 118.769ZM48.249 119.71C47.6517 119.71 47.1887 119.55 46.8602 119.229C46.5317 118.908 46.3674 118.448 46.3674 117.851V112.408H47.4426V117.806C47.4426 118.127 47.521 118.374 47.6778 118.545C47.8421 118.717 48.0735 118.803 48.3722 118.803C48.7082 118.803 48.9882 118.71 49.2122 118.523L49.5482 119.296C49.3839 119.438 49.1861 119.542 48.9546 119.609C48.7306 119.677 48.4954 119.71 48.249 119.71ZM45.3594 114.592V113.707H49.145V114.592H45.3594ZM54.5329 119.643V118.389L54.4769 118.153V116.014C54.4769 115.559 54.3425 115.208 54.0737 114.961C53.8124 114.708 53.4166 114.581 52.8865 114.581C52.5356 114.581 52.1921 114.64 51.8561 114.76C51.5201 114.872 51.2364 115.025 51.0049 115.219L50.5569 114.413C50.863 114.166 51.2289 113.98 51.6545 113.853C52.0876 113.718 52.5393 113.651 53.0097 113.651C53.8236 113.651 54.4508 113.849 54.8913 114.245C55.3318 114.64 55.5521 115.245 55.5521 116.059V119.643H54.5329ZM52.5841 119.71C52.1436 119.71 51.7553 119.636 51.4193 119.486C51.0908 119.337 50.8369 119.132 50.6577 118.87C50.4785 118.601 50.3889 118.299 50.3889 117.963C50.3889 117.642 50.4636 117.351 50.6129 117.089C50.7697 116.828 51.0198 116.619 51.3633 116.462C51.7142 116.305 52.1846 116.227 52.7745 116.227H54.6561V117H52.8193C52.2817 117 51.9196 117.089 51.7329 117.269C51.5462 117.448 51.4529 117.664 51.4529 117.918C51.4529 118.209 51.5686 118.445 51.8001 118.624C52.0316 118.796 52.3526 118.881 52.7633 118.881C53.1665 118.881 53.5174 118.792 53.8161 118.613C54.1222 118.433 54.3425 118.172 54.4769 117.829L54.6897 118.568C54.5478 118.919 54.2977 119.199 53.9393 119.408C53.5809 119.609 53.1292 119.71 52.5841 119.71ZM57.5419 119.643V111.333H58.6171V119.643H57.5419ZM66.1194 119.733C65.5221 119.733 64.9509 119.643 64.4058 119.464C63.8607 119.277 63.4314 119.038 63.1178 118.747L63.5322 117.873C63.8309 118.135 64.2117 118.351 64.6746 118.523C65.1375 118.695 65.6191 118.781 66.1194 118.781C66.5749 118.781 66.9445 118.728 67.2282 118.624C67.5119 118.519 67.721 118.377 67.8554 118.198C67.9898 118.012 68.057 117.803 68.057 117.571C68.057 117.302 67.9674 117.086 67.7882 116.921C67.6165 116.757 67.3887 116.627 67.105 116.529C66.8287 116.425 66.5226 116.335 66.1866 116.261C65.8506 116.186 65.5109 116.1 65.1674 116.003C64.8314 115.899 64.5215 115.768 64.2378 115.611C63.9615 115.454 63.7375 115.245 63.5658 114.984C63.3941 114.715 63.3082 114.372 63.3082 113.953C63.3082 113.55 63.4127 113.181 63.6218 112.845C63.8383 112.501 64.1669 112.229 64.6074 112.027C65.0554 111.818 65.6229 111.713 66.3098 111.713C66.7653 111.713 67.217 111.773 67.665 111.893C68.113 112.012 68.5013 112.184 68.8298 112.408L68.4602 113.304C68.1242 113.08 67.7695 112.919 67.3962 112.822C67.0229 112.718 66.6607 112.665 66.3098 112.665C65.8693 112.665 65.5071 112.721 65.2234 112.833C64.9397 112.945 64.7306 113.095 64.5962 113.281C64.4693 113.468 64.4058 113.677 64.4058 113.909C64.4058 114.185 64.4917 114.405 64.6634 114.569C64.8426 114.734 65.0703 114.864 65.3466 114.961C65.6303 115.059 65.9402 115.148 66.2762 115.23C66.6122 115.305 66.9482 115.391 67.2842 115.488C67.6277 115.585 67.9375 115.712 68.2138 115.869C68.4975 116.025 68.7253 116.235 68.897 116.496C69.0687 116.757 69.1546 117.093 69.1546 117.504C69.1546 117.9 69.0463 118.269 68.8298 118.613C68.6133 118.949 68.2773 119.221 67.8218 119.43C67.3738 119.632 66.8063 119.733 66.1194 119.733ZM72.6724 119.71C72.0751 119.71 71.6122 119.55 71.2836 119.229C70.9551 118.908 70.7908 118.448 70.7908 117.851V112.408H71.866V117.806C71.866 118.127 71.9444 118.374 72.1012 118.545C72.2655 118.717 72.497 118.803 72.7956 118.803C73.1316 118.803 73.4116 118.71 73.6356 118.523L73.9716 119.296C73.8074 119.438 73.6095 119.542 73.378 119.609C73.154 119.677 72.9188 119.71 72.6724 119.71ZM69.7828 114.592V113.707H73.5684V114.592H69.7828ZM78.9563 119.643V118.389L78.9003 118.153V116.014C78.9003 115.559 78.7659 115.208 78.4971 114.961C78.2358 114.708 77.8401 114.581 77.3099 114.581C76.959 114.581 76.6155 114.64 76.2795 114.76C75.9435 114.872 75.6598 115.025 75.4283 115.219L74.9803 114.413C75.2865 114.166 75.6523 113.98 76.0779 113.853C76.511 113.718 76.9627 113.651 77.4331 113.651C78.247 113.651 78.8742 113.849 79.3147 114.245C79.7553 114.64 79.9755 115.245 79.9755 116.059V119.643H78.9563ZM77.0075 119.71C76.567 119.71 76.1787 119.636 75.8427 119.486C75.5142 119.337 75.2603 119.132 75.0811 118.87C74.9019 118.601 74.8123 118.299 74.8123 117.963C74.8123 117.642 74.887 117.351 75.0363 117.089C75.1931 116.828 75.4433 116.619 75.7867 116.462C76.1377 116.305 76.6081 116.227 77.1979 116.227H79.0795V117H77.2427C76.7051 117 76.343 117.089 76.1563 117.269C75.9697 117.448 75.8763 117.664 75.8763 117.918C75.8763 118.209 75.9921 118.445 76.2235 118.624C76.455 118.796 76.7761 118.881 77.1867 118.881C77.5899 118.881 77.9409 118.792 78.2395 118.613C78.5457 118.433 78.7659 118.172 78.9003 117.829L79.1131 118.568C78.9713 118.919 78.7211 119.199 78.3627 119.408C78.0043 119.609 77.5526 119.71 77.0075 119.71ZM82.8389 118.209L82.8613 116.832L86.2773 113.707H87.5765L84.9557 116.283L84.3733 116.776L82.8389 118.209ZM81.9653 119.643V111.333H83.0405V119.643H81.9653ZM86.5013 119.643L84.1717 116.753L84.8661 115.891L87.8229 119.643H86.5013ZM91.2585 119.71C90.6238 119.71 90.0638 119.58 89.5785 119.318C89.1006 119.057 88.7273 118.699 88.4585 118.243C88.1972 117.788 88.0665 117.265 88.0665 116.675C88.0665 116.085 88.1934 115.563 88.4473 115.107C88.7086 114.652 89.0633 114.297 89.5113 114.043C89.9668 113.782 90.4782 113.651 91.0457 113.651C91.6206 113.651 92.1284 113.778 92.5689 114.032C93.0094 114.286 93.3529 114.644 93.5993 115.107C93.8532 115.563 93.9801 116.096 93.9801 116.709C93.9801 116.753 93.9764 116.806 93.9689 116.865C93.9689 116.925 93.9652 116.981 93.9577 117.033H88.9065V116.261H93.3977L92.9609 116.529C92.9684 116.149 92.89 115.809 92.7257 115.51C92.5614 115.212 92.3337 114.98 92.0425 114.816C91.7588 114.644 91.4265 114.558 91.0457 114.558C90.6724 114.558 90.3401 114.644 90.0489 114.816C89.7577 114.98 89.53 115.215 89.3657 115.521C89.2014 115.82 89.1193 116.164 89.1193 116.552V116.731C89.1193 117.127 89.2089 117.481 89.3881 117.795C89.5748 118.101 89.8324 118.34 90.1609 118.512C90.4894 118.684 90.8665 118.769 91.2921 118.769C91.643 118.769 91.9604 118.71 92.2441 118.59C92.5353 118.471 92.7892 118.292 93.0057 118.053L93.5993 118.747C93.3305 119.061 92.9945 119.3 92.5913 119.464C92.1956 119.628 91.7513 119.71 91.2585 119.71ZM97.9259 119.71C97.351 119.71 96.8358 119.583 96.3803 119.329C95.9323 119.076 95.5776 118.721 95.3163 118.265C95.055 117.81 94.9243 117.28 94.9243 116.675C94.9243 116.07 95.055 115.544 95.3163 115.096C95.5776 114.64 95.9323 114.286 96.3803 114.032C96.8358 113.778 97.351 113.651 97.9259 113.651C98.4262 113.651 98.8779 113.763 99.2811 113.987C99.6843 114.211 100.005 114.547 100.244 114.995C100.491 115.443 100.614 116.003 100.614 116.675C100.614 117.347 100.494 117.907 100.256 118.355C100.024 118.803 99.7067 119.143 99.3035 119.374C98.9003 119.598 98.4411 119.71 97.9259 119.71ZM98.0155 118.769C98.3888 118.769 98.7248 118.684 99.0235 118.512C99.3296 118.34 99.5686 118.097 99.7403 117.784C99.9195 117.463 100.009 117.093 100.009 116.675C100.009 116.249 99.9195 115.884 99.7403 115.577C99.5686 115.264 99.3296 115.021 99.0235 114.849C98.7248 114.678 98.3888 114.592 98.0155 114.592C97.6347 114.592 97.295 114.678 96.9963 114.849C96.6976 115.021 96.4587 115.264 96.2795 115.577C96.1003 115.884 96.0107 116.249 96.0107 116.675C96.0107 117.093 96.1003 117.463 96.2795 117.784C96.4587 118.097 96.6976 118.34 96.9963 118.512C97.295 118.684 97.6347 118.769 98.0155 118.769ZM100.043 119.643V118.041L100.11 116.664L99.9979 115.286V111.333H101.073V119.643H100.043Z" fill="#6B6B6B"/>
<ellipse cx="6" cy="6" rx="6" ry="6" transform="matrix(1 0 0 -1 108.402 121.443)" fill="#A7A7A7"/>
<path d="M113.865 116.434C113.865 116.21 113.901 116.012 113.971 115.839C114.048 115.666 114.141 115.513 114.249 115.378C114.365 115.244 114.486 115.119 114.614 115.004C114.742 114.889 114.861 114.78 114.969 114.678C115.085 114.569 115.177 114.457 115.248 114.342C115.325 114.226 115.363 114.098 115.363 113.958C115.363 113.727 115.267 113.542 115.075 113.401C114.889 113.26 114.64 113.19 114.326 113.19C114.025 113.19 113.757 113.254 113.52 113.382C113.283 113.503 113.088 113.676 112.934 113.9L111.773 113.218C112.029 112.828 112.384 112.518 112.838 112.287C113.293 112.05 113.843 111.932 114.489 111.932C114.969 111.932 115.392 112.002 115.757 112.143C116.121 112.278 116.406 112.476 116.611 112.738C116.822 113.001 116.928 113.324 116.928 113.708C116.928 113.958 116.889 114.178 116.813 114.37C116.736 114.562 116.637 114.729 116.515 114.87C116.393 115.01 116.262 115.142 116.121 115.263C115.987 115.385 115.859 115.503 115.737 115.618C115.616 115.734 115.513 115.855 115.43 115.983C115.353 116.111 115.315 116.262 115.315 116.434H113.865ZM114.595 118.844C114.326 118.844 114.105 118.758 113.933 118.585C113.76 118.412 113.673 118.207 113.673 117.97C113.673 117.727 113.76 117.526 113.933 117.366C114.105 117.199 114.326 117.116 114.595 117.116C114.87 117.116 115.091 117.199 115.257 117.366C115.43 117.526 115.517 117.727 115.517 117.97C115.517 118.207 115.43 118.412 115.257 118.585C115.091 118.758 114.87 118.844 114.595 118.844Z" fill="white"/>
<path d="M37.4395 148.947V130.899H39.3595V148.947H37.4395ZM38.1307 146.873C37.0555 146.873 36.0251 146.733 35.0395 146.451C34.0539 146.157 33.2603 145.779 32.6587 145.318L33.7147 142.976C34.2907 143.385 34.9691 143.725 35.7499 143.993C36.5435 144.249 37.3435 144.377 38.1499 144.377C38.7643 144.377 39.2571 144.32 39.6283 144.205C40.0123 144.077 40.2939 143.904 40.4731 143.686C40.6523 143.469 40.7419 143.219 40.7419 142.937C40.7419 142.579 40.6011 142.297 40.3195 142.093C40.0379 141.875 39.6667 141.702 39.2059 141.574C38.7451 141.433 38.2331 141.305 37.6699 141.19C37.1195 141.062 36.5627 140.909 35.9995 140.729C35.4491 140.55 34.9435 140.32 34.4827 140.038C34.0219 139.757 33.6443 139.385 33.3499 138.925C33.0683 138.464 32.9275 137.875 32.9275 137.158C32.9275 136.39 33.1323 135.693 33.5419 135.065C33.9643 134.425 34.5915 133.92 35.4235 133.549C36.2683 133.165 37.3243 132.973 38.5915 132.973C39.4363 132.973 40.2683 133.075 41.0875 133.28C41.9067 133.472 42.6299 133.766 43.2571 134.163L42.2971 136.525C41.6699 136.166 41.0427 135.904 40.4155 135.737C39.7883 135.558 39.1739 135.469 38.5723 135.469C37.9707 135.469 37.4779 135.539 37.0939 135.68C36.7099 135.821 36.4347 136.006 36.2683 136.237C36.1019 136.454 36.0187 136.71 36.0187 137.005C36.0187 137.35 36.1595 137.632 36.4411 137.849C36.7227 138.054 37.0939 138.221 37.5547 138.349C38.0155 138.477 38.5211 138.605 39.0715 138.733C39.6347 138.861 40.1915 139.008 40.7419 139.174C41.3051 139.341 41.8171 139.565 42.2779 139.846C42.7387 140.128 43.1099 140.499 43.3915 140.96C43.6859 141.421 43.8331 142.003 43.8331 142.707C43.8331 143.462 43.6219 144.153 43.1995 144.781C42.7771 145.408 42.1435 145.913 41.2987 146.297C40.4667 146.681 39.4107 146.873 38.1307 146.873ZM47.0765 146.643L52.4909 134.393L53.2973 135.737H46.0589L47.4413 134.278V137.926H44.6765V133.203H55.4477V135.219L50.4557 146.643H47.0765ZM62.2174 146.873C61.1166 146.873 60.131 146.605 59.2606 146.067C58.3902 145.517 57.7054 144.723 57.2062 143.686C56.707 142.649 56.4574 141.395 56.4574 139.923C56.4574 138.451 56.707 137.197 57.2062 136.16C57.7054 135.123 58.3902 134.336 59.2606 133.798C60.131 133.248 61.1166 132.973 62.2174 132.973C63.331 132.973 64.3166 133.248 65.1742 133.798C66.0446 134.336 66.7294 135.123 67.2286 136.16C67.7278 137.197 67.9774 138.451 67.9774 139.923C67.9774 141.395 67.7278 142.649 67.2286 143.686C66.7294 144.723 66.0446 145.517 65.1742 146.067C64.3166 146.605 63.331 146.873 62.2174 146.873ZM62.2174 144.243C62.7422 144.243 63.1966 144.096 63.5806 143.801C63.9774 143.507 64.2846 143.04 64.5022 142.4C64.7326 141.76 64.8478 140.934 64.8478 139.923C64.8478 138.912 64.7326 138.086 64.5022 137.446C64.2846 136.806 63.9774 136.339 63.5806 136.045C63.1966 135.75 62.7422 135.603 62.2174 135.603C61.7054 135.603 61.251 135.75 60.8542 136.045C60.4702 136.339 60.163 136.806 59.9326 137.446C59.715 138.086 59.6062 138.912 59.6062 139.923C59.6062 140.934 59.715 141.76 59.9326 142.4C60.163 143.04 60.4702 143.507 60.8542 143.801C61.251 144.096 61.7054 144.243 62.2174 144.243ZM71.0113 146.797C70.4993 146.797 70.0577 146.624 69.6865 146.278C69.3281 145.92 69.1489 145.465 69.1489 144.915C69.1489 144.365 69.3281 143.923 69.6865 143.59C70.0577 143.245 70.4993 143.072 71.0113 143.072C71.5361 143.072 71.9777 143.245 72.3361 143.59C72.6945 143.923 72.8737 144.365 72.8737 144.915C72.8737 145.465 72.6945 145.92 72.3361 146.278C71.9777 146.624 71.5361 146.797 71.0113 146.797ZM74.1163 143.821V141.728L80.4523 133.203H83.7163L77.5147 141.728L75.9979 141.286H86.5771V143.821H74.1163ZM81.3547 146.643V143.821L81.4507 141.286V138.771H84.3883V146.643H81.3547ZM87.3922 146.643V144.627L92.5762 139.731C92.9858 139.36 93.2866 139.027 93.4786 138.733C93.6706 138.438 93.7986 138.169 93.8626 137.926C93.9394 137.683 93.9778 137.459 93.9778 137.254C93.9778 136.717 93.7922 136.307 93.421 136.025C93.0626 135.731 92.5314 135.584 91.8274 135.584C91.2642 135.584 90.7394 135.693 90.253 135.91C89.7794 136.128 89.3762 136.467 89.0434 136.928L86.7778 135.469C87.2898 134.701 88.0066 134.093 88.9282 133.645C89.8498 133.197 90.9122 132.973 92.1154 132.973C93.1138 132.973 93.9842 133.139 94.7266 133.472C95.4818 133.792 96.0642 134.246 96.4738 134.835C96.8962 135.424 97.1074 136.128 97.1074 136.947C97.1074 137.382 97.0498 137.817 96.9346 138.253C96.8322 138.675 96.6146 139.123 96.2818 139.597C95.9618 140.07 95.4882 140.601 94.861 141.19L90.5602 145.241L89.965 144.109H97.549V146.643H87.3922Z" fill="black"/>
<path d="M168.334 119.643V112.777H165.646V111.803H172.131V112.777H169.443V119.643H168.334ZM175.124 119.71C174.527 119.71 173.997 119.58 173.534 119.318C173.071 119.057 172.705 118.699 172.436 118.243C172.167 117.78 172.033 117.257 172.033 116.675C172.033 116.085 172.167 115.563 172.436 115.107C172.705 114.652 173.071 114.297 173.534 114.043C173.997 113.782 174.527 113.651 175.124 113.651C175.714 113.651 176.24 113.782 176.703 114.043C177.174 114.297 177.54 114.652 177.801 115.107C178.07 115.555 178.204 116.078 178.204 116.675C178.204 117.265 178.07 117.788 177.801 118.243C177.54 118.699 177.174 119.057 176.703 119.318C176.24 119.58 175.714 119.71 175.124 119.71ZM175.124 118.769C175.505 118.769 175.845 118.684 176.143 118.512C176.449 118.34 176.688 118.097 176.86 117.784C177.032 117.463 177.118 117.093 177.118 116.675C177.118 116.249 177.032 115.884 176.86 115.577C176.688 115.264 176.449 115.021 176.143 114.849C175.845 114.678 175.505 114.592 175.124 114.592C174.743 114.592 174.404 114.678 174.105 114.849C173.806 115.021 173.567 115.264 173.388 115.577C173.209 115.884 173.119 116.249 173.119 116.675C173.119 117.093 173.209 117.463 173.388 117.784C173.567 118.097 173.806 118.34 174.105 118.512C174.404 118.684 174.743 118.769 175.124 118.769ZM181.729 119.71C181.132 119.71 180.669 119.55 180.341 119.229C180.012 118.908 179.848 118.448 179.848 117.851V112.408H180.923V117.806C180.923 118.127 181.001 118.374 181.158 118.545C181.323 118.717 181.554 118.803 181.853 118.803C182.189 118.803 182.469 118.71 182.693 118.523L183.029 119.296C182.864 119.438 182.667 119.542 182.435 119.609C182.211 119.677 181.976 119.71 181.729 119.71ZM178.84 114.592V113.707H182.625V114.592H178.84ZM188.013 119.643V118.389L187.957 118.153V116.014C187.957 115.559 187.823 115.208 187.554 114.961C187.293 114.708 186.897 114.581 186.367 114.581C186.016 114.581 185.673 114.64 185.337 114.76C185.001 114.872 184.717 115.025 184.485 115.219L184.037 114.413C184.344 114.166 184.709 113.98 185.135 113.853C185.568 113.718 186.02 113.651 186.49 113.651C187.304 113.651 187.931 113.849 188.372 114.245C188.812 114.64 189.033 115.245 189.033 116.059V119.643H188.013ZM186.065 119.71C185.624 119.71 185.236 119.636 184.9 119.486C184.571 119.337 184.317 119.132 184.138 118.87C183.959 118.601 183.869 118.299 183.869 117.963C183.869 117.642 183.944 117.351 184.093 117.089C184.25 116.828 184.5 116.619 184.844 116.462C185.195 116.305 185.665 116.227 186.255 116.227H188.137V117H186.3C185.762 117 185.4 117.089 185.213 117.269C185.027 117.448 184.933 117.664 184.933 117.918C184.933 118.209 185.049 118.445 185.281 118.624C185.512 118.796 185.833 118.881 186.244 118.881C186.647 118.881 186.998 118.792 187.297 118.613C187.603 118.433 187.823 118.172 187.957 117.829L188.17 118.568C188.028 118.919 187.778 119.199 187.42 119.408C187.061 119.609 186.61 119.71 186.065 119.71ZM191.022 119.643V111.333H192.098V119.643H191.022ZM197.315 119.643V111.803H200.373C201.06 111.803 201.646 111.911 202.131 112.128C202.616 112.344 202.99 112.658 203.251 113.069C203.512 113.479 203.643 113.968 203.643 114.536C203.643 115.103 203.512 115.592 203.251 116.003C202.99 116.406 202.616 116.716 202.131 116.933C201.646 117.149 201.06 117.257 200.373 117.257H197.931L198.435 116.742V119.643H197.315ZM202.557 119.643L200.563 116.798H201.761L203.777 119.643H202.557ZM198.435 116.854L197.931 116.305H200.339C201.056 116.305 201.597 116.152 201.963 115.846C202.336 115.533 202.523 115.096 202.523 114.536C202.523 113.976 202.336 113.543 201.963 113.237C201.597 112.931 201.056 112.777 200.339 112.777H197.931L198.435 112.217V116.854ZM207.939 119.71C207.304 119.71 206.744 119.58 206.259 119.318C205.781 119.057 205.408 118.699 205.139 118.243C204.878 117.788 204.747 117.265 204.747 116.675C204.747 116.085 204.874 115.563 205.128 115.107C205.389 114.652 205.744 114.297 206.192 114.043C206.647 113.782 207.159 113.651 207.726 113.651C208.301 113.651 208.809 113.778 209.249 114.032C209.69 114.286 210.033 114.644 210.28 115.107C210.534 115.563 210.661 116.096 210.661 116.709C210.661 116.753 210.657 116.806 210.649 116.865C210.649 116.925 210.646 116.981 210.638 117.033H205.587V116.261H210.078L209.641 116.529C209.649 116.149 209.57 115.809 209.406 115.51C209.242 115.212 209.014 114.98 208.723 114.816C208.439 114.644 208.107 114.558 207.726 114.558C207.353 114.558 207.021 114.644 206.729 114.816C206.438 114.98 206.21 115.215 206.046 115.521C205.882 115.82 205.8 116.164 205.8 116.552V116.731C205.8 117.127 205.889 117.481 206.069 117.795C206.255 118.101 206.513 118.34 206.841 118.512C207.17 118.684 207.547 118.769 207.973 118.769C208.323 118.769 208.641 118.71 208.925 118.59C209.216 118.471 209.47 118.292 209.686 118.053L210.28 118.747C210.011 119.061 209.675 119.3 209.272 119.464C208.876 119.628 208.432 119.71 207.939 119.71ZM213.299 119.643L211.092 113.707H212.111L214.071 119.083H213.59L215.628 113.707H216.535L218.529 119.083H218.059L220.063 113.707H221.027L218.809 119.643H217.779L215.908 114.737H216.222L214.329 119.643H213.299ZM225.616 119.643V118.389L225.56 118.153V116.014C225.56 115.559 225.426 115.208 225.157 114.961C224.896 114.708 224.5 114.581 223.97 114.581C223.619 114.581 223.276 114.64 222.94 114.76C222.604 114.872 222.32 115.025 222.088 115.219L221.64 114.413C221.947 114.166 222.312 113.98 222.738 113.853C223.171 113.718 223.623 113.651 224.093 113.651C224.907 113.651 225.534 113.849 225.975 114.245C226.415 114.64 226.636 115.245 226.636 116.059V119.643H225.616ZM223.668 119.71C223.227 119.71 222.839 119.636 222.503 119.486C222.174 119.337 221.92 119.132 221.741 118.87C221.562 118.601 221.472 118.299 221.472 117.963C221.472 117.642 221.547 117.351 221.696 117.089C221.853 116.828 222.103 116.619 222.447 116.462C222.798 116.305 223.268 116.227 223.858 116.227H225.74V117H223.903C223.365 117 223.003 117.089 222.816 117.269C222.63 117.448 222.536 117.664 222.536 117.918C222.536 118.209 222.652 118.445 222.884 118.624C223.115 118.796 223.436 118.881 223.847 118.881C224.25 118.881 224.601 118.792 224.9 118.613C225.206 118.433 225.426 118.172 225.56 117.829L225.773 118.568C225.631 118.919 225.381 119.199 225.023 119.408C224.664 119.609 224.213 119.71 223.668 119.71ZM228.625 119.643V113.707H229.656V115.32L229.555 114.917C229.719 114.506 229.996 114.192 230.384 113.976C230.772 113.759 231.25 113.651 231.817 113.651V114.693C231.773 114.685 231.728 114.681 231.683 114.681C231.646 114.681 231.608 114.681 231.571 114.681C230.996 114.681 230.541 114.853 230.205 115.197C229.869 115.54 229.701 116.037 229.701 116.686V119.643H228.625ZM235.541 119.71C234.966 119.71 234.451 119.583 233.995 119.329C233.547 119.076 233.192 118.721 232.931 118.265C232.67 117.81 232.539 117.28 232.539 116.675C232.539 116.07 232.67 115.544 232.931 115.096C233.192 114.64 233.547 114.286 233.995 114.032C234.451 113.778 234.966 113.651 235.541 113.651C236.041 113.651 236.493 113.763 236.896 113.987C237.299 114.211 237.62 114.547 237.859 114.995C238.106 115.443 238.229 116.003 238.229 116.675C238.229 117.347 238.109 117.907 237.87 118.355C237.639 118.803 237.322 119.143 236.918 119.374C236.515 119.598 236.056 119.71 235.541 119.71ZM235.63 118.769C236.004 118.769 236.34 118.684 236.638 118.512C236.944 118.34 237.183 118.097 237.355 117.784C237.534 117.463 237.624 117.093 237.624 116.675C237.624 116.249 237.534 115.884 237.355 115.577C237.183 115.264 236.944 115.021 236.638 114.849C236.34 114.678 236.004 114.592 235.63 114.592C235.25 114.592 234.91 114.678 234.611 114.849C234.312 115.021 234.074 115.264 233.894 115.577C233.715 115.884 233.626 116.249 233.626 116.675C233.626 117.093 233.715 117.463 233.894 117.784C234.074 118.097 234.312 118.34 234.611 118.512C234.91 118.684 235.25 118.769 235.63 118.769ZM237.658 119.643V118.041L237.725 116.664L237.613 115.286V111.333H238.688V119.643H237.658ZM242.425 119.71C241.932 119.71 241.462 119.643 241.014 119.509C240.573 119.374 240.226 119.21 239.972 119.016L240.42 118.165C240.674 118.336 240.987 118.482 241.361 118.601C241.734 118.721 242.115 118.781 242.503 118.781C243.003 118.781 243.362 118.71 243.578 118.568C243.802 118.426 243.914 118.228 243.914 117.974C243.914 117.788 243.847 117.642 243.713 117.537C243.578 117.433 243.399 117.355 243.175 117.302C242.959 117.25 242.716 117.205 242.447 117.168C242.178 117.123 241.91 117.071 241.641 117.011C241.372 116.944 241.126 116.854 240.902 116.742C240.678 116.623 240.498 116.462 240.364 116.261C240.23 116.052 240.162 115.775 240.162 115.432C240.162 115.073 240.263 114.76 240.465 114.491C240.666 114.222 240.95 114.017 241.316 113.875C241.689 113.726 242.13 113.651 242.638 113.651C243.026 113.651 243.418 113.7 243.814 113.797C244.217 113.886 244.545 114.017 244.799 114.189L244.34 115.04C244.071 114.861 243.791 114.737 243.5 114.67C243.209 114.603 242.918 114.569 242.626 114.569C242.156 114.569 241.805 114.648 241.574 114.805C241.342 114.954 241.226 115.148 241.226 115.387C241.226 115.589 241.294 115.745 241.428 115.857C241.57 115.962 241.749 116.044 241.966 116.104C242.19 116.164 242.436 116.216 242.705 116.261C242.974 116.298 243.242 116.35 243.511 116.417C243.78 116.477 244.023 116.563 244.239 116.675C244.463 116.787 244.642 116.944 244.777 117.145C244.919 117.347 244.99 117.616 244.99 117.952C244.99 118.31 244.885 118.62 244.676 118.881C244.467 119.143 244.172 119.348 243.791 119.497C243.41 119.639 242.955 119.71 242.425 119.71Z" fill="#6B6B6B"/>
<path d="M170.114 144.358V135.488H172.59V144.358H170.114ZM166.792 141.094V138.752H175.931V141.094H166.792ZM182.151 148.947V130.899H184.071V148.947H182.151ZM182.842 146.873C181.767 146.873 180.737 146.733 179.751 146.451C178.766 146.157 177.972 145.779 177.37 145.318L178.426 142.976C179.002 143.385 179.681 143.725 180.462 143.993C181.255 144.249 182.055 144.377 182.862 144.377C183.476 144.377 183.969 144.32 184.34 144.205C184.724 144.077 185.006 143.904 185.185 143.686C185.364 143.469 185.454 143.219 185.454 142.937C185.454 142.579 185.313 142.297 185.031 142.093C184.75 141.875 184.378 141.702 183.918 141.574C183.457 141.433 182.945 141.305 182.382 141.19C181.831 141.062 181.274 140.909 180.711 140.729C180.161 140.55 179.655 140.32 179.194 140.038C178.734 139.757 178.356 139.385 178.062 138.925C177.78 138.464 177.639 137.875 177.639 137.158C177.639 136.39 177.844 135.693 178.254 135.065C178.676 134.425 179.303 133.92 180.135 133.549C180.98 133.165 182.036 132.973 183.303 132.973C184.148 132.973 184.98 133.075 185.799 133.28C186.618 133.472 187.342 133.766 187.969 134.163L187.009 136.525C186.382 136.166 185.754 135.904 185.127 135.737C184.5 135.558 183.886 135.469 183.284 135.469C182.682 135.469 182.19 135.539 181.806 135.68C181.422 135.821 181.146 136.006 180.98 136.237C180.814 136.454 180.73 136.71 180.73 137.005C180.73 137.35 180.871 137.632 181.153 137.849C181.434 138.054 181.806 138.221 182.266 138.349C182.727 138.477 183.233 138.605 183.783 138.733C184.346 138.861 184.903 139.008 185.454 139.174C186.017 139.341 186.529 139.565 186.99 139.846C187.45 140.128 187.822 140.499 188.103 140.96C188.398 141.421 188.545 142.003 188.545 142.707C188.545 143.462 188.334 144.153 187.911 144.781C187.489 145.408 186.855 145.913 186.01 146.297C185.178 146.681 184.122 146.873 182.842 146.873ZM194.361 132.973C195.603 132.973 196.671 133.229 197.567 133.741C198.463 134.253 199.155 135.001 199.641 135.987C200.127 136.96 200.371 138.176 200.371 139.635C200.371 141.184 200.076 142.496 199.487 143.571C198.911 144.646 198.111 145.465 197.087 146.029C196.063 146.592 194.873 146.873 193.516 146.873C192.812 146.873 192.134 146.797 191.481 146.643C190.828 146.489 190.265 146.259 189.791 145.952L190.943 143.667C191.315 143.923 191.711 144.102 192.134 144.205C192.556 144.294 192.998 144.339 193.459 144.339C194.611 144.339 195.526 143.987 196.204 143.283C196.895 142.579 197.241 141.536 197.241 140.153C197.241 139.923 197.235 139.667 197.222 139.385C197.209 139.104 197.177 138.822 197.126 138.541L197.971 139.347C197.753 139.846 197.446 140.269 197.049 140.614C196.652 140.947 196.191 141.203 195.667 141.382C195.142 141.549 194.553 141.632 193.9 141.632C193.043 141.632 192.262 141.459 191.558 141.113C190.867 140.768 190.31 140.281 189.887 139.654C189.478 139.027 189.273 138.291 189.273 137.446C189.273 136.525 189.497 135.731 189.945 135.065C190.406 134.4 191.02 133.888 191.788 133.529C192.569 133.158 193.427 132.973 194.361 132.973ZM194.553 135.296C194.105 135.296 193.715 135.379 193.382 135.545C193.049 135.699 192.787 135.929 192.595 136.237C192.403 136.531 192.307 136.883 192.307 137.293C192.307 137.907 192.511 138.4 192.921 138.771C193.343 139.129 193.9 139.309 194.591 139.309C195.039 139.309 195.436 139.225 195.782 139.059C196.14 138.88 196.415 138.637 196.607 138.329C196.799 138.022 196.895 137.677 196.895 137.293C196.895 136.909 196.799 136.569 196.607 136.275C196.428 135.968 196.166 135.731 195.82 135.565C195.475 135.385 195.052 135.296 194.553 135.296ZM203.386 146.797C202.874 146.797 202.432 146.624 202.061 146.278C201.702 145.92 201.523 145.465 201.523 144.915C201.523 144.365 201.702 143.923 202.061 143.59C202.432 143.245 202.874 143.072 203.386 143.072C203.91 143.072 204.352 143.245 204.71 143.59C205.069 143.923 205.248 144.365 205.248 144.915C205.248 145.465 205.069 145.92 204.71 146.278C204.352 146.624 203.91 146.797 203.386 146.797ZM212.16 146.873C211.06 146.873 210.074 146.605 209.204 146.067C208.333 145.517 207.648 144.723 207.149 143.686C206.65 142.649 206.4 141.395 206.4 139.923C206.4 138.451 206.65 137.197 207.149 136.16C207.648 135.123 208.333 134.336 209.204 133.798C210.074 133.248 211.06 132.973 212.16 132.973C213.274 132.973 214.26 133.248 215.117 133.798C215.988 134.336 216.672 135.123 217.172 136.16C217.671 137.197 217.92 138.451 217.92 139.923C217.92 141.395 217.671 142.649 217.172 143.686C216.672 144.723 215.988 145.517 215.117 146.067C214.26 146.605 213.274 146.873 212.16 146.873ZM212.16 144.243C212.685 144.243 213.14 144.096 213.524 143.801C213.92 143.507 214.228 143.04 214.445 142.4C214.676 141.76 214.791 140.934 214.791 139.923C214.791 138.912 214.676 138.086 214.445 137.446C214.228 136.806 213.92 136.339 213.524 136.045C213.14 135.75 212.685 135.603 212.16 135.603C211.648 135.603 211.194 135.75 210.797 136.045C210.413 136.339 210.106 136.806 209.876 137.446C209.658 138.086 209.549 138.912 209.549 139.923C209.549 140.934 209.658 141.76 209.876 142.4C210.106 143.04 210.413 143.507 210.797 143.801C211.194 144.096 211.648 144.243 212.16 144.243ZM219.278 143.821V141.728L225.614 133.203H228.878L222.676 141.728L221.16 141.286H231.739V143.821H219.278ZM226.516 146.643V143.821L226.612 141.286V138.771H229.55V146.643H226.516Z" fill="#70E000"/>
<rect x="16.8008" y="173.682" width="274.4" height="181.229" rx="9.6" fill="white"/>
<path d="M39.4771 238.008V224.472H40.9171V238.008H39.4771ZM39.9955 236.453C39.1891 236.453 38.4163 236.347 37.6771 236.136C36.9379 235.915 36.3427 235.632 35.8915 235.286L36.6835 233.529C37.1155 233.837 37.6243 234.091 38.2099 234.293C38.8051 234.485 39.4051 234.581 40.0099 234.581C40.4707 234.581 40.8403 234.537 41.1187 234.451C41.4067 234.355 41.6179 234.225 41.7523 234.062C41.8867 233.899 41.9539 233.712 41.9539 233.501C41.9539 233.232 41.8483 233.021 41.6371 232.867C41.4259 232.704 41.1475 232.574 40.8019 232.478C40.4563 232.373 40.0723 232.277 39.6499 232.19C39.2371 232.094 38.8195 231.979 38.3971 231.845C37.9843 231.71 37.6051 231.537 37.2595 231.326C36.9139 231.115 36.6307 230.837 36.4099 230.491C36.1987 230.145 36.0931 229.704 36.0931 229.166C36.0931 228.59 36.2467 228.067 36.5539 227.597C36.8707 227.117 37.3411 226.737 37.9651 226.459C38.5987 226.171 39.3907 226.027 40.3411 226.027C40.9747 226.027 41.5987 226.104 42.2131 226.257C42.8275 226.401 43.3699 226.622 43.8403 226.92L43.1203 228.691C42.6499 228.422 42.1795 228.225 41.7091 228.101C41.2387 227.966 40.7779 227.899 40.3267 227.899C39.8755 227.899 39.5059 227.952 39.2179 228.057C38.9299 228.163 38.7235 228.302 38.5987 228.475C38.4739 228.638 38.4115 228.83 38.4115 229.051C38.4115 229.31 38.5171 229.521 38.7283 229.685C38.9395 229.838 39.2179 229.963 39.5635 230.059C39.9091 230.155 40.2883 230.251 40.7011 230.347C41.1235 230.443 41.5411 230.553 41.9539 230.678C42.3763 230.803 42.7603 230.971 43.1059 231.182C43.4515 231.393 43.7299 231.672 43.9411 232.017C44.1619 232.363 44.2723 232.8 44.2723 233.328C44.2723 233.894 44.1139 234.413 43.7971 234.883C43.4803 235.353 43.0051 235.733 42.3715 236.021C41.7475 236.309 40.9555 236.453 39.9955 236.453ZM46.6473 236.28V227.064L47.6553 228.072H44.6313V226.2H48.9801V236.28H46.6473ZM50.6447 236.28V234.768L54.5327 231.096C54.8399 230.817 55.0655 230.568 55.2095 230.347C55.3535 230.126 55.4495 229.925 55.4975 229.742C55.5551 229.56 55.5839 229.392 55.5839 229.238C55.5839 228.835 55.4447 228.528 55.1663 228.317C54.8975 228.096 54.4991 227.985 53.9711 227.985C53.5487 227.985 53.1551 228.067 52.7903 228.23C52.4351 228.393 52.1327 228.648 51.8831 228.993L50.1839 227.899C50.5679 227.323 51.1055 226.867 51.7967 226.531C52.4879 226.195 53.2847 226.027 54.1871 226.027C54.9359 226.027 55.5887 226.152 56.1455 226.401C56.7119 226.641 57.1487 226.982 57.4559 227.424C57.7727 227.865 57.9311 228.393 57.9311 229.008C57.9311 229.334 57.8879 229.661 57.8015 229.987C57.7247 230.304 57.5615 230.64 57.3119 230.995C57.0719 231.35 56.7167 231.749 56.2463 232.19L53.0207 235.229L52.5743 234.379H58.2623V236.28H50.6447ZM60.6903 236.395C60.3063 236.395 59.9751 236.265 59.6967 236.006C59.4279 235.737 59.2935 235.397 59.2935 234.984C59.2935 234.571 59.4279 234.24 59.6967 233.99C59.9751 233.731 60.3063 233.601 60.6903 233.601C61.0839 233.601 61.4151 233.731 61.6839 233.99C61.9527 234.24 62.0871 234.571 62.0871 234.984C62.0871 235.397 61.9527 235.737 61.6839 236.006C61.4151 236.265 61.0839 236.395 60.6903 236.395ZM66.5437 236.453C65.8429 236.453 65.1469 236.361 64.4557 236.179C63.7645 235.987 63.1789 235.718 62.6989 235.373L63.6061 233.587C63.9901 233.865 64.4365 234.086 64.9453 234.249C65.4541 234.413 65.9677 234.494 66.4861 234.494C67.0717 234.494 67.5325 234.379 67.8685 234.149C68.2045 233.918 68.3725 233.601 68.3725 233.198C68.3725 232.814 68.2237 232.512 67.9261 232.291C67.6285 232.07 67.1485 231.96 66.4861 231.96H65.4205V230.419L68.2285 227.237L68.4877 228.072H63.2029V226.2H70.2589V227.712L67.4653 230.894L66.2845 230.217H66.9613C68.1997 230.217 69.1357 230.496 69.7693 231.053C70.4029 231.609 70.7197 232.325 70.7197 233.198C70.7197 233.765 70.5709 234.297 70.2733 234.797C69.9757 235.286 69.5197 235.685 68.9053 235.992C68.2909 236.299 67.5037 236.453 66.5437 236.453ZM71.64 236.28V234.768L75.528 231.096C75.8352 230.817 76.0608 230.568 76.2048 230.347C76.3488 230.126 76.4448 229.925 76.4928 229.742C76.5504 229.56 76.5792 229.392 76.5792 229.238C76.5792 228.835 76.44 228.528 76.1616 228.317C75.8928 228.096 75.4944 227.985 74.9664 227.985C74.544 227.985 74.1504 228.067 73.7856 228.23C73.4304 228.393 73.128 228.648 72.8784 228.993L71.1792 227.899C71.5632 227.323 72.1008 226.867 72.792 226.531C73.4832 226.195 74.28 226.027 75.1824 226.027C75.9312 226.027 76.584 226.152 77.1408 226.401C77.7072 226.641 78.144 226.982 78.4512 227.424C78.768 227.865 78.9264 228.393 78.9264 229.008C78.9264 229.334 78.8832 229.661 78.7968 229.987C78.72 230.304 78.5568 230.64 78.3072 230.995C78.0672 231.35 77.712 231.749 77.2416 232.19L74.016 235.229L73.5696 234.379H79.2576V236.28H71.64Z" fill="black"/>
<path d="M35.0979 201.838V193.998H38.1555C38.8424 193.998 39.4285 194.107 39.9139 194.323C40.3992 194.54 40.7725 194.853 41.0339 195.264C41.2952 195.675 41.4259 196.164 41.4259 196.731C41.4259 197.299 41.2952 197.788 41.0339 198.198C40.7725 198.602 40.3992 198.915 39.9139 199.139C39.4285 199.356 38.8424 199.464 38.1555 199.464H35.7139L36.2179 198.938V201.838H35.0979ZM36.2179 199.05L35.7139 198.49H38.1219C38.8387 198.49 39.38 198.337 39.7459 198.03C40.1192 197.724 40.3059 197.291 40.3059 196.731C40.3059 196.171 40.1192 195.738 39.7459 195.432C39.38 195.126 38.8387 194.973 38.1219 194.973H35.7139L36.2179 194.413V199.05ZM42.8161 201.838V195.902H43.8465V197.515L43.7457 197.112C43.9099 196.701 44.1862 196.388 44.5745 196.171C44.9627 195.955 45.4406 195.846 46.0081 195.846V196.888C45.9633 196.881 45.9185 196.877 45.8737 196.877C45.8363 196.877 45.799 196.877 45.7617 196.877C45.1867 196.877 44.7313 197.049 44.3953 197.392C44.0593 197.735 43.8913 198.232 43.8913 198.882V201.838H42.8161ZM49.821 201.906C49.2236 201.906 48.6935 201.775 48.2306 201.514C47.7676 201.252 47.4018 200.894 47.133 200.438C46.8642 199.975 46.7298 199.453 46.7298 198.87C46.7298 198.281 46.8642 197.758 47.133 197.302C47.4018 196.847 47.7676 196.492 48.2306 196.238C48.6935 195.977 49.2236 195.846 49.821 195.846C50.4108 195.846 50.9372 195.977 51.4002 196.238C51.8706 196.492 52.2364 196.847 52.4978 197.302C52.7666 197.75 52.901 198.273 52.901 198.87C52.901 199.46 52.7666 199.983 52.4978 200.438C52.2364 200.894 51.8706 201.252 51.4002 201.514C50.9372 201.775 50.4108 201.906 49.821 201.906ZM49.821 200.965C50.2018 200.965 50.5415 200.879 50.8402 200.707C51.1463 200.535 51.3852 200.293 51.557 199.979C51.7287 199.658 51.8146 199.289 51.8146 198.87C51.8146 198.445 51.7287 198.079 51.557 197.773C51.3852 197.459 51.1463 197.217 50.8402 197.045C50.5415 196.873 50.2018 196.787 49.821 196.787C49.4402 196.787 49.1004 196.873 48.8018 197.045C48.5031 197.217 48.2642 197.459 48.085 197.773C47.9058 198.079 47.8162 198.445 47.8162 198.87C47.8162 199.289 47.9058 199.658 48.085 199.979C48.2642 200.293 48.5031 200.535 48.8018 200.707C49.1004 200.879 49.4402 200.965 49.821 200.965ZM53.6263 204.078C53.3799 204.078 53.1447 204.049 52.9207 203.989C52.6893 203.929 52.4951 203.839 52.3383 203.72L52.6855 202.891C52.9095 203.078 53.2007 203.171 53.5591 203.171C53.8429 203.171 54.0594 203.082 54.2087 202.902C54.3655 202.731 54.4439 202.473 54.4439 202.13V195.902H55.5191V202.107C55.5191 202.712 55.3549 203.19 55.0263 203.541C54.7053 203.899 54.2386 204.078 53.6263 204.078ZM54.9815 194.76C54.7725 194.76 54.597 194.693 54.4551 194.558C54.3207 194.424 54.2535 194.26 54.2535 194.066C54.2535 193.864 54.3207 193.696 54.4551 193.562C54.597 193.427 54.7725 193.36 54.9815 193.36C55.1906 193.36 55.3623 193.427 55.4967 193.562C55.6386 193.689 55.7095 193.849 55.7095 194.043C55.7095 194.245 55.6423 194.417 55.5079 194.558C55.3735 194.693 55.1981 194.76 54.9815 194.76ZM60.214 201.906C59.5793 201.906 59.0193 201.775 58.534 201.514C58.0561 201.252 57.6828 200.894 57.414 200.438C57.1526 199.983 57.022 199.46 57.022 198.87C57.022 198.281 57.1489 197.758 57.4028 197.302C57.6641 196.847 58.0188 196.492 58.4668 196.238C58.9222 195.977 59.4337 195.846 60.0012 195.846C60.5761 195.846 61.0838 195.973 61.5244 196.227C61.9649 196.481 62.3084 196.839 62.5548 197.302C62.8086 197.758 62.9356 198.292 62.9356 198.904C62.9356 198.949 62.9318 199.001 62.9244 199.061C62.9244 199.121 62.9206 199.177 62.9132 199.229H57.862V198.456H62.3532L61.9164 198.725C61.9238 198.344 61.8454 198.004 61.6812 197.706C61.5169 197.407 61.2892 197.175 60.998 197.011C60.7142 196.839 60.382 196.754 60.0012 196.754C59.6278 196.754 59.2956 196.839 59.0044 197.011C58.7132 197.175 58.4854 197.411 58.3212 197.717C58.1569 198.015 58.0748 198.359 58.0748 198.747V198.926C58.0748 199.322 58.1644 199.677 58.3436 199.99C58.5302 200.297 58.7878 200.535 59.1164 200.707C59.4449 200.879 59.822 200.965 60.2476 200.965C60.5985 200.965 60.9158 200.905 61.1996 200.786C61.4908 200.666 61.7446 200.487 61.9612 200.248L62.5548 200.942C62.286 201.256 61.95 201.495 61.5468 201.659C61.151 201.823 60.7068 201.906 60.214 201.906ZM67.0158 201.906C66.411 201.906 65.8696 201.775 65.3918 201.514C64.9214 201.252 64.5518 200.894 64.283 200.438C64.0142 199.983 63.8798 199.46 63.8798 198.87C63.8798 198.281 64.0142 197.758 64.283 197.302C64.5518 196.847 64.9214 196.492 65.3918 196.238C65.8696 195.977 66.411 195.846 67.0158 195.846C67.5534 195.846 68.0312 195.955 68.4494 196.171C68.875 196.38 69.2035 196.694 69.435 197.112L68.6174 197.638C68.4232 197.347 68.1843 197.134 67.9006 197C67.6243 196.858 67.3256 196.787 67.0046 196.787C66.6163 196.787 66.2691 196.873 65.963 197.045C65.6568 197.217 65.4142 197.459 65.235 197.773C65.0558 198.079 64.9662 198.445 64.9662 198.87C64.9662 199.296 65.0558 199.666 65.235 199.979C65.4142 200.293 65.6568 200.535 65.963 200.707C66.2691 200.879 66.6163 200.965 67.0046 200.965C67.3256 200.965 67.6243 200.898 67.9006 200.763C68.1843 200.621 68.4232 200.405 68.6174 200.114L69.435 200.629C69.2035 201.039 68.875 201.357 68.4494 201.581C68.0312 201.797 67.5534 201.906 67.0158 201.906ZM72.942 201.906C72.3446 201.906 71.8817 201.745 71.5532 201.424C71.2246 201.103 71.0604 200.644 71.0604 200.046V194.603H72.1356V200.002C72.1356 200.323 72.214 200.569 72.3708 200.741C72.535 200.913 72.7665 200.998 73.0652 200.998C73.4012 200.998 73.6812 200.905 73.9052 200.718L74.2412 201.491C74.0769 201.633 73.879 201.738 73.6476 201.805C73.4236 201.872 73.1884 201.906 72.942 201.906ZM70.0524 196.787V195.902H73.838V196.787H70.0524ZM77.9874 201.906C77.3527 201.906 76.7927 201.775 76.3074 201.514C75.8295 201.252 75.4562 200.894 75.1874 200.438C74.9261 199.983 74.7954 199.46 74.7954 198.87C74.7954 198.281 74.9223 197.758 75.1762 197.302C75.4375 196.847 75.7922 196.492 76.2402 196.238C76.6957 195.977 77.2071 195.846 77.7746 195.846C78.3495 195.846 78.8573 195.973 79.2978 196.227C79.7383 196.481 80.0818 196.839 80.3282 197.302C80.5821 197.758 80.709 198.292 80.709 198.904C80.709 198.949 80.7053 199.001 80.6978 199.061C80.6978 199.121 80.6941 199.177 80.6866 199.229H75.6354V198.456H80.1266L79.6898 198.725C79.6973 198.344 79.6189 198.004 79.4546 197.706C79.2903 197.407 79.0626 197.175 78.7714 197.011C78.4877 196.839 78.1554 196.754 77.7746 196.754C77.4013 196.754 77.069 196.839 76.7778 197.011C76.4866 197.175 76.2589 197.411 76.0946 197.717C75.9303 198.015 75.8482 198.359 75.8482 198.747V198.926C75.8482 199.322 75.9378 199.677 76.117 199.99C76.3037 200.297 76.5613 200.535 76.8898 200.707C77.2183 200.879 77.5954 200.965 78.021 200.965C78.3719 200.965 78.6893 200.905 78.973 200.786C79.2642 200.666 79.5181 200.487 79.7346 200.248L80.3282 200.942C80.0594 201.256 79.7234 201.495 79.3202 201.659C78.9245 201.823 78.4802 201.906 77.9874 201.906ZM84.6548 201.906C84.0799 201.906 83.5647 201.779 83.1092 201.525C82.6612 201.271 82.3065 200.916 82.0452 200.461C81.7839 200.005 81.6532 199.475 81.6532 198.87C81.6532 198.266 81.7839 197.739 82.0452 197.291C82.3065 196.836 82.6612 196.481 83.1092 196.227C83.5647 195.973 84.0799 195.846 84.6548 195.846C85.1551 195.846 85.6068 195.958 86.01 196.182C86.4132 196.406 86.7343 196.742 86.9732 197.19C87.2196 197.638 87.3428 198.198 87.3428 198.87C87.3428 199.542 87.2233 200.102 86.9844 200.55C86.7529 200.998 86.4356 201.338 86.0324 201.57C85.6292 201.794 85.17 201.906 84.6548 201.906ZM84.7444 200.965C85.1177 200.965 85.4537 200.879 85.7524 200.707C86.0585 200.535 86.2975 200.293 86.4692 199.979C86.6484 199.658 86.738 199.289 86.738 198.87C86.738 198.445 86.6484 198.079 86.4692 197.773C86.2975 197.459 86.0585 197.217 85.7524 197.045C85.4537 196.873 85.1177 196.787 84.7444 196.787C84.3636 196.787 84.0239 196.873 83.7252 197.045C83.4265 197.217 83.1876 197.459 83.0084 197.773C82.8292 198.079 82.7396 198.445 82.7396 198.87C82.7396 199.289 82.8292 199.658 83.0084 199.979C83.1876 200.293 83.4265 200.535 83.7252 200.707C84.0239 200.879 84.3636 200.965 84.7444 200.965ZM86.7716 201.838V200.237L86.8388 198.859L86.7268 197.482V193.528H87.802V201.838H86.7716ZM95.4874 201.906C94.8527 201.906 94.2927 201.775 93.8074 201.514C93.3295 201.252 92.9562 200.894 92.6874 200.438C92.4261 199.983 92.2954 199.46 92.2954 198.87C92.2954 198.281 92.4223 197.758 92.6762 197.302C92.9375 196.847 93.2922 196.492 93.7402 196.238C94.1957 195.977 94.7071 195.846 95.2746 195.846C95.8495 195.846 96.3573 195.973 96.7978 196.227C97.2383 196.481 97.5818 196.839 97.8282 197.302C98.0821 197.758 98.209 198.292 98.209 198.904C98.209 198.949 98.2053 199.001 98.1978 199.061C98.1978 199.121 98.1941 199.177 98.1866 199.229H93.1354V198.456H97.6266L97.1898 198.725C97.1973 198.344 97.1189 198.004 96.9546 197.706C96.7903 197.407 96.5626 197.175 96.2714 197.011C95.9877 196.839 95.6554 196.754 95.2746 196.754C94.9013 196.754 94.569 196.839 94.2778 197.011C93.9866 197.175 93.7589 197.411 93.5946 197.717C93.4303 198.015 93.3482 198.359 93.3482 198.747V198.926C93.3482 199.322 93.4378 199.677 93.617 199.99C93.8037 200.297 94.0613 200.535 94.3898 200.707C94.7183 200.879 95.0954 200.965 95.521 200.965C95.8719 200.965 96.1893 200.905 96.473 200.786C96.7642 200.666 97.0181 200.487 97.2346 200.248L97.8282 200.942C97.5594 201.256 97.2234 201.495 96.8202 201.659C96.4245 201.823 95.9802 201.906 95.4874 201.906ZM103.223 201.838V200.584L103.167 200.349V198.21C103.167 197.754 103.032 197.403 102.764 197.157C102.502 196.903 102.106 196.776 101.576 196.776C101.225 196.776 100.882 196.836 100.546 196.955C100.21 197.067 99.9262 197.22 99.6948 197.414L99.2468 196.608C99.5529 196.362 99.9188 196.175 100.344 196.048C100.777 195.914 101.229 195.846 101.7 195.846C102.513 195.846 103.141 196.044 103.581 196.44C104.022 196.836 104.242 197.441 104.242 198.254V201.838H103.223ZM101.274 201.906C100.833 201.906 100.445 201.831 100.109 201.682C99.7806 201.532 99.5268 201.327 99.3476 201.066C99.1684 200.797 99.0788 200.494 99.0788 200.158C99.0788 199.837 99.1534 199.546 99.3028 199.285C99.4596 199.023 99.7097 198.814 100.053 198.658C100.404 198.501 100.874 198.422 101.464 198.422H103.346V199.195H101.509C100.972 199.195 100.609 199.285 100.423 199.464C100.236 199.643 100.143 199.86 100.143 200.114C100.143 200.405 100.258 200.64 100.49 200.819C100.721 200.991 101.042 201.077 101.453 201.077C101.856 201.077 102.207 200.987 102.506 200.808C102.812 200.629 103.032 200.367 103.167 200.024L103.38 200.763C103.238 201.114 102.988 201.394 102.629 201.603C102.271 201.805 101.819 201.906 101.274 201.906ZM106.232 201.838V195.902H107.262V197.515L107.161 197.112C107.326 196.701 107.602 196.388 107.99 196.171C108.378 195.955 108.856 195.846 109.424 195.846V196.888C109.379 196.881 109.334 196.877 109.289 196.877C109.252 196.877 109.215 196.877 109.177 196.877C108.602 196.877 108.147 197.049 107.811 197.392C107.475 197.735 107.307 198.232 107.307 198.882V201.838H106.232ZM113.918 195.846C114.404 195.846 114.829 195.94 115.195 196.126C115.569 196.313 115.86 196.597 116.069 196.978C116.278 197.358 116.382 197.84 116.382 198.422V201.838H115.307V198.546C115.307 197.971 115.165 197.538 114.882 197.246C114.605 196.955 114.213 196.81 113.706 196.81C113.325 196.81 112.993 196.884 112.709 197.034C112.425 197.183 112.205 197.403 112.048 197.694C111.899 197.986 111.824 198.348 111.824 198.781V201.838H110.749V195.902H111.779V197.504L111.611 197.078C111.805 196.69 112.104 196.388 112.507 196.171C112.91 195.955 113.381 195.846 113.918 195.846ZM118.372 201.838V195.902H119.448V201.838H118.372ZM118.91 194.76C118.701 194.76 118.525 194.693 118.384 194.558C118.249 194.424 118.182 194.26 118.182 194.066C118.182 193.864 118.249 193.696 118.384 193.562C118.525 193.427 118.701 193.36 118.91 193.36C119.119 193.36 119.291 193.427 119.425 193.562C119.567 193.689 119.638 193.849 119.638 194.043C119.638 194.245 119.571 194.417 119.436 194.558C119.302 194.693 119.126 194.76 118.91 194.76ZM124.67 195.846C125.155 195.846 125.581 195.94 125.947 196.126C126.32 196.313 126.611 196.597 126.82 196.978C127.03 197.358 127.134 197.84 127.134 198.422V201.838H126.059V198.546C126.059 197.971 125.917 197.538 125.633 197.246C125.357 196.955 124.965 196.81 124.457 196.81C124.076 196.81 123.744 196.884 123.46 197.034C123.177 197.183 122.956 197.403 122.8 197.694C122.65 197.986 122.576 198.348 122.576 198.781V201.838H121.5V195.902H122.531V197.504L122.363 197.078C122.557 196.69 122.856 196.388 123.259 196.171C123.662 195.955 124.132 195.846 124.67 195.846ZM131.722 204.078C131.177 204.078 130.647 204 130.132 203.843C129.624 203.694 129.21 203.477 128.889 203.194L129.404 202.365C129.68 202.604 130.02 202.79 130.423 202.925C130.826 203.067 131.248 203.138 131.689 203.138C132.391 203.138 132.906 202.973 133.234 202.645C133.563 202.316 133.727 201.816 133.727 201.144V199.89L133.839 198.714L133.783 197.526V195.902H134.802V201.032C134.802 202.077 134.541 202.846 134.018 203.339C133.496 203.832 132.73 204.078 131.722 204.078ZM131.588 201.592C131.013 201.592 130.498 201.473 130.042 201.234C129.594 200.987 129.236 200.647 128.967 200.214C128.706 199.781 128.575 199.281 128.575 198.714C128.575 198.139 128.706 197.638 128.967 197.213C129.236 196.78 129.594 196.444 130.042 196.205C130.498 195.966 131.013 195.846 131.588 195.846C132.096 195.846 132.559 195.951 132.977 196.16C133.395 196.362 133.727 196.675 133.973 197.101C134.227 197.526 134.354 198.064 134.354 198.714C134.354 199.356 134.227 199.89 133.973 200.315C133.727 200.741 133.395 201.062 132.977 201.278C132.559 201.487 132.096 201.592 131.588 201.592ZM131.711 200.651C132.107 200.651 132.458 200.569 132.764 200.405C133.07 200.241 133.309 200.013 133.481 199.722C133.66 199.43 133.749 199.094 133.749 198.714C133.749 198.333 133.66 197.997 133.481 197.706C133.309 197.414 133.07 197.19 132.764 197.034C132.458 196.869 132.107 196.787 131.711 196.787C131.315 196.787 130.961 196.869 130.647 197.034C130.341 197.19 130.098 197.414 129.919 197.706C129.747 197.997 129.661 198.333 129.661 198.714C129.661 199.094 129.747 199.43 129.919 199.722C130.098 200.013 130.341 200.241 130.647 200.405C130.961 200.569 131.315 200.651 131.711 200.651ZM138.559 201.906C138.066 201.906 137.596 201.838 137.148 201.704C136.707 201.57 136.36 201.405 136.106 201.211L136.554 200.36C136.808 200.532 137.122 200.677 137.495 200.797C137.868 200.916 138.249 200.976 138.638 200.976C139.138 200.976 139.496 200.905 139.713 200.763C139.937 200.621 140.049 200.423 140.049 200.17C140.049 199.983 139.982 199.837 139.847 199.733C139.713 199.628 139.534 199.55 139.31 199.498C139.093 199.445 138.85 199.401 138.582 199.363C138.313 199.318 138.044 199.266 137.775 199.206C137.506 199.139 137.26 199.05 137.036 198.938C136.812 198.818 136.633 198.658 136.498 198.456C136.364 198.247 136.297 197.971 136.297 197.627C136.297 197.269 136.398 196.955 136.599 196.686C136.801 196.418 137.084 196.212 137.45 196.07C137.824 195.921 138.264 195.846 138.772 195.846C139.16 195.846 139.552 195.895 139.948 195.992C140.351 196.082 140.68 196.212 140.934 196.384L140.474 197.235C140.206 197.056 139.926 196.933 139.634 196.866C139.343 196.798 139.052 196.765 138.761 196.765C138.29 196.765 137.939 196.843 137.708 197C137.476 197.149 137.361 197.343 137.361 197.582C137.361 197.784 137.428 197.941 137.562 198.053C137.704 198.157 137.883 198.239 138.1 198.299C138.324 198.359 138.57 198.411 138.839 198.456C139.108 198.493 139.377 198.546 139.646 198.613C139.914 198.673 140.157 198.758 140.374 198.87C140.598 198.982 140.777 199.139 140.911 199.341C141.053 199.542 141.124 199.811 141.124 200.147C141.124 200.506 141.019 200.815 140.81 201.077C140.601 201.338 140.306 201.543 139.926 201.693C139.545 201.835 139.089 201.906 138.559 201.906Z" fill="#6B6B6B"/>
<path d="M43.7182 247.846C44.1961 247.846 44.618 247.94 44.9838 248.126C45.3497 248.313 45.6334 248.597 45.835 248.978C46.0441 249.358 46.1486 249.84 46.1486 250.422V253.838H45.0734V250.546C45.0734 249.971 44.939 249.538 44.6702 249.246C44.4014 248.955 44.0244 248.81 43.539 248.81C43.1806 248.81 42.867 248.884 42.5982 249.034C42.3294 249.183 42.1204 249.403 41.971 249.694C41.8292 249.986 41.7582 250.348 41.7582 250.781V253.838H40.683V250.546C40.683 249.971 40.5486 249.538 40.2798 249.246C40.0185 248.955 39.6414 248.81 39.1486 248.81C38.7977 248.81 38.4878 248.884 38.219 249.034C37.9502 249.183 37.7412 249.403 37.5918 249.694C37.4425 249.986 37.3678 250.348 37.3678 250.781V253.838H36.2926V247.902H37.323V249.482L37.155 249.078C37.3417 248.69 37.6292 248.388 38.0174 248.171C38.4057 247.955 38.8574 247.846 39.3726 247.846C39.9401 247.846 40.4292 247.988 40.8398 248.272C41.2505 248.548 41.5193 248.97 41.6462 249.538L41.2094 249.358C41.3886 248.903 41.7022 248.537 42.1502 248.261C42.5982 247.985 43.1209 247.846 43.7182 247.846ZM50.6694 253.906C50.0721 253.906 49.5419 253.775 49.079 253.514C48.6161 253.252 48.2502 252.894 47.9814 252.438C47.7126 251.975 47.5782 251.453 47.5782 250.87C47.5782 250.281 47.7126 249.758 47.9814 249.302C48.2502 248.847 48.6161 248.492 49.079 248.238C49.5419 247.977 50.0721 247.846 50.6694 247.846C51.2593 247.846 51.7857 247.977 52.2486 248.238C52.719 248.492 53.0849 248.847 53.3462 249.302C53.615 249.75 53.7494 250.273 53.7494 250.87C53.7494 251.46 53.615 251.983 53.3462 252.438C53.0849 252.894 52.719 253.252 52.2486 253.514C51.7857 253.775 51.2593 253.906 50.6694 253.906ZM50.6694 252.965C51.0502 252.965 51.3899 252.879 51.6886 252.707C51.9947 252.535 52.2337 252.293 52.4054 251.979C52.5771 251.658 52.663 251.289 52.663 250.87C52.663 250.445 52.5771 250.079 52.4054 249.773C52.2337 249.459 51.9947 249.217 51.6886 249.045C51.3899 248.873 51.0502 248.787 50.6694 248.787C50.2886 248.787 49.9489 248.873 49.6502 249.045C49.3515 249.217 49.1126 249.459 48.9334 249.773C48.7542 250.079 48.6646 250.445 48.6646 250.87C48.6646 251.289 48.7542 251.658 48.9334 251.979C49.1126 252.293 49.3515 252.535 49.6502 252.707C49.9489 252.879 50.2886 252.965 50.6694 252.965ZM58.406 247.846C58.8913 247.846 59.3169 247.94 59.6828 248.126C60.0561 248.313 60.3473 248.597 60.5564 248.978C60.7655 249.358 60.87 249.84 60.87 250.422V253.838H59.7948V250.546C59.7948 249.971 59.6529 249.538 59.3692 249.246C59.0929 248.955 58.7009 248.81 58.1932 248.81C57.8124 248.81 57.4801 248.884 57.1964 249.034C56.9127 249.183 56.6924 249.403 56.5356 249.694C56.3863 249.986 56.3116 250.348 56.3116 250.781V253.838H55.2364V247.902H56.2668V249.504L56.0988 249.078C56.2929 248.69 56.5916 248.388 56.9948 248.171C57.398 247.955 57.8684 247.846 58.406 247.846ZM64.8982 253.906C64.3009 253.906 63.838 253.745 63.5094 253.424C63.1809 253.103 63.0166 252.644 63.0166 252.046V246.603H64.0918V252.002C64.0918 252.323 64.1702 252.569 64.327 252.741C64.4913 252.913 64.7228 252.998 65.0214 252.998C65.3574 252.998 65.6374 252.905 65.8614 252.718L66.1974 253.491C66.0332 253.633 65.8353 253.738 65.6038 253.805C65.3798 253.872 65.1446 253.906 64.8982 253.906ZM62.0086 248.787V247.902H65.7942V248.787H62.0086ZM70.6669 247.846C71.1523 247.846 71.5779 247.94 71.9437 248.126C72.3171 248.313 72.6083 248.597 72.8173 248.978C73.0264 249.358 73.1309 249.84 73.1309 250.422V253.838H72.0557V250.546C72.0557 249.971 71.9139 249.538 71.6301 249.246C71.3539 248.955 70.9619 248.81 70.4541 248.81C70.0733 248.81 69.7411 248.884 69.4573 249.034C69.1736 249.183 68.9533 249.403 68.7965 249.694C68.6472 249.986 68.5725 250.348 68.5725 250.781V253.838H67.4973V245.528H68.5725V249.504L68.3597 249.078C68.5539 248.69 68.8525 248.388 69.2557 248.171C69.6589 247.955 70.1293 247.846 70.6669 247.846Z" fill="#6B6B6B"/>
<path d="M133.801 238.008V224.472H135.241V238.008H133.801ZM134.32 236.453C133.513 236.453 132.741 236.347 132.001 236.136C131.262 235.915 130.667 235.632 130.216 235.286L131.008 233.529C131.44 233.837 131.949 234.091 132.534 234.293C133.129 234.485 133.729 234.581 134.334 234.581C134.795 234.581 135.165 234.537 135.443 234.451C135.731 234.355 135.942 234.225 136.077 234.062C136.211 233.899 136.278 233.712 136.278 233.501C136.278 233.232 136.173 233.021 135.961 232.867C135.75 232.704 135.472 232.574 135.126 232.478C134.781 232.373 134.397 232.277 133.974 232.19C133.561 232.094 133.144 231.979 132.721 231.845C132.309 231.71 131.929 231.537 131.584 231.326C131.238 231.115 130.955 230.837 130.734 230.491C130.523 230.145 130.417 229.704 130.417 229.166C130.417 228.59 130.571 228.067 130.878 227.597C131.195 227.117 131.665 226.737 132.289 226.459C132.923 226.171 133.715 226.027 134.665 226.027C135.299 226.027 135.923 226.104 136.537 226.257C137.152 226.401 137.694 226.622 138.165 226.92L137.445 228.691C136.974 228.422 136.504 228.225 136.033 228.101C135.563 227.966 135.102 227.899 134.651 227.899C134.2 227.899 133.83 227.952 133.542 228.057C133.254 228.163 133.048 228.302 132.923 228.475C132.798 228.638 132.736 228.83 132.736 229.051C132.736 229.31 132.841 229.521 133.053 229.685C133.264 229.838 133.542 229.963 133.888 230.059C134.233 230.155 134.613 230.251 135.025 230.347C135.448 230.443 135.865 230.553 136.278 230.678C136.701 230.803 137.085 230.971 137.43 231.182C137.776 231.393 138.054 231.672 138.265 232.017C138.486 232.363 138.597 232.8 138.597 233.328C138.597 233.894 138.438 234.413 138.121 234.883C137.805 235.353 137.329 235.733 136.696 236.021C136.072 236.309 135.28 236.453 134.32 236.453ZM139.471 236.28V234.768L143.359 231.096C143.666 230.817 143.891 230.568 144.035 230.347C144.179 230.126 144.275 229.925 144.323 229.742C144.381 229.56 144.41 229.392 144.41 229.238C144.41 228.835 144.271 228.528 143.992 228.317C143.723 228.096 143.325 227.985 142.797 227.985C142.375 227.985 141.981 228.067 141.616 228.23C141.261 228.393 140.959 228.648 140.709 228.993L139.01 227.899C139.394 227.323 139.931 226.867 140.623 226.531C141.314 226.195 142.111 226.027 143.013 226.027C143.762 226.027 144.415 226.152 144.971 226.401C145.538 226.641 145.975 226.982 146.282 227.424C146.599 227.865 146.757 228.393 146.757 229.008C146.757 229.334 146.714 229.661 146.627 229.987C146.551 230.304 146.387 230.64 146.138 230.995C145.898 231.35 145.543 231.749 145.072 232.19L141.847 235.229L141.4 234.379H147.088V236.28H139.471ZM152.371 236.453C151.545 236.453 150.806 236.251 150.153 235.848C149.5 235.435 148.987 234.84 148.612 234.062C148.238 233.285 148.051 232.344 148.051 231.24C148.051 230.136 148.238 229.195 148.612 228.417C148.987 227.64 149.5 227.049 150.153 226.646C150.806 226.233 151.545 226.027 152.371 226.027C153.206 226.027 153.945 226.233 154.588 226.646C155.241 227.049 155.755 227.64 156.129 228.417C156.503 229.195 156.691 230.136 156.691 231.24C156.691 232.344 156.503 233.285 156.129 234.062C155.755 234.84 155.241 235.435 154.588 235.848C153.945 236.251 153.206 236.453 152.371 236.453ZM152.371 234.48C152.764 234.48 153.105 234.369 153.393 234.149C153.691 233.928 153.921 233.577 154.084 233.097C154.257 232.617 154.343 231.998 154.343 231.24C154.343 230.481 154.257 229.862 154.084 229.382C153.921 228.902 153.691 228.552 153.393 228.331C153.105 228.11 152.764 228 152.371 228C151.987 228 151.646 228.11 151.348 228.331C151.06 228.552 150.83 228.902 150.657 229.382C150.494 229.862 150.412 230.481 150.412 231.24C150.412 231.998 150.494 232.617 150.657 233.097C150.83 233.577 151.06 233.928 151.348 234.149C151.646 234.369 151.987 234.48 152.371 234.48ZM160.952 236.453C160.251 236.453 159.555 236.361 158.864 236.179C158.173 235.987 157.587 235.718 157.107 235.373L158.015 233.587C158.399 233.865 158.845 234.086 159.354 234.249C159.863 234.413 160.376 234.494 160.895 234.494C161.48 234.494 161.941 234.379 162.277 234.149C162.613 233.918 162.781 233.601 162.781 233.198C162.781 232.814 162.632 232.512 162.335 232.291C162.037 232.07 161.557 231.96 160.895 231.96H159.829V230.419L162.637 227.237L162.896 228.072H157.611V226.2H164.667V227.712L161.874 230.894L160.693 230.217H161.37C162.608 230.217 163.544 230.496 164.178 231.053C164.811 231.609 165.128 232.325 165.128 233.198C165.128 233.765 164.979 234.297 164.682 234.797C164.384 235.286 163.928 235.685 163.314 235.992C162.699 236.299 161.912 236.453 160.952 236.453Z" fill="black"/>
<path d="M138.046 247.846C138.524 247.846 138.946 247.94 139.312 248.126C139.678 248.313 139.962 248.597 140.163 248.978C140.372 249.358 140.477 249.84 140.477 250.422V253.838H139.402V250.546C139.402 249.971 139.267 249.538 138.998 249.246C138.73 248.955 138.352 248.81 137.867 248.81C137.509 248.81 137.195 248.884 136.926 249.034C136.658 249.183 136.448 249.403 136.299 249.694C136.157 249.986 136.086 250.348 136.086 250.781V253.838H135.011V250.546C135.011 249.971 134.877 249.538 134.608 249.246C134.347 248.955 133.97 248.81 133.477 248.81C133.126 248.81 132.816 248.884 132.547 249.034C132.278 249.183 132.069 249.403 131.92 249.694C131.771 249.986 131.696 250.348 131.696 250.781V253.838H130.621V247.902H131.651V249.482L131.483 249.078C131.67 248.69 131.957 248.388 132.346 248.171C132.734 247.955 133.186 247.846 133.701 247.846C134.268 247.846 134.757 247.988 135.168 248.272C135.579 248.548 135.847 248.97 135.974 249.538L135.538 249.358C135.717 248.903 136.03 248.537 136.478 248.261C136.926 247.985 137.449 247.846 138.046 247.846ZM144.998 253.906C144.4 253.906 143.87 253.775 143.407 253.514C142.944 253.252 142.578 252.894 142.31 252.438C142.041 251.975 141.906 251.453 141.906 250.87C141.906 250.281 142.041 249.758 142.31 249.302C142.578 248.847 142.944 248.492 143.407 248.238C143.87 247.977 144.4 247.846 144.998 247.846C145.587 247.846 146.114 247.977 146.577 248.238C147.047 248.492 147.413 248.847 147.674 249.302C147.943 249.75 148.078 250.273 148.078 250.87C148.078 251.46 147.943 251.983 147.674 252.438C147.413 252.894 147.047 253.252 146.577 253.514C146.114 253.775 145.587 253.906 144.998 253.906ZM144.998 252.965C145.378 252.965 145.718 252.879 146.017 252.707C146.323 252.535 146.562 252.293 146.734 251.979C146.905 251.658 146.991 251.289 146.991 250.87C146.991 250.445 146.905 250.079 146.734 249.773C146.562 249.459 146.323 249.217 146.017 249.045C145.718 248.873 145.378 248.787 144.998 248.787C144.617 248.787 144.277 248.873 143.978 249.045C143.68 249.217 143.441 249.459 143.262 249.773C143.082 250.079 142.993 250.445 142.993 250.87C142.993 251.289 143.082 251.658 143.262 251.979C143.441 252.293 143.68 252.535 143.978 252.707C144.277 252.879 144.617 252.965 144.998 252.965ZM152.734 247.846C153.219 247.846 153.645 247.94 154.011 248.126C154.384 248.313 154.675 248.597 154.885 248.978C155.094 249.358 155.198 249.84 155.198 250.422V253.838H154.123V250.546C154.123 249.971 153.981 249.538 153.697 249.246C153.421 248.955 153.029 248.81 152.521 248.81C152.141 248.81 151.808 248.884 151.525 249.034C151.241 249.183 151.021 249.403 150.864 249.694C150.714 249.986 150.64 250.348 150.64 250.781V253.838H149.565V247.902H150.595V249.504L150.427 249.078C150.621 248.69 150.92 248.388 151.323 248.171C151.726 247.955 152.197 247.846 152.734 247.846ZM159.226 253.906C158.629 253.906 158.166 253.745 157.838 253.424C157.509 253.103 157.345 252.644 157.345 252.046V246.603H158.42V252.002C158.42 252.323 158.498 252.569 158.655 252.741C158.819 252.913 159.051 252.998 159.35 252.998C159.686 252.998 159.966 252.905 160.19 252.718L160.526 253.491C160.361 253.633 160.163 253.738 159.932 253.805C159.708 253.872 159.473 253.906 159.226 253.906ZM156.337 248.787V247.902H160.122V248.787H156.337ZM164.995 247.846C165.48 247.846 165.906 247.94 166.272 248.126C166.645 248.313 166.936 248.597 167.145 248.978C167.355 249.358 167.459 249.84 167.459 250.422V253.838H166.384V250.546C166.384 249.971 166.242 249.538 165.958 249.246C165.682 248.955 165.29 248.81 164.782 248.81C164.401 248.81 164.069 248.884 163.785 249.034C163.502 249.183 163.281 249.403 163.125 249.694C162.975 249.986 162.901 250.348 162.901 250.781V253.838H161.825V245.528H162.901V249.504L162.688 249.078C162.882 248.69 163.181 248.388 163.584 248.171C163.987 247.955 164.457 247.846 164.995 247.846Z" fill="#6B6B6B"/>
<path d="M215.477 238.008V224.472H216.917V238.008H215.477ZM215.995 236.453C215.189 236.453 214.416 236.347 213.677 236.136C212.938 235.915 212.343 235.632 211.891 235.286L212.683 233.529C213.115 233.837 213.624 234.091 214.21 234.293C214.805 234.485 215.405 234.581 216.01 234.581C216.471 234.581 216.84 234.537 217.119 234.451C217.407 234.355 217.618 234.225 217.752 234.062C217.887 233.899 217.954 233.712 217.954 233.501C217.954 233.232 217.848 233.021 217.637 232.867C217.426 232.704 217.147 232.574 216.802 232.478C216.456 232.373 216.072 232.277 215.65 232.19C215.237 232.094 214.819 231.979 214.397 231.845C213.984 231.71 213.605 231.537 213.259 231.326C212.914 231.115 212.631 230.837 212.41 230.491C212.199 230.145 212.093 229.704 212.093 229.166C212.093 228.59 212.247 228.067 212.554 227.597C212.871 227.117 213.341 226.737 213.965 226.459C214.599 226.171 215.391 226.027 216.341 226.027C216.975 226.027 217.599 226.104 218.213 226.257C218.827 226.401 219.37 226.622 219.84 226.92L219.12 228.691C218.65 228.422 218.179 228.225 217.709 228.101C217.239 227.966 216.778 227.899 216.327 227.899C215.875 227.899 215.506 227.952 215.218 228.057C214.93 228.163 214.723 228.302 214.599 228.475C214.474 228.638 214.411 228.83 214.411 229.051C214.411 229.31 214.517 229.521 214.728 229.685C214.939 229.838 215.218 229.963 215.563 230.059C215.909 230.155 216.288 230.251 216.701 230.347C217.123 230.443 217.541 230.553 217.954 230.678C218.376 230.803 218.76 230.971 219.106 231.182C219.451 231.393 219.73 231.672 219.941 232.017C220.162 232.363 220.272 232.8 220.272 233.328C220.272 233.894 220.114 234.413 219.797 234.883C219.48 235.353 219.005 235.733 218.371 236.021C217.747 236.309 216.955 236.453 215.995 236.453ZM222.647 236.28V227.064L223.655 228.072H220.631V226.2H224.98V236.28H222.647ZM226.818 238.497L227.768 235.041L228.085 236.337C227.672 236.337 227.331 236.217 227.062 235.977C226.803 235.737 226.674 235.406 226.674 234.984C226.674 234.561 226.808 234.225 227.077 233.976C227.346 233.726 227.677 233.601 228.07 233.601C228.474 233.601 228.805 233.731 229.064 233.99C229.323 234.24 229.453 234.571 229.453 234.984C229.453 235.109 229.443 235.233 229.424 235.358C229.405 235.473 229.366 235.617 229.309 235.79C229.261 235.953 229.179 236.165 229.064 236.424L228.243 238.497H226.818ZM234.637 236.453C233.811 236.453 233.072 236.251 232.419 235.848C231.767 235.435 231.253 234.84 230.879 234.062C230.504 233.285 230.317 232.344 230.317 231.24C230.317 230.136 230.504 229.195 230.879 228.417C231.253 227.64 231.767 227.049 232.419 226.646C233.072 226.233 233.811 226.027 234.637 226.027C235.472 226.027 236.211 226.233 236.855 226.646C237.507 227.049 238.021 227.64 238.395 228.417C238.77 229.195 238.957 230.136 238.957 231.24C238.957 232.344 238.77 233.285 238.395 234.062C238.021 234.84 237.507 235.435 236.855 235.848C236.211 236.251 235.472 236.453 234.637 236.453ZM234.637 234.48C235.031 234.48 235.371 234.369 235.659 234.149C235.957 233.928 236.187 233.577 236.351 233.097C236.523 232.617 236.61 231.998 236.61 231.24C236.61 230.481 236.523 229.862 236.351 229.382C236.187 228.902 235.957 228.552 235.659 228.331C235.371 228.11 235.031 228 234.637 228C234.253 228 233.912 228.11 233.615 228.331C233.327 228.552 233.096 228.902 232.923 229.382C232.76 229.862 232.679 230.481 232.679 231.24C232.679 231.998 232.76 232.617 232.923 233.097C233.096 233.577 233.327 233.928 233.615 234.149C233.912 234.369 234.253 234.48 234.637 234.48ZM239.975 234.163V232.593L244.727 226.2H247.175L242.524 232.593L241.387 232.262H249.321V234.163H239.975ZM245.404 236.28V234.163L245.476 232.262V230.376H247.679V236.28H245.404ZM249.932 236.28V234.768L253.82 231.096C254.127 230.817 254.353 230.568 254.497 230.347C254.641 230.126 254.737 229.925 254.785 229.742C254.843 229.56 254.871 229.392 254.871 229.238C254.871 228.835 254.732 228.528 254.454 228.317C254.185 228.096 253.787 227.985 253.259 227.985C252.836 227.985 252.443 228.067 252.078 228.23C251.723 228.393 251.42 228.648 251.171 228.993L249.471 227.899C249.855 227.323 250.393 226.867 251.084 226.531C251.775 226.195 252.572 226.027 253.475 226.027C254.223 226.027 254.876 226.152 255.433 226.401C255.999 226.641 256.436 226.982 256.743 227.424C257.06 227.865 257.219 228.393 257.219 229.008C257.219 229.334 257.175 229.661 257.089 229.987C257.012 230.304 256.849 230.64 256.599 230.995C256.359 231.35 256.004 231.749 255.534 232.19L252.308 235.229L251.862 234.379H257.55V236.28H249.932Z" fill="black"/>
<path d="M212.55 256.078C212.267 256.078 211.99 256.03 211.721 255.933C211.453 255.843 211.221 255.709 211.027 255.53L211.486 254.723C211.636 254.865 211.8 254.973 211.979 255.048C212.158 255.123 212.349 255.16 212.55 255.16C212.812 255.16 213.028 255.093 213.2 254.958C213.372 254.824 213.532 254.585 213.681 254.242L214.051 253.424L214.163 253.29L216.493 247.902H217.545L214.667 254.432C214.495 254.85 214.301 255.179 214.085 255.418C213.876 255.657 213.644 255.825 213.39 255.922C213.136 256.026 212.856 256.078 212.55 256.078ZM213.961 254.029L211.251 247.902H212.371L214.678 253.189L213.961 254.029ZM221.028 253.906C220.393 253.906 219.833 253.775 219.348 253.514C218.87 253.252 218.497 252.894 218.228 252.438C217.967 251.983 217.836 251.46 217.836 250.87C217.836 250.281 217.963 249.758 218.217 249.302C218.478 248.847 218.833 248.492 219.281 248.238C219.736 247.977 220.248 247.846 220.815 247.846C221.39 247.846 221.898 247.973 222.338 248.227C222.779 248.481 223.122 248.839 223.369 249.302C223.623 249.758 223.75 250.292 223.75 250.904C223.75 250.949 223.746 251.001 223.738 251.061C223.738 251.121 223.735 251.177 223.727 251.229H218.676V250.456H223.167L222.73 250.725C222.738 250.344 222.659 250.004 222.495 249.706C222.331 249.407 222.103 249.175 221.812 249.011C221.528 248.839 221.196 248.754 220.815 248.754C220.442 248.754 220.11 248.839 219.818 249.011C219.527 249.175 219.299 249.411 219.135 249.717C218.971 250.015 218.889 250.359 218.889 250.747V250.926C218.889 251.322 218.978 251.677 219.158 251.99C219.344 252.297 219.602 252.535 219.93 252.707C220.259 252.879 220.636 252.965 221.062 252.965C221.413 252.965 221.73 252.905 222.014 252.786C222.305 252.666 222.559 252.487 222.775 252.248L223.369 252.942C223.1 253.256 222.764 253.495 222.361 253.659C221.965 253.823 221.521 253.906 221.028 253.906ZM228.763 253.838V252.584L228.707 252.349V250.21C228.707 249.754 228.573 249.403 228.304 249.157C228.043 248.903 227.647 248.776 227.117 248.776C226.766 248.776 226.423 248.836 226.087 248.955C225.751 249.067 225.467 249.22 225.235 249.414L224.787 248.608C225.094 248.362 225.459 248.175 225.885 248.048C226.318 247.914 226.77 247.846 227.24 247.846C228.054 247.846 228.681 248.044 229.122 248.44C229.562 248.836 229.783 249.441 229.783 250.254V253.838H228.763ZM226.815 253.906C226.374 253.906 225.986 253.831 225.65 253.682C225.321 253.532 225.067 253.327 224.888 253.066C224.709 252.797 224.619 252.494 224.619 252.158C224.619 251.837 224.694 251.546 224.843 251.285C225 251.023 225.25 250.814 225.594 250.658C225.945 250.501 226.415 250.422 227.005 250.422H228.887V251.195H227.05C226.512 251.195 226.15 251.285 225.963 251.464C225.777 251.643 225.683 251.86 225.683 252.114C225.683 252.405 225.799 252.64 226.031 252.819C226.262 252.991 226.583 253.077 226.994 253.077C227.397 253.077 227.748 252.987 228.047 252.808C228.353 252.629 228.573 252.367 228.707 252.024L228.92 252.763C228.778 253.114 228.528 253.394 228.17 253.603C227.811 253.805 227.36 253.906 226.815 253.906ZM231.772 253.838V247.902H232.803V249.515L232.702 249.112C232.866 248.701 233.142 248.388 233.531 248.171C233.919 247.955 234.397 247.846 234.964 247.846V248.888C234.92 248.881 234.875 248.877 234.83 248.877C234.793 248.877 234.755 248.877 234.718 248.877C234.143 248.877 233.688 249.049 233.352 249.392C233.016 249.735 232.848 250.232 232.848 250.882V253.838H231.772Z" fill="#6B6B6B"/>
<path opacity="0.2" d="M77.1903 314.635L34.625 321.647V344.243L273.954 340.347V272.561L77.1903 314.635Z" fill="url(#paint0_linear_12610_5997)"/>
<path d="M34.3594 321.853L77.5945 314.862" stroke="#70E000" stroke-width="1.6"/>
<path d="M273.592 273.385L78.0742 314.864" stroke="#70E000" stroke-width="1.6" stroke-dasharray="3.2 3.2"/>
</g>
<rect x="2" y="2.88208" width="304" height="650.4" rx="27.6" stroke="#EDEDED" stroke-width="4"/>
<defs>
<linearGradient id="paint0_linear_12610_5997" x1="154.29" y1="272.561" x2="154.29" y2="344.243" gradientUnits="userSpaceOnUse">
<stop stop-color="#70E000"/>
<stop offset="1" stop-color="#D9D9D9" stop-opacity="0"/>
</linearGradient>
<clipPath id="clip0_12610_5997">
<rect x="4" y="4.88208" width="300" height="646.4" rx="25.6" fill="white"/>
</clipPath>
<clipPath id="clip1_12610_5997">
<rect width="300" height="24.6248" fill="white" transform="translate(4 5.12427)"/>
</clipPath>
</defs>
</svg>
