<svg width="227" height="231" viewBox="0 0 227 231" fill="none" xmlns="http://www.w3.org/2000/svg">
<path d="M36.022 169.253L36.1261 169.139L36.148 168.986C39.8951 142.861 54.9035 112.689 79.3391 85.571C103.772 58.4555 132.565 40.2956 158.518 33.2251L158.66 33.1866L158.758 33.0776L178.198 11.5221L211.411 40.8399L211.413 40.8412C225.501 53.1749 229.365 74.2536 224.048 98.561C218.735 122.853 204.266 150.259 181.87 175.066L181.869 175.067C159.629 199.869 133.646 217.259 109.689 225.333C85.7145 233.412 63.8826 232.132 49.7958 219.796L16.5943 190.489L36.022 169.253Z" fill="#234600" stroke="#70E000"/>
<path fill-rule="evenodd" clip-rule="evenodd" d="M78.2366 84.4915C68.5065 95.3013 60.0288 106.725 53.4409 118.15L150.43 203.065C161.412 195.039 171.772 185.466 181.502 174.656C201.592 152.733 215.087 128.648 221.683 106.414L142.582 37.2473C120.921 46.1985 98.0078 62.5686 78.2366 84.4915Z" fill="#4A7C16"/>
<path fill-rule="evenodd" clip-rule="evenodd" d="M194.475 160.885C199.811 153.473 204.835 146.062 208.911 138.347L109.41 57.4448C102.503 62.6942 95.2852 68.558 88.6973 75.0438L194.475 160.885Z" fill="#70E000"/>
<path d="M45.7538 55.9315L45.7539 55.9314C67.9897 31.2811 93.9716 13.966 117.929 5.89133C141.904 -2.18892 163.738 -0.986507 177.828 11.194C191.756 23.5269 195.543 44.6829 190.227 69.0695C184.914 93.4407 170.525 120.924 148.284 145.73C125.889 170.381 99.9052 187.695 75.9875 195.731C52.0522 203.772 30.2978 202.492 16.2108 190.156L16.2084 190.154C2.12387 177.977 -1.74179 156.901 3.57549 132.553C8.88918 108.221 23.3579 80.7382 45.7538 55.9315Z" fill="url(#paint0_linear_12453_5176)" stroke="#76EC00"/>
<path fill-rule="evenodd" clip-rule="evenodd" d="M58.877 67.63C22.7803 107.774 10.2268 155.322 31.258 173.543C52.2891 191.764 98.7459 174.157 134.835 134.021C171.243 93.8768 183.485 46.3291 162.454 28.1081C141.742 9.58359 95.2849 27.4936 58.877 67.63Z" fill="url(#paint1_linear_12453_5176)"/>
<path fill-rule="evenodd" clip-rule="evenodd" d="M58.877 67.63C22.7803 107.774 10.2268 155.322 31.258 173.543C32.1991 174.468 33.4514 175.394 34.4001 176.016C19.9644 155.018 33.1478 112.098 66.7324 75.0413C101.258 36.7559 144.891 18.8458 167.175 33.0464C165.604 31.1955 164.351 29.3445 162.469 28.1081C141.742 9.58359 95.2849 27.4936 58.877 67.63Z" fill="#4B9700"/>
<path fill-rule="evenodd" clip-rule="evenodd" d="M188.476 77.8664L221.807 106.92C222.486 104.924 223.424 102.271 223.768 100.274C230.419 77.4207 227.263 55.373 209.708 38.344C201.923 32.3467 192.086 24.278 183.958 16.947C191.743 32.2635 195.246 55.5544 188.476 77.8664Z" fill="#70E000"/>
<path fill-rule="evenodd" clip-rule="evenodd" d="M104.294 73.3412L68.578 115.822L64.8428 119.907L71.0682 124.804L83.9406 109.691L90.166 102.334L93.9012 105.606L94.3129 106.017C81.4405 121.944 73.1366 135.432 75.2151 137.469L79.7837 141.142C82.2738 142.778 94.3128 132.562 108.019 117.037L118.401 125.617L130.862 110.503L120.48 101.923C123.381 98.6513 125.881 95.3897 127.95 92.5295C128.362 92.118 128.783 91.7166 128.783 91.3051C136.676 80.2759 141.244 72.1068 139.577 70.471L135.009 66.798C133.352 65.5736 125.46 71.6954 115.077 82.3232C112.587 84.7719 109.676 87.6321 107.185 90.9037L102.617 87.6321L110.509 78.2387L121.725 65.1622L115.911 59.8533L104.294 73.3412ZM114.676 97.0255L110.107 93.7538C113.009 90.4822 115.921 87.622 118.411 84.7619C126.715 76.5928 133.362 70.8725 136.686 69.6481C136.274 72.9197 131.705 80.2659 124.647 89.6693C123.813 91.3051 122.568 92.941 121.323 94.1653C118.421 98.2498 114.676 102.746 110.941 106.83C96.8231 123.991 83.539 136.646 78.137 138.282C78.9704 134.198 86.4408 122.356 97.6565 108.466L102.225 112.139L108.45 104.783L114.676 97.0255Z" fill="#76EC00"/>
<defs>
<linearGradient id="paint0_linear_12453_5176" x1="172.309" y1="9.87045" x2="32.4948" y2="194.607" gradientUnits="userSpaceOnUse">
<stop stop-color="#162C00"/>
<stop offset="1" stop-color="#4B9600"/>
</linearGradient>
<linearGradient id="paint1_linear_12453_5176" x1="165.312" y1="20.7915" x2="51.2981" y2="187.058" gradientUnits="userSpaceOnUse">
<stop stop-color="#499301"/>
<stop offset="1" stop-color="#1A3300"/>
</linearGradient>
</defs>
</svg>
