<svg width="171" height="170" viewBox="0 0 171 170" fill="none" xmlns="http://www.w3.org/2000/svg">
<g opacity="0.7" filter="url(#filter0_f_12453_5191)">
<path d="M66.1272 30.9283L66.2102 31.0582L66.3519 31.1188C81.0356 37.3962 96.3397 50.8922 108.386 69.4364C120.43 87.9777 126.54 107.655 126.611 123.919L126.611 124.066L126.691 124.189L136.17 138.795L113.93 153.536L113.928 153.537C104.571 159.794 91.6904 158.777 78.3053 151.863C64.9338 144.955 51.1629 132.205 40.1508 115.217L40.1499 115.216C29.1167 98.3207 23.0149 80.4055 22.0456 65.1471C21.0753 49.871 25.2482 37.3742 34.6071 31.1172C34.6074 31.1171 34.6077 31.1169 34.6079 31.1167L56.835 16.3846L66.1272 30.9283Z" fill="#234600" stroke="#70E000"/>
<path fill-rule="evenodd" clip-rule="evenodd" d="M109.357 68.8529C104.547 61.4574 99.1805 54.6988 93.5173 49.047L28.5075 92.5161C31.4884 100.208 35.4742 107.778 40.2838 115.174C49.982 130.381 61.9832 142.066 73.9824 149.419L126.951 113.954C125.104 99.8631 119.105 83.8738 109.357 68.8529Z" fill="#4A7C16"/>
<path fill-rule="evenodd" clip-rule="evenodd" d="M46.3208 124.934C49.828 129.222 53.3841 133.328 57.267 136.926L120.319 91.3557C118.326 86.4867 116.021 81.3389 113.253 76.4625L46.3208 124.934Z" fill="#70E000"/>
<path d="M131.035 54.4208L131.035 54.421C141.98 71.29 148.038 89.1927 149.008 104.452C149.979 119.729 145.851 132.24 136.582 138.523C127.251 144.686 114.337 143.613 100.905 136.686C87.487 129.766 73.6582 117.05 62.6223 100.154C51.702 83.1911 45.6446 65.2877 44.6914 50.0581C43.7371 34.8104 47.8978 22.3585 57.2576 16.1016L57.2602 16.0998C66.5248 9.82126 79.4029 10.8357 92.8124 17.7571C106.207 24.6707 120.023 37.4331 131.035 54.4208Z" fill="url(#paint0_linear_12453_5191)" stroke="#76EC00"/>
<path fill-rule="evenodd" clip-rule="evenodd" d="M122.281 60.1626C104.414 32.7199 78.51 17.9029 64.5258 27.3589C50.5416 36.8149 53.5696 66.7864 71.4336 94.2234C89.252 121.848 115.205 136.483 129.189 127.027C143.301 117.805 140.095 87.7864 122.281 60.1626Z" fill="url(#paint1_linear_12453_5191)"/>
<path fill-rule="evenodd" clip-rule="evenodd" d="M122.281 60.1626C104.414 32.7199 78.51 17.9029 64.5258 27.3589C63.8355 27.7647 63.0963 28.3528 62.5827 28.8107C77.159 23.6533 100.251 38.1128 116.703 63.5994C133.727 89.8303 137.377 118.196 125.553 129.017C126.885 128.387 128.166 127.944 129.187 127.036C143.301 117.805 140.095 87.7864 122.281 60.1626Z" fill="#4B9700"/>
<path fill-rule="evenodd" clip-rule="evenodd" d="M95.9325 134.454L73.6663 149.413C74.7301 150.124 76.1382 151.09 77.2546 151.604C89.6084 159.088 103.03 160.701 115.769 153.094C120.507 149.476 126.782 144.982 132.356 141.373C122.155 143.527 107.95 141.922 95.9325 134.454Z" fill="#70E000"/>
<path fill-rule="evenodd" clip-rule="evenodd" d="M111.802 85.864L92.5052 58.2775L90.6971 55.4487L86.8485 58.3257L93.688 68.2373L97.0232 73.0381L94.5187 74.712L94.2128 74.8885C86.8968 64.8492 80.2931 57.8684 78.7725 58.7658L75.9018 60.8647C74.5519 62.0662 78.651 70.7208 85.6009 81.1851L78.9404 85.9184L85.8446 95.5889L92.505 90.8557C93.9674 93.0688 95.487 95.0451 96.8391 96.7055C97.0157 97.0112 97.1848 97.3213 97.426 97.3859C102.653 103.74 106.725 107.698 107.945 106.978L110.816 104.879C111.794 104.101 109.444 98.5182 104.844 90.7693C103.799 88.9265 102.579 86.7721 101.052 84.8001L103.688 82.6382L107.955 88.735L113.861 97.3565L117.886 94.7853L111.802 85.864ZM96.2874 88.2258L98.9227 86.0638C100.385 88.2769 101.605 90.4313 102.891 92.3387C106.376 98.4844 108.686 103.275 108.882 105.414C107.028 104.659 103.439 100.83 99.0345 95.22C98.2063 94.475 97.4428 93.4891 96.9205 92.5677C94.9815 90.2269 92.9338 87.3276 91.1257 84.4988C83.2814 73.5365 77.948 63.7699 77.8372 60.3494C80.1009 61.4788 85.8705 67.713 92.2523 76.4622L89.3817 78.5611L92.7168 83.3619L96.2874 88.2258Z" fill="#76EC00"/>
</g>
<defs>
<filter id="filter0_f_12453_5191" x="14.4084" y="4.42773" width="142.238" height="160.763" filterUnits="userSpaceOnUse" color-interpolation-filters="sRGB">
<feFlood flood-opacity="0" result="BackgroundImageFix"/>
<feBlend mode="normal" in="SourceGraphic" in2="BackgroundImageFix" result="shape"/>
<feGaussianBlur stdDeviation="3.5" result="effect1_foregroundBlur_12453_5191"/>
</filter>
<linearGradient id="paint0_linear_12453_5191" x1="138.334" y1="135.662" x2="52.0942" y2="24.689" gradientUnits="userSpaceOnUse">
<stop stop-color="#162C00"/>
<stop offset="1" stop-color="#4B9600"/>
</linearGradient>
<linearGradient id="paint1_linear_12453_5191" x1="133.03" y1="129.849" x2="53.5487" y2="36.8937" gradientUnits="userSpaceOnUse">
<stop stop-color="#499301"/>
<stop offset="1" stop-color="#1A3300"/>
</linearGradient>
</defs>
</svg>
