<svg width="167" height="195" viewBox="0 0 167 195" fill="none" xmlns="http://www.w3.org/2000/svg">
<g opacity="0.7" filter="url(#filter0_f_12453_5189)">
<path d="M81.9763 61.7029L53.862 45.3489L13.7136 67.06L41.4066 84.4035L81.9763 61.7029Z" fill="#234600"/>
<path d="M142.236 27.9848L115.671 11.9241L95.3037 22.9383L122.632 38.9543L142.236 27.9848Z" fill="#76EC00"/>
<path d="M13.3132 168.397L41.2065 185.845L54.9016 156.59L18.4568 156.913L13.3132 168.397Z" fill="#234600"/>
<path d="M70.0225 124.289L31.3988 128.017L18.4568 156.913L54.9016 156.59L70.0225 124.289Z" fill="#70E000"/>
<path d="M53.862 45.3489L81.9763 61.7029L122.632 38.9543L95.3037 22.9383L53.862 45.3489Z" fill="#4B9700"/>
<path d="M158.527 123.998L117.824 99.5431L84.7289 94.1203L147.013 130.084L158.527 123.998Z" fill="#70E000"/>
<path d="M117.824 99.5431L149.291 24.0372L142.236 27.9848L122.632 38.9543L81.9763 61.7029L41.4066 84.4035L36.356 87.2296L46.7712 93.6953L75.8838 111.768L70.0225 124.289L54.9016 156.59L41.2065 185.845L41.3447 185.932L147.013 130.084L84.7289 94.1203L117.824 99.5431Z" fill="url(#paint0_linear_12453_5189)"/>
<path d="M149.291 24.0372L122.457 8.2548L115.671 11.9241L142.236 27.9848L149.291 24.0372Z" fill="#4A7C16"/>
<path d="M8.45054 69.9061L36.356 87.2296L41.4066 84.4035L13.7136 67.06L8.45054 69.9061Z" fill="#4A7C16"/>
<path d="M75.8838 111.768L46.7712 93.6953L31.3988 128.017L70.0225 124.289L75.8838 111.768Z" fill="#234600"/>
<path d="M149.291 24.0372L117.824 99.5431M149.291 24.0372L122.457 8.2548L115.671 11.9241M149.291 24.0372L142.236 27.9848M117.824 99.5431L158.527 123.998L147.013 130.084M117.824 99.5431L84.7289 94.1203L147.013 130.084M36.356 87.2296L8.45054 69.9061L13.7136 67.06M36.356 87.2296L46.7712 93.6953M36.356 87.2296L41.4066 84.4035M41.3447 185.932L41.1074 186.057L41.2065 185.845M41.3447 185.932L147.013 130.084M41.3447 185.932L41.2065 185.845M46.7712 93.6953L75.8838 111.768L70.0225 124.289M46.7712 93.6953L31.3988 128.017M53.862 45.3489L81.9763 61.7029M53.862 45.3489L13.7136 67.06M53.862 45.3489L95.3037 22.9383M81.9763 61.7029L41.4066 84.4035M81.9763 61.7029L122.632 38.9543M13.7136 67.06L41.4066 84.4035M31.3988 128.017L70.0225 124.289M31.3988 128.017L18.4568 156.913M70.0225 124.289L54.9016 156.59M18.4568 156.913L13.3132 168.397L41.2065 185.845M18.4568 156.913L54.9016 156.59M54.9016 156.59L41.2065 185.845M115.671 11.9241L142.236 27.9848M115.671 11.9241L95.3037 22.9383M142.236 27.9848L122.632 38.9543M95.3037 22.9383L122.632 38.9543" stroke="#76EC00"/>
</g>
<defs>
<filter id="filter0_f_12453_5189" x="0.45459" y="0.680908" width="166.09" height="193.515" filterUnits="userSpaceOnUse" color-interpolation-filters="sRGB">
<feFlood flood-opacity="0" result="BackgroundImageFix"/>
<feBlend mode="normal" in="SourceGraphic" in2="BackgroundImageFix" result="shape"/>
<feGaussianBlur stdDeviation="3.5" result="effect1_foregroundBlur_12453_5189"/>
</filter>
<linearGradient id="paint0_linear_12453_5189" x1="150.893" y1="26.8119" x2="46.3108" y2="188.787" gradientUnits="userSpaceOnUse">
<stop stop-color="#4B9700"/>
<stop offset="1" stop-color="#234600"/>
</linearGradient>
</defs>
</svg>
