<svg width="248" height="385" viewBox="0 0 248 385" fill="none" xmlns="http://www.w3.org/2000/svg">
<path d="M61.0696 156.602L4.22893 189.173L1.66734 281.071L59.8096 250.231L61.0696 156.602Z" fill="#234600"/>
<path d="M62.9411 17.5318L8.17254 47.6956L6.87303 94.3156L62.3322 62.7758L62.9411 17.5318Z" fill="#76EC00"/>
<path d="M178.029 383.824L236.556 352.741L199.318 299.39L163.177 363.286L178.029 383.824Z" fill="#234600"/>
<path d="M158.202 240.484L125.807 311.611L163.177 363.286L199.318 299.39L158.202 240.484Z" fill="#70E000"/>
<path d="M4.22893 189.173L61.0696 156.602L62.3322 62.7758L6.87303 94.3156L4.22893 189.173Z" fill="#4B9700"/>
<path d="M246.827 85.8097L163.177 132.181L120.388 184.448L245.847 112.024L246.827 85.8097Z" fill="#70E000"/>
<path d="M163.177 132.181L63.1602 1.25L62.9411 17.5318L62.3322 62.7758L61.0696 156.602L59.8096 250.231L59.6528 261.887L81.4202 250.231L142.264 217.65L158.202 240.484L199.318 299.39L236.556 352.741L236.846 352.587L245.847 112.024L120.388 184.448L163.177 132.181Z" fill="url(#paint0_linear_12453_5172)"/>
<path d="M63.1602 1.25L8.60547 32.1643L8.17254 47.6956L62.9411 17.5318L63.1602 1.25Z" fill="#4A7C16"/>
<path d="M1.33154 293.117L59.6528 261.887L59.8096 250.231L1.66734 281.071L1.33154 293.117Z" fill="#4A7C16"/>
<path d="M142.264 217.65L81.4202 250.231L125.807 311.611L158.202 240.484L142.264 217.65Z" fill="#234600"/>
<path d="M63.1602 1.25L163.177 132.181M63.1602 1.25L8.60547 32.1643L8.17254 47.6956M63.1602 1.25L62.9411 17.5318M163.177 132.181L246.827 85.8097L245.847 112.024M163.177 132.181L120.388 184.448L245.847 112.024M59.6528 261.887L1.33154 293.117L1.66734 281.071M59.6528 261.887L81.4202 250.231M59.6528 261.887L59.8096 250.231M236.846 352.587L236.826 353.127L236.556 352.741M236.846 352.587L245.847 112.024M236.846 352.587L236.556 352.741M81.4202 250.231L142.264 217.65L158.202 240.484M81.4202 250.231L125.807 311.611M4.22893 189.173L61.0696 156.602M4.22893 189.173L1.66734 281.071M4.22893 189.173L6.87303 94.3156M61.0696 156.602L59.8096 250.231M61.0696 156.602L62.3322 62.7758M1.66734 281.071L59.8096 250.231M125.807 311.611L158.202 240.484M125.807 311.611L163.177 363.286M158.202 240.484L199.318 299.39M163.177 363.286L178.029 383.824L236.556 352.741M163.177 363.286L199.318 299.39M199.318 299.39L236.556 352.741M8.17254 47.6956L62.9411 17.5318M8.17254 47.6956L6.87303 94.3156M62.9411 17.5318L62.3322 62.7758M6.87303 94.3156L62.3322 62.7758" stroke="#76EC00"/>
<defs>
<linearGradient id="paint0_linear_12453_5172" x1="69.6135" y1="1.25" x2="246.827" y2="346.8" gradientUnits="userSpaceOnUse">
<stop stop-color="#4B9700"/>
<stop offset="1" stop-color="#234600"/>
</linearGradient>
</defs>
</svg>
