<svg width="64" height="64" viewBox="0 0 64 64" fill="none" xmlns="http://www.w3.org/2000/svg">
<path d="M32 64C49.6731 64 64 49.6731 64 32C64 14.3269 49.6731 0 32 0C14.3269 0 0 14.3269 0 32C0 49.6731 14.3269 64 32 64Z" fill="white"/>
<g clip-path="url(#clip0_5801_12012)">
<path d="M33.7649 36.784C30.8717 35.6405 28.0885 34.3025 25.8336 32.1166C23.783 30.1272 22.799 27.8519 24.1562 25.0495C24.1782 24.9551 24.1822 24.8575 24.168 24.7617C24.5333 23.6163 25.4545 22.9162 26.3286 22.2161C29.0431 20.0632 32.1818 18.7291 35.4757 17.7276C37.0065 17.2745 38.5663 16.9237 40.1445 16.6775C43.1949 16.1796 45.8524 16.6775 47.793 19.2912C49.1836 21.2359 50.6135 23.134 51.5053 25.3801C53.3335 29.84 53.4812 34.802 51.9217 39.3608C51.4994 40.6404 51.1635 40.8349 49.4763 40.8718C48.8104 41.2958 48.0817 41.1538 47.3825 41.041C42.9788 40.3273 38.7893 38.8649 34.6036 37.3946C34.2776 37.2721 33.926 37.1535 33.7649 36.784Z" fill="#5492F6"/>
<path d="M13.2571 25.7358C17.3524 30.3293 21.0862 35.0355 23.5866 40.5936C25.0146 43.7674 24.8948 47.0676 24.5883 50.4067C24.5294 51.0543 24.1837 51.0698 23.7339 50.922C22.932 50.6382 22.1738 50.2455 21.481 49.7552C15.0484 45.4165 11.8193 39.4073 12.0079 31.6848C12.0761 29.6455 12.4986 27.633 13.2571 25.7358Z" fill="#5492F6"/>
<path d="M33.7649 36.7842C38.2255 38.4469 42.7274 39.9755 47.4434 40.7728C48.1092 40.8856 48.8026 40.8409 49.4841 40.8681C49.2746 41.331 49.0638 41.7925 48.8517 42.2528C48.7711 42.8634 48.2467 42.9451 47.7989 43.1123C45.4183 44.0089 43.1733 45.1524 41.1777 46.7354C40.0424 47.6377 39.0171 48.6159 39.129 50.2359C39.1389 50.3778 39.0171 50.4557 38.8973 50.5159C36.8153 51.5175 35.1339 50.7376 33.5822 49.3491C32.3593 48.2795 31.3718 46.9721 30.6812 45.5083C29.3534 42.6359 29.8621 40.2341 32.2329 38.0988C32.7337 37.6554 33.2542 37.2237 33.7649 36.7842Z" fill="#0E3CA4"/>
<path d="M47.8008 19.2874C47.5121 19.2583 47.3432 19.0463 47.1802 18.8499C45.6246 16.9713 43.4993 16.5667 41.2523 16.804C36.9327 17.262 32.7535 18.591 28.9724 20.709C27.1204 21.7368 25.4885 23.1121 24.168 24.7579C22.8933 23.8925 21.7344 22.926 21.1844 21.4247C21.2198 20.884 21.7187 20.8413 22.0605 20.6468C23.4452 19.8689 24.8437 19.1163 25.9456 17.9378C26.9277 16.8935 27.5169 15.7986 26.5191 14.4373C32.9419 11.5785 41.6746 13.0643 46.75 17.8853C47.1762 18.2919 47.5313 18.7657 47.8008 19.2874Z" fill="#0E3CA4"/>
<path d="M26.5191 14.449C27.5503 15.2405 27.5798 16.3334 26.6429 17.5197C25.5586 18.8927 24.1032 19.7814 22.6085 20.6313C22.1351 20.8997 21.5753 21.0202 21.1864 21.4267C19.8959 21.8545 18.6153 22.3154 17.3131 22.7005C16.4587 22.9514 15.5846 23.1906 14.5632 23.0894C15.7381 20.7496 17.3845 18.6727 19.401 16.9869C20.3793 16.1297 21.4637 15.3991 22.6281 14.8127C23.8307 14.2041 25.2228 14.0739 26.5191 14.449Z" fill="#5492F6"/>
<path d="M38.8973 50.5295C38.6871 48.7443 39.7006 47.5988 40.9832 46.5798C43.0869 44.9092 45.4537 43.7249 47.9698 42.809C48.3109 42.7115 48.6172 42.5208 48.8537 42.2586C49.3427 42.6475 49.8357 41.9513 50.3995 42.3383C49.9281 43.5285 49.1169 44.5514 48.3135 45.5646C46.919 47.3265 45.2121 48.752 43.3304 49.9967C41.9201 50.9185 40.5059 51.4085 38.8973 50.5295Z" fill="#5492F6"/>
</g>
<defs>
<clipPath id="clip0_5801_12012">
<rect width="41" height="38" fill="white" transform="translate(12 13)"/>
</clipPath>
</defs>
</svg>
