<svg width="20" height="20" viewBox="0 0 20 20" fill="none" xmlns="http://www.w3.org/2000/svg">
<path d="M10 0C15.5234 0 20 4.47754 20 10C20 15.5234 15.5234 20 10 20C4.47754 20 0 15.5229 0 10C0 4.47754 4.47754 0 10 0Z" fill="#F5AC37"/>
<path d="M10.3684 10.7052H14.1683C14.2493 10.7052 14.2875 10.7052 14.2934 10.599C14.3244 10.2124 14.3244 9.8236 14.2934 9.4366C14.2934 9.36145 14.256 9.3304 14.1746 9.3304H6.61223C6.51863 9.3304 6.49343 9.36145 6.49343 9.4492V10.5616C6.49343 10.7052 6.49343 10.7052 6.64328 10.7052H10.3684ZM13.869 8.03034C13.8798 8.00199 13.8798 7.97094 13.869 7.94304C13.8056 7.80488 13.7304 7.67303 13.6431 7.54928C13.5117 7.33778 13.3569 7.14293 13.1805 6.96788C13.0972 6.86212 13.0009 6.76717 12.8929 6.68662C12.352 6.22627 11.709 5.90046 11.0178 5.73666C10.669 5.65836 10.3126 5.62101 9.95531 5.62416H6.59918C6.50558 5.62416 6.49298 5.66151 6.49298 5.74296V7.96149C6.49298 8.05509 6.49298 8.08029 6.61178 8.08029H13.824C13.824 8.08029 13.8866 8.06769 13.8992 8.03034H13.8686H13.869ZM13.869 12.0052C13.7628 11.9935 13.6557 11.9935 13.5495 12.0052H6.61853C6.52493 12.0052 6.49343 12.0052 6.49343 12.1303V14.2993C6.49343 14.3993 6.49343 14.4244 6.61853 14.4244H9.81851C9.97151 14.4362 10.1245 14.4254 10.2744 14.3934C10.7388 14.3601 11.1955 14.2593 11.6311 14.0932C11.7895 14.0383 11.9425 13.9668 12.087 13.8808H12.1306C12.8808 13.4907 13.4901 12.8778 13.8744 12.1254C13.8744 12.1254 13.9181 12.0309 13.869 12.0061V12.0052ZM5.23746 15.549V15.5117V14.0554V13.5618V12.093C5.23746 12.0115 5.23746 11.9994 5.13756 11.9994H3.78125C3.7061 11.9994 3.67505 11.9994 3.67505 11.8995V10.7119H5.12496C5.20596 10.7119 5.23746 10.7119 5.23746 10.6057V9.43075C5.23746 9.3556 5.23746 9.33715 5.13756 9.33715H3.78125C3.7061 9.33715 3.67505 9.33715 3.67505 9.23725V8.13744C3.67505 8.06859 3.67505 8.05014 3.77495 8.05014H5.11866C5.21226 8.05014 5.23746 8.05014 5.23746 7.93134V4.5626C5.23746 4.4627 5.23746 4.4375 5.36257 4.4375H10.0498C10.39 4.451 10.728 4.48835 11.0623 4.55C11.7513 4.67735 12.4132 4.9235 13.0185 5.27496C13.4199 5.51121 13.7893 5.79651 14.1183 6.12502C14.3658 6.38197 14.589 6.66007 14.787 6.95618C14.9837 7.25633 15.147 7.57718 15.2753 7.91244C15.291 7.99974 15.3747 8.05869 15.462 8.04384H16.5807C16.7243 8.04384 16.7243 8.04384 16.7306 8.18154V9.20665C16.7306 9.30655 16.6932 9.33175 16.5929 9.33175H15.7302C15.6429 9.33175 15.6177 9.33175 15.624 9.44425C15.6582 9.82495 15.6582 10.207 15.624 10.5877C15.624 10.6939 15.624 10.7065 15.7433 10.7065H16.7301C16.7738 10.7628 16.7301 10.819 16.7301 10.8757C16.7364 10.9482 16.7364 11.0215 16.7301 11.094V11.8504C16.7301 11.9566 16.6991 11.9881 16.605 11.9881H15.4238C15.3414 11.9724 15.2613 12.025 15.2424 12.1069C14.9612 12.8382 14.5112 13.4938 13.9298 14.0194C13.7173 14.2107 13.4941 14.3907 13.261 14.5568C13.0108 14.7008 12.7674 14.8506 12.5109 14.9694C12.0388 15.1818 11.5438 15.3384 11.0358 15.4379C10.5534 15.5243 10.0642 15.5634 9.57326 15.5567H5.23566V15.5504L5.23746 15.549Z" fill="#FEFEFD"/>
</svg>
