<svg width="64" height="64" viewBox="0 0 64 64" fill="none" xmlns="http://www.w3.org/2000/svg">
<g clip-path="url(#clip0_1221_1376)">
<path d="M32.0003 64.0006C49.6736 64.0006 64.0006 49.6736 64.0006 32.0003C64.0006 14.327 49.6736 0 32.0003 0C14.327 0 0 14.327 0 32.0003C0 49.6736 14.327 64.0006 32.0003 64.0006Z" fill="#071927"/>
<path d="M32.0004 59.6787C47.2869 59.6787 59.679 47.2865 59.679 32C59.679 16.7136 47.2869 4.32141 32.0004 4.32141C16.7139 4.32141 4.32178 16.7136 4.32178 32C4.32178 47.2865 16.7139 59.6787 32.0004 59.6787Z" stroke="#70E000" stroke-width="2.78261" stroke-miterlimit="10"/>
<path d="M40.0667 24.0682L41.6453 20.1796C40.6539 19.5334 39.5177 19.0139 38.2367 18.621L36.915 22.6425C37.993 22.9846 39.0433 23.4597 40.0661 24.0682H40.0667Z" fill="#70E000"/>
<path d="M25.9399 32.0035C25.4748 31.8995 25.3169 31.3161 25.6666 30.9914L27.9653 27.8404C27.855 27.7602 27.7491 27.6775 27.6495 27.591C27.0717 27.0903 26.7834 26.4297 26.7834 25.6081C26.7834 24.915 26.982 24.299 27.38 23.76C27.7779 23.221 28.4065 22.7849 29.2663 22.4508C30.0466 22.1481 31.0449 21.9833 32.2582 21.9551L35.1742 17.958C34.3438 17.8478 33.5103 17.7926 32.6731 17.7926C30.2089 17.7926 28.1746 18.1586 26.5703 18.8899C24.966 19.6213 23.7721 20.5971 22.9894 21.816C22.206 23.0355 21.8149 24.3767 21.8149 25.8394C21.8149 27.3021 22.1095 28.4577 22.7005 29.3814C23.2908 30.3058 24.0541 31.0434 24.9917 31.5956C25.9286 32.1477 26.9676 32.5964 28.1101 32.943C28.6572 33.109 29.2049 33.2645 29.7527 33.4105L29.9219 32.896L25.9386 32.0042L25.9399 32.0035Z" fill="#70E000"/>
<path d="M26.9752 40.5085C25.3834 39.9444 24.0491 39.2382 22.9706 38.3909L21.2378 42.2795C22.3671 43.2296 23.8944 44.0061 25.8196 44.6089C25.896 44.6328 25.9731 44.6559 26.0502 44.6785L27.3763 40.6438C27.2422 40.6006 27.1087 40.5561 26.9752 40.5085Z" fill="#70E000"/>
<path d="M41.8949 34.0021C41.3178 33.0777 40.5601 32.3464 39.6232 31.8074C38.6856 31.2685 37.6459 30.8323 36.5047 30.4982C35.8429 30.3052 35.1793 30.1241 34.5131 29.9524L34.4034 30.2858L38.2419 31.145C38.7069 31.249 38.8649 31.8325 38.5158 32.1571L36.2139 35.352C36.4822 35.5099 36.7272 35.6823 36.9472 35.869C37.5375 36.3698 37.8327 37.0309 37.8327 37.8519C37.8327 38.5199 37.6271 39.1166 37.2167 39.6424C36.8055 40.1688 36.1638 40.5855 35.2914 40.8939C34.4235 41.2003 33.2892 41.3539 31.8891 41.3557L29.0308 45.324C29.9564 45.4506 30.9014 45.5145 31.8647 45.5145C34.3288 45.5145 36.3694 45.1485 37.9862 44.4171C39.6031 43.6858 40.8032 42.7107 41.5866 41.4911C42.3693 40.2722 42.761 38.9442 42.761 37.5059C42.761 36.0677 42.4721 34.9265 41.8949 34.0021Z" fill="#70E000"/>
<path d="M24.3251 49.9324C24.1979 50.4995 24.8798 50.8912 25.3059 50.4958L29.0316 45.3243C28.0157 45.1858 27.0224 44.9708 26.0517 44.6801L24.3258 49.933L24.3251 49.9324Z" fill="white"/>
<path fill-rule="evenodd" clip-rule="evenodd" d="M40.0013 13.2496L38.2365 18.621V18.6212C38.2365 18.6212 38.2366 18.6212 38.2366 18.6212L38.2365 18.6215V18.6216C38.2365 18.6216 38.2365 18.6216 38.2365 18.6216L36.9149 22.6427C36.7213 22.5813 36.527 22.5236 36.3314 22.471C35.0475 22.1245 33.8161 21.9515 32.6355 21.9515L32.6359 21.9519C33.816 21.9519 35.0481 22.1248 36.3322 22.4714C36.5277 22.524 36.722 22.5817 36.9156 22.6431L34.5135 29.9529C34.0297 29.8282 33.5452 29.7078 33.0589 29.5944C31.9039 29.3249 30.858 29.0492 29.9211 28.7665C29.1458 28.5328 28.4941 28.2244 27.9652 27.8415L32.2586 21.9562C32.3821 21.9531 32.5074 21.9512 32.6352 21.9512V21.9502C32.5074 21.9502 32.382 21.9521 32.2586 21.9552L35.1746 17.9582C35.1746 17.9582 35.1747 17.9582 35.1748 17.9582L39.0205 12.6862C39.4467 12.2908 40.1285 12.6818 40.0013 13.2496ZM31.8893 41.3568L36.2141 35.3531C35.7629 35.0873 35.244 34.8617 34.6568 34.6768L34.6568 34.6768H34.657C35.2442 34.8617 35.7631 35.0873 36.2143 35.353L38.5162 32.1582C38.8659 31.8335 38.7079 31.2507 38.2423 31.146L34.4038 30.2868L34.5135 29.9534C34.0297 29.8287 33.5452 29.7084 33.0589 29.595C31.9039 29.3255 30.858 29.0497 29.921 28.7671C29.1458 28.534 28.4941 28.225 27.9651 27.8421L25.6664 30.9931C25.3167 31.3178 25.4746 31.9012 25.9396 32.0052L29.9229 32.897L29.7537 33.4115L29.7541 33.4117L27.3771 40.6455C28.8411 41.1193 30.337 41.3574 31.8655 41.3574H31.8893V41.3568Z" fill="white"/>
<path d="M31.8657 41.3568C30.3366 41.3568 28.8407 41.1193 27.3774 40.6449L26.0513 44.6796C27.022 44.9703 28.0153 45.1853 29.0312 45.3238L31.8896 41.3556C31.8814 41.3556 31.8739 41.3556 31.8657 41.3556V41.3568Z" fill="#70E000"/>
</g>
<defs>
<clipPath id="clip0_1221_1376">
<rect width="64" height="64" fill="white"/>
</clipPath>
</defs>
</svg>
