<svg width="20" height="20" viewBox="0 0 20 20" fill="none" xmlns="http://www.w3.org/2000/svg">
<circle cx="10" cy="10" r="10" fill="white"/>
<g clip-path="url(#clip0_6444_2242)">
<path fill-rule="evenodd" clip-rule="evenodd" d="M5.24652 4.12659L2.51149 9.87151C2.50108 9.89288 2.49778 9.91702 2.50208 9.94039C2.50637 9.96377 2.51803 9.98516 2.53535 10.0014L9.922 17.0796C9.94298 17.0997 9.97093 17.111 10 17.111C10.0291 17.111 10.057 17.0997 10.078 17.0796L17.4646 10.0019C17.482 9.9856 17.4936 9.96421 17.4979 9.94084C17.5022 9.91746 17.4989 9.89332 17.4885 9.87195L14.7535 4.12703C14.7447 4.10773 14.7305 4.09139 14.7126 4.07995C14.6947 4.06851 14.6739 4.06245 14.6527 4.06251H5.34816C5.32684 4.06224 5.3059 4.06815 5.28786 4.07952C5.26983 4.09089 5.25547 4.10724 5.24652 4.12659Z" fill="#50AF95"/>
<path fill-rule="evenodd" clip-rule="evenodd" d="M10.9489 10.4629C10.8959 10.4669 10.6219 10.4833 10.0107 10.4833C9.52459 10.4833 9.17946 10.4687 9.05837 10.4629C7.17978 10.3803 5.77758 10.0533 5.77758 9.66173C5.77758 9.27019 7.17978 8.94361 9.05837 8.85965V10.1372C9.18122 10.1461 9.53299 10.1668 10.0191 10.1668C10.6024 10.1668 10.8945 10.1425 10.9471 10.1377V8.86053C12.8217 8.94406 14.2208 9.27108 14.2208 9.66173C14.2208 10.0524 12.8222 10.3794 10.9471 10.4625L10.9489 10.4629ZM10.9489 8.7284V7.58516H13.565V5.8418H6.44222V7.58516H9.05793V8.72796C6.93186 8.82562 5.33301 9.24677 5.33301 9.75144C5.33301 10.2561 6.93186 10.6768 9.05793 10.7749V14.4384H10.9485V10.7736C13.0697 10.6759 14.6659 10.2552 14.6659 9.751C14.6659 9.24677 13.071 8.82606 10.9485 8.72796L10.9489 8.7284Z" fill="white"/>
</g>
<defs>
<clipPath id="clip0_6444_2242">
<rect width="15" height="13.0485" fill="white" transform="translate(2.5 4.0625)"/>
</clipPath>
</defs>
</svg>
