<svg width="369" height="355" viewBox="0 0 369 355" fill="none" xmlns="http://www.w3.org/2000/svg">
<path d="M319.498 213.65C316.943 256.56 283.426 306.213 244.628 324.534C205.953 342.799 176.604 322.818 179.163 279.921C181.722 236.999 215.229 187.346 253.904 169.079C292.698 150.765 322.057 170.74 319.498 213.65Z" fill="#70E000" stroke="#333333" stroke-width="1.07125" stroke-miterlimit="10"/>
<path d="M329.241 220.501C326.683 263.411 293.17 313.066 254.373 331.387C235.175 340.453 218.264 340.097 206.42 332.188L196.69 325.338C208.527 333.25 225.432 333.619 244.631 324.543C283.429 306.22 316.94 256.567 319.501 213.658C320.782 192.066 314.001 176.29 301.993 168.269L311.734 175.1C323.74 183.138 330.525 198.91 329.241 220.501Z" fill="#4E9D00" stroke="#333333" stroke-width="0.5" stroke-miterlimit="10"/>
<path d="M319.13 213.571C316.574 256.481 283.058 306.134 244.26 324.455C205.585 342.72 176.236 322.738 178.795 279.842C181.354 236.92 214.861 187.267 253.536 169C292.33 150.686 321.689 170.661 319.13 213.571Z" stroke="#333333" stroke-width="0.5" stroke-miterlimit="10"/>
<path fill-rule="evenodd" clip-rule="evenodd" d="M216.223 263.067L250.373 189.404C250.792 188.501 251.826 188.403 251.86 189.263L253.528 230.72L274.376 221.655C275.024 221.373 275.438 221.998 275.094 222.739L240.944 296.401C240.525 297.305 239.492 297.403 239.457 296.543L237.79 255.086L216.941 264.151C216.294 264.433 215.88 263.808 216.223 263.067Z" fill="black"/>
<g filter="url(#filter0_d_7401_967)">
<path fill-rule="evenodd" clip-rule="evenodd" d="M282.625 123.192L288.033 121.21L267.367 154.701L254.78 132.03L261.261 130.069C260.504 66.8127 202.076 47.5606 172.812 45.9405C167.198 45.6297 164.146 41.2467 165.996 36.1509C167.846 31.0551 173.896 27.1761 179.51 27.4869C213.403 29.3632 280.568 51.0666 282.625 123.192Z" fill="#62BC07"/>
<path d="M288.033 121.21L288.246 121.341L288.625 120.726L287.947 120.975L288.033 121.21ZM282.625 123.192L282.375 123.199L282.385 123.546L282.711 123.427L282.625 123.192ZM267.367 154.701L267.148 154.822L267.355 155.195L267.579 154.832L267.367 154.701ZM254.78 132.03L254.708 131.791L254.411 131.881L254.561 132.151L254.78 132.03ZM261.261 130.069L261.333 130.308L261.513 130.254L261.511 130.066L261.261 130.069ZM172.812 45.9405L172.826 45.6909L172.826 45.6909L172.812 45.9405ZM165.996 36.1509L166.231 36.2362L166.231 36.2362L165.996 36.1509ZM179.51 27.4869L179.496 27.7365L179.496 27.7365L179.51 27.4869ZM287.947 120.975L282.539 122.957L282.711 123.427L288.119 121.444L287.947 120.975ZM267.579 154.832L288.246 121.341L287.821 121.078L267.154 154.569L267.579 154.832ZM254.561 132.151L267.148 154.822L267.585 154.579L254.999 131.909L254.561 132.151ZM261.188 129.83L254.708 131.791L254.852 132.269L261.333 130.308L261.188 129.83ZM261.511 130.066C261.131 98.3473 246.287 77.6493 227.87 64.6867C209.465 51.7316 187.494 46.5029 172.826 45.6909L172.798 46.1901C187.394 46.9982 209.269 52.2056 227.583 65.0956C245.885 77.9782 260.633 98.5344 261.011 130.072L261.511 130.066ZM172.826 45.6909C170.081 45.5389 167.992 44.3948 166.81 42.6972C165.629 41.0013 165.33 38.7186 166.231 36.2362L165.761 36.0656C164.812 38.6791 165.114 41.1357 166.4 42.9829C167.685 44.8285 169.929 46.0312 172.798 46.1901L172.826 45.6909ZM166.231 36.2362C167.133 33.7495 169.067 31.5462 171.476 30.0019C173.885 28.4578 176.75 27.5844 179.496 27.7365L179.524 27.2373C176.657 27.0785 173.689 27.9893 171.206 29.581C168.724 31.1724 166.708 33.4565 165.761 36.0656L166.231 36.2362ZM179.496 27.7365C196.408 28.6727 221.625 34.5575 242.864 49.2018C264.093 63.8392 281.349 87.2269 282.375 123.199L282.875 123.185C281.844 87.0316 264.489 63.5049 243.148 48.7902C221.817 34.0825 196.505 28.1774 179.524 27.2373L179.496 27.7365Z" fill="black"/>
<path fill-rule="evenodd" clip-rule="evenodd" d="M285.053 119.592L290.461 117.61L269.794 151.101L257.208 128.431L263.688 126.469C262.931 63.2131 204.504 43.961 175.24 42.3409C169.626 42.0301 166.574 37.6471 168.424 32.5513C170.273 27.4555 176.324 23.5765 181.938 23.8873C215.831 25.7636 282.995 47.4669 285.053 119.592Z" fill="#9DEF4C"/>
<path d="M290.461 117.61L290.674 117.741L291.053 117.127L290.375 117.375L290.461 117.61ZM285.053 119.592L284.803 119.599L284.813 119.947L285.139 119.827L285.053 119.592ZM269.794 151.101L269.576 151.222L269.783 151.595L270.007 151.232L269.794 151.101ZM257.208 128.431L257.135 128.191L256.839 128.281L256.989 128.552L257.208 128.431ZM263.688 126.469L263.761 126.709L263.941 126.654L263.938 126.466L263.688 126.469ZM175.24 42.3409L175.254 42.0913L175.254 42.0913L175.24 42.3409ZM168.424 32.5513L168.659 32.6366L168.659 32.6366L168.424 32.5513ZM181.938 23.8873L181.924 24.1369L181.924 24.1369L181.938 23.8873ZM290.375 117.375L284.967 119.358L285.139 119.827L290.547 117.845L290.375 117.375ZM270.007 151.232L290.674 117.741L290.248 117.479L269.582 150.97L270.007 151.232ZM256.989 128.552L269.576 151.222L270.013 150.98L257.426 128.309L256.989 128.552ZM263.616 126.23L257.135 128.191L257.28 128.67L263.761 126.709L263.616 126.23ZM263.938 126.466C263.559 94.7477 248.714 74.0496 230.298 61.0871C211.892 48.132 189.921 42.9033 175.254 42.0913L175.226 42.5905C189.822 43.3986 211.697 48.6059 230.01 61.496C248.313 74.3786 263.061 94.9348 263.438 126.472L263.938 126.466ZM175.254 42.0913C172.509 41.9393 170.42 40.7952 169.238 39.0976C168.057 37.4017 167.758 35.119 168.659 32.6366L168.189 32.466C167.24 35.0794 167.541 37.5361 168.828 39.3833C170.113 41.2289 172.356 42.4316 175.226 42.5905L175.254 42.0913ZM168.659 32.6366C169.561 30.1499 171.495 27.9466 173.904 26.4023C176.313 24.8582 179.177 23.9848 181.924 24.1369L181.952 23.6377C179.084 23.4789 176.117 24.3897 173.634 25.9814C171.152 27.5728 169.136 29.8569 168.189 32.466L168.659 32.6366ZM181.924 24.1369C198.835 25.0731 224.053 30.9579 245.292 45.6022C266.521 60.2396 283.777 83.6273 284.803 119.599L285.303 119.585C284.271 83.432 266.917 59.9053 245.576 45.1906C224.245 30.4829 198.933 24.5778 181.952 23.6377L181.924 24.1369Z" fill="black"/>
</g>
<g filter="url(#filter1_d_7401_967)">
<path fill-rule="evenodd" clip-rule="evenodd" d="M63.324 203.845L57.9159 205.827L78.5826 172.337L91.1692 195.007L84.6886 196.968C85.4455 260.224 143.873 279.477 173.137 281.097C178.751 281.407 181.803 285.79 179.953 290.886C178.104 295.982 172.053 299.861 166.439 299.55C132.546 297.674 65.3815 275.971 63.324 203.845Z" fill="#62BC07"/>
<path d="M57.9159 205.827L57.7031 205.696L57.3239 206.311L58.0019 206.062L57.9159 205.827ZM63.324 203.845L63.5739 203.838L63.564 203.491L63.238 203.61L63.324 203.845ZM78.5826 172.337L78.8011 172.215L78.594 171.842L78.3698 172.205L78.5826 172.337ZM91.1692 195.007L91.2416 195.246L91.5382 195.157L91.3878 194.886L91.1692 195.007ZM84.6886 196.968L84.6162 196.729L84.4364 196.783L84.4386 196.971L84.6886 196.968ZM173.137 281.097L173.151 280.847L173.151 280.847L173.137 281.097ZM179.953 290.886L179.718 290.801L179.718 290.801L179.953 290.886ZM166.439 299.55L166.453 299.301L166.453 299.301L166.439 299.55ZM58.0019 206.062L63.4101 204.08L63.238 203.61L57.8298 205.593L58.0019 206.062ZM78.3698 172.205L57.7031 205.696L58.1286 205.959L78.7953 172.468L78.3698 172.205ZM91.3878 194.886L78.8011 172.215L78.364 172.458L90.9506 195.128L91.3878 194.886ZM84.761 197.207L91.2416 195.246L91.0968 194.768L84.6162 196.729L84.761 197.207ZM84.4386 196.971C84.8182 228.69 99.6626 249.388 118.079 262.35C136.485 275.305 158.455 280.534 173.123 281.346L173.151 280.847C158.555 280.039 136.68 274.832 118.367 261.942C100.064 249.059 85.316 228.503 84.9386 196.965L84.4386 196.971ZM173.123 281.346C175.868 281.498 177.957 282.642 179.139 284.34C180.32 286.036 180.619 288.318 179.718 290.801L180.188 290.971C181.137 288.358 180.835 285.901 179.549 284.054C178.264 282.209 176.021 281.006 173.151 280.847L173.123 281.346ZM179.718 290.801C178.816 293.288 176.882 295.491 174.473 297.035C172.064 298.579 169.2 299.453 166.453 299.301L166.425 299.8C169.293 299.959 172.26 299.048 174.743 297.456C177.225 295.865 179.241 293.581 180.188 290.971L179.718 290.801ZM166.453 299.301C149.542 298.364 124.324 292.48 103.085 277.835C81.8564 263.198 64.6001 239.81 63.5739 203.838L63.0741 203.852C64.1055 240.006 81.4603 263.532 102.801 278.247C124.132 292.955 149.444 298.86 166.425 299.8L166.453 299.301Z" fill="black"/>
<path fill-rule="evenodd" clip-rule="evenodd" d="M60.8953 207.445L55.4871 209.427L76.1539 175.936L88.7405 198.607L82.2599 200.568C83.0168 263.824 141.445 283.076 170.708 284.696C176.323 285.007 179.374 289.39 177.525 294.486C175.675 299.582 169.624 303.461 164.01 303.15C130.118 301.273 62.9528 279.57 60.8953 207.445Z" fill="#9DEF4C"/>
<path d="M55.4871 209.427L55.2744 209.296L54.8952 209.91L55.5732 209.662L55.4871 209.427ZM60.8953 207.445L61.1452 207.438L61.1353 207.091L60.8093 207.21L60.8953 207.445ZM76.1539 175.936L76.3724 175.815L76.1652 175.442L75.9411 175.805L76.1539 175.936ZM88.7405 198.607L88.8129 198.846L89.1095 198.756L88.9591 198.485L88.7405 198.607ZM82.2599 200.568L82.1875 200.328L82.0077 200.383L82.0099 200.571L82.2599 200.568ZM170.708 284.696L170.722 284.447L170.722 284.447L170.708 284.696ZM177.525 294.486L177.29 294.4L177.29 294.4L177.525 294.486ZM164.01 303.15L164.024 302.9L164.024 302.9L164.01 303.15ZM55.5732 209.662L60.9814 207.68L60.8093 207.21L55.4011 209.192L55.5732 209.662ZM75.9411 175.805L55.2744 209.296L55.6999 209.558L76.3666 176.067L75.9411 175.805ZM88.9591 198.485L76.3724 175.815L75.9353 176.057L88.5219 198.728L88.9591 198.485ZM82.3323 200.807L88.8129 198.846L88.6681 198.367L82.1875 200.328L82.3323 200.807ZM82.0099 200.571C82.3894 232.289 97.2339 252.987 115.65 265.95C134.056 278.905 156.027 284.134 170.695 284.946L170.722 284.447C156.126 283.639 134.251 278.431 115.938 265.541C97.6352 252.659 82.8872 232.102 82.5099 200.565L82.0099 200.571ZM170.695 284.946C173.439 285.098 175.528 286.242 176.71 287.939C177.891 289.635 178.191 291.918 177.29 294.4L177.76 294.571C178.708 291.958 178.407 289.501 177.121 287.654C175.836 285.808 173.592 284.605 170.722 284.447L170.695 284.946ZM177.29 294.4C176.387 296.887 174.453 299.09 172.044 300.635C169.636 302.179 166.771 303.052 164.024 302.9L163.996 303.399C166.864 303.558 169.831 302.647 172.314 301.056C174.796 299.464 176.813 297.18 177.76 294.571L177.29 294.4ZM164.024 302.9C147.113 301.964 121.896 296.079 100.657 281.435C79.4277 266.798 62.1714 243.41 61.1452 207.438L60.6454 207.452C61.6767 243.605 79.0316 267.132 100.373 281.847C121.704 296.554 147.015 302.459 163.996 303.399L164.024 302.9Z" fill="black"/>
</g>
<g filter="url(#filter2_d_7401_967)">
<path d="M44.1563 78.181C54.2894 124.048 98.7256 172.586 143.414 186.572C187.961 200.515 215.932 174.621 205.798 128.769C195.658 82.8884 151.233 34.3491 106.685 20.4042C62.003 6.42529 34.0203 32.3138 44.1563 78.181Z" fill="#2775CA" stroke="#6562E7" stroke-width="0.203659" stroke-miterlimit="10"/>
<path d="M34.9054 87.0116C45.0413 132.879 89.4737 181.42 134.162 195.405C156.273 202.325 174.314 199.431 185.629 189.148L194.863 180.321C183.556 190.607 165.525 193.513 143.409 186.583C98.721 172.596 54.2907 124.057 44.1517 78.1903C39.0582 55.1092 43.5971 37.1001 55.0674 26.6717L45.8183 35.4808C34.3531 45.9258 29.8094 63.9324 34.9054 87.0116Z" fill="#1A61AE" stroke="#333333" stroke-width="0.203659" stroke-miterlimit="10"/>
<path d="M44.5352 78.0404C54.6683 123.908 99.1045 172.446 143.793 186.431C188.34 200.374 216.311 174.481 206.177 128.628C196.037 82.7478 151.612 34.2084 107.064 20.2636C62.3819 6.28467 34.3992 32.1732 44.5352 78.0404Z" stroke="#333333" stroke-width="0.203659" stroke-miterlimit="10"/>
<path d="M99.1311 124.271L90.6342 114.673C90.3925 114.4 90.323 114.027 90.4527 113.698L102.475 83.2509C102.604 82.922 102.913 82.6852 103.284 82.6267L115.111 80.8172C115.486 80.7611 115.867 80.8945 116.109 81.1708L124.594 90.7549C125.118 91.3432 124.767 92.232 123.966 92.355L113.352 93.9798C112.981 94.0354 112.672 94.2751 112.542 94.6041L100.939 124C100.658 124.712 99.6548 124.862 99.1311 124.271Z" fill="#010101"/>
<path d="M154.008 123.079L149.448 134.628C149.319 134.96 149.009 135.197 148.635 135.253L114.223 140.405C113.852 140.461 113.474 140.327 113.229 140.054L105.495 131.378C105.25 131.102 105.18 130.729 105.313 130.4L109.87 118.863C110.152 118.154 111.151 118.001 111.677 118.589L118.615 126.372C118.856 126.646 119.235 126.779 119.609 126.723L152.835 121.749C153.64 121.628 154.293 122.367 154.011 123.078L154.008 123.079Z" fill="#010101"/>
<path d="M124.812 79.3583L137.865 77.4038C138.24 77.3477 138.618 77.4816 138.861 77.7578L161.25 103.052C161.492 103.326 161.561 103.696 161.431 104.025L157.335 114.511C157.206 114.843 156.894 115.083 156.519 115.139L143.481 117.091C142.679 117.211 142.027 116.475 142.302 115.765L145.978 106.357C146.108 106.028 146.036 105.658 145.797 105.384L124.178 80.9622C123.654 80.3709 124.004 79.4822 124.809 79.3616L124.812 79.3583Z" fill="#010101"/>
<path d="M147.024 169.824C186.183 178.277 207.823 154.395 195.565 116.256C183.306 78.1178 141.941 40.635 102.783 32.182C63.6249 23.7291 41.9841 47.6111 54.2428 85.7496C66.5014 123.888 107.866 161.371 147.024 169.824Z" fill="#2775CA"/>
<path d="M147.837 116.095C144.612 106.059 137.323 101.283 124.496 97.1799C115.295 94.126 112.791 91.4509 111.501 87.4359C110.21 83.4209 112.325 81.4764 118.213 82.7475C123.513 83.8915 127.01 86.2476 129.865 90.8666C130.436 91.7905 131.503 92.5544 132.387 92.7451L137.097 93.7619C138.275 94.0162 138.882 93.3466 138.513 92.2L138.421 91.913C135.215 85.3499 128.349 79.3314 121.393 77.2964L119.181 70.4143C118.812 69.267 117.653 68.2161 116.088 67.6114L111.672 66.6581C110.494 66.4038 109.887 67.0734 110.054 68.444L112.174 75.0391C103.71 74.2797 99.9595 78.8071 102.264 85.9761C105.305 95.439 112.392 100.437 125.218 104.541C133.923 107.754 137.126 110.047 138.601 114.635C140.075 119.223 136.967 121.487 131.373 120.28C123.718 118.627 120.054 114.901 117.788 110.409C117.126 109.199 116.058 108.434 115.175 108.243L110.169 107.163C108.992 106.909 108.385 107.578 108.754 108.726L108.846 109.013C112.328 116.435 118.698 122.614 128.875 126.145L131.087 133.027C131.455 134.174 132.615 135.225 134.179 135.829L138.595 136.783C139.773 137.037 140.38 136.367 140.214 134.997L138.002 128.115C146.373 128.588 150.326 123.837 147.837 116.095Z" fill="white"/>
<path d="M123.069 138.767C97.5233 125.781 77.7274 98.2915 79.1689 78.0542C79.7141 66.9639 86.4806 59.8853 97.1691 58.1898C98.1627 57.8708 98.4748 57.1376 98.0138 55.7033L96.7235 51.689C96.3548 50.5418 95.4897 49.5544 94.2197 49.0139C93.9251 48.9503 93.3365 48.8232 93.1338 49.0459C67.9292 51.6108 61.9284 77.2684 79.517 106.416C89.978 123.618 106.602 138.682 124.748 147.403C126.11 148.23 127.104 147.911 127.029 146.827C127.232 146.605 127.14 146.318 126.955 145.744L125.665 141.729C125.388 140.869 124.136 139.532 123.069 138.767ZM125.521 56.0371C124.158 55.2096 123.165 55.5286 123.24 56.6124C123.037 56.8357 123.129 57.122 123.314 57.696L124.604 61.7103C124.973 62.8576 126.224 64.1948 127.292 64.9594C152.838 77.9454 172.633 105.435 171.192 125.672C170.647 136.763 163.88 143.841 153.192 145.537C152.198 145.856 151.886 146.589 152.347 148.023L153.637 152.038C154.006 153.185 154.871 154.172 156.141 154.713C156.436 154.776 157.024 154.903 157.227 154.681C182.432 152.116 188.433 126.458 170.844 97.3103C160.291 79.8213 143.372 64.6941 125.521 56.0371Z" fill="white"/>
</g>
<defs>
<filter id="filter0_d_7401_967" x="148.905" y="23.6201" width="158.448" height="167.875" filterUnits="userSpaceOnUse" color-interpolation-filters="sRGB">
<feFlood flood-opacity="0" result="BackgroundImageFix"/>
<feColorMatrix in="SourceAlpha" type="matrix" values="0 0 0 0 0 0 0 0 0 0 0 0 0 0 0 0 0 0 127 0" result="hardAlpha"/>
<feOffset dy="20"/>
<feGaussianBlur stdDeviation="8.15"/>
<feComposite in2="hardAlpha" operator="out"/>
<feColorMatrix type="matrix" values="0 0 0 0 0 0 0 0 0 0 0 0 0 0 0 0 0 0 0.1 0"/>
<feBlend mode="normal" in2="BackgroundImageFix" result="effect1_dropShadow_7401_967"/>
<feBlend mode="normal" in="SourceGraphic" in2="effect1_dropShadow_7401_967" result="shape"/>
</filter>
<filter id="filter1_d_7401_967" x="38.5955" y="171.842" width="158.449" height="167.875" filterUnits="userSpaceOnUse" color-interpolation-filters="sRGB">
<feFlood flood-opacity="0" result="BackgroundImageFix"/>
<feColorMatrix in="SourceAlpha" type="matrix" values="0 0 0 0 0 0 0 0 0 0 0 0 0 0 0 0 0 0 127 0" result="hardAlpha"/>
<feOffset dy="20"/>
<feGaussianBlur stdDeviation="8.15"/>
<feComposite in2="hardAlpha" operator="out"/>
<feColorMatrix type="matrix" values="0 0 0 0 0 0 0 0 0 0 0 0 0 0 0 0 0 0 0.1 0"/>
<feBlend mode="normal" in2="BackgroundImageFix" result="effect1_dropShadow_7401_967"/>
<feBlend mode="normal" in="SourceGraphic" in2="effect1_dropShadow_7401_967" result="shape"/>
</filter>
<filter id="filter2_d_7401_967" x="28.7295" y="16.3711" width="183.624" height="190.909" filterUnits="userSpaceOnUse" color-interpolation-filters="sRGB">
<feFlood flood-opacity="0" result="BackgroundImageFix"/>
<feColorMatrix in="SourceAlpha" type="matrix" values="0 0 0 0 0 0 0 0 0 0 0 0 0 0 0 0 0 0 127 0" result="hardAlpha"/>
<feOffset dy="4"/>
<feGaussianBlur stdDeviation="2"/>
<feComposite in2="hardAlpha" operator="out"/>
<feColorMatrix type="matrix" values="0 0 0 0 0 0 0 0 0 0 0 0 0 0 0 0 0 0 0.25 0"/>
<feBlend mode="normal" in2="BackgroundImageFix" result="effect1_dropShadow_7401_967"/>
<feBlend mode="normal" in="SourceGraphic" in2="effect1_dropShadow_7401_967" result="shape"/>
</filter>
</defs>
</svg>
