<svg width="44" height="45" viewBox="0 0 44 45" fill="none" xmlns="http://www.w3.org/2000/svg">
<rect y="0.906738" width="44" height="44" rx="22" fill="#D1D1D1"/>
<path d="M27.5918 29.1568C26.9001 30.1902 26.1668 31.1985 25.0501 31.2152C23.9335 31.2402 23.5751 30.5568 22.3085 30.5568C21.0335 30.5568 20.6418 31.1985 19.5835 31.2402C18.4918 31.2818 17.6668 30.1402 16.9668 29.1318C15.5418 27.0735 14.4501 23.2818 15.9168 20.7318C16.6418 19.4652 17.9418 18.6652 19.3501 18.6402C20.4168 18.6235 21.4335 19.3652 22.0918 19.3652C22.7418 19.3652 23.9751 18.4735 25.2668 18.6068C25.8085 18.6318 27.3251 18.8235 28.3001 20.2568C28.2251 20.3068 26.4918 21.3235 26.5085 23.4318C26.5335 25.9485 28.7168 26.7902 28.7418 26.7985C28.7168 26.8568 28.3918 27.9985 27.5918 29.1568ZM22.8335 15.8235C23.4418 15.1318 24.4501 14.6068 25.2835 14.5735C25.3918 15.5485 25.0001 16.5318 24.4168 17.2318C23.8418 17.9402 22.8918 18.4902 21.9585 18.4152C21.8335 17.4568 22.3001 16.4568 22.8335 15.8235Z" fill="black"/>
</svg>
