<svg width="256" height="160" viewBox="0 0 256 160" fill="none" xmlns="http://www.w3.org/2000/svg">
<path d="M125.561 149.955C125.532 149.055 126.241 148.306 127.141 148.277C128.041 148.253 128.791 148.958 128.819 149.858C128.844 150.758 128.139 151.508 127.239 151.536H127.19C126.31 151.536 125.589 150.839 125.561 149.955ZM116.538 151.503C115.638 151.471 114.937 150.714 114.97 149.813C115.003 148.917 115.76 148.212 116.66 148.249C117.561 148.281 118.261 149.035 118.229 149.936C118.196 150.815 117.471 151.504 116.599 151.504H116.538V151.503ZM136.135 149.397C136.05 148.501 136.705 147.707 137.602 147.617C138.498 147.532 139.292 148.188 139.382 149.084C139.467 149.98 138.812 150.774 137.915 150.864C137.862 150.868 137.809 150.872 137.756 150.872C136.925 150.872 136.217 150.241 136.135 149.398V149.397ZM105.862 150.738C104.966 150.64 104.318 149.837 104.416 148.946C104.51 148.05 105.312 147.402 106.208 147.499C107.104 147.593 107.752 148.395 107.654 149.292C107.565 150.127 106.86 150.746 106.037 150.746C105.98 150.746 105.919 150.746 105.862 150.737V150.738ZM146.648 148.131C146.498 147.243 147.096 146.4 147.984 146.253C148.872 146.103 149.711 146.701 149.862 147.589C150.008 148.477 149.41 149.316 148.522 149.467C148.432 149.483 148.343 149.487 148.253 149.487C147.471 149.487 146.778 148.925 146.648 148.131ZM95.2587 149.219C94.3748 149.059 93.7842 148.212 93.9471 147.325C94.106 146.441 94.9532 145.85 95.8371 146.013C96.7251 146.172 97.3117 147.019 97.1528 147.907C97.0103 148.693 96.3259 149.247 95.552 149.247C95.4542 149.247 95.3565 149.235 95.2587 149.219ZM157.039 146.111C156.823 145.239 157.356 144.355 158.229 144.139C159.104 143.923 159.988 144.456 160.204 145.333C160.42 146.204 159.886 147.088 159.011 147.304C158.88 147.337 158.749 147.353 158.62 147.353C157.886 147.349 157.222 146.852 157.039 146.111ZM84.7902 146.913C83.9185 146.685 83.4012 145.793 83.6293 144.921C83.8574 144.053 84.7454 143.532 85.6171 143.76C86.4888 143.988 87.0061 144.876 86.778 145.748C86.5866 146.481 85.9267 146.966 85.2057 146.966C85.0672 146.966 84.9287 146.945 84.7902 146.913V146.913ZM167.239 143.288C166.95 142.432 167.41 141.508 168.261 141.223C169.112 140.934 170.037 141.39 170.326 142.241C170.616 143.097 170.159 144.021 169.304 144.306C169.132 144.367 168.957 144.396 168.783 144.396C168.102 144.396 167.471 143.964 167.239 143.288ZM74.5372 143.76C73.69 143.459 73.246 142.526 73.5474 141.679C73.8488 140.828 74.7816 140.388 75.6289 140.689C76.4761 140.99 76.9201 141.923 76.6187 142.771C76.3824 143.439 75.7511 143.854 75.0831 143.854C74.8998 143.854 74.7164 143.821 74.5372 143.76ZM177.153 139.569C176.786 138.75 177.149 137.785 177.972 137.414C178.79 137.048 179.756 137.41 180.126 138.233C180.493 139.052 180.13 140.017 179.308 140.388C179.092 140.485 178.864 140.531 178.639 140.531C178.02 140.531 177.426 140.172 177.153 139.569V139.569ZM64.5942 139.679C63.7795 139.296 63.4333 138.327 63.8162 137.512C64.195 136.698 65.1685 136.347 65.9832 136.73C66.7979 137.113 67.1482 138.082 66.7653 138.897C66.4842 139.487 65.8977 139.834 65.2867 139.834C65.0545 139.834 64.8182 139.785 64.5942 139.679ZM186.635 134.86C186.175 134.086 186.427 133.088 187.202 132.628C187.972 132.164 188.974 132.42 189.434 133.19C189.894 133.964 189.642 134.966 188.867 135.426C188.607 135.581 188.322 135.654 188.036 135.654C187.482 135.654 186.941 135.373 186.635 134.86ZM55.1155 134.567C54.3497 134.09 54.1135 133.088 54.586 132.322C55.0585 131.557 56.0646 131.32 56.8304 131.793C57.5962 132.265 57.8324 133.271 57.3599 134.037C57.0504 134.534 56.5168 134.807 55.9709 134.807C55.6776 134.807 55.3844 134.73 55.1155 134.567ZM195.471 129.031C194.904 128.331 195.014 127.304 195.715 126.738C196.416 126.176 197.442 126.286 198.004 126.986C198.571 127.687 198.46 128.709 197.76 129.276C197.458 129.52 197.096 129.638 196.737 129.638C196.261 129.638 195.792 129.43 195.471 129.031ZM46.3334 128.257C45.645 127.675 45.5513 126.648 46.1338 125.96C46.7122 125.271 47.7387 125.182 48.4271 125.76C49.1155 126.339 49.2051 127.365 48.6267 128.054C48.3049 128.44 47.8446 128.636 47.3802 128.636C47.0096 128.636 46.6389 128.514 46.3334 128.257ZM203.291 121.907C202.607 121.324 202.526 120.294 203.108 119.609C203.691 118.925 204.721 118.844 205.406 119.426C206.09 120.013 206.172 121.039 205.589 121.724C205.267 122.102 204.807 122.298 204.346 122.298C203.972 122.298 203.597 122.168 203.291 121.907ZM38.6674 120.53C38.0971 119.834 38.2071 118.807 38.9036 118.241C39.6042 117.671 40.6307 117.776 41.1969 118.477C41.7631 119.174 41.6572 120.2 40.9607 120.77C40.6552 121.015 40.2926 121.133 39.9342 121.133C39.4576 121.133 38.9892 120.929 38.6674 120.53ZM209.487 113.345C208.681 112.945 208.351 111.968 208.749 111.161C209.145 110.355 210.122 110.021 210.929 110.42C211.735 110.819 212.07 111.797 211.67 112.603C211.385 113.178 210.807 113.512 210.208 113.512C209.963 113.512 209.719 113.459 209.487 113.345H209.487ZM32.8303 111.243C32.4555 110.424 32.8181 109.455 33.6327 109.08C34.4515 108.709 35.4209 109.068 35.7916 109.886H35.7957C36.1704 110.705 35.8079 111.671 34.9891 112.045C34.7692 112.147 34.5411 112.192 34.313 112.192C33.6938 112.192 33.1032 111.842 32.8303 111.243ZM213.161 103.446C212.273 103.312 211.654 102.485 211.788 101.593C211.918 100.705 212.746 100.09 213.637 100.22C214.526 100.351 215.145 101.182 215.01 102.07C214.892 102.88 214.195 103.463 213.402 103.463C213.32 103.463 213.242 103.459 213.161 103.446ZM29.8319 100.599C29.7301 99.7031 30.3736 98.8965 31.2698 98.7988C32.1659 98.6969 32.9684 99.3405 33.0702 100.237C33.172 101.129 32.5284 101.935 31.6323 102.037C31.5712 102.041 31.5101 102.045 31.449 102.045C30.6303 102.045 29.9256 101.43 29.8319 100.599ZM211.548 91.6175C211.373 90.7336 211.947 89.8782 212.831 89.703C213.715 89.5279 214.57 90.1063 214.745 90.9902C214.916 91.87 214.342 92.7254 213.458 92.9006C213.352 92.9209 213.246 92.9332 213.144 92.9332C212.378 92.9332 211.698 92.3914 211.548 91.6175ZM31.7056 91.4871C30.8258 91.2835 30.2799 90.4077 30.4836 89.5319C30.6873 88.6562 31.5631 88.1103 32.4388 88.314C33.3146 88.5136 33.8645 89.3894 33.6608 90.2692C33.4857 91.0187 32.8136 91.5279 32.0722 91.5279C31.95 91.5279 31.8278 91.5156 31.7056 91.4871ZM208.094 82.1755C207.661 81.3812 207.955 80.3913 208.749 79.9636C209.539 79.5359 210.529 79.8292 210.957 80.6195C211.385 81.4097 211.091 82.3995 210.301 82.8272C210.053 82.9616 209.788 83.0268 209.527 83.0268C208.949 83.0268 208.387 82.7172 208.094 82.1755ZM35.1883 81.5197C34.4062 81.0716 34.1415 80.0736 34.5936 79.2956C35.0458 78.5176 36.0437 78.2528 36.8217 78.705C37.5998 79.153 37.8645 80.151 37.4124 80.929C37.1109 81.4504 36.5651 81.7437 36.003 81.7437C35.726 81.7437 35.4449 81.6704 35.1883 81.5197ZM202.171 73.8944C201.568 73.2263 201.621 72.1958 202.289 71.5929C202.957 70.9901 203.988 71.043 204.59 71.7151C205.193 72.3832 205.14 73.4137 204.472 74.0166C204.158 74.2935 203.768 74.432 203.38 74.432C202.936 74.432 202.492 74.2528 202.171 73.8944H202.171ZM41.2495 72.8638C40.5977 72.2487 40.5651 71.2182 41.1843 70.5624C41.7994 69.9066 42.834 69.878 43.4857 70.4972C44.1415 71.1123 44.17 72.1428 43.555 72.7986C43.2332 73.1367 42.8014 73.3119 42.3696 73.3119C41.9664 73.3119 41.5672 73.1612 41.2495 72.8638ZM194.603 66.9289C193.89 66.375 193.759 65.3526 194.313 64.6438C194.863 63.931 195.89 63.8006 196.599 64.3546C197.311 64.9045 197.441 65.9269 196.888 66.6397C196.566 67.0511 196.085 67.2711 195.601 67.2711C195.25 67.2711 194.9 67.1571 194.603 66.9289ZM48.9888 65.654C48.4511 64.933 48.6018 63.9106 49.3228 63.3729C50.0438 62.8352 51.0621 62.986 51.6039 63.7069C52.1416 64.4279 51.9909 65.4463 51.2699 65.9839V65.988C50.9766 66.2039 50.6344 66.3098 50.2964 66.3098C49.7994 66.3098 49.3106 66.0817 48.9888 65.654ZM185.988 61.1774C185.205 60.7252 184.941 59.7314 185.389 58.9493C185.841 58.1713 186.835 57.9024 187.617 58.3546C188.395 58.8026 188.664 59.8006 188.212 60.5827C187.911 61.1041 187.364 61.3933 186.798 61.3933C186.521 61.3933 186.244 61.324 185.988 61.1774ZM57.7709 59.7476C57.3351 58.9615 57.6162 57.9676 58.4023 57.5317C59.1885 57.0918 60.1824 57.377 60.6182 58.1631C61.0581 58.9493 60.773 59.9432 59.9868 60.379C59.7384 60.5175 59.4654 60.5868 59.1966 60.5868C58.6263 60.5868 58.0724 60.2853 57.7709 59.7476ZM181.299 58.6519C180.493 58.2487 180.167 57.2711 180.57 56.4645C180.973 55.6621 181.955 55.3362 182.757 55.7395C183.564 56.1427 183.89 57.1203 183.482 57.9269C183.197 58.4971 182.623 58.8271 182.028 58.8271C181.78 58.8271 181.531 58.77 181.299 58.6519ZM67.217 54.9655C66.8667 54.1346 67.2578 53.1814 68.0846 52.8311C68.9156 52.4808 69.8688 52.8678 70.2191 53.6987C70.5694 54.5256 70.1824 55.4829 69.3514 55.8332C69.1437 55.9187 68.9278 55.9594 68.7201 55.9594C68.0846 55.9594 67.4777 55.5888 67.217 54.9655ZM171.751 54.4727C170.912 54.1509 170.488 53.2099 170.806 52.3708C171.128 51.5276 172.069 51.104 172.908 51.4258C173.751 51.7435 174.174 52.6845 173.853 53.5276C173.605 54.1794 172.985 54.5786 172.33 54.5786C172.138 54.5786 171.943 54.5419 171.751 54.4727ZM77.103 51.1773C76.8342 50.3179 77.3108 49.4054 78.1702 49.1325C79.0256 48.8637 79.9421 49.3403 80.211 50.1957C80.4839 51.0551 80.0073 51.9716 79.1478 52.2405C78.9849 52.2934 78.822 52.3179 78.659 52.3179C77.9666 52.3179 77.323 51.8739 77.103 51.1773ZM161.833 51.2018C160.965 50.9574 160.46 50.0572 160.708 49.1895C160.953 48.326 161.853 47.8209 162.717 48.0653C163.584 48.3097 164.089 49.2099 163.845 50.0775C163.642 50.7944 162.986 51.2629 162.277 51.2629C162.13 51.2629 161.98 51.2425 161.833 51.2018ZM87.2864 48.2853C87.0868 47.4095 87.6367 46.5378 88.5165 46.3382C89.3923 46.1386 90.264 46.6885 90.4636 47.5643C90.6632 48.4441 90.1133 49.3158 89.2375 49.5154C89.1153 49.5439 88.9931 49.5561 88.875 49.5561C88.1296 49.5561 87.4575 49.0429 87.2864 48.2853ZM151.653 48.7618C150.774 48.5867 150.2 47.7313 150.374 46.8474C150.549 45.9635 151.409 45.3932 152.289 45.5683C153.173 45.7435 153.747 46.5989 153.571 47.4828C153.417 48.2567 152.736 48.7944 151.975 48.7944C151.869 48.7944 151.763 48.7863 151.653 48.7618H151.653ZM97.6693 46.2119C97.5349 45.3239 98.15 44.493 99.038 44.3586C99.93 44.2282 100.757 44.8392 100.891 45.7313C101.026 46.6193 100.411 47.4502 99.5227 47.5846C99.4412 47.5969 99.3598 47.6009 99.2783 47.6009C98.484 47.6009 97.7915 47.0225 97.6693 46.2119ZM141.315 47.0958C140.419 46.9859 139.788 46.1712 139.898 45.2791C140.008 44.383 140.823 43.7516 141.719 43.8616C142.611 43.9757 143.242 44.7863 143.132 45.6824C143.03 46.5052 142.326 47.1081 141.515 47.1081C141.45 47.1081 141.381 47.104 141.316 47.0958H141.315ZM108.174 44.9003C108.105 44.0042 108.773 43.218 109.673 43.1488C110.57 43.0755 111.352 43.7476 111.425 44.6437C111.494 45.5398 110.826 46.326 109.926 46.3952C109.885 46.3993 109.84 46.4034 109.796 46.4034C108.957 46.4034 108.244 45.7516 108.174 44.9003ZM130.875 46.159C129.975 46.106 129.287 45.3402 129.34 44.44C129.388 43.5439 130.158 42.8555 131.054 42.9044C131.955 42.9533 132.643 43.7231 132.594 44.6233C132.545 45.4909 131.824 46.159 130.964 46.159H130.875H130.875ZM118.749 44.3138C118.737 43.4135 119.462 42.6763 120.357 42.6681C121.258 42.6559 121.995 43.3769 122.008 44.2771C122.019 45.1773 121.295 45.9146 120.399 45.9268H120.378C119.486 45.9268 118.761 45.2099 118.749 44.3138Z" fill="black"/>
<path d="M255.067 82.7861C255.119 100.543 242.583 122.25 227.133 131.171C211.677 140.093 199.064 132.907 199.012 115.149C198.964 97.3882 211.495 75.681 226.951 66.7598C242.401 57.838 255.019 65.029 255.067 82.7861Z" fill="white" stroke="#1B1B1B" stroke-width="0.5" stroke-miterlimit="10"/>
<path d="M248.357 88.6015C248.394 101.12 239.556 116.423 228.663 122.713C217.767 129.003 208.875 123.937 208.838 111.418C208.804 98.8964 217.639 83.5931 228.535 77.3029C239.428 71.0134 248.323 76.0832 248.357 88.6015Z" fill="white" stroke="#1B1B1B" stroke-width="0.5" stroke-miterlimit="10"/>
<path d="M233.704 57.1678C228.604 54.2043 221.547 54.6145 213.77 59.1044C198.316 68.0269 185.784 89.7342 185.834 107.491C185.859 116.313 188.985 122.526 194.019 125.451L207.197 133.109C202.162 130.184 199.037 123.971 199.011 115.149C198.961 97.3913 211.494 75.684 226.948 66.7622C234.724 62.2723 241.782 61.8621 246.881 64.8256L233.704 57.1678Z" fill="#1B1B1B" stroke="#1B1B1B" stroke-width="0.5" stroke-miterlimit="10"/>
<path d="M231.29 86.0842L230.423 86.5851C230.394 86.6055 230.365 86.6294 230.336 86.6485C228.485 87.8178 226.757 89.3939 225.159 91.387C223.185 93.8504 221.687 96.559 220.664 99.5007C220.415 100.217 220.209 100.929 220.038 101.638C220.026 101.686 220.013 101.714 219.97 101.738C218.67 102.487 217.369 103.238 216.069 103.989V104.042C216.089 104.18 216.111 104.316 216.129 104.453C216.223 105.198 216.317 105.941 216.412 106.686C216.414 106.703 216.419 106.717 216.423 106.739L219.513 104.955C219.504 105.315 219.489 105.671 219.491 106.018C219.492 106.365 219.508 106.699 219.519 107.047L216.669 108.692C216.685 108.832 216.702 108.962 216.718 109.092C216.802 109.747 216.885 110.403 216.969 111.058C216.983 111.165 216.999 111.272 217.009 111.381C217.014 111.437 217.034 111.438 217.08 111.412L217.085 111.409C217.459 111.192 217.835 110.975 218.21 110.758C218.584 110.542 218.959 110.326 219.335 110.109C219.444 110.046 219.552 109.984 219.661 109.921C219.77 109.858 219.879 109.795 219.988 109.73C220.032 109.705 220.048 109.712 220.062 109.751C220.586 111.269 221.411 112.413 222.55 113.157C224.112 114.177 226.005 114.364 228.221 113.721C228.965 113.505 229.721 113.186 230.487 112.777C230.511 112.765 230.533 112.758 230.556 112.747L231.304 112.315C231.403 112.251 231.501 112.185 231.6 112.122C232.609 111.476 233.592 110.692 234.547 109.762C235.419 108.913 236.239 107.973 237.015 106.957C237.282 106.607 237.539 106.247 237.802 105.893C237.818 105.871 237.835 105.852 237.852 105.83V105.802C237.823 105.752 237.792 105.705 237.765 105.653C237.372 104.888 236.98 104.123 236.587 103.358C236.578 103.34 236.568 103.324 236.556 103.302C236.462 103.442 236.373 103.575 236.283 103.708C235.672 104.608 235.028 105.468 234.325 106.254C233.591 107.075 232.822 107.775 232.017 108.354C231.654 108.615 231.29 108.852 230.926 109.062C230.715 109.184 230.504 109.297 230.293 109.4C229.223 109.925 228.204 110.196 227.238 110.211C226.407 110.223 225.662 110.044 225.004 109.675C224.293 109.276 223.725 108.675 223.298 107.879L223.285 107.849C223.284 107.845 223.286 107.84 223.287 107.827L223.367 107.781C226.275 106.102 229.182 104.424 232.089 102.746C232.149 102.712 232.178 102.675 232.203 102.597C232.564 101.456 232.928 100.314 233.292 99.1736C233.3 99.1464 233.308 99.1198 233.319 99.081L233.239 99.1273L222.659 105.236C222.56 105.293 222.558 105.293 222.549 105.186C222.492 104.575 222.493 103.931 222.547 103.257C222.55 103.213 222.564 103.191 222.595 103.173L222.603 103.168C222.619 103.16 222.635 103.151 222.651 103.142C222.673 103.129 222.694 103.116 222.716 103.103C226.496 100.921 230.276 98.7389 234.055 96.5583C234.121 96.5208 234.15 96.4813 234.177 96.3975C234.538 95.2561 234.902 94.1148 235.266 92.9734C235.274 92.9489 235.28 92.925 235.29 92.8882L223.251 99.8387C223.297 99.701 223.336 99.5784 223.381 99.4544C224.541 96.2054 226.336 93.4872 228.771 91.3162C229.453 90.7077 230.147 90.2136 230.848 89.8089C231.1 89.6631 231.354 89.5295 231.608 89.4055C233.019 88.7179 234.298 88.5326 235.467 88.7663C235.809 88.8338 236.134 88.9394 236.466 89.0287C236.482 89.0334 236.496 89.0382 236.517 89.0443C236.56 88.9135 236.599 88.7902 236.639 88.6655C237.013 87.4914 237.386 86.3166 237.761 85.1425C237.77 85.1166 237.783 85.0894 237.794 85.0621V85.0349C237.607 84.996 237.422 84.9538 237.235 84.9183C236.337 84.7514 235.383 84.7425 234.358 84.9442C233.706 85.0717 233.041 85.2768 232.359 85.5773C232.025 85.7251 231.689 85.8962 231.356 86.0563C231.334 86.0672 231.313 86.074 231.292 86.0822" fill="black"/>
<path d="M7.41084 103.76C7.35497 122.578 20.6399 145.58 37.013 155.035C53.3916 164.489 66.7577 156.874 66.8135 138.057C66.8646 119.235 53.5845 96.2314 37.2059 86.7774C20.8321 77.3234 7.46126 84.9437 7.41016 103.76H7.41084Z" fill="white" stroke="#1B1B1B" stroke-width="0.5" stroke-miterlimit="10"/>
<path d="M30.0473 76.6113C35.451 73.4706 42.9302 73.9054 51.1713 78.6637C67.5479 88.1191 80.8294 111.122 80.7756 129.94C80.749 139.289 77.4366 145.873 72.1018 148.973L58.1375 157.088C63.4723 153.988 66.7847 147.404 66.8112 138.056C66.8644 119.237 53.5835 96.2341 37.207 86.7787C28.9659 82.0211 21.4867 81.5863 16.083 84.727L30.0473 76.6119V76.6113Z" fill="#1B1B1B" stroke="#1B1B1B" stroke-width="0.5" stroke-miterlimit="10"/>
<mask id="mask0_5455_3176" style="mask-type:luminance" maskUnits="userSpaceOnUse" x="21" y="86" width="27" height="68">
<path d="M21.8115 138.362L21.9587 86.4746L47.5869 101.271L47.4397 153.158L21.8115 138.362Z" fill="white"/>
</mask>
<g mask="url(#mask0_5455_3176)">
<path d="M34.6916 112.555L21.8857 111.691L34.6508 127.048L47.5146 126.362L34.6916 112.555Z" fill="#1B1B1B"/>
<path d="M34.7736 93.874L21.8955 108.445L34.7007 109.511L47.5237 123.121L34.7736 93.874Z" fill="#1B1B1B"/>
<path d="M47.5038 129.784C43.2027 129.891 38.9016 129.993 34.6005 130.1C30.3587 125.103 26.1168 120.106 21.875 115.113C26.0937 125.311 30.3089 135.506 34.5276 145.704V145.699C38.8519 140.396 43.1796 135.09 47.5038 129.783" fill="#1B1B1B"/>
</g>
<path d="M107.276 20.6504C107.238 33.7059 116.455 49.666 127.816 56.2257C139.179 62.7853 148.453 57.5015 148.492 44.446C148.527 31.3865 139.313 15.4264 127.949 8.86726C116.589 2.30762 107.312 7.59488 107.276 20.6504Z" fill="white" stroke="#1B1B1B" stroke-width="0.5" stroke-miterlimit="10"/>
<path d="M122.984 1.81331C126.733 -0.365656 131.922 -0.0641194 137.64 3.23696C149.003 9.79709 158.217 25.7577 158.18 38.8137C158.162 45.2997 155.864 49.8682 152.162 52.019L142.474 57.6493C146.175 55.4985 148.473 50.93 148.492 44.444C148.529 31.3875 139.314 15.4274 127.952 8.86727C122.234 5.5662 117.044 5.26466 113.295 7.44362L122.984 1.81331Z" fill="#1B1B1B" stroke="#1B1B1B" stroke-width="0.5" stroke-miterlimit="10"/>
<path d="M142.33 41.3885C142.303 51.0906 135.412 55.0174 126.968 50.1424C118.524 45.2674 111.677 33.4082 111.704 23.7062C111.731 14.0041 118.625 10.0777 127.068 14.9532C135.512 19.8282 142.358 31.6865 142.33 41.3885Z" fill="white" stroke="#1B1B1B" stroke-width="0.5" stroke-miterlimit="10"/>
<path d="M125.77 36.7198C125.436 36.527 125.093 36.3066 124.737 36.054C124.732 34.6526 124.724 33.2779 124.758 31.9002C125.197 32.1429 125.622 32.3688 126.037 32.6086C126.691 32.9857 127.32 33.397 127.941 33.96C128.397 34.3728 128.822 34.8325 129.121 35.4514C129.655 36.5577 129.488 37.6432 128.71 37.7035C128.299 37.7352 127.818 37.6284 127.349 37.4593C126.834 37.274 126.313 37.0337 125.769 36.7193M125.497 30.3732C125.26 30.2363 125.019 30.0905 124.775 29.9422L124.786 26.0974C125.113 26.2669 125.437 26.436 125.757 26.6209C126.493 27.0455 127.208 27.5531 127.89 28.3386C128.415 28.9417 128.67 29.6268 128.653 30.2927C128.639 30.9407 128.351 31.2581 127.839 31.2418C127.097 31.2175 126.318 30.8473 125.497 30.3732ZM124.692 20.692L123.021 19.7266L123.012 22.8793L119.711 20.9732L119.705 23.0128C119.971 23.166 120.218 23.299 120.458 23.4379C120.603 23.5215 120.745 23.6075 120.887 23.7009C121.535 24.1275 121.832 24.6589 121.832 25.393C121.832 28.0826 121.824 30.7677 121.812 33.4504C121.808 34.1637 121.62 34.2631 121.003 33.924C120.88 33.8562 120.757 33.786 120.632 33.7139C120.414 33.5883 120.192 33.4568 119.958 33.3219C119.839 34.0658 119.733 34.7213 119.61 35.488L122.997 37.4435L122.989 40.5943L124.67 41.5652L124.679 38.4682L126.003 39.233L125.994 42.3096L127.695 43.2918L127.704 40.1766C128.281 40.4193 128.812 40.6581 129.338 40.8612C131.352 41.6423 132.421 41.1381 132.702 39.2606C132.756 38.9023 132.756 38.4979 132.744 38.0935C132.704 36.7263 132.158 35.4539 131.068 34.3026C130.873 34.0965 130.675 33.8938 130.425 33.6353C130.98 33.5557 131.387 33.3392 131.604 32.8251C132.068 31.7222 131.878 29.4157 130.029 27.5022C129.71 27.1715 129.376 26.8626 129.042 26.5778C128.624 26.2239 128.198 25.9056 127.703 25.5146L127.712 22.4379L126.033 21.4681L126.024 24.4488L124.684 23.6752L124.692 20.692Z" fill="black"/>
<path d="M74.495 29.0339C77.9639 29.0339 80.7761 26.2217 80.7761 22.7528C80.7761 19.2838 77.9639 16.4717 74.495 16.4717C71.026 16.4717 68.2139 19.2838 68.2139 22.7528C68.2139 26.2217 71.026 29.0339 74.495 29.0339Z" fill="white" stroke="#242424" stroke-width="0.5" stroke-linecap="round" stroke-linejoin="round"/>
<path d="M177.011 81.9292C178.915 81.9292 180.458 80.3864 180.458 78.4832C180.458 76.58 178.915 75.0371 177.011 75.0371C175.108 75.0371 173.565 76.58 173.565 78.4832C173.565 80.3864 175.108 81.9292 177.011 81.9292Z" fill="white" stroke="#242424" stroke-width="0.5" stroke-linecap="round" stroke-linejoin="round"/>
<path d="M228.15 0.999452L231.53 8.08325L231.588 8.20571L231.723 8.22344L239.504 9.24921L233.812 14.653L233.713 14.7464L233.738 14.8798L235.167 22.5976L228.269 18.8535L228.15 18.7888L228.03 18.8535L221.132 22.5976L222.561 14.8798L222.586 14.7464L222.487 14.653L216.795 9.24921L224.576 8.22344L224.711 8.20571L224.769 8.08325L228.15 0.999452Z" fill="white" stroke="black" stroke-width="0.5"/>
<path d="M7.40969 58.5483L9.20791 62.3167L9.26635 62.4392L9.40087 62.4569L13.5406 63.0026L10.5122 65.8773L10.4138 65.9708L10.4385 66.1042L11.1988 70.2099L7.52895 68.2181L7.40969 68.1534L7.29044 68.2181L3.62061 70.2099L4.38086 66.1042L4.40557 65.9708L4.30716 65.8773L1.27883 63.0026L5.41852 62.4569L5.55304 62.4392L5.61148 62.3167L7.40969 58.5483Z" fill="white" stroke="black" stroke-width="0.5"/>
</svg>
