<svg width="222" height="290" viewBox="0 0 222 290" fill="none" xmlns="http://www.w3.org/2000/svg">
<path d="M126.754 289.802C137.805 265.508 137.271 247.757 134.849 236.153C130.516 215.431 118.654 207.171 116.771 186.288C115.215 168.997 121.518 154.322 126.754 144.988" stroke="#333333" stroke-width="0.5" stroke-miterlimit="10"/>
<path d="M73.9727 178.943C76.5521 178.234 79.2351 177.979 81.902 178.188C87.9526 178.685 95.0807 181.812 112.998 206.134C131.748 231.585 133.917 241.687 134.64 245.96C135.574 251.514 135.775 257.166 135.239 262.772" stroke="#333333" stroke-width="0.5" stroke-miterlimit="10"/>
<path d="M178.384 178.115C174.852 178.332 158.675 179.699 146.035 193.311C131.729 208.686 133.142 227.653 133.437 230.641" stroke="#333333" stroke-width="0.5" stroke-miterlimit="10"/>
<path d="M90.4338 225.727C90.3463 243.336 98.8144 258.453 111.979 263.997C119.112 267.004 126.01 266.516 130.398 265.706C131.209 261.303 131.692 254.406 128.69 247.287C123.164 234.103 108.042 225.631 90.4338 225.727Z" stroke="#333333" stroke-width="0.5" stroke-miterlimit="10"/>
<path d="M161.076 255.194C150.384 255.139 141.202 260.259 137.832 268.28C136.405 271.832 136.045 275.722 136.795 279.475C140.55 280.225 144.441 279.865 147.994 278.438C155.988 275.077 161.131 265.891 161.076 255.194Z" stroke="#333333" stroke-width="0.5" stroke-miterlimit="10"/>
<path d="M123.246 178.916C123.209 186.68 126.93 193.348 132.746 195.788C135.324 196.825 138.148 197.088 140.873 196.543C141.415 193.823 141.153 191.003 140.118 188.43C137.677 182.609 131.01 178.879 123.246 178.916Z" stroke="#333333" stroke-width="0.5" stroke-miterlimit="10"/>
<path d="M35.282 151.598C55.9788 157.143 77.199 178.374 82.6687 199.021C88.1216 219.603 75.7565 231.826 55.0664 226.28C34.3637 220.732 13.1427 199.506 7.68874 178.924C2.22203 158.279 14.5852 146.051 35.282 151.598Z" fill="white" stroke="#333333" stroke-width="0.5" stroke-miterlimit="10"/>
<path d="M42.9007 143.936C63.5974 149.482 84.8193 170.712 90.2885 191.359C92.9951 201.575 91.3114 209.738 86.3967 214.686L78.7799 222.34C83.6955 217.395 85.3848 209.237 82.6737 199.019C77.2033 178.372 55.9825 157.143 35.2862 151.596C24.8712 148.808 16.5727 150.512 11.5885 155.528L19.1975 147.867C24.1891 142.853 32.4866 141.147 42.9007 143.936Z" fill="#D9D9D9" stroke="#333333" stroke-width="0.5" stroke-miterlimit="10"/>
<path d="M35.2112 151.766C55.908 157.311 77.1282 178.542 82.5979 199.189C88.0508 219.771 75.6857 231.994 54.9956 226.448C34.2929 220.9 13.0719 199.674 7.61794 179.092C2.15123 158.447 14.5144 146.219 35.2112 151.766Z" stroke="#333333" stroke-width="0.5" stroke-miterlimit="10"/>
<path d="M149.163 36.2357C164.142 62.1794 164.132 104.148 149.127 129.969C134.17 155.708 109.861 155.567 94.8882 129.63C79.9058 103.677 79.9109 61.7121 94.8675 35.9716C109.873 10.1573 134.185 10.2907 149.163 36.2357Z" fill="white" stroke="#333333" stroke-width="0.5" stroke-miterlimit="10"/>
<path d="M164.268 36.1939C179.246 62.1389 179.239 104.108 164.234 129.927C156.809 142.703 147.075 149.109 137.324 149.142L122.227 149.179C131.975 149.15 141.71 142.755 149.132 129.972C164.137 104.151 164.144 62.1845 149.168 36.2387C141.627 23.1858 131.738 16.6664 121.851 16.698L136.948 16.6465C146.839 16.6248 156.73 23.1409 164.268 36.1939Z" fill="#D9D9D9" stroke="#333333" stroke-width="0.5" stroke-miterlimit="10"/>
<path d="M148.923 36.3314C163.902 62.2751 163.892 104.244 148.887 130.064C133.93 155.803 109.621 155.663 94.6482 129.725C79.6659 103.773 79.6709 61.8078 94.6275 36.0673C109.633 10.253 133.945 10.3864 148.923 36.3314Z" stroke="#333333" stroke-width="0.5" stroke-miterlimit="10"/>
<path d="M192.932 156.686C175.883 161.254 158.402 178.744 153.896 195.753C149.404 212.708 159.59 222.777 176.634 218.209C193.689 213.638 211.171 196.153 215.663 179.197C220.167 162.191 209.982 152.117 192.932 156.686Z" fill="white" stroke="#333333" stroke-width="0.5" stroke-miterlimit="10"/>
<path d="M186.658 150.376C169.609 154.945 152.126 172.433 147.621 189.442C145.391 197.858 146.778 204.583 150.827 208.659L157.101 214.964C153.052 210.891 151.66 204.17 153.894 195.753C158.4 178.744 175.882 161.256 192.931 156.686C201.511 154.389 208.347 155.793 212.453 159.926L206.185 153.614C202.073 149.484 195.237 148.079 186.658 150.376Z" fill="#D9D9D9" stroke="#333333" stroke-width="0.5" stroke-miterlimit="10"/>
<path d="M192.994 156.827C175.944 161.395 158.463 178.885 153.957 195.894C149.465 212.849 159.651 222.918 176.695 218.35C193.75 213.779 211.232 196.293 215.724 179.338C220.228 162.331 210.043 152.258 192.994 156.827Z" stroke="#333333" stroke-width="0.5" stroke-miterlimit="10"/>
</svg>
