<svg width="40" height="40" viewBox="0 0 40 40" fill="none" xmlns="http://www.w3.org/2000/svg">
<g clip-path="url(#clip0_2574_19195)">
<path d="M0.0278312 20.0128L0.0278312 20.013C0.0278316 31.0521 8.97674 40.001 20.0158 40.001L20.0161 40.001C31.0551 40.001 40.004 31.0521 40.004 20.013L40.004 20.0128C40.004 8.97372 31.0551 0.0248094 20.0161 0.0248099L20.0158 0.0248099C8.97674 0.0248104 0.0278307 8.97372 0.0278312 20.0128Z" fill="#0B132B"/>
<path d="M24.8284 5.66696C26.6796 6.28697 28.3937 7.25872 29.8764 8.52881C31.788 10.1673 33.2599 12.2575 34.1584 14.6095C35.0568 16.9615 35.3534 19.5007 35.0211 21.9964C34.6347 24.9079 33.4123 27.6448 31.5021 29.8757C29.8635 31.7873 27.7733 33.2591 25.4214 34.1575C23.0694 35.0559 20.5303 35.3525 18.0346 35.0202C15.1231 34.6338 12.3862 33.4114 10.1553 31.5012C8.24369 29.8627 6.77181 27.7726 5.87337 25.4206C4.97493 23.0687 4.67841 20.5296 5.01075 18.0339C5.39702 15.1225 6.61936 12.3856 8.52965 10.1549C10.168 8.24288 12.2582 6.77062 14.6103 5.87191C16.9624 4.9732 19.5018 4.67652 21.9977 5.00884C22.96 5.13767 23.9079 5.35804 24.8284 5.66696ZM25.7227 3.00063C21.3683 1.54016 16.4567 1.74081 12.0202 3.94876C3.1471 8.36467 -0.466218 19.1377 3.94969 28.0108C6.15765 32.4474 9.95489 35.569 14.3093 37.0294C18.6637 38.4899 23.5752 38.2893 28.0115 36.0812C36.8846 31.6653 40.4979 20.8923 36.082 12.0192C33.8746 7.58164 30.077 4.46111 25.7227 3.00063Z" fill="url(#paint0_linear_2574_19195)"/>
<path d="M12.9653 15.7842L8.97355 4.70466L6.8124 6.09735L2.25271 13.6311L1.44595 24.1176L12.1737 18.1445L12.9653 15.7842Z" fill="#0B132B"/>
<path d="M7.34935 10.2387L7.89264 13.3174L10.222 11.2022L12.6515 12.0171L8.82581 15.3912L9.89037 20.6168L7.45296 19.7993L6.83348 16.5278L4.36663 18.7641L1.92922 17.9466L5.92941 14.4197L4.91194 9.4212L7.34935 10.2387Z" fill="url(#paint1_linear_2574_19195)"/>
<path fill-rule="evenodd" clip-rule="evenodd" d="M13.6107 19.2744L24.3811 11.1743C24.6102 11.0019 24.9246 11.2286 24.8334 11.5005L22.3077 19.0307L26.4187 20.4095C26.6416 20.4843 26.6892 20.7784 26.5013 20.9197L15.731 29.0198C15.5018 29.1922 15.1875 28.9655 15.2786 28.6937L17.8043 21.1634L13.6934 19.7846C13.4705 19.7098 13.4228 19.4157 13.6107 19.2744Z" fill="url(#paint2_linear_2574_19195)"/>
<path d="M20.0002 40.0004C31.046 40.0004 40.0004 31.046 40.0004 20.0002C40.0004 8.95439 31.046 0 20.0002 0C8.95439 0 0 8.95439 0 20.0002C0 31.046 8.95439 40.0004 20.0002 40.0004Z" fill="#005024"/>
<path d="M20.0001 37.2995C29.5541 37.2995 37.2992 29.5544 37.2992 20.0003C37.2992 10.4463 29.5541 2.70117 20.0001 2.70117C10.446 2.70117 2.70093 10.4463 2.70093 20.0003C2.70093 29.5544 10.446 37.2995 20.0001 37.2995Z" stroke="#70E000" stroke-width="1.73913" stroke-miterlimit="10"/>
<path d="M25.0418 15.0442L26.0285 12.6138C25.4088 12.2099 24.6987 11.8852 23.8981 11.6396L23.072 14.1531C23.7457 14.3669 24.4022 14.6638 25.0414 15.0442H25.0418Z" fill="#70E000"/>
<path d="M16.2123 20.002C15.9217 19.9369 15.823 19.5723 16.0416 19.3694L17.4783 17.4C17.4093 17.3499 17.3431 17.2982 17.2809 17.2441C16.9197 16.9311 16.7396 16.5183 16.7396 16.0048C16.7396 15.5716 16.8637 15.1866 17.1124 14.8497C17.3612 14.5129 17.754 14.2403 18.2914 14.0315C18.7791 13.8423 19.403 13.7393 20.1613 13.7217L21.9838 11.2235C21.4648 11.1546 20.9439 11.1201 20.4206 11.1201C18.8805 11.1201 17.6091 11.3489 16.6064 11.806C15.6037 12.2631 14.8575 12.8729 14.3683 13.6347C13.8787 14.3969 13.6343 15.2352 13.6343 16.1493C13.6343 17.0635 13.8184 17.7858 14.1877 18.3631C14.5567 18.9409 15.0338 19.4019 15.6197 19.747C16.2053 20.092 16.8547 20.3725 17.5687 20.5891C17.9107 20.6929 18.253 20.79 18.5954 20.8813L18.7011 20.5597L16.2116 20.0023L16.2123 20.002Z" fill="#70E000"/>
<path d="M16.86 25.3176C15.8652 24.9651 15.0313 24.5237 14.3572 23.9941L13.2742 26.4245C13.98 27.0183 14.9345 27.5036 16.1378 27.8804C16.1856 27.8953 16.2337 27.9098 16.2819 27.9239L17.1107 25.4022C17.0269 25.3752 16.9435 25.3474 16.86 25.3176Z" fill="#70E000"/>
<path d="M26.1846 21.2518C25.8239 20.674 25.3504 20.2169 24.7648 19.8801C24.1788 19.5432 23.529 19.2706 22.8158 19.0619C22.4021 18.9412 21.9873 18.828 21.571 18.7207L21.5024 18.9291L23.9015 19.4661C24.1921 19.5311 24.2908 19.8958 24.0727 20.0986L22.634 22.0955C22.8017 22.1942 22.9548 22.3019 23.0923 22.4186C23.4613 22.7316 23.6457 23.1448 23.6457 23.6579C23.6457 24.0754 23.5173 24.4483 23.2607 24.7769C23.0038 25.1059 22.6027 25.3664 22.0575 25.5591C21.515 25.7507 20.806 25.8466 19.931 25.8478L18.1445 28.3279C18.723 28.4071 19.3137 28.447 19.9157 28.447C21.4558 28.447 22.7312 28.2183 23.7417 27.7612C24.7523 27.3041 25.5023 26.6946 25.9919 25.9324C26.4811 25.1706 26.7259 24.3406 26.7259 23.4417C26.7259 22.5428 26.5454 21.8295 26.1846 21.2518Z" fill="#70E000"/>
<path d="M18.1038 28.3441L15.799 31.5433C15.5505 31.7712 15.156 31.5458 15.2246 31.2172L15.2256 31.2141L16.2973 27.9523C16.8862 28.1276 17.4884 28.2583 18.1038 28.3441Z" fill="url(#paint3_linear_2574_19195)" stroke="url(#paint4_linear_2574_19195)" stroke-width="0.0460829"/>
<mask id="path-13-inside-1_2574_19195" fill="white">
<path fill-rule="evenodd" clip-rule="evenodd" d="M25.0013 8.27964L23.8983 11.6368V11.6372C23.7451 11.5902 23.5892 11.5455 23.4294 11.5044C22.9496 11.3806 22.4679 11.287 21.9845 11.2228L24.3883 7.92751C24.6546 7.68036 25.0808 7.92477 25.0013 8.27964ZM20.3965 13.7186C20.3169 13.7186 20.2388 13.7198 20.1618 13.7217L17.4784 17.4001C17.809 17.6394 18.2163 17.8321 18.7008 17.9782C19.2864 18.1548 19.9401 18.3272 20.662 18.4956C20.9659 18.5665 21.2687 18.6417 21.5711 18.7196L23.0724 14.151C22.9514 14.1126 22.83 14.0766 22.7078 14.0437C21.9052 13.8271 21.1351 13.719 20.3976 13.719L20.3972 13.7186C20.397 13.7186 20.3968 13.7186 20.3965 13.7186ZM19.9316 25.8468L22.6346 22.0944L22.6342 22.0942L24.0726 20.0978C24.2912 19.8949 24.1925 19.5306 23.9014 19.4652L21.5024 18.9282L21.5709 18.7198C21.2685 18.6419 20.9658 18.5667 20.6618 18.4958C19.9399 18.3274 19.2862 18.155 18.7007 17.9784C18.2161 17.8327 17.8088 17.6396 17.4782 17.4003L16.0415 19.3696C15.8229 19.5725 15.9216 19.9372 16.2123 20.0022L18.7018 20.5596L18.5961 20.8812L18.597 20.8814L17.1115 25.4022C18.0264 25.6983 18.9614 25.8472 19.9167 25.8472H19.9316V25.8468Z"/>
</mask>
<path fill-rule="evenodd" clip-rule="evenodd" d="M25.0013 8.27964L23.8983 11.6368V11.6372C23.7451 11.5902 23.5892 11.5455 23.4294 11.5044C22.9496 11.3806 22.4679 11.287 21.9845 11.2228L24.3883 7.92751C24.6546 7.68036 25.0808 7.92477 25.0013 8.27964ZM20.3965 13.7186C20.3169 13.7186 20.2388 13.7198 20.1618 13.7217L17.4784 17.4001C17.809 17.6394 18.2163 17.8321 18.7008 17.9782C19.2864 18.1548 19.9401 18.3272 20.662 18.4956C20.9659 18.5665 21.2687 18.6417 21.5711 18.7196L23.0724 14.151C22.9514 14.1126 22.83 14.0766 22.7078 14.0437C21.9052 13.8271 21.1351 13.719 20.3976 13.719L20.3972 13.7186C20.397 13.7186 20.3968 13.7186 20.3965 13.7186ZM19.9316 25.8468L22.6346 22.0944L22.6342 22.0942L24.0726 20.0978C24.2912 19.8949 24.1925 19.5306 23.9014 19.4652L21.5024 18.9282L21.5709 18.7198C21.2685 18.6419 20.9658 18.5667 20.6618 18.4958C19.9399 18.3274 19.2862 18.155 18.7007 17.9784C18.2161 17.8327 17.8088 17.6396 17.4782 17.4003L16.0415 19.3696C15.8229 19.5725 15.9216 19.9372 16.2123 20.0022L18.7018 20.5596L18.5961 20.8812L18.597 20.8814L17.1115 25.4022C18.0264 25.6983 18.9614 25.8472 19.9167 25.8472H19.9316V25.8468Z" fill="url(#paint5_linear_2574_19195)"/>
<path d="M23.8983 11.6368L23.8545 11.6224L23.8522 11.6294V11.6368H23.8983ZM25.0013 8.27964L25.0453 8.29409L25.0462 8.28971L25.0013 8.27964ZM23.8983 11.6372L23.8848 11.6812L23.9444 11.6995V11.6372H23.8983ZM23.4294 11.5044L23.4179 11.549L23.418 11.549L23.4294 11.5044ZM21.9845 11.2228L21.9473 11.1956L21.9016 11.2582L21.9784 11.2684L21.9845 11.2228ZM24.3883 7.92751L24.3563 7.8931L24.3511 7.90036L24.3883 7.92751ZM20.1618 13.7217L20.1606 13.6757L20.138 13.6763L20.1246 13.6946L20.1618 13.7217ZM20.3965 13.7186V13.6725H20.3965L20.3965 13.7186ZM17.4784 17.4001L17.4411 17.3729L17.4139 17.4103L17.4514 17.4374L17.4784 17.4001ZM18.7008 17.9782L18.7141 17.9341L18.7141 17.9341L18.7008 17.9782ZM20.662 18.4956L20.6515 18.5405H20.6515L20.662 18.4956ZM21.5711 18.7196L21.5596 18.7643L21.6014 18.775L21.6149 18.734L21.5711 18.7196ZM23.0724 14.151L23.1162 14.1654L23.1307 14.1212L23.0863 14.1071L23.0724 14.151ZM22.7078 14.0437L22.6957 14.0882L22.6958 14.0882L22.7078 14.0437ZM20.3976 13.719L20.3651 13.7516L20.3785 13.7651H20.3976V13.719ZM20.3972 13.7186L20.4298 13.686L20.4163 13.6725H20.3972V13.7186ZM22.6346 22.0944L22.672 22.1214L22.7016 22.0804L22.658 22.0547L22.6346 22.0944ZM19.9316 25.8468L19.8942 25.8198L19.8855 25.8319V25.8468H19.9316ZM22.6342 22.0942L22.5968 22.0673L22.5673 22.1083L22.6109 22.1339L22.6342 22.0942ZM24.0726 20.0978L24.0406 20.0633L24.0352 20.0708L24.0726 20.0978ZM23.9014 19.4652L23.9115 19.4203L23.9115 19.4202L23.9014 19.4652ZM21.5024 18.9282L21.4586 18.9138L21.4427 18.9621L21.4923 18.9732L21.5024 18.9282ZM21.5709 18.7198L21.6147 18.7342L21.6301 18.6875L21.5824 18.6752L21.5709 18.7198ZM20.6618 18.4958L20.6513 18.5407H20.6513L20.6618 18.4958ZM18.7007 17.9784L18.714 17.9343L18.7139 17.9342L18.7007 17.9784ZM17.4782 17.4003L17.5052 17.3629L17.468 17.336L17.441 17.3731L17.4782 17.4003ZM16.0415 19.3696L16.0734 19.404L16.0787 19.3968L16.0415 19.3696ZM16.2123 20.0022L16.2223 19.9572L16.2223 19.9572L16.2123 20.0022ZM18.7018 20.5596L18.7456 20.574L18.7615 20.5257L18.7119 20.5146L18.7018 20.5596ZM18.5961 20.8812L18.5523 20.8668L18.537 20.9131L18.5842 20.9257L18.5961 20.8812ZM18.597 20.8814L18.6408 20.8958L18.656 20.8494L18.6088 20.8369L18.597 20.8814ZM17.1115 25.4022L17.0677 25.3878L17.0532 25.4318L17.0973 25.4461L17.1115 25.4022ZM19.9316 25.8472V25.8933H19.9777V25.8472H19.9316ZM23.9421 11.6511L25.045 8.29402L24.9575 8.26525L23.8545 11.6224L23.9421 11.6511ZM23.9444 11.6372V11.6368H23.8522V11.6372H23.9444ZM23.418 11.549C23.577 11.5899 23.7322 11.6344 23.8848 11.6812L23.9118 11.5931C23.7581 11.5459 23.6015 11.5011 23.4409 11.4597L23.418 11.549ZM21.9784 11.2684C22.4599 11.3324 22.9399 11.4257 23.4179 11.549L23.4409 11.4598C22.9593 11.3355 22.4758 11.2416 21.9906 11.1771L21.9784 11.2684ZM24.3511 7.90036L21.9473 11.1956L22.0217 11.2499L24.4255 7.95467L24.3511 7.90036ZM25.0462 8.28971C25.1357 7.8906 24.6564 7.61586 24.3569 7.89373L24.4196 7.96129C24.6529 7.74486 25.0259 7.95895 24.9563 8.26956L25.0462 8.28971ZM20.163 13.7678C20.2396 13.7659 20.3173 13.7647 20.3965 13.7647L20.3965 13.6725C20.3164 13.6725 20.2379 13.6737 20.1606 13.6757L20.163 13.7678ZM17.5156 17.4272L20.199 13.7489L20.1246 13.6946L17.4411 17.3729L17.5156 17.4272ZM18.7141 17.9341C18.2334 17.7891 17.831 17.5984 17.5054 17.3627L17.4514 17.4374C17.787 17.6803 18.1992 17.8751 18.6875 18.0223L18.7141 17.9341ZM20.6725 18.4507C19.9513 18.2825 19.2986 18.1104 18.7141 17.9341L18.6875 18.0223C19.2742 18.1993 19.9289 18.3719 20.6515 18.5405L20.6725 18.4507ZM21.5826 18.675C21.28 18.597 20.9768 18.5217 20.6725 18.4507L20.6515 18.5405C20.955 18.6113 21.2575 18.6864 21.5596 18.7643L21.5826 18.675ZM23.0286 14.1366L21.5273 18.7053L21.6149 18.734L23.1162 14.1654L23.0286 14.1366ZM22.6958 14.0882C22.8172 14.1209 22.938 14.1567 23.0585 14.195L23.0863 14.1071C22.9648 14.0685 22.8427 14.0323 22.7197 13.9992L22.6958 14.0882ZM20.3976 13.7651C21.1306 13.7651 21.8966 13.8725 22.6957 14.0882L22.7198 13.9992C21.9138 13.7817 21.1397 13.6729 20.3976 13.6729V13.7651ZM20.3647 13.7512L20.3651 13.7516L20.4301 13.6864L20.4298 13.686L20.3647 13.7512ZM20.3965 13.7647C20.3966 13.7647 20.3967 13.7647 20.3968 13.7647C20.3969 13.7647 20.3971 13.7647 20.3972 13.7647V13.6725C20.3971 13.6725 20.397 13.6725 20.3969 13.6725C20.3968 13.6725 20.3967 13.6725 20.3965 13.6725V13.7647ZM22.5972 22.0675L19.8942 25.8198L19.969 25.8737L22.672 22.1214L22.5972 22.0675ZM22.6109 22.1339L22.6112 22.1342L22.658 22.0547L22.6576 22.0545L22.6109 22.1339ZM24.0352 20.0708L22.5968 22.0673L22.6716 22.1211L24.11 20.1247L24.0352 20.0708ZM23.8913 19.5102C24.1463 19.5675 24.2326 19.8864 24.0413 20.064L24.104 20.1316C24.3498 19.9034 24.2386 19.4938 23.9115 19.4203L23.8913 19.5102ZM21.4923 18.9732L23.8914 19.5102L23.9115 19.4202L21.5124 18.8832L21.4923 18.9732ZM21.5271 18.7054L21.4586 18.9138L21.5461 18.9426L21.6147 18.7342L21.5271 18.7054ZM20.6513 18.5407C20.9549 18.6115 21.2573 18.6866 21.5594 18.7645L21.5824 18.6752C21.2798 18.5972 20.9767 18.5219 20.6723 18.4509L20.6513 18.5407ZM18.6873 18.0225C19.274 18.1995 19.9287 18.3721 20.6513 18.5407L20.6723 18.4509C19.9512 18.2827 19.2984 18.1106 18.714 17.9343L18.6873 18.0225ZM17.4512 17.4376C17.7868 17.6805 18.199 17.8756 18.6874 18.0225L18.7139 17.9342C18.2332 17.7897 17.8308 17.5986 17.5052 17.3629L17.4512 17.4376ZM16.0787 19.3968L17.5154 17.4274L17.441 17.3731L16.0043 19.3425L16.0787 19.3968ZM16.2223 19.9572C15.9679 19.9003 15.8815 19.5811 16.0729 19.4034L16.0102 19.3359C15.7644 19.564 15.8754 19.9741 16.2022 20.0472L16.2223 19.9572ZM18.7119 20.5146L16.2223 19.9572L16.2022 20.0472L18.6918 20.6045L18.7119 20.5146ZM18.6398 20.8955L18.7456 20.574L18.658 20.5452L18.5523 20.8668L18.6398 20.8955ZM18.6088 20.8369L18.6079 20.8366L18.5842 20.9257L18.5852 20.9259L18.6088 20.8369ZM17.1552 25.4166L18.6408 20.8958L18.5532 20.867L17.0677 25.3878L17.1552 25.4166ZM19.9167 25.8011C18.9663 25.8011 18.0361 25.653 17.1257 25.3584L17.0973 25.4461C18.0168 25.7436 18.9565 25.8933 19.9167 25.8933V25.8011ZM19.9316 25.8011H19.9167V25.8933H19.9316V25.8011ZM19.8855 25.8468V25.8472H19.9777V25.8468H19.8855Z" fill="url(#paint6_linear_2574_19195)" mask="url(#path-13-inside-1_2574_19195)"/>
<path d="M19.916 25.8483C18.9603 25.8483 18.0254 25.6998 17.1108 25.4033L16.282 27.925C16.8887 28.1067 17.5095 28.2411 18.1444 28.3276L19.9309 25.8475C19.9258 25.8475 19.9211 25.8475 19.916 25.8475V25.8483Z" fill="#70E000"/>
</g>
<defs>
<linearGradient id="paint0_linear_2574_19195" x1="4.97292" y1="29.8021" x2="35.0597" y2="10.2258" gradientUnits="userSpaceOnUse">
<stop stop-color="#FF5400"/>
<stop offset="1" stop-color="#FFB600"/>
</linearGradient>
<linearGradient id="paint1_linear_2574_19195" x1="2.7869" y1="20.171" x2="15.1538" y2="17.7586" gradientUnits="userSpaceOnUse">
<stop stop-color="#FF5400"/>
<stop offset="1" stop-color="#FFB600"/>
</linearGradient>
<linearGradient id="paint2_linear_2574_19195" x1="15.9791" y1="27.1361" x2="27.4052" y2="16.6081" gradientUnits="userSpaceOnUse">
<stop stop-color="#FF5400"/>
<stop offset="1" stop-color="#FFB600"/>
</linearGradient>
<linearGradient id="paint3_linear_2574_19195" x1="20.1152" y1="23.248" x2="18.7792" y2="32.7089" gradientUnits="userSpaceOnUse">
<stop stop-color="#B3F9BA"/>
<stop offset="0.697443" stop-color="#F6FB8C"/>
</linearGradient>
<linearGradient id="paint4_linear_2574_19195" x1="16.6692" y1="27.9238" x2="16.6692" y2="34.6771" gradientUnits="userSpaceOnUse">
<stop stop-color="#B3F9BA"/>
<stop offset="1" stop-color="#F6FB8C"/>
</linearGradient>
<linearGradient id="paint5_linear_2574_19195" x1="24.2119" y1="5.53198" x2="18.5551" y2="29.1009" gradientUnits="userSpaceOnUse">
<stop offset="0.343405" stop-color="#B3F9BA"/>
<stop offset="0.697443" stop-color="#F6FB8C"/>
</linearGradient>
<linearGradient id="paint6_linear_2574_19195" x1="20.4669" y1="7.82715" x2="20.4669" y2="40.408" gradientUnits="userSpaceOnUse">
<stop stop-color="#B3F9BA"/>
<stop offset="1" stop-color="#F6FB8C"/>
</linearGradient>
<clipPath id="clip0_2574_19195">
<rect width="40" height="40" fill="white"/>
</clipPath>
</defs>
</svg>
