<svg width="200" height="200" viewBox="0 0 200 200" fill="none" xmlns="http://www.w3.org/2000/svg">
<rect x="0.499512" y="0.49939" width="199.501" height="199.501" rx="99.7503" fill="#B4F9BA"/>
<path d="M80.141 50.7606L99.4236 39.6251C99.9727 39.3083 100.654 39.3083 101.203 39.6251L152.023 68.9661C152.572 69.2829 152.91 69.869 152.915 70.5026L152.984 90.6827C152.984 91.3216 152.646 91.913 152.092 92.2298L132.835 103.349C131.653 104.036 130.169 103.181 130.164 101.813L130.1 83.7026C130.1 83.069 129.757 82.4829 129.208 82.1661L80.141 53.8442C78.953 53.1578 78.953 51.447 80.141 50.7606Z" fill="#010101"/>
<path d="M67.6852 142.168L48.4079 131.037C47.8535 130.721 47.5156 130.134 47.5156 129.496V70.8136C47.5156 70.18 47.8535 69.594 48.4027 69.2719L65.8478 59.1184C66.4022 58.7963 67.0833 58.7963 67.6324 59.1184L86.8886 70.2381C88.0713 70.9245 88.0766 72.63 86.8939 73.3216L71.244 82.4296C70.6948 82.7464 70.3569 83.3325 70.3569 83.9714V140.631C70.3569 142.004 68.8732 142.859 67.6852 142.173V142.168Z" fill="#010101"/>
<path d="M152.983 107.23V129.491C152.983 130.13 152.645 130.716 152.091 131.033L101.271 160.374C100.722 160.69 100.046 160.69 99.4968 160.374L81.983 150.342C81.4286 150.025 81.0854 149.433 81.0854 148.795V126.56C81.0854 125.193 82.5638 124.338 83.7518 125.013L99.4651 134.016C100.014 134.333 100.69 134.327 101.239 134.016L150.306 105.683C151.494 104.997 152.978 105.852 152.978 107.225L152.983 107.23Z" fill="#010101"/>
</svg>
