<svg width="322" height="322" viewBox="0 0 322 322" fill="none" xmlns="http://www.w3.org/2000/svg">
<path d="M161.002 322.003C249.92 322.003 322.003 249.92 322.003 161.002C322.003 72.0829 249.92 0 161.002 0C72.0829 0 0 72.0829 0 161.002C0 249.92 72.0829 322.003 161.002 322.003Z" fill="#071927"/>
<path d="M161.002 300.259C237.912 300.259 300.26 237.911 300.26 161.001C300.26 84.0911 237.912 21.7432 161.002 21.7432C84.0921 21.7432 21.7441 84.0911 21.7441 161.001C21.7441 237.911 84.0921 300.259 161.002 300.259Z" stroke="#70E000" stroke-width="14" stroke-miterlimit="10"/>
<path d="M201.585 121.093L209.528 101.529C204.54 98.2779 198.823 95.664 192.378 93.687L185.729 113.92C191.152 115.642 196.436 118.032 201.582 121.093H201.585Z" fill="#70E000"/>
<path d="M130.509 161.02C128.17 160.497 127.375 157.561 129.135 155.928L140.7 140.074C140.145 139.671 139.612 139.255 139.111 138.82C136.204 136.3 134.753 132.977 134.753 128.843C134.753 125.356 135.753 122.257 137.755 119.545C139.757 116.833 142.92 114.639 147.246 112.958C151.171 111.435 156.194 110.606 162.298 110.464L176.97 90.3539C172.792 89.7989 168.598 89.5215 164.386 89.5215C151.988 89.5215 141.753 91.3629 133.681 95.0425C125.609 98.7221 119.603 103.631 115.665 109.764C111.723 115.9 109.756 122.648 109.756 130.007C109.756 137.366 111.238 143.18 114.211 147.828C117.181 152.479 121.022 156.19 125.739 158.968C130.453 161.745 135.68 164.003 141.428 165.747C144.181 166.582 146.937 167.364 149.693 168.099L150.544 165.51L130.503 161.023L130.509 161.02Z" fill="#70E000"/>
<path d="M135.72 203.811C127.711 200.973 120.998 197.42 115.572 193.157L106.854 212.721C112.535 217.502 120.219 221.408 129.906 224.441C130.29 224.561 130.678 224.678 131.066 224.791L137.738 204.492C137.063 204.274 136.391 204.051 135.72 203.811Z" fill="#70E000"/>
<path d="M210.785 171.072C207.881 166.422 204.069 162.742 199.356 160.03C194.639 157.319 189.408 155.124 183.666 153.444C180.336 152.472 176.997 151.561 173.645 150.697L173.094 152.375L192.406 156.698C194.746 157.221 195.54 160.156 193.784 161.79L182.203 177.864C183.552 178.659 184.785 179.526 185.892 180.465C188.862 182.985 190.347 186.311 190.347 190.442C190.347 193.803 189.313 196.804 187.248 199.45C185.179 202.098 181.951 204.195 177.562 205.747C173.195 207.288 167.488 208.061 160.444 208.07L146.062 228.036C150.72 228.672 155.474 228.994 160.321 228.994C172.718 228.994 182.985 227.153 191.12 223.473C199.255 219.793 205.293 214.887 209.234 208.751C213.172 202.619 215.143 195.937 215.143 188.701C215.143 181.465 213.689 175.723 210.785 171.072Z" fill="#70E000"/>
<path d="M122.387 251.22C121.747 254.073 125.177 256.044 127.321 254.054L146.066 228.035C140.955 227.338 135.958 226.257 131.074 224.794L122.39 251.223L122.387 251.22Z" fill="#CBF3F0"/>
<path fill-rule="evenodd" clip-rule="evenodd" d="M201.258 66.6587L192.379 93.6835V93.6867C192.379 93.6866 192.378 93.6865 192.378 93.6864L185.729 113.917C184.755 113.608 183.777 113.318 182.793 113.053C176.333 111.31 170.137 110.44 164.197 110.439L164.2 110.442C170.137 110.442 176.336 111.312 182.797 113.056C183.78 113.321 184.758 113.611 185.732 113.92L173.647 150.697C171.212 150.07 168.775 149.464 166.328 148.894C160.517 147.538 155.255 146.151 150.541 144.729C146.641 143.552 143.361 142.001 140.7 140.075L162.302 110.464C162.923 110.448 163.554 110.439 164.197 110.439V110.433C163.554 110.433 162.923 110.443 162.302 110.458L176.973 90.3481C176.974 90.3482 176.974 90.3483 176.975 90.3484L196.323 63.824C198.468 61.8345 201.898 63.802 201.258 66.6587ZM160.445 208.07L182.204 177.864L182.204 177.864L193.785 161.79C195.545 160.157 194.75 157.224 192.407 156.698L173.095 152.375L173.647 150.697C171.212 150.07 168.775 149.465 166.328 148.894C160.517 147.538 155.255 146.151 150.541 144.729C146.641 143.556 143.361 142.001 140.7 140.075L129.135 155.928C127.375 157.562 128.17 160.497 130.51 161.02L150.55 165.507L149.699 168.096L149.702 168.097L137.743 204.491C145.108 206.875 152.635 208.073 160.325 208.073H160.445V208.07Z" fill="#CBF3F0"/>
<path d="M160.324 208.074C152.631 208.074 145.105 206.879 137.742 204.492L131.07 224.791C135.954 226.254 140.952 227.336 146.063 228.032L160.444 208.067C160.403 208.067 160.365 208.067 160.324 208.067V208.074Z" fill="#70E000"/>
</svg>
