<svg width="50" height="25" viewBox="0 0 50 25" fill="none" xmlns="http://www.w3.org/2000/svg">
<rect x="0.5" y="0.5" width="49" height="24" rx="12" fill="#242637" fill-opacity="0.5" stroke="#242637"/>
<circle cx="37.5" cy="12.5" r="10.5" fill="white"/>
<path d="M11.5795 16.1364C10.9886 16.1364 10.4702 15.9957 10.0241 15.7145C9.58097 15.4332 9.23438 15.0398 8.98438 14.5341C8.73722 14.0284 8.61364 13.4375 8.61364 12.7614C8.61364 12.0795 8.73722 11.4844 8.98438 10.9759C9.23438 10.4673 9.58097 10.0724 10.0241 9.79119C10.4702 9.50994 10.9886 9.36932 11.5795 9.36932C12.1705 9.36932 12.6875 9.50994 13.1307 9.79119C13.5767 10.0724 13.9233 10.4673 14.1705 10.9759C14.4205 11.4844 14.5455 12.0795 14.5455 12.7614C14.5455 13.4375 14.4205 14.0284 14.1705 14.5341C13.9233 15.0398 13.5767 15.4332 13.1307 15.7145C12.6875 15.9957 12.1705 16.1364 11.5795 16.1364ZM11.5795 15.233C12.0284 15.233 12.3977 15.1179 12.6875 14.8878C12.9773 14.6577 13.1918 14.3551 13.331 13.9801C13.4702 13.6051 13.5398 13.1989 13.5398 12.7614C13.5398 12.3239 13.4702 11.9162 13.331 11.5384C13.1918 11.1605 12.9773 10.8551 12.6875 10.6222C12.3977 10.3892 12.0284 10.2727 11.5795 10.2727C11.1307 10.2727 10.7614 10.3892 10.4716 10.6222C10.1818 10.8551 9.96733 11.1605 9.82812 11.5384C9.68892 11.9162 9.61932 12.3239 9.61932 12.7614C9.61932 13.1989 9.68892 13.6051 9.82812 13.9801C9.96733 14.3551 10.1818 14.6577 10.4716 14.8878C10.7614 15.1179 11.1307 15.233 11.5795 15.233ZM17.0863 12.0625V16H16.0806V9.45455H17.0522V10.4773H17.1374C17.2908 10.1449 17.5238 9.87784 17.8363 9.67614C18.1488 9.47159 18.5522 9.36932 19.0465 9.36932C19.4897 9.36932 19.8775 9.46023 20.2099 9.64205C20.5423 9.82102 20.8008 10.0938 20.9854 10.4602C21.1701 10.8239 21.2624 11.2841 21.2624 11.8409V16H20.2567V11.9091C20.2567 11.3949 20.1232 10.9943 19.8562 10.7074C19.5891 10.4176 19.2227 10.2727 18.7567 10.2727C18.4357 10.2727 18.1488 10.3423 17.896 10.4815C17.646 10.6207 17.4485 10.8239 17.3036 11.0909C17.1587 11.358 17.0863 11.6818 17.0863 12.0625Z" fill="white"/>
<rect x="0.5" y="-0.5" width="49" height="24" rx="12" transform="matrix(1 0 0 -1 0 24)" stroke="url(#paint1_linear_4638_11679)"/>
<defs>


</defs>
</svg>
