<svg width="221" height="125" viewBox="0 0 221 125" fill="none" xmlns="http://www.w3.org/2000/svg">
<path d="M0.414062 109.593C3.10577 106.359 6.08498 103.081 9.37325 99.8359" stroke="#333333" stroke-width="0.401498" stroke-miterlimit="10" stroke-linecap="round"/>
<path d="M13.8728 95.5929C17.6786 92.1616 21.6765 88.9496 25.8471 85.9725C59.1611 62.1784 93.3304 60.5001 105.628 60.4785" stroke="#333333" stroke-width="0.401498" stroke-miterlimit="10" stroke-linecap="round"/>
<path d="M57.1663 113.75C58.0946 110.958 59.2149 108.233 60.5192 105.596" stroke="#333333" stroke-width="0.401498" stroke-miterlimit="10" stroke-linecap="round"/>
<path d="M63.1997 100.686C64.2131 99.0075 65.356 97.2681 66.682 95.5" stroke="#333333" stroke-width="0.401498" stroke-miterlimit="10" stroke-linecap="round"/>
<path d="M67.7183 94.1388C70.5293 90.5556 73.7133 87.2812 77.2165 84.371C86.6398 76.5766 98.0684 71.5946 110.193 69.9961" stroke="#333333" stroke-width="0.401498" stroke-miterlimit="10" stroke-linecap="round"/>
<path d="M116.274 80.0039C107.582 87.7185 101.336 97.8071 98.3057 109.027" stroke="#333333" stroke-width="0.401498" stroke-miterlimit="10" stroke-linecap="round"/>
<path d="M98.0014 110.084C97.5881 111.719 97.2539 113.318 96.9844 114.874" stroke="#333333" stroke-width="0.401498" stroke-miterlimit="10" stroke-linecap="round"/>
<path d="M96.4114 118.936C96.1993 120.851 96.0843 122.673 96.052 124.373" stroke="#333333" stroke-width="0.401498" stroke-miterlimit="10" stroke-linecap="round"/>
<path d="M126.492 84.9961C124.359 93.2306 123.35 101.716 123.491 110.221C123.537 113.016 123.706 115.712 123.976 118.299" stroke="#333333" stroke-width="0.401498" stroke-miterlimit="10" stroke-linecap="round"/>
<path d="M145.564 54.334C145.337 54.334 135.088 52.1778 135.088 52.1778L137.578 62.3013L167.726 76.1228L173.638 82.0346C176.818 85.215 182.101 86.2967 188.732 84.5178C201.993 80.9636 215.62 67.3362 219.174 54.0753C220.971 47.4448 219.871 42.162 216.691 38.9816L189.641 12.4238L145.564 54.334Z" fill="white" stroke="#333333" stroke-width="0.401498" stroke-miterlimit="10"/>
<path d="M174.324 9.71486C161.066 13.2691 147.435 26.9001 143.881 40.161C142.264 46.1913 143.019 51.1039 145.563 54.3347L162.209 57.5152C175.229 53.6591 188.415 40.3012 191.901 27.2918C195.455 14.0309 187.585 6.16065 174.324 9.71486Z" fill="#333333"/>
<path d="M143.293 41.9783L143.447 42.0286L144.166 39.1752L144.245 38.6937C143.609 37.6155 142.962 36.4404 142.333 35.1646C141.665 33.8205 141.093 32.5268 140.601 31.3085C139.777 29.1322 139.093 26.9055 138.553 24.6421C138.29 23.5209 138.168 22.8453 138.111 22.4859C137.831 20.7841 137.711 19.0601 137.751 17.3361C137.76 15.9211 137.936 14.5121 138.276 13.1386C138.757 11.1843 139.56 9.32374 140.651 7.63298L140.418 7.5C137.902 10.2434 136.37 13.7452 136.062 17.4547C135.897 19.4077 135.926 21.3723 136.148 23.3196C136.177 23.564 136.303 24.6206 136.59 26.0221C136.897 27.5442 137.307 29.0438 137.816 30.5107C139.183 34.539 141.025 38.39 143.304 41.9819L143.293 41.9783Z" fill="white"/>
<path d="M174.489 9.67171L174.324 9.71483C161.066 13.269 147.435 26.9001 143.881 40.161C142.264 46.1913 143.019 51.1039 145.563 54.3347L162.209 57.5151C175.229 53.6591 188.415 40.3011 191.901 27.2918C195.099 15.357 189.044 7.78859 178.13 8.98531" stroke="#333333" stroke-width="0.401498" stroke-miterlimit="10"/>
<path d="M132.492 45.5262C129.373 43.5784 126.505 43.37 124.428 44.5847L121.294 46.2522L121.959 47.4848C121.411 48.7875 121.119 50.1831 121.097 51.5961C120.856 58.726 125.567 67.563 131.619 71.3365C132.901 72.1759 134.346 72.7332 135.86 72.9716L136.474 73.9815L139.029 72.6051C139.36 72.4684 139.675 72.2986 139.971 72.0983H139.993C141.772 70.8873 142.907 68.5477 143.015 65.2702C143.245 58.1367 138.544 49.2997 132.492 45.5262Z" fill="white" stroke="#333333" stroke-width="0.401498" stroke-miterlimit="10"/>
<path d="M136.128 74.218C140.579 71.8457 140.856 63.6738 136.747 55.9655C132.638 48.2573 125.699 43.9318 121.248 46.3041C116.798 48.6764 116.521 56.8484 120.63 64.5566C124.739 72.2648 131.678 76.5904 136.128 74.218Z" fill="#333333" stroke="white" stroke-width="0.401498" stroke-miterlimit="10"/>
<path d="M124.098 56.2598C124.843 55.863 124.89 54.4977 124.203 53.2104C123.517 51.9231 122.358 51.2012 121.613 51.598C120.869 51.9947 120.822 53.36 121.508 54.6473C122.194 55.9346 123.354 56.6566 124.098 56.2598Z" fill="white"/>
<path d="M125.607 65.2422C126.352 64.8454 126.399 63.4802 125.713 62.1928C125.027 60.9055 123.867 60.1836 123.122 60.5804C122.378 60.9772 122.331 62.3424 123.017 63.6298C123.703 64.9171 124.863 65.639 125.607 65.2422Z" fill="white"/>
<path d="M132.941 70.7813C133.686 70.3845 133.733 69.0192 133.047 67.7319C132.361 66.4446 131.201 65.7226 130.456 66.1194C129.712 66.5162 129.665 67.8815 130.351 69.1688C131.037 70.4561 132.197 71.1781 132.941 70.7813Z" fill="white"/>
<path d="M135.657 63.6621C136.401 63.2653 136.449 61.9001 135.762 60.6128C135.076 59.3254 133.916 58.6035 133.172 59.0003C132.428 59.3971 132.381 60.7623 133.067 62.0497C133.753 63.337 134.913 64.0589 135.657 63.6621Z" fill="white"/>
<path d="M131.025 56.1875C131.77 55.7907 131.817 54.4255 131.131 53.1382C130.444 51.8508 129.285 51.1289 128.54 51.5257C127.796 51.9225 127.749 53.2877 128.435 54.5751C129.121 55.8624 130.281 56.5843 131.025 56.1875Z" fill="white"/>
<path d="M174.276 9.71486C161.019 13.2691 147.388 26.9001 143.834 40.161C142.217 46.1913 142.971 51.1039 145.516 54.3347L162.162 57.5152C175.182 53.6591 188.367 40.3012 191.853 27.2918C195.408 14.0309 187.537 6.16065 174.276 9.71486Z" stroke="#333333" stroke-width="0.401498" stroke-miterlimit="10"/>
<path d="M142.199 5.99514C142.167 5.95921 142.224 5.81546 142.666 5.30875C143.472 4.54887 144.359 3.88 145.311 3.31422C146.428 2.66495 147.617 2.14872 148.854 1.7761C151.349 1.0345 153.957 0.752 156.552 0.942347C161.035 1.32693 165.421 2.45903 169.529 4.29171C171.279 5.06796 173.123 5.97358 175.006 7.04092C179.383 9.52147 183.447 12.5185 187.11 15.9678C188.483 17.2328 189.884 18.6164 191.286 20.1329C191.782 20.672 192.263 21.211 192.723 21.7357C192.723 21.7357 192.409 20.4041 192.409 21.6634C192.409 22.9227 192.094 24.4968 192.094 24.4968L192.429 25.3726L191.35 24.0932C190.991 23.7015 190.664 23.3098 190.323 22.9145C187.405 19.6299 184.189 16.6223 180.717 13.9301C179.344 12.852 177.989 11.8997 176.67 11.0192C171.286 7.24046 165.18 4.61374 158.734 3.30344C154.817 2.40528 150.736 2.51782 146.874 3.63047C146.31 3.78769 145.758 3.98834 145.225 4.23063C143.442 5.05719 142.303 6.11733 142.199 5.99514Z" fill="white"/>
<path d="M144.282 38.765C141.95 34.8877 140.153 30.7137 138.938 26.3558C134.032 8.05293 144.893 -2.80735 163.195 2.0981C173.808 4.94075 184.596 12.466 192.743 21.8637L192.797 21.8888" stroke="#333333" stroke-width="0.401498" stroke-miterlimit="10"/>
<path d="M143.444 42.2284C140.641 37.8914 138.504 33.1585 137.104 28.1876C132.199 9.88831 143.059 -0.975557 161.362 3.9299C172.614 6.94504 184.057 15.2142 192.344 25.3917" stroke="#333333" stroke-width="0.401498" stroke-miterlimit="10"/>
</svg>
