<svg width="196" height="256" viewBox="0 0 196 256" fill="none" xmlns="http://www.w3.org/2000/svg">
<path d="M112.028 255.476C121.753 234.098 121.283 218.477 119.151 208.266C115.338 190.032 104.9 182.763 103.243 164.387C101.873 149.171 107.421 136.257 112.028 128.044" stroke="#333333" stroke-width="0.5" stroke-miterlimit="10"/>
<path d="M65.582 157.924C67.8518 157.3 70.2128 157.075 72.5596 157.26C77.884 157.697 84.1566 160.449 99.923 181.851C116.423 204.247 118.331 213.137 118.968 216.898C119.79 221.785 119.967 226.758 119.494 231.692" stroke="#333333" stroke-width="0.5" stroke-miterlimit="10"/>
<path d="M157.46 157.193C154.353 157.384 140.118 158.587 128.995 170.565C116.405 184.095 117.649 200.785 117.908 203.415" stroke="#333333" stroke-width="0.5" stroke-miterlimit="10"/>
<path d="M80.067 199.089C79.99 214.584 87.4417 227.886 99.0265 232.765C105.303 235.411 111.373 234.982 115.235 234.268C115.948 230.395 116.373 224.325 113.731 218.06C108.869 206.459 95.562 199.004 80.067 199.089Z" stroke="#333333" stroke-width="0.5" stroke-miterlimit="10"/>
<path d="M142.23 225.021C132.821 224.972 124.742 229.478 121.776 236.537C120.52 239.662 120.203 243.085 120.864 246.387C124.167 247.048 127.592 246.731 130.718 245.476C137.753 242.518 142.279 234.434 142.23 225.021Z" stroke="#333333" stroke-width="0.5" stroke-miterlimit="10"/>
<path d="M108.942 157.895C108.909 164.727 112.183 170.594 117.301 172.741C119.569 173.654 122.055 173.885 124.453 173.406C124.93 171.012 124.699 168.531 123.788 166.266C121.641 161.145 115.773 157.862 108.942 157.895Z" stroke="#333333" stroke-width="0.5" stroke-miterlimit="10"/>
<path d="M31.535 133.857C49.7476 138.736 68.4209 157.419 73.234 175.588C78.0324 193.7 67.1515 204.455 48.9448 199.576C30.727 194.694 12.053 176.015 7.25371 157.903C2.44315 139.737 13.3224 128.976 31.535 133.857Z" fill="white" stroke="#333333" stroke-width="0.5" stroke-miterlimit="10"/>
<path d="M38.2391 127.116C56.4516 131.997 75.1263 150.678 79.939 168.847C82.3208 177.837 80.8392 185.02 76.5144 189.374L69.8118 196.109C74.1374 191.758 75.624 184.58 73.2383 175.588C68.4245 157.419 49.7507 138.738 31.5386 133.856C22.3736 131.403 15.0711 132.903 10.6852 137.317L17.3809 130.575C21.7734 126.164 29.0749 124.662 38.2391 127.116Z" fill="#D9D9D9" stroke="#333333" stroke-width="0.5" stroke-miterlimit="10"/>
<path d="M31.4725 134.006C49.6851 138.886 68.3584 157.569 73.1715 175.738C77.9699 193.849 67.089 204.605 48.8823 199.725C30.6645 194.843 11.9905 176.165 7.19121 158.053C2.38065 139.886 13.2599 129.126 31.4725 134.006Z" stroke="#333333" stroke-width="0.5" stroke-miterlimit="10"/>
<path d="M131.747 32.3409C144.928 55.1707 144.919 92.1022 131.715 114.823C118.553 137.473 97.1622 137.349 83.9866 114.525C70.8025 91.6875 70.8069 54.7595 83.9683 32.1085C97.1724 9.39261 118.566 9.51 131.747 32.3409Z" fill="#70E000" stroke="#333333" stroke-width="0.5" stroke-miterlimit="10"/>
<path d="M145.039 32.3041C158.22 55.135 158.213 92.0665 145.009 114.787C138.476 126.03 129.91 131.666 121.329 131.695L108.044 131.728C116.622 131.702 125.189 126.075 131.72 114.826C144.924 92.1049 144.93 55.1751 131.751 32.3435C125.116 20.8573 116.414 15.1204 107.714 15.1483L120.998 15.1029C129.702 15.0838 138.406 20.8178 145.039 32.3041Z" fill="#4E9D00" stroke="#333333" stroke-width="0.5" stroke-miterlimit="10"/>
<path d="M131.536 32.4268C144.717 55.2566 144.708 92.1882 131.504 114.909C118.342 137.559 96.9513 137.435 83.7756 114.611C70.5916 91.7734 70.596 54.8454 83.7574 32.1945C96.9615 9.47855 118.355 9.59594 131.536 32.4268Z" stroke="#333333" stroke-width="0.5" stroke-miterlimit="10"/>
<path d="M170.263 138.333C155.26 142.353 139.877 157.744 135.912 172.711C131.959 187.631 140.923 196.492 155.921 192.472C170.929 188.45 186.312 173.063 190.266 158.142C194.229 143.177 185.267 134.313 170.263 138.333Z" fill="white" stroke="#333333" stroke-width="0.5" stroke-miterlimit="10"/>
<path d="M164.743 132.78C149.739 136.801 134.355 152.19 130.391 167.157C128.429 174.563 129.649 180.48 133.212 184.067L138.734 189.616C135.17 186.031 133.946 180.118 135.911 172.71C139.876 157.743 155.26 142.354 170.263 138.333C177.813 136.312 183.828 137.547 187.441 141.183L181.925 135.63C178.307 131.995 172.292 130.758 164.743 132.78Z" fill="#D9D9D9" stroke="#333333" stroke-width="0.5" stroke-miterlimit="10"/>
<path d="M170.317 138.456C155.314 142.476 139.931 157.867 135.966 172.834C132.013 187.754 140.977 196.615 155.975 192.595C170.983 188.573 186.366 173.186 190.32 158.265C194.283 143.3 185.32 134.436 170.317 138.456Z" stroke="#333333" stroke-width="0.5" stroke-miterlimit="10"/>
</svg>
