<svg width="44" height="45" viewBox="0 0 44 45" fill="none" xmlns="http://www.w3.org/2000/svg">
<rect y="0.906738" width="44" height="44" rx="22" fill="#D1D1D1"/>
<path d="M15.0309 15.7684L22.3143 22.9109L15.0851 30.1193C14.9668 29.9652 14.875 29.7926 14.8134 29.6084C14.7816 29.3999 14.7816 29.1878 14.8134 28.9793V16.7126C14.7918 16.3834 14.8676 16.0543 15.0301 15.7684M25.4518 19.7959L23.0743 22.1509L15.8776 15.0734C16.1109 14.9926 16.3609 14.9701 16.6051 15.0084C16.9884 15.1134 17.3543 15.2751 17.6901 15.4859L24.2034 19.0901C24.6268 19.3176 25.0393 19.5568 25.4518 19.7959ZM23.0751 23.6818L25.4409 26.0051L23.7259 26.9601L18.4934 29.8684C18.0601 30.1076 17.6251 30.3359 17.2018 30.5968C17.0206 30.7095 16.8175 30.7824 16.606 30.8104C16.3944 30.8384 16.1794 30.821 15.9751 30.7593L23.0751 23.6818ZM29.2084 22.9109C29.2145 23.2023 29.1409 23.4898 28.9955 23.7425C28.8501 23.9951 28.6385 24.2031 28.3834 24.3443L26.4284 25.4293L23.8559 22.9109L26.4393 20.3493C27.1018 20.7184 27.7534 21.0876 28.4043 21.4351C28.6638 21.5802 28.877 21.7958 29.0192 22.0569C29.1614 22.3181 29.2275 22.6142 29.2084 22.9109Z" fill="black"/>
</svg>
