  <svg width="55" height="48" viewBox="0 0 55 48" fill="none" xmlns="http://www.w3.org/2000/svg">
        <path
          d="M22.2491 0.21875L13.8081 34.4892L11.7822 24.6976C15.0461 24.6976 17.7472 25.7105 19.8856 27.7364C22.024 29.7622 23.0932 32.4633 23.0932 35.8397C23.0932 39.2161 22.024 41.9735 19.8856 44.1119C17.7472 46.2503 15.1024 47.3195 11.9511 47.3195C8.68721 47.3195 5.9861 46.2503 3.84771 44.1119C1.70933 41.861 0.640137 39.1036 0.640137 35.8397C0.640137 34.7143 0.69641 33.6451 0.808956 32.6322C1.03405 31.6192 1.37169 30.4375 1.82188 29.0869C2.27206 27.6238 2.89107 25.8794 3.67889 23.8535L11.6134 0.21875H22.2491ZM54.156 0.21875L45.715 34.4892L43.6892 24.6976C46.953 24.6976 49.6542 25.7105 51.7925 27.7364C53.9309 29.7622 55.0001 32.4633 55.0001 35.8397C55.0001 39.2161 53.9309 41.9735 51.7925 44.1119C49.6542 46.2503 47.0093 47.3195 43.858 47.3195C40.5942 47.3195 37.893 46.2503 35.7547 44.1119C33.6163 41.861 32.5471 39.1036 32.5471 35.8397C32.5471 34.7143 32.6034 33.6451 32.7159 32.6322C32.941 31.6192 33.2786 30.4375 33.7288 29.0869C34.179 27.6238 34.798 25.8794 35.5858 23.8535L43.5204 0.21875H54.156Z"
          fill="black"
          fillOpacity="0.3"
        />
      </svg>