<svg width="474" height="364" viewBox="0 0 474 364" fill="none" xmlns="http://www.w3.org/2000/svg">
<g style="mix-blend-mode:multiply" opacity="0.2">
<rect x="0.860861" width="150.034" height="150.034" rx="14.5" transform="matrix(0.860861 -0.50884 0.860861 0.50884 121.275 287.489)" fill="#EDEDED" stroke="black"/>
</g>
<path d="M215.169 92.0933L213.948 84.0436C214.151 82.9014 214.386 81.7271 214.652 80.5208C215.016 78.8615 215.41 77.2684 215.826 75.7475C216.613 72.5613 217.559 69.1827 218.703 65.6658C220.119 61.3133 221.639 57.3216 223.183 53.6965C224.17 51.4 225.315 48.9593 226.648 46.4163C227.922 44.0116 229.214 41.7753 230.482 39.7553C233.179 35.4184 236.348 31.4089 239.929 27.8041C240.798 26.9444 241.779 26.0486 242.865 25.1529C244.118 24.1288 245.427 23.1794 246.787 22.3094C247.041 22.1388 247.308 21.99 247.586 21.8645C248.091 21.5963 248.649 21.4483 249.218 21.4316C249.648 21.4357 250.073 21.5341 250.463 21.7202C251.091 22.0448 251.754 22.4176 252.43 22.8444C253.619 23.5869 254.752 24.4209 255.817 25.3393C256.886 26.2771 257.996 27.3171 259.123 28.4714C260.491 29.8721 261.695 31.2488 262.752 32.5533C263.926 33.9961 265.1 35.5592 266.275 37.3026C267.056 38.4388 267.772 39.563 268.435 40.6511C269.445 42.2983 270.461 44.0718 271.459 45.9654C272.769 48.4302 273.896 50.8049 274.865 53.0593C275.522 54.5562 276.162 56.1132 276.791 57.7183C278.329 61.656 279.585 65.4434 280.613 69.0384C281.216 71.1465 281.803 73.3368 282.374 75.6092C282.844 77.5209 283.271 79.3906 283.654 81.2181C283.913 82.5828 284.171 83.9535 284.424 85.3181L282.398 98.8625L256.839 110.195L223.136 101.315L215.169 92.0933Z" fill="white"/>
<path d="M265.984 101.085V102.288C269.105 101.242 272.9 99.5482 275.672 97.7788C278.515 95.9847 280.963 93.1238 282.718 90.2642C282.837 90.0002 283.012 89.3624 283.012 88.7613L281.78 82.4996C281.293 80.0862 280.731 77.5927 280.095 75.019C279.583 72.9648 279.05 70.9779 278.495 69.0582C277.895 66.9518 277.221 64.7742 276.472 62.5256C275.762 60.4051 275.032 58.3744 274.284 56.4334C273.329 53.9258 272.226 51.2965 270.956 48.5774C270.165 46.89 269.363 45.2773 268.55 43.7394C267.63 41.9881 266.583 40.1446 265.391 38.239C264.302 36.5034 262.946 34.9282 261.874 33.4535C260.817 32.0162 260.231 31.3489 258.938 29.8465C258.341 29.1514 257.183 27.78 256.59 27.1412C255.743 26.1517 254.726 25.1791 253.654 24.1353C252.96 23.4592 252.268 22.911 251.599 22.3318L250.718 22.0312C251.123 22.322 251.246 22.5819 251.599 22.933C251.866 23.2 252.207 23.2917 253.36 25.3377C253.697 25.9343 254.363 26.739 254.828 27.7424C255.389 29.249 255.779 30.5981 256.296 32.2512C257.248 35.2889 258.009 38.4508 258.645 41.5693C259.139 43.92 259.812 46.084 260.258 48.5774C260.653 50.7967 260.971 53.2677 261.287 55.3963C261.983 60.1174 262.463 64.8666 263.048 69.8244C263.418 72.9714 263.923 75.7773 264.223 78.8419C264.574 82.5084 264.786 86.2943 265.104 89.9636C265.419 93.5959 265.701 97.4513 265.984 101.085Z" fill="#ECEBEB"/>
<path d="M223.9 257.518V261.672C223.946 263.336 224.417 264.959 225.268 266.379C226.12 267.71 227.15 268.912 228.327 269.95C229.079 270.618 229.885 271.221 230.734 271.753C231.383 272.158 232.054 272.525 232.742 272.853C237.207 275.002 242.056 276.189 246.987 276.34C250.76 276.498 254.537 276.171 258.231 275.366C261.383 274.67 264.407 273.467 267.191 271.801C269.263 270.597 271.051 268.94 272.428 266.95C273.464 265.434 274.055 263.646 274.131 261.798V257.86L223.9 257.518Z" fill="#EDEDED"/>
<path d="M212.838 181.75L215.563 219.281L207.208 239.234L203.573 233.583L203.021 232.194C203.135 229.994 203.262 227.776 203.403 225.539C203.696 220.934 204.043 216.418 204.442 211.989C204.9 207.003 205.358 202.019 205.816 197.038C205.905 195.585 206.086 194.139 206.356 192.709C206.579 191.549 206.849 190.479 207.131 189.517C207.494 188.335 207.95 187.185 208.494 186.078C208.752 185.549 209.022 185.056 209.286 184.594C209.571 184.116 209.881 183.655 210.214 183.211C210.561 182.741 210.931 182.289 211.324 181.858L212.838 181.75Z" fill="#EDEDED"/>
<path d="M283.896 180.646L282.469 215.052L287.753 221.111L294.212 232.918L295.016 232.359L294.188 219.35L293.131 206.785L292.239 197.299C292.157 195.899 291.992 194.506 291.746 193.127C291.546 192.015 291.305 190.981 291.053 190.043C290.505 188.049 289.681 186.146 288.605 184.392C288.097 183.564 287.517 182.786 286.872 182.065C286.685 181.849 286.491 181.65 286.285 181.464L285.886 181.668L283.896 180.646Z" fill="#EDEDED"/>
<path d="M220.788 250.084L218.615 253.95L218.862 254.232C221.335 257.044 224.355 259.297 227.728 260.845C230.36 262.082 233.098 263.068 235.907 263.791C238.096 264.335 240.316 264.737 242.554 264.993C244.562 265.221 246.306 265.312 247.685 265.336C250.037 265.396 252.391 265.304 254.731 265.059C256.657 264.855 258.436 264.566 260.057 264.23C264.296 263.419 268.385 261.934 272.176 259.829C273.157 259.285 274.106 258.683 275.017 258.025C275.722 257.514 276.362 256.997 276.932 256.492C277.337 256.144 277.759 255.741 278.188 255.29C278.617 254.839 278.857 254.557 279.139 254.208L279.456 253.859L276.591 250.715L256.405 257.707L231.744 255.987L220.788 250.084Z" fill="#EDEDED"/>
<path d="M219.15 247.305L220.747 251.345L221.129 251.657C222.864 253.02 224.727 254.204 226.689 255.192C228.034 255.865 229.138 256.298 229.837 256.575C231.639 257.279 233.485 257.861 235.362 258.318C242.376 260.029 249.639 260.387 256.781 259.376C261.349 258.735 265.809 257.451 270.033 255.559C272.409 254.469 274.64 253.075 276.674 251.411L276.973 251.164L284.495 213.807L284.63 212.178L286.045 184.789L287.055 160.387C287.274 154.632 287.44 148.879 287.554 143.128C287.671 137.493 287.738 131.858 287.753 126.223C287.806 121.305 287.695 116.069 287.372 110.55C287.102 105.975 286.702 101.611 286.198 97.4808C285.877 94.7795 285.485 92.0041 285.023 89.1545C284.747 87.3991 284.436 85.6737 284.142 83.9905H283.978C284.001 86.6294 283.253 89.2151 281.829 91.4149C281.359 92.1565 280.841 92.8654 280.279 93.5371C279.51 94.4497 278.665 95.2925 277.754 96.056C275.787 97.6805 273.636 99.057 271.348 100.156C267.126 102.16 262.64 103.52 258.032 104.19C252.735 105 247.356 105.081 242.038 104.43C237.492 103.921 233.038 102.765 228.803 100.998C227.964 100.643 226.895 100.15 225.691 99.5067C225.145 99.2181 224.253 98.7372 223.208 98.0519C221.846 97.1669 220.563 96.1611 219.374 95.046C217.428 93.2634 215.912 91.043 214.946 88.5594C214.376 87.0252 214.109 85.3906 214.16 83.75L213.96 83.8041C213.545 85.8601 213.154 87.9843 212.786 90.1765C212.128 94.1984 211.611 98.0699 211.283 101.755C211.012 104.869 210.795 108.073 210.613 111.374C210.359 116.135 210.218 120.744 210.19 125.201C210.155 128.555 210.142 131.912 210.149 135.27C210.149 139.531 210.198 143.795 210.296 148.063C210.355 151.225 210.427 154.39 210.513 157.556C210.705 165.103 210.96 172.647 211.277 180.19C211.496 185.091 211.711 189.991 211.923 194.889L212.727 211.162L212.915 214.727L219.15 247.305Z" fill="white"/>
<path d="M238.109 168.85H237.909C237.883 169.873 238.043 170.892 238.379 171.856C238.922 173.379 239.877 174.714 241.132 175.703C243.468 177.585 246.383 178.552 249.353 178.433C251.099 178.439 252.826 178.055 254.414 177.308C255.278 176.895 256.09 176.376 256.833 175.763C257.78 174.988 258.561 174.022 259.129 172.926C259.399 172.409 259.617 171.865 259.78 171.303C260.112 170.337 260.171 169.295 259.951 168.297C259.915 168.477 259.874 168.652 259.839 168.826L257.719 172.926L252.312 176.13L243.81 175.463L240.927 170.479C240.588 170.028 240.164 169.651 239.679 169.371C239.195 169.091 238.661 168.914 238.109 168.85Z" fill="#EDEDED"/>
<path d="M222.167 202.547L223.083 202.829L223.224 249.444C222.608 250.045 221.979 250.647 221.339 251.278C220.699 251.909 220.03 252.636 219.437 253.298C219.055 253.719 218.674 254.157 218.292 254.608C217.118 255.985 216.084 257.35 215.145 258.678C214.405 259.72 213.669 260.832 212.937 262.015C211.616 264.146 210.419 266.354 209.35 268.628C208.813 269.77 208.291 270.972 207.782 272.235C206.714 274.842 205.785 277.508 204.999 280.218C204.494 281.956 204.007 283.789 203.56 285.707C202.897 288.538 202.386 291.238 201.987 293.781L201.353 298.205L199.626 299.215L199.303 298.518L198.505 292.963L200.413 260.885L203.008 239.152L209.35 223.816L222.167 202.547Z" fill="#EDEDED"/>
<path d="M274.9 202.672L274.771 249.485C275.329 250.008 275.899 250.561 276.474 251.138C277.226 251.89 277.93 252.641 278.582 253.369C279.234 254.096 279.991 254.986 280.707 255.876C281.758 257.192 282.698 258.473 283.537 259.711C284.377 260.949 285.228 262.302 286.062 263.745C287.488 266.213 288.755 268.773 289.855 271.41C290.536 273.045 291.206 274.776 291.84 276.616C292.954 279.849 293.877 283.147 294.605 286.493C294.969 288.136 295.31 289.838 295.627 291.597C296.038 293.894 296.373 296.118 296.643 298.246L298.357 299.256L298.792 298.463L299.132 283.559L297.195 263.997L295.932 243.383L290.372 227.085L284.647 217.058L277.543 205.786L274.9 202.678" fill="#EDEDED"/>
<path d="M220.378 200.953L215.769 208.51C215.766 208.556 215.766 208.602 215.769 208.648L211.935 214.978L207.608 222.373C206.668 224.146 205.735 226.076 204.836 228.156C204.347 229.298 203.899 230.413 203.492 231.499C202.852 233.23 202.229 235.148 201.671 237.246C201.202 239.013 200.838 240.691 200.556 242.26C200.215 244.183 200.016 245.758 199.898 246.81C199.757 248.109 199.699 248.981 199.499 251.584C199.352 253.429 199.229 254.92 199.153 255.852L198.201 268.477L197.285 283.284C197.141 285.688 197.039 288.189 196.98 290.786C196.925 293.131 196.925 295.405 196.98 297.609L199.505 299.13H199.669C199.634 296.974 199.634 294.746 199.669 292.445C199.704 290.9 199.757 289.379 199.834 287.901C199.955 285.171 200.098 282.444 200.262 279.719C200.497 275.687 200.765 271.655 201.067 267.623L202.335 251.337C202.452 249.534 202.652 247.652 202.922 245.638C203.163 244.003 203.456 242.452 203.768 240.997C204.137 239.38 204.607 237.643 205.194 235.815C205.705 234.24 206.245 232.773 206.797 231.42C207.555 229.521 208.453 227.507 209.51 225.409C210.379 223.683 211.271 222.09 212.135 220.599L219.914 207.794L223.009 202.691L222.944 202.48L220.378 200.953Z" fill="#EDEDED"/>
<path d="M274.982 202.709V202.492L277.565 200.953L285.057 213.307C285.744 214.431 286.748 216.079 287.993 218.117C288.821 219.499 289.073 219.92 289.238 220.221C289.954 221.465 290.929 223.227 291.992 225.511C292.579 226.767 293.166 228.114 293.753 229.545C294.54 231.505 295.197 233.386 295.738 235.148C296.207 236.699 296.648 238.376 297.035 240.18C297.546 242.546 297.921 244.94 298.157 247.352L299.39 262.886L300.47 278.925L301.087 294.399L301.04 297.609L298.468 299.173L298.362 299.281C298.362 297.826 298.403 296.341 298.362 294.82C298.362 292.62 298.286 290.498 298.18 288.442C297.93 283.937 297.679 279.436 297.429 274.939L296.143 257.325C296.072 256.453 295.972 255.209 295.849 253.718C295.456 248.957 295.362 248.067 295.262 247.297C295.103 246.047 294.845 244.292 294.411 242.115C293.994 240.192 293.459 238.142 292.772 236.001C292.42 234.887 292.052 233.825 291.669 232.815C291.081 231.318 290.465 229.743 289.719 228.108C289.032 226.599 288.334 225.198 287.635 223.9C287.447 223.539 287.13 222.95 286.725 222.241C286.255 221.417 285.885 220.816 285.732 220.557C285.087 219.505 284.041 217.768 282.444 215.105C279.974 210.957 277.487 206.827 274.982 202.715" fill="#EDEDED"/>
<path d="M239.754 164.069C238.977 165.029 238.419 166.155 238.121 167.364C237.956 168.201 238.057 169.071 238.409 169.846C238.627 170.481 238.919 171.087 239.278 171.65C239.592 172.141 239.954 172.598 240.359 173.015C241.104 173.786 241.952 174.445 242.877 174.974C243.583 175.373 244.327 175.695 245.097 175.936C247.645 176.725 250.364 176.725 252.912 175.936C255.244 175.223 257.275 173.729 258.678 171.692C259.206 170.845 259.589 169.912 259.811 168.933C259.908 168.386 259.908 167.826 259.811 167.279C259.668 166.722 259.472 166.18 259.224 165.662C257.721 162.62 254.849 161.292 253.569 160.799C250.849 159.77 247.875 159.675 245.097 160.528C243.019 161.138 241.164 162.364 239.765 164.051" fill="#191919"/>
<path d="M236.536 166.914H236.23L236.289 165.189C236.341 164.13 236.578 163.09 236.988 162.117C237.421 161.122 238.001 160.201 238.708 159.387C238.884 159.183 239.066 158.997 239.243 158.822C240.43 157.665 241.826 156.754 243.353 156.141C244.906 155.497 246.557 155.137 248.232 155.077C250.409 154.968 252.584 155.341 254.608 156.171C256.075 156.777 257.424 157.649 258.589 158.744C259.633 159.732 260.462 160.935 261.02 162.273C261.418 163.236 261.645 164.264 261.689 165.309C261.689 166.042 261.689 166.782 261.66 167.521L261.478 167.467L257.72 162.934L253.281 159.971L246.212 159.141L241.022 161.449L237.716 165.056L236.542 166.89" fill="#EDEDED"/>
<path d="M260.544 164.901C259.515 163.079 258.021 161.578 256.222 160.561C254.452 159.543 252.499 158.904 250.481 158.681C248.462 158.458 246.421 158.655 244.479 159.262L244.221 159.328L243.775 159.563L243.481 159.611L243.305 159.683C242.947 159.827 242.577 159.995 242.183 160.2C241.54 160.537 240.924 160.925 240.34 161.36C238.809 162.497 237.609 164.039 236.87 165.821C236.152 167.617 236.037 169.607 236.541 171.478C236.978 173.043 237.784 174.474 238.889 175.644C240.375 177.207 242.214 178.37 244.244 179.028C246.118 179.653 248.092 179.9 250.057 179.756C251.902 179.635 253.708 179.162 255.383 178.361C257.09 177.56 258.586 176.352 259.745 174.838C260.977 173.242 261.653 171.27 261.665 169.235C261.654 167.716 261.266 166.225 260.538 164.901H260.544ZM254.39 177.297C251.171 178.746 247.525 178.841 244.238 177.562C241.727 176.631 239.673 174.726 238.52 172.259C238.106 171.313 237.89 170.29 237.885 169.253C237.878 168.221 238.078 167.198 238.473 166.248C238.923 165.173 239.559 164.192 240.351 163.35C241.514 162.118 242.962 161.208 244.561 160.705L245.295 160.452C247.513 159.797 249.862 159.755 252.1 160.332C254.755 160.918 257.101 162.498 258.677 164.763C259.424 165.864 259.885 167.143 260.015 168.478C260.102 169.428 260.016 170.386 259.763 171.303C259.372 172.59 258.709 173.773 257.819 174.766C257.289 175.342 256.698 175.856 256.058 176.299C255.537 176.668 254.987 176.992 254.414 177.267L254.39 177.297Z" fill="white"/>
<path d="M211.428 181.75C208.44 184.942 206.555 189.643 205.98 195.433C204.905 206.254 203.496 221.704 202.991 232.807" stroke="#4A4A4A" stroke-width="0.5" stroke-miterlimit="10"/>
<path d="M295.023 232.92C294.529 221.816 293.114 206.348 292.04 195.461C291.453 189.407 289.398 184.538 286.168 181.352" stroke="#4A4A4A" stroke-width="0.5" stroke-miterlimit="10"/>
<path d="M223.9 258.611V261.671C223.964 265.417 226.395 269.156 231.257 272.017C241.068 277.807 256.998 277.807 266.774 272.017C271.753 269.09 274.19 265.23 274.131 261.401V258.671" stroke="#4A4A4A" stroke-width="0.5" stroke-miterlimit="10"/>
<path d="M218.721 254.049C220.58 256.292 222.823 258.17 225.338 259.592C238.403 267.299 259.581 267.299 272.669 259.592C275.165 258.184 277.395 256.329 279.251 254.115" stroke="#4A4A4A" stroke-width="0.5" stroke-miterlimit="10"/>
<path d="M214.441 81.5801C214.388 81.8566 214.129 83.1612 213.947 84.0389C210.894 100.066 207.835 117.169 212.896 213.321" stroke="#4A4A4A" stroke-width="0.5" stroke-miterlimit="10"/>
<path d="M221.017 251.568C221.994 252.359 223.022 253.082 224.093 253.732C237.287 261.8 258.97 262.023 272.563 254.237C274.034 253.4 275.431 252.433 276.738 251.346" stroke="#4A4A4A" stroke-width="0.5" stroke-miterlimit="10"/>
<path d="M284.606 212.52C286.191 184.313 288.064 144.696 287.706 119.994C287.536 107.684 286.316 95.4139 284.06 83.3222C284.136 83.713 284.136 84.1098 284.177 84.5246C284.154 84.0894 284.107 83.6558 284.036 83.226L283.895 82.5527" stroke="#4A4A4A" stroke-width="0.5" stroke-miterlimit="10"/>
<path d="M298.169 247.358C297.507 240.59 295.765 233.98 293.014 227.789C291.645 224.625 290.066 221.56 288.287 218.616L277.584 200.953L274.906 202.546L285.598 220.209C287.38 223.154 288.961 226.221 290.331 229.389C293.075 235.579 294.814 242.187 295.48 248.951C296.825 265.08 298.727 290.005 298.363 299.215L301.052 297.615C301.405 288.406 299.508 263.469 298.169 247.358Z" stroke="#4A4A4A" stroke-width="0.5" stroke-miterlimit="10"/>
<path d="M274.9 202.547L274.771 249.486C289.045 262.712 294.412 280.801 296.643 298.247L298.357 299.257C298.721 290.005 296.836 265.069 295.48 248.957C294.699 239.687 291.182 229.431 285.598 220.215L274.906 202.559" stroke="#4A4A4A" stroke-width="0.5" stroke-miterlimit="10"/>
<path d="M220.378 200.953L209.703 218.616C207.921 221.559 206.338 224.624 204.965 227.789C202.225 233.983 200.49 240.592 199.827 247.358C198.483 263.487 196.574 288.406 196.944 297.615L199.634 299.209C199.264 289.999 201.166 265.062 202.511 248.951C203.174 242.186 204.913 235.578 207.66 229.389C209.03 226.221 210.611 223.154 212.392 220.209L223.09 202.546L220.378 200.953Z" stroke="#4A4A4A" stroke-width="0.5" stroke-miterlimit="10"/>
<path d="M223.084 202.547L212.392 220.209C206.802 229.455 203.256 239.687 202.51 248.957C201.165 265.081 199.257 290.005 199.627 299.215L201.353 298.205C203.579 280.771 208.951 262.694 223.225 249.444L223.084 202.553" stroke="#4A4A4A" stroke-width="0.5" stroke-miterlimit="10"/>
<path d="M248.989 155.047C241.943 155.047 236.295 159.76 236.301 165.615L236.23 169.168C236.23 163.301 241.885 158.582 248.907 158.6C255.929 158.618 261.637 163.361 261.654 169.229L261.713 165.676C261.719 159.814 255.994 155.065 248.989 155.047Z" stroke="#4A4A4A" stroke-width="0.5" stroke-miterlimit="10"/>
<path d="M248.932 158.602C241.886 158.602 236.238 163.309 236.255 169.17C236.273 175.032 241.962 179.787 248.996 179.793C256.031 179.799 261.691 175.062 261.679 169.23C261.667 163.399 255.937 158.662 248.932 158.602Z" stroke="#4A4A4A" stroke-width="0.5" stroke-miterlimit="10"/>
<path d="M248.936 159.971C242.812 159.971 237.88 164.065 237.886 169.169C237.892 174.273 242.865 178.415 248.989 178.421C255.113 178.427 260.051 174.309 260.039 169.223C260.027 164.137 255.019 159.989 248.936 159.971Z" stroke="#4A4A4A" stroke-width="0.5" stroke-miterlimit="10"/>
<path d="M248.989 176.531C243.241 176.531 238.579 172.852 238.003 168.199C237.938 168.514 237.898 168.834 237.886 169.155C237.886 174.253 242.865 178.401 248.983 178.407C255.101 178.413 260.045 174.295 260.039 169.209C260.02 168.9 259.981 168.593 259.922 168.289C259.352 172.924 254.702 176.562 248.989 176.531Z" stroke="#4A4A4A" stroke-width="0.5" stroke-miterlimit="10"/>
<path d="M283.791 81.7527C282.029 73.3363 278.9 60.6155 272.318 47.54C271.543 46.0131 270.274 43.6144 268.613 40.873C261.643 29.4087 254.997 24.4971 253.129 23.2647C249.219 20.7218 248.972 20.5474 243.735 24.5152C238.997 28.0801 222.897 42.7126 214.512 81.5723C213.25 87.5841 216.438 93.8663 224.118 98.5494C237.558 106.755 259.653 106.966 273.486 99.0544C281.559 94.4073 285.024 87.9628 283.791 81.7527Z" stroke="#4A4A4A" stroke-width="0.5" stroke-miterlimit="10"/>
<path d="M251.893 22.6328C253.467 23.795 255.32 25.8286 257.893 28.6751C262.427 33.697 271.225 44.7671 278.154 68.0594C280.231 75.0504 281.853 82.1661 283.012 89.3628" stroke="#4A4A4A" stroke-width="0.5" stroke-miterlimit="10"/>
<path d="M248.957 21.4316H248.962C256.468 21.9943 262.142 49.047 265.984 102.59" stroke="#4A4A4A" stroke-width="0.5" stroke-miterlimit="10"/>
<path d="M159.368 145.873C157.012 147.307 154.916 149.144 153.171 151.303C152.888 138.847 144.105 133.861 133.321 140.221C129.704 142.464 126.503 145.337 123.863 148.71C119.058 140.133 109.1 138.16 97.5548 144.942C81.3134 154.494 68.1595 177.743 68.1595 196.847C68.1627 198.329 68.2572 199.81 68.4422 201.28C65.5891 200.73 62.6383 201.342 60.2236 202.986C56.1304 205.706 52.7235 209.371 50.2795 213.683C47.8354 217.996 46.4229 222.835 46.1565 227.808C46.1565 236.962 52.4617 240.663 60.2236 236.097L159.476 177.676C163.414 175.063 166.692 171.54 169.042 167.392C171.392 163.244 172.748 158.59 173 153.807C172.891 145.031 166.847 141.462 159.368 145.873Z" fill="white"/>
<path d="M159.368 145.873C157.012 147.307 154.916 149.144 153.171 151.303C152.888 138.847 144.105 133.861 133.321 140.221C129.704 142.464 126.503 145.337 123.863 148.71C119.058 140.133 109.1 138.16 97.5548 144.942C81.3134 154.494 68.1595 177.743 68.1595 196.847C68.1627 198.329 68.2572 199.81 68.4422 201.28C65.5891 200.73 62.6383 201.342 60.2236 202.986C56.1304 205.706 52.7235 209.371 50.2795 213.683C47.8354 217.996 46.4229 222.835 46.1565 227.808C46.1565 236.962 52.4617 240.663 60.2236 236.097L159.476 177.676C163.414 175.063 166.692 171.54 169.042 167.392C171.392 163.244 172.748 158.59 173 153.807C172.891 145.031 166.847 141.462 159.368 145.873Z" fill="white"/>
<mask id="mask0_4848_10709" style="mask-type:alpha" maskUnits="userSpaceOnUse" x="46" y="137" width="127" height="102">
<path d="M159.368 145.873C157.012 147.307 154.916 149.144 153.171 151.303C152.888 138.847 144.105 133.861 133.321 140.221C129.704 142.464 126.503 145.337 123.863 148.71C119.058 140.133 109.1 138.16 97.5548 144.942C81.3134 154.494 68.1595 177.743 68.1595 196.847C68.1627 198.329 68.2572 199.81 68.4422 201.28C65.5891 200.73 62.6383 201.342 60.2236 202.986C56.1304 205.706 52.7235 209.371 50.2795 213.683C47.8354 217.996 46.4229 222.835 46.1565 227.808C46.1565 236.962 52.4617 240.663 60.2236 236.097L159.476 177.676C163.414 175.063 166.692 171.54 169.042 167.392C171.392 163.244 172.748 158.59 173 153.807C172.891 145.031 166.847 141.462 159.368 145.873Z" fill="white"/>
</mask>
<g mask="url(#mask0_4848_10709)">
<path d="M152.921 151.308L152.937 151.991L153.366 151.46C155.092 149.324 157.166 147.506 159.496 146.087C163.189 143.91 166.468 143.735 168.822 145.111C171.176 146.487 172.694 149.468 172.75 153.802C172.499 158.543 171.154 163.157 168.824 167.269C166.494 171.381 163.246 174.874 159.344 177.464L60.0969 235.882C60.0969 235.882 60.0968 235.882 60.0968 235.882C56.2618 238.138 52.8467 238.318 50.4061 236.882C47.965 235.445 46.408 232.338 46.4065 227.815C46.6718 222.883 48.0731 218.084 50.497 213.807C52.9218 209.528 56.3017 205.892 60.362 203.194L60.3643 203.193C62.7243 201.586 65.6075 200.988 68.3948 201.525L68.7332 201.59L68.6902 201.248C68.5065 199.789 68.4127 198.318 68.4095 196.847C68.4096 187.348 71.6814 176.802 76.9842 167.436C82.2872 158.069 89.6079 149.906 97.6814 145.158C103.42 141.787 108.737 140.607 113.197 141.313C117.65 142.018 121.277 144.606 123.645 148.832L123.828 149.159L124.06 148.864C126.681 145.515 129.86 142.662 133.45 140.435C138.796 137.283 143.588 136.975 147.062 138.924C150.537 140.874 152.781 145.133 152.921 151.308Z" stroke="#4A4A4A" stroke-width="0.5"/>
</g>
<path d="M414.904 127.697L414.921 128.238L415.322 127.874C416.282 127.004 417.322 126.23 418.428 125.564C421.757 123.607 424.709 123.455 426.822 124.694C428.936 125.934 430.3 128.618 430.338 132.532C430.111 136.807 428.898 140.967 426.796 144.674C424.694 148.382 421.763 151.533 418.241 153.872L361.222 187.339C356.668 189.999 352.631 190.216 349.748 188.517C346.863 186.816 345.042 183.144 345.042 177.821C345.042 172.501 346.865 166.59 349.838 161.337C352.812 156.084 356.922 151.511 361.474 148.852L361.474 148.853L361.485 148.845C364.007 147.186 366.999 146.43 369.99 146.695L370.204 146.714L370.255 146.506C373.332 133.96 381.962 121.162 392.103 115.212L392.103 115.212C398.331 111.551 403.917 111.169 407.983 113.412C412.05 115.654 414.685 120.57 414.904 127.697Z" fill="white" stroke="#4A4A4A" stroke-width="0.5"/>
<path d="M15.9363 74.5489L20.2253 83.7518L20.283 83.8757L20.4185 83.8939L30.3045 85.2282L23.0685 92.2612L22.973 92.354L22.9967 92.485L24.8119 102.522L16.0577 97.6571L15.9363 97.5896L15.8148 97.6571L7.06065 102.522L8.87584 92.485L8.89953 92.354L8.80407 92.2612L1.56803 85.2282L11.4541 83.8939L11.5895 83.8757L11.6472 83.7518L15.9363 74.5489Z" stroke="black" stroke-width="0.5"/>
<path d="M457.72 3.91409L462.009 13.117L462.067 13.2409L462.202 13.2592L472.088 14.5934L464.852 21.6264L464.757 21.7192L464.781 21.8502L466.596 31.8871L457.842 27.0223L457.72 26.9549L457.599 27.0223L448.845 31.8871L450.66 21.8502L450.683 21.7192L450.588 21.6264L443.352 14.5934L453.238 13.2592L453.373 13.2409L453.431 13.117L457.72 3.91409Z" stroke="black" stroke-width="0.5"/>
<path d="M375.844 204.397L379.029 211.231L379.087 211.355L379.222 211.373L386.567 212.364L381.19 217.591L381.095 217.683L381.118 217.814L382.467 225.271L375.965 221.658L375.844 221.591L375.723 221.658L369.221 225.271L370.57 217.814L370.593 217.683L370.498 217.591L365.121 212.364L372.466 211.373L372.601 211.355L372.659 211.231L375.844 204.397Z" stroke="black" stroke-width="0.5"/>
<ellipse cx="42.7631" cy="137.455" rx="2.78728" ry="2.85382" fill="#F2F2F2"/>
<ellipse cx="337.518" cy="3.32648" rx="2.78728" ry="2.85382" fill="#F2F2F2"/>
<ellipse cx="450.403" cy="132.459" rx="2.78728" ry="2.85382" fill="#F2F2F2"/>
<path d="M145.555 63.8043C144.407 64.5121 143.384 65.4127 142.53 66.4682C142.385 60.3722 138.096 57.9313 132.812 61.0412C131.025 62.1377 129.442 63.547 128.135 65.2044C125.79 61.0041 120.919 60.0377 115.27 63.3583C107.337 68.0294 100.898 79.4036 100.898 88.7458C100.902 89.4793 100.951 90.2117 101.044 90.9389C99.6503 90.6583 98.2044 90.9523 97.0229 91.7567C95.0209 93.089 93.355 94.8839 92.1603 96.9958C90.9657 99.1076 90.2759 101.477 90.147 103.911C90.147 108.384 93.2205 110.193 97.0229 107.963L145.543 79.3788C147.47 78.1031 149.075 76.3809 150.225 74.3525C151.376 72.3242 152.04 70.0472 152.164 67.7072C152.152 63.4326 149.212 61.6855 145.555 63.8043Z" fill="white"/>
<mask id="mask1_4848_10709" style="mask-type:alpha" maskUnits="userSpaceOnUse" x="90" y="59" width="63" height="50">
<path d="M145.555 63.8043C144.407 64.5121 143.384 65.4127 142.53 66.4682C142.385 60.3722 138.096 57.9313 132.812 61.0412C131.025 62.1377 129.442 63.547 128.135 65.2044C125.79 61.0041 120.919 60.0377 115.27 63.3583C107.337 68.0294 100.898 79.4036 100.898 88.7458C100.902 89.4793 100.951 90.2117 101.044 90.9389C99.6503 90.6583 98.2044 90.9523 97.0229 91.7567C95.0209 93.089 93.355 94.8839 92.1603 96.9958C90.9657 99.1076 90.2759 101.477 90.147 103.911C90.147 108.384 93.2205 110.193 97.0229 107.963L145.543 79.3788C147.47 78.1031 149.075 76.3809 150.225 74.3525C151.376 72.3242 152.04 70.0472 152.164 67.7072C152.152 63.4326 149.212 61.6855 145.555 63.8043Z" fill="white"/>
</mask>
<g mask="url(#mask1_4848_10709)">
<path d="M142.725 66.6254C143.56 65.5927 144.561 64.7115 145.684 64.0189C147.465 62.9878 149.011 62.9298 150.099 63.5734C151.188 64.2177 151.906 65.618 151.914 67.701C151.791 70 151.138 72.2368 150.008 74.2292C148.878 76.2217 147.302 77.9133 145.411 79.1667L96.8964 107.747C95.0409 108.836 93.4236 108.906 92.2859 108.236C91.1477 107.565 90.3985 106.101 90.397 103.918C90.5248 101.524 91.2035 99.195 92.3779 97.1189C93.5534 95.0409 95.1924 93.2752 97.1614 91.9648L97.1636 91.9633C98.2899 91.1966 99.6673 90.9167 100.995 91.184L101.336 91.2528L101.292 90.9071C101.2 90.1902 101.152 89.4681 101.148 88.7451C101.148 84.1274 102.741 78.9907 105.327 74.4235C107.912 69.8559 111.477 65.8816 115.396 63.5738C118.187 61.9333 120.758 61.368 122.902 61.7079C125.038 62.0466 126.779 63.2884 127.916 65.3262L128.099 65.6534L128.331 65.3592C129.619 63.7254 131.18 62.3363 132.94 61.2555C135.537 59.7283 137.83 59.5961 139.476 60.5204C141.122 61.4454 142.209 63.4779 142.28 66.4742L142.297 67.1545L142.725 66.6254Z" stroke="#4A4A4A" stroke-width="0.5"/>
</g>
</svg>
