<svg width="450" height="492" viewBox="0 0 450 492" fill="none" xmlns="http://www.w3.org/2000/svg">
<g clip-path="url(#clip0_4848_10709)">
<rect y="0.679688" width="450" height="490.909" rx="20" fill="#515151"/>
<path d="M29.3668 40.2744V30.4744H33.3988C34.2668 30.4744 35.0088 30.6144 35.6248 30.8944C36.2501 31.1744 36.7308 31.5757 37.0668 32.0984C37.4028 32.6211 37.5708 33.2417 37.5708 33.9604C37.5708 34.6791 37.4028 35.2997 37.0668 35.8224C36.7308 36.3451 36.2501 36.7464 35.6248 37.0264C35.0088 37.3064 34.2668 37.4464 33.3988 37.4464H30.3748L31.1868 36.5924V40.2744H29.3668ZM31.1868 36.7884L30.3748 35.9064H33.3148C34.1174 35.9064 34.7194 35.7384 35.1208 35.4024C35.5314 35.0571 35.7368 34.5764 35.7368 33.9604C35.7368 33.3351 35.5314 32.8544 35.1208 32.5184C34.7194 32.1824 34.1174 32.0144 33.3148 32.0144H30.3748L31.1868 31.1184V36.7884ZM43.7579 40.2744V38.7624L43.6599 38.4404V35.7944C43.6599 35.2811 43.5059 34.8844 43.1979 34.6044C42.8899 34.3151 42.4232 34.1704 41.7979 34.1704C41.3779 34.1704 40.9626 34.2357 40.5519 34.3664C40.1506 34.4971 39.8099 34.6791 39.5299 34.9124L38.8439 33.6384C39.2452 33.3304 39.7212 33.1017 40.2719 32.9524C40.8319 32.7937 41.4106 32.7144 42.0079 32.7144C43.0906 32.7144 43.9259 32.9757 44.5139 33.4984C45.1112 34.0117 45.4099 34.8097 45.4099 35.8924V40.2744H43.7579ZM41.4059 40.3724C40.8459 40.3724 40.3559 40.2791 39.9359 40.0924C39.5159 39.8964 39.1892 39.6304 38.9559 39.2944C38.7319 38.9491 38.6199 38.5617 38.6199 38.1324C38.6199 37.7124 38.7179 37.3344 38.9139 36.9984C39.1192 36.6624 39.4506 36.3964 39.9079 36.2004C40.3652 36.0044 40.9719 35.9064 41.7279 35.9064H43.8979V37.0684H41.8539C41.2566 37.0684 40.8552 37.1664 40.6499 37.3624C40.4446 37.5491 40.3419 37.7824 40.3419 38.0624C40.3419 38.3797 40.4679 38.6317 40.7199 38.8184C40.9719 39.0051 41.3219 39.0984 41.7699 39.0984C42.1992 39.0984 42.5819 39.0004 42.9179 38.8044C43.2632 38.6084 43.5106 38.3191 43.6599 37.9364L43.9539 38.9864C43.7859 39.4251 43.4826 39.7657 43.0439 40.0084C42.6146 40.2511 42.0686 40.3724 41.4059 40.3724ZM48.1351 43.0884C47.7711 43.0884 47.4071 43.0277 47.0431 42.9064C46.6791 42.7851 46.3758 42.6171 46.1331 42.4024L46.8331 41.1144C47.0104 41.2731 47.2111 41.3991 47.4351 41.4924C47.6591 41.5857 47.8878 41.6324 48.1211 41.6324C48.4384 41.6324 48.6951 41.5531 48.8911 41.3944C49.0871 41.2357 49.2691 40.9697 49.4371 40.5964L49.8711 39.6164L50.0111 39.4064L52.8391 32.7984H54.5191L51.0191 40.8764C50.7858 41.4364 50.5244 41.8797 50.2351 42.2064C49.9551 42.5331 49.6378 42.7617 49.2831 42.8924C48.9378 43.0231 48.5551 43.0884 48.1351 43.0884ZM49.6751 40.5404L46.3011 32.7984H48.1211L50.8651 39.2524L49.6751 40.5404Z" fill="white"/>
<rect x="29" y="230.744" width="121.812" height="39.9863" rx="19.9932" fill="#333333"/>
<path d="M74.0484 250.445H78.9344V251.985H74.0484V250.445ZM74.2024 255.737H72.3824V245.937H79.5364V247.463H74.2024V255.737ZM85.5105 255.877C84.1665 255.877 83.1118 255.499 82.3465 254.743C81.5905 253.987 81.2125 252.895 81.2125 251.467V245.937H83.0325V251.397C83.0325 252.405 83.2471 253.138 83.6765 253.595C84.1151 254.053 84.7311 254.281 85.5245 254.281C86.3178 254.281 86.9291 254.053 87.3585 253.595C87.7878 253.138 88.0025 252.405 88.0025 251.397V245.937H89.7945V251.467C89.7945 252.895 89.4118 253.987 88.6465 254.743C87.8905 255.499 86.8451 255.877 85.5105 255.877ZM95.3813 255.877C94.616 255.877 93.8833 255.77 93.1833 255.555C92.4833 255.331 91.928 255.047 91.5173 254.701L92.1473 253.287C92.5393 253.595 93.0247 253.852 93.6033 254.057C94.182 254.263 94.7747 254.365 95.3813 254.365C95.8947 254.365 96.31 254.309 96.6273 254.197C96.9447 254.085 97.178 253.936 97.3273 253.749C97.4767 253.553 97.5513 253.334 97.5513 253.091C97.5513 252.793 97.444 252.555 97.2293 252.377C97.0147 252.191 96.7347 252.046 96.3893 251.943C96.0533 251.831 95.6753 251.729 95.2553 251.635C94.8447 251.542 94.4293 251.435 94.0093 251.313C93.5987 251.183 93.2207 251.019 92.8753 250.823C92.5393 250.618 92.264 250.347 92.0493 250.011C91.8347 249.675 91.7273 249.246 91.7273 248.723C91.7273 248.191 91.8673 247.706 92.1473 247.267C92.4367 246.819 92.8707 246.465 93.4493 246.203C94.0373 245.933 94.7793 245.797 95.6753 245.797C96.2633 245.797 96.8467 245.872 97.4253 246.021C98.004 246.171 98.508 246.385 98.9373 246.665L98.3633 248.079C97.9247 247.818 97.472 247.627 97.0053 247.505C96.5387 247.375 96.0907 247.309 95.6613 247.309C95.1573 247.309 94.7467 247.37 94.4293 247.491C94.1213 247.613 93.8927 247.771 93.7433 247.967C93.6033 248.163 93.5333 248.387 93.5333 248.639C93.5333 248.938 93.636 249.181 93.8413 249.367C94.056 249.545 94.3313 249.685 94.6673 249.787C95.0127 249.89 95.3953 249.993 95.8153 250.095C96.2353 250.189 96.6507 250.296 97.0613 250.417C97.4813 250.539 97.8593 250.697 98.1953 250.893C98.5407 251.089 98.816 251.355 99.0213 251.691C99.236 252.027 99.3433 252.452 99.3433 252.965C99.3433 253.488 99.1987 253.973 98.9093 254.421C98.6293 254.86 98.1953 255.215 97.6073 255.485C97.0193 255.747 96.2773 255.877 95.3813 255.877ZM102.828 250.011H107.7V251.509H102.828V250.011ZM102.968 254.211H108.498V255.737H101.148V245.937H108.302V247.463H102.968V254.211Z" fill="white"/>
<rect x="36.5" y="235.737" width="29" height="30" rx="14.5" fill="#B4F9BA"/>
<path d="M48.0768 243.295L50.8798 241.621C50.9596 241.573 51.0586 241.573 51.1384 241.621L58.5258 246.033C58.6056 246.08 58.6547 246.169 58.6555 246.264L58.6655 249.299C58.6655 249.395 58.6163 249.484 58.5357 249.531L55.7366 251.203C55.5647 251.306 55.349 251.178 55.3482 250.972L55.339 248.249C55.339 248.154 55.2891 248.065 55.2093 248.018L48.0768 243.759C47.9041 243.656 47.9041 243.398 48.0768 243.295Z" fill="#010101"/>
<path d="M46.2659 257.041L43.4637 255.367C43.3831 255.319 43.334 255.231 43.334 255.135V246.311C43.334 246.215 43.3831 246.127 43.4629 246.079L45.9988 244.552C46.0794 244.504 46.1784 244.504 46.2582 244.552L49.0574 246.224C49.2293 246.327 49.2301 246.584 49.0581 246.688L46.7832 248.057C46.7034 248.105 46.6543 248.193 46.6543 248.289V256.809C46.6543 257.016 46.4386 257.145 46.2659 257.041V257.041Z" fill="#010101"/>
<path d="M58.6661 251.788V255.135C58.6661 255.231 58.617 255.319 58.5364 255.367L51.1491 259.779C51.0692 259.827 50.971 259.827 50.8912 259.779L48.3453 258.27C48.2647 258.223 48.2148 258.134 48.2148 258.038V254.694C48.2148 254.489 48.4297 254.36 48.6024 254.462L50.8866 255.815C50.9664 255.863 51.0646 255.862 51.1445 255.815L58.277 251.555C58.4497 251.452 58.6654 251.58 58.6654 251.787L58.6661 251.788Z" fill="#010101"/>
<path d="M130.969 248.038L125.578 254.342L119.969 248.038" stroke="white" stroke-width="1.5" stroke-linecap="round" stroke-linejoin="round"/>
<rect x="29" y="56.2363" width="121.812" height="39.9863" rx="19.9932" fill="#333333"/>
<path d="M74.0484 75.9375H78.9344V77.4775H74.0484V75.9375ZM74.2024 81.2295H72.3824V71.4295H79.5364V72.9555H74.2024V81.2295ZM85.5105 81.3695C84.1665 81.3695 83.1118 80.9915 82.3465 80.2355C81.5905 79.4795 81.2125 78.3875 81.2125 76.9595V71.4295H83.0325V76.8895C83.0325 77.8975 83.2471 78.6302 83.6765 79.0875C84.1151 79.5448 84.7311 79.7735 85.5245 79.7735C86.3178 79.7735 86.9291 79.5448 87.3585 79.0875C87.7878 78.6302 88.0025 77.8975 88.0025 76.8895V71.4295H89.7945V76.9595C89.7945 78.3875 89.4118 79.4795 88.6465 80.2355C87.8905 80.9915 86.8451 81.3695 85.5105 81.3695ZM95.3813 81.3695C94.616 81.3695 93.8833 81.2622 93.1833 81.0475C92.4833 80.8235 91.928 80.5388 91.5173 80.1935L92.1473 78.7795C92.5393 79.0875 93.0247 79.3442 93.6033 79.5495C94.182 79.7548 94.7747 79.8575 95.3813 79.8575C95.8947 79.8575 96.31 79.8015 96.6273 79.6895C96.9447 79.5775 97.178 79.4282 97.3273 79.2415C97.4767 79.0455 97.5513 78.8262 97.5513 78.5835C97.5513 78.2848 97.444 78.0468 97.2293 77.8695C97.0147 77.6828 96.7347 77.5382 96.3893 77.4355C96.0533 77.3235 95.6753 77.2208 95.2553 77.1275C94.8447 77.0342 94.4293 76.9268 94.0093 76.8055C93.5987 76.6748 93.2207 76.5115 92.8753 76.3155C92.5393 76.1102 92.264 75.8395 92.0493 75.5035C91.8347 75.1675 91.7273 74.7382 91.7273 74.2155C91.7273 73.6835 91.8673 73.1982 92.1473 72.7595C92.4367 72.3115 92.8707 71.9568 93.4493 71.6955C94.0373 71.4248 94.7793 71.2895 95.6753 71.2895C96.2633 71.2895 96.8467 71.3642 97.4253 71.5135C98.004 71.6628 98.508 71.8775 98.9373 72.1575L98.3633 73.5715C97.9247 73.3102 97.472 73.1188 97.0053 72.9975C96.5387 72.8668 96.0907 72.8015 95.6613 72.8015C95.1573 72.8015 94.7467 72.8622 94.4293 72.9835C94.1213 73.1048 93.8927 73.2635 93.7433 73.4595C93.6033 73.6555 93.5333 73.8795 93.5333 74.1315C93.5333 74.4302 93.636 74.6728 93.8413 74.8595C94.056 75.0368 94.3313 75.1768 94.6673 75.2795C95.0127 75.3822 95.3953 75.4848 95.8153 75.5875C96.2353 75.6808 96.6507 75.7882 97.0613 75.9095C97.4813 76.0308 97.8593 76.1895 98.1953 76.3855C98.5407 76.5815 98.816 76.8475 99.0213 77.1835C99.236 77.5195 99.3433 77.9442 99.3433 78.4575C99.3433 78.9802 99.1987 79.4655 98.9093 79.9135C98.6293 80.3522 98.1953 80.7068 97.6073 80.9775C97.0193 81.2388 96.2773 81.3695 95.3813 81.3695ZM102.828 75.5035H107.7V77.0015H102.828V75.5035ZM102.968 79.7035H108.498V81.2295H101.148V71.4295H108.302V72.9555H102.968V79.7035Z" fill="white"/>
<rect x="36.5" y="61.2295" width="29" height="30" rx="14.5" fill="#B4F9BA"/>
<path d="M48.0768 68.7874L50.8798 67.1129C50.9596 67.0652 51.0586 67.0652 51.1384 67.1129L58.5258 71.525C58.6056 71.5727 58.6547 71.6608 58.6555 71.7561L58.6655 74.7907C58.6655 74.8868 58.6163 74.9757 58.5357 75.0233L55.7366 76.6955C55.5647 76.7987 55.349 76.6701 55.3482 76.4644L55.339 73.741C55.339 73.6458 55.2891 73.5576 55.2093 73.51L48.0768 69.2511C47.9041 69.1479 47.9041 68.8906 48.0768 68.7874Z" fill="#010101"/>
<path d="M46.2659 82.5327L43.4637 80.859C43.3831 80.8113 43.334 80.7232 43.334 80.6271V71.8028C43.334 71.7075 43.3831 71.6194 43.4629 71.571L45.9988 70.0441C46.0794 69.9957 46.1784 69.9957 46.2582 70.0441L49.0574 71.7163C49.2293 71.8195 49.2301 72.0759 49.0581 72.18L46.7832 73.5496C46.7034 73.5972 46.6543 73.6853 46.6543 73.7814V82.3016C46.6543 82.5081 46.4386 82.6367 46.2659 82.5335V82.5327Z" fill="#010101"/>
<path d="M58.6661 77.2798V80.6272C58.6661 80.7233 58.617 80.8114 58.5364 80.859L51.1491 85.2712C51.0692 85.3188 50.971 85.3188 50.8912 85.2712L48.3453 83.7626C48.2647 83.715 48.2148 83.6261 48.2148 83.53V80.1865C48.2148 79.9809 48.4297 79.8523 48.6024 79.9539L50.8866 81.3076C50.9664 81.3553 51.0646 81.3545 51.1445 81.3076L58.277 77.0471C58.4497 76.9439 58.6654 77.0725 58.6654 77.279L58.6661 77.2798Z" fill="#010101"/>
<path d="M130.969 73.5303L125.578 79.8337L119.969 73.5303" stroke="white" stroke-width="1.5" stroke-linecap="round" stroke-linejoin="round"/>
<path d="M29.3668 214.82V205.02H33.3988C34.2668 205.02 35.0088 205.16 35.6248 205.44C36.2501 205.72 36.7308 206.122 37.0668 206.644C37.4028 207.167 37.5708 207.788 37.5708 208.506C37.5708 209.225 37.4028 209.846 37.0668 210.368C36.7308 210.882 36.2501 211.278 35.6248 211.558C35.0088 211.829 34.2668 211.964 33.3988 211.964H30.3748L31.1868 211.138V214.82H29.3668ZM35.7788 214.82L33.3008 211.264H35.2468L37.7388 214.82H35.7788ZM31.1868 211.334L30.3748 210.466H33.3148C34.1174 210.466 34.7194 210.294 35.1208 209.948C35.5314 209.603 35.7368 209.122 35.7368 208.506C35.7368 207.881 35.5314 207.4 35.1208 207.064C34.7194 206.728 34.1174 206.56 33.3148 206.56H30.3748L31.1868 205.664V211.334ZM42.953 214.918C42.1223 214.918 41.3943 214.755 40.769 214.428C40.153 214.092 39.6723 213.635 39.327 213.056C38.991 212.478 38.823 211.82 38.823 211.082C38.823 210.336 38.9863 209.678 39.313 209.108C39.649 208.53 40.1063 208.077 40.685 207.75C41.273 207.424 41.9403 207.26 42.687 207.26C43.415 207.26 44.0637 207.419 44.633 207.736C45.2023 208.054 45.6503 208.502 45.977 209.08C46.3037 209.659 46.467 210.34 46.467 211.124C46.467 211.199 46.4623 211.283 46.453 211.376C46.453 211.47 46.4483 211.558 46.439 211.642H40.209V210.48H45.515L44.829 210.844C44.8383 210.415 44.7497 210.037 44.563 209.71C44.3763 209.384 44.1197 209.127 43.793 208.94C43.4757 208.754 43.107 208.66 42.687 208.66C42.2577 208.66 41.8797 208.754 41.553 208.94C41.2357 209.127 40.9837 209.388 40.797 209.724C40.6197 210.051 40.531 210.438 40.531 210.886V211.166C40.531 211.614 40.6337 212.011 40.839 212.356C41.0443 212.702 41.3337 212.968 41.707 213.154C42.0803 213.341 42.5097 213.434 42.995 213.434C43.415 213.434 43.793 213.369 44.129 213.238C44.465 213.108 44.7637 212.902 45.025 212.622L45.963 213.7C45.627 214.092 45.2023 214.396 44.689 214.61C44.185 214.816 43.6063 214.918 42.953 214.918ZM51.578 214.918C50.794 214.918 50.094 214.755 49.478 214.428C48.8713 214.092 48.3953 213.635 48.05 213.056C47.7047 212.478 47.532 211.82 47.532 211.082C47.532 210.336 47.7047 209.678 48.05 209.108C48.3953 208.53 48.8713 208.077 49.478 207.75C50.094 207.424 50.794 207.26 51.578 207.26C52.306 207.26 52.9453 207.41 53.496 207.708C54.056 207.998 54.4807 208.427 54.77 208.996L53.426 209.78C53.202 209.426 52.9267 209.164 52.6 208.996C52.2827 208.828 51.9373 208.744 51.564 208.744C51.1347 208.744 50.7473 208.838 50.402 209.024C50.0567 209.211 49.786 209.482 49.59 209.836C49.394 210.182 49.296 210.597 49.296 211.082C49.296 211.568 49.394 211.988 49.59 212.342C49.786 212.688 50.0567 212.954 50.402 213.14C50.7473 213.327 51.1347 213.42 51.564 213.42C51.9373 213.42 52.2827 213.336 52.6 213.168C52.9267 213 53.202 212.739 53.426 212.384L54.77 213.168C54.4807 213.728 54.056 214.162 53.496 214.47C52.9453 214.769 52.306 214.918 51.578 214.918ZM59.6874 214.918C58.8567 214.918 58.1287 214.755 57.5034 214.428C56.8874 214.092 56.4067 213.635 56.0614 213.056C55.7254 212.478 55.5574 211.82 55.5574 211.082C55.5574 210.336 55.7207 209.678 56.0474 209.108C56.3834 208.53 56.8407 208.077 57.4194 207.75C58.0074 207.424 58.6747 207.26 59.4214 207.26C60.1494 207.26 60.7981 207.419 61.3674 207.736C61.9367 208.054 62.3847 208.502 62.7114 209.08C63.0381 209.659 63.2014 210.34 63.2014 211.124C63.2014 211.199 63.1967 211.283 63.1874 211.376C63.1874 211.47 63.1827 211.558 63.1734 211.642H56.9434V210.48H62.2494L61.5634 210.844C61.5727 210.415 61.4841 210.037 61.2974 209.71C61.1107 209.384 60.8541 209.127 60.5274 208.94C60.2101 208.754 59.8414 208.66 59.4214 208.66C58.9921 208.66 58.6141 208.754 58.2874 208.94C57.9701 209.127 57.7181 209.388 57.5314 209.724C57.3541 210.051 57.2654 210.438 57.2654 210.886V211.166C57.2654 211.614 57.3681 212.011 57.5734 212.356C57.7787 212.702 58.0681 212.968 58.4414 213.154C58.8147 213.341 59.2441 213.434 59.7294 213.434C60.1494 213.434 60.5274 213.369 60.8634 213.238C61.1994 213.108 61.4981 212.902 61.7594 212.622L62.6974 213.7C62.3614 214.092 61.9367 214.396 61.4234 214.61C60.9194 214.816 60.3407 214.918 59.6874 214.918ZM64.8824 214.82V207.344H66.6324V214.82H64.8824ZM65.7644 206.112C65.4377 206.112 65.167 206.01 64.9524 205.804C64.747 205.599 64.6444 205.352 64.6444 205.062C64.6444 204.764 64.747 204.516 64.9524 204.32C65.167 204.115 65.4377 204.012 65.7644 204.012C66.091 204.012 66.357 204.11 66.5624 204.306C66.777 204.493 66.8844 204.731 66.8844 205.02C66.8844 205.328 66.7817 205.59 66.5764 205.804C66.371 206.01 66.1004 206.112 65.7644 206.112ZM70.9173 214.82L67.7112 207.344H69.5312L72.2893 213.938H71.3933L74.2493 207.344H75.9293L72.7233 214.82H70.9173ZM80.3319 214.918C79.5013 214.918 78.7733 214.755 78.1479 214.428C77.5319 214.092 77.0513 213.635 76.7059 213.056C76.3699 212.478 76.2019 211.82 76.2019 211.082C76.2019 210.336 76.3653 209.678 76.6919 209.108C77.0279 208.53 77.4853 208.077 78.0639 207.75C78.6519 207.424 79.3193 207.26 80.0659 207.26C80.7939 207.26 81.4426 207.419 82.0119 207.736C82.5813 208.054 83.0293 208.502 83.3559 209.08C83.6826 209.659 83.8459 210.34 83.8459 211.124C83.8459 211.199 83.8413 211.283 83.8319 211.376C83.8319 211.47 83.8273 211.558 83.8179 211.642H77.5879V210.48H82.8939L82.2079 210.844C82.2173 210.415 82.1286 210.037 81.9419 209.71C81.7553 209.384 81.4986 209.127 81.1719 208.94C80.8546 208.754 80.4859 208.66 80.0659 208.66C79.6366 208.66 79.2586 208.754 78.9319 208.94C78.6146 209.127 78.3626 209.388 78.1759 209.724C77.9986 210.051 77.9099 210.438 77.9099 210.886V211.166C77.9099 211.614 78.0126 212.011 78.2179 212.356C78.4233 212.702 78.7126 212.968 79.0859 213.154C79.4593 213.341 79.8886 213.434 80.3739 213.434C80.7939 213.434 81.1719 213.369 81.5079 213.238C81.8439 213.108 82.1426 212.902 82.4039 212.622L83.3419 213.7C83.0059 214.092 82.5813 214.396 82.0679 214.61C81.5639 214.816 80.9853 214.918 80.3319 214.918Z" fill="white"/>
<path d="M40.356 144.911C38.4973 144.911 36.8313 144.435 35.358 143.483C33.9073 142.531 32.7513 141.148 31.89 139.335C31.0513 137.521 30.632 135.323 30.632 132.739C30.632 130.155 31.0513 127.956 31.89 126.143C32.7513 124.329 33.9073 122.947 35.358 121.995C36.8313 121.043 38.4973 120.567 40.356 120.567C42.192 120.567 43.8467 121.043 45.32 121.995C46.7933 122.947 47.9493 124.329 48.788 126.143C49.6267 127.956 50.046 130.155 50.046 132.739C50.046 135.323 49.6267 137.521 48.788 139.335C47.9493 141.148 46.7933 142.531 45.32 143.483C43.8467 144.435 42.192 144.911 40.356 144.911ZM40.356 141.885C41.6027 141.885 42.6907 141.545 43.62 140.865C44.572 140.185 45.3087 139.165 45.83 137.805C46.374 136.445 46.646 134.756 46.646 132.739C46.646 130.721 46.374 129.033 45.83 127.673C45.3087 126.313 44.572 125.293 43.62 124.613C42.6907 123.933 41.6027 123.593 40.356 123.593C39.1093 123.593 38.01 123.933 37.058 124.613C36.106 125.293 35.358 126.313 34.814 127.673C34.2927 129.033 34.032 130.721 34.032 132.739C34.032 134.756 34.2927 136.445 34.814 137.805C35.358 139.165 36.106 140.185 37.058 140.865C38.01 141.545 39.1093 141.885 40.356 141.885ZM55.1553 144.843C54.5206 144.843 53.9766 144.627 53.5233 144.197C53.07 143.743 52.8433 143.177 52.8433 142.497C52.8433 141.817 53.07 141.261 53.5233 140.831C53.9766 140.4 54.5206 140.185 55.1553 140.185C55.7673 140.185 56.2886 140.4 56.7193 140.831C57.1726 141.261 57.3993 141.817 57.3993 142.497C57.3993 143.177 57.1726 143.743 56.7193 144.197C56.2886 144.627 55.7673 144.843 55.1553 144.843ZM69.94 144.911C68.0813 144.911 66.4153 144.435 64.942 143.483C63.4913 142.531 62.3353 141.148 61.474 139.335C60.6353 137.521 60.216 135.323 60.216 132.739C60.216 130.155 60.6353 127.956 61.474 126.143C62.3353 124.329 63.4913 122.947 64.942 121.995C66.4153 121.043 68.0813 120.567 69.94 120.567C71.776 120.567 73.4307 121.043 74.904 121.995C76.3773 122.947 77.5333 124.329 78.372 126.143C79.2107 127.956 79.63 130.155 79.63 132.739C79.63 135.323 79.2107 137.521 78.372 139.335C77.5333 141.148 76.3773 142.531 74.904 143.483C73.4307 144.435 71.776 144.911 69.94 144.911ZM69.94 141.885C71.1867 141.885 72.2747 141.545 73.204 140.865C74.156 140.185 74.8927 139.165 75.414 137.805C75.958 136.445 76.23 134.756 76.23 132.739C76.23 130.721 75.958 129.033 75.414 127.673C74.8927 126.313 74.156 125.293 73.204 124.613C72.2747 123.933 71.1867 123.593 69.94 123.593C68.6933 123.593 67.594 123.933 66.642 124.613C65.69 125.293 64.942 126.313 64.398 127.673C63.8767 129.033 63.616 130.721 63.616 132.739C63.616 134.756 63.8767 136.445 64.398 137.805C64.942 139.165 65.69 140.185 66.642 140.865C67.594 141.545 68.6933 141.885 69.94 141.885Z" fill="white"/>
<path d="M40.356 317.911C38.4973 317.911 36.8313 317.435 35.358 316.483C33.9073 315.531 32.7513 314.148 31.89 312.335C31.0513 310.521 30.632 308.323 30.632 305.739C30.632 303.155 31.0513 300.956 31.89 299.143C32.7513 297.329 33.9073 295.947 35.358 294.995C36.8313 294.043 38.4973 293.567 40.356 293.567C42.192 293.567 43.8467 294.043 45.32 294.995C46.7933 295.947 47.9493 297.329 48.788 299.143C49.6267 300.956 50.046 303.155 50.046 305.739C50.046 308.323 49.6267 310.521 48.788 312.335C47.9493 314.148 46.7933 315.531 45.32 316.483C43.8467 317.435 42.192 317.911 40.356 317.911ZM40.356 314.885C41.6027 314.885 42.6907 314.545 43.62 313.865C44.572 313.185 45.3087 312.165 45.83 310.805C46.374 309.445 46.646 307.756 46.646 305.739C46.646 303.721 46.374 302.033 45.83 300.673C45.3087 299.313 44.572 298.293 43.62 297.613C42.6907 296.933 41.6027 296.593 40.356 296.593C39.1093 296.593 38.01 296.933 37.058 297.613C36.106 298.293 35.358 299.313 34.814 300.673C34.2927 302.033 34.032 303.721 34.032 305.739C34.032 307.756 34.2927 309.445 34.814 310.805C35.358 312.165 36.106 313.185 37.058 313.865C38.01 314.545 39.1093 314.885 40.356 314.885ZM55.1553 317.843C54.5206 317.843 53.9766 317.627 53.5233 317.197C53.07 316.743 52.8433 316.177 52.8433 315.497C52.8433 314.817 53.07 314.261 53.5233 313.831C53.9766 313.4 54.5206 313.185 55.1553 313.185C55.7673 313.185 56.2886 313.4 56.7193 313.831C57.1726 314.261 57.3993 314.817 57.3993 315.497C57.3993 316.177 57.1726 316.743 56.7193 317.197C56.2886 317.627 55.7673 317.843 55.1553 317.843ZM69.94 317.911C68.0813 317.911 66.4153 317.435 64.942 316.483C63.4913 315.531 62.3353 314.148 61.474 312.335C60.6353 310.521 60.216 308.323 60.216 305.739C60.216 303.155 60.6353 300.956 61.474 299.143C62.3353 297.329 63.4913 295.947 64.942 294.995C66.4153 294.043 68.0813 293.567 69.94 293.567C71.776 293.567 73.4307 294.043 74.904 294.995C76.3773 295.947 77.5333 297.329 78.372 299.143C79.2107 300.956 79.63 303.155 79.63 305.739C79.63 308.323 79.2107 310.521 78.372 312.335C77.5333 314.148 76.3773 315.531 74.904 316.483C73.4307 317.435 71.776 317.911 69.94 317.911ZM69.94 314.885C71.1867 314.885 72.2747 314.545 73.204 313.865C74.156 313.185 74.8927 312.165 75.414 310.805C75.958 309.445 76.23 307.756 76.23 305.739C76.23 303.721 75.958 302.033 75.414 300.673C74.8927 299.313 74.156 298.293 73.204 297.613C72.2747 296.933 71.1867 296.593 69.94 296.593C68.6933 296.593 67.594 296.933 66.642 297.613C65.69 298.293 64.942 299.313 64.398 300.673C63.8767 302.033 63.616 303.721 63.616 305.739C63.616 307.756 63.8767 309.445 64.398 310.805C64.942 312.165 65.69 313.185 66.642 313.865C67.594 314.545 68.6933 314.885 69.94 314.885Z" fill="white"/>
<path d="M385.833 312.559V297.519H386.857V312.559H385.833ZM386.233 310.767C385.38 310.767 384.564 310.639 383.785 310.383C383.006 310.116 382.393 309.775 381.945 309.359L382.537 308.111C382.964 308.484 383.508 308.793 384.169 309.039C384.83 309.284 385.518 309.407 386.233 309.407C386.884 309.407 387.412 309.332 387.817 309.183C388.222 309.033 388.521 308.831 388.713 308.575C388.905 308.308 389.001 308.009 389.001 307.679C389.001 307.295 388.873 306.985 388.617 306.751C388.372 306.516 388.046 306.329 387.641 306.191C387.246 306.041 386.809 305.913 386.329 305.807C385.849 305.7 385.364 305.577 384.873 305.439C384.393 305.289 383.95 305.103 383.545 304.879C383.15 304.655 382.83 304.356 382.585 303.983C382.34 303.599 382.217 303.108 382.217 302.511C382.217 301.935 382.366 301.407 382.665 300.927C382.974 300.436 383.444 300.047 384.073 299.759C384.713 299.46 385.524 299.311 386.505 299.311C387.156 299.311 387.801 299.396 388.441 299.567C389.081 299.737 389.636 299.983 390.105 300.303L389.577 301.583C389.097 301.263 388.59 301.033 388.057 300.895C387.524 300.745 387.006 300.671 386.505 300.671C385.876 300.671 385.358 300.751 384.953 300.911C384.548 301.071 384.249 301.284 384.057 301.551C383.876 301.817 383.785 302.116 383.785 302.447C383.785 302.841 383.908 303.156 384.153 303.391C384.409 303.625 384.734 303.812 385.129 303.951C385.534 304.089 385.977 304.217 386.457 304.335C386.937 304.441 387.417 304.564 387.897 304.703C388.388 304.841 388.83 305.023 389.225 305.247C389.63 305.471 389.956 305.769 390.201 306.143C390.446 306.516 390.569 306.996 390.569 307.583C390.569 308.148 390.414 308.676 390.105 309.167C389.796 309.647 389.316 310.036 388.665 310.335C388.025 310.623 387.214 310.767 386.233 310.767ZM396.571 310.767C395.696 310.767 394.912 310.543 394.219 310.095C393.536 309.647 392.992 308.996 392.587 308.143C392.192 307.289 391.995 306.255 391.995 305.039C391.995 303.823 392.192 302.788 392.587 301.935C392.992 301.081 393.536 300.431 394.219 299.983C394.912 299.535 395.696 299.311 396.571 299.311C397.435 299.311 398.213 299.535 398.907 299.983C399.6 300.431 400.144 301.081 400.539 301.935C400.933 302.788 401.131 303.823 401.131 305.039C401.131 306.255 400.933 307.289 400.539 308.143C400.144 308.996 399.6 309.647 398.907 310.095C398.213 310.543 397.435 310.767 396.571 310.767ZM396.571 309.343C397.157 309.343 397.669 309.183 398.107 308.863C398.555 308.543 398.901 308.063 399.147 307.423C399.403 306.783 399.531 305.988 399.531 305.039C399.531 304.089 399.403 303.295 399.147 302.655C398.901 302.015 398.555 301.535 398.107 301.215C397.669 300.895 397.157 300.735 396.571 300.735C395.984 300.735 395.467 300.895 395.019 301.215C394.571 301.535 394.219 302.015 393.963 302.655C393.717 303.295 393.595 304.089 393.595 305.039C393.595 305.988 393.717 306.783 393.963 307.423C394.219 308.063 394.571 308.543 395.019 308.863C395.467 309.183 395.984 309.343 396.571 309.343ZM403.535 310.735C403.236 310.735 402.98 310.633 402.767 310.431C402.554 310.217 402.447 309.951 402.447 309.631C402.447 309.311 402.554 309.049 402.767 308.847C402.98 308.644 403.236 308.543 403.535 308.543C403.823 308.543 404.068 308.644 404.271 308.847C404.484 309.049 404.591 309.311 404.591 309.631C404.591 309.951 404.484 310.217 404.271 310.431C404.068 310.633 403.823 310.735 403.535 310.735ZM410.492 310.767C409.618 310.767 408.834 310.543 408.14 310.095C407.458 309.647 406.914 308.996 406.508 308.143C406.114 307.289 405.916 306.255 405.916 305.039C405.916 303.823 406.114 302.788 406.508 301.935C406.914 301.081 407.458 300.431 408.14 299.983C408.834 299.535 409.618 299.311 410.492 299.311C411.356 299.311 412.135 299.535 412.828 299.983C413.522 300.431 414.066 301.081 414.46 301.935C414.855 302.788 415.052 303.823 415.052 305.039C415.052 306.255 414.855 307.289 414.46 308.143C414.066 308.996 413.522 309.647 412.828 310.095C412.135 310.543 411.356 310.767 410.492 310.767ZM410.492 309.343C411.079 309.343 411.591 309.183 412.028 308.863C412.476 308.543 412.823 308.063 413.068 307.423C413.324 306.783 413.452 305.988 413.452 305.039C413.452 304.089 413.324 303.295 413.068 302.655C412.823 302.015 412.476 301.535 412.028 301.215C411.591 300.895 411.079 300.735 410.492 300.735C409.906 300.735 409.388 300.895 408.94 301.215C408.492 301.535 408.14 302.015 407.884 302.655C407.639 303.295 407.516 304.089 407.516 305.039C407.516 305.988 407.639 306.783 407.884 307.423C408.14 308.063 408.492 308.543 408.94 308.863C409.388 309.183 409.906 309.343 410.492 309.343Z" fill="#989898"/>
<path d="M385.833 146.559V131.519H386.857V146.559H385.833ZM386.233 144.767C385.38 144.767 384.564 144.639 383.785 144.383C383.006 144.116 382.393 143.775 381.945 143.359L382.537 142.111C382.964 142.484 383.508 142.793 384.169 143.039C384.83 143.284 385.518 143.407 386.233 143.407C386.884 143.407 387.412 143.332 387.817 143.183C388.222 143.033 388.521 142.831 388.713 142.575C388.905 142.308 389.001 142.009 389.001 141.679C389.001 141.295 388.873 140.985 388.617 140.751C388.372 140.516 388.046 140.329 387.641 140.191C387.246 140.041 386.809 139.913 386.329 139.807C385.849 139.7 385.364 139.577 384.873 139.439C384.393 139.289 383.95 139.103 383.545 138.879C383.15 138.655 382.83 138.356 382.585 137.983C382.34 137.599 382.217 137.108 382.217 136.511C382.217 135.935 382.366 135.407 382.665 134.927C382.974 134.436 383.444 134.047 384.073 133.759C384.713 133.46 385.524 133.311 386.505 133.311C387.156 133.311 387.801 133.396 388.441 133.567C389.081 133.737 389.636 133.983 390.105 134.303L389.577 135.583C389.097 135.263 388.59 135.033 388.057 134.895C387.524 134.745 387.006 134.671 386.505 134.671C385.876 134.671 385.358 134.751 384.953 134.911C384.548 135.071 384.249 135.284 384.057 135.551C383.876 135.817 383.785 136.116 383.785 136.447C383.785 136.841 383.908 137.156 384.153 137.391C384.409 137.625 384.734 137.812 385.129 137.951C385.534 138.089 385.977 138.217 386.457 138.335C386.937 138.441 387.417 138.564 387.897 138.703C388.388 138.841 388.83 139.023 389.225 139.247C389.63 139.471 389.956 139.769 390.201 140.143C390.446 140.516 390.569 140.996 390.569 141.583C390.569 142.148 390.414 142.676 390.105 143.167C389.796 143.647 389.316 144.036 388.665 144.335C388.025 144.623 387.214 144.767 386.233 144.767ZM396.571 144.767C395.696 144.767 394.912 144.543 394.219 144.095C393.536 143.647 392.992 142.996 392.587 142.143C392.192 141.289 391.995 140.255 391.995 139.039C391.995 137.823 392.192 136.788 392.587 135.935C392.992 135.081 393.536 134.431 394.219 133.983C394.912 133.535 395.696 133.311 396.571 133.311C397.435 133.311 398.213 133.535 398.907 133.983C399.6 134.431 400.144 135.081 400.539 135.935C400.933 136.788 401.131 137.823 401.131 139.039C401.131 140.255 400.933 141.289 400.539 142.143C400.144 142.996 399.6 143.647 398.907 144.095C398.213 144.543 397.435 144.767 396.571 144.767ZM396.571 143.343C397.157 143.343 397.669 143.183 398.107 142.863C398.555 142.543 398.901 142.063 399.147 141.423C399.403 140.783 399.531 139.988 399.531 139.039C399.531 138.089 399.403 137.295 399.147 136.655C398.901 136.015 398.555 135.535 398.107 135.215C397.669 134.895 397.157 134.735 396.571 134.735C395.984 134.735 395.467 134.895 395.019 135.215C394.571 135.535 394.219 136.015 393.963 136.655C393.717 137.295 393.595 138.089 393.595 139.039C393.595 139.988 393.717 140.783 393.963 141.423C394.219 142.063 394.571 142.543 395.019 142.863C395.467 143.183 395.984 143.343 396.571 143.343ZM403.535 144.735C403.236 144.735 402.98 144.633 402.767 144.431C402.554 144.217 402.447 143.951 402.447 143.631C402.447 143.311 402.554 143.049 402.767 142.847C402.98 142.644 403.236 142.543 403.535 142.543C403.823 142.543 404.068 142.644 404.271 142.847C404.484 143.049 404.591 143.311 404.591 143.631C404.591 143.951 404.484 144.217 404.271 144.431C404.068 144.633 403.823 144.735 403.535 144.735ZM410.492 144.767C409.618 144.767 408.834 144.543 408.14 144.095C407.458 143.647 406.914 142.996 406.508 142.143C406.114 141.289 405.916 140.255 405.916 139.039C405.916 137.823 406.114 136.788 406.508 135.935C406.914 135.081 407.458 134.431 408.14 133.983C408.834 133.535 409.618 133.311 410.492 133.311C411.356 133.311 412.135 133.535 412.828 133.983C413.522 134.431 414.066 135.081 414.46 135.935C414.855 136.788 415.052 137.823 415.052 139.039C415.052 140.255 414.855 141.289 414.46 142.143C414.066 142.996 413.522 143.647 412.828 144.095C412.135 144.543 411.356 144.767 410.492 144.767ZM410.492 143.343C411.079 143.343 411.591 143.183 412.028 142.863C412.476 142.543 412.823 142.063 413.068 141.423C413.324 140.783 413.452 139.988 413.452 139.039C413.452 138.089 413.324 137.295 413.068 136.655C412.823 136.015 412.476 135.535 412.028 135.215C411.591 134.895 411.079 134.735 410.492 134.735C409.906 134.735 409.388 134.895 408.94 135.215C408.492 135.535 408.14 136.015 407.884 136.655C407.639 137.295 407.516 138.089 407.516 139.039C407.516 139.988 407.639 140.783 407.884 141.423C408.14 142.063 408.492 142.543 408.94 142.863C409.388 143.183 409.906 143.343 410.492 143.343Z" fill="#989898"/>
<path d="M-0.5 176.82L449.5 176.82" stroke="#8B8B8B"/>
<rect x="248.5" y="200.82" width="48" height="48" rx="24" transform="rotate(-180 248.5 200.82)" fill="#333333"/>
<path d="M215.761 171.903C218.494 167.17 224.546 165.548 229.279 168.281C233.028 170.445 234.825 174.692 234.052 178.717M234.052 178.717L237.514 174.857M234.052 178.717L229.794 175.016" stroke="white" stroke-width="2" stroke-linecap="round"/>
<path d="M233.239 181.738C230.506 186.472 224.454 188.093 219.721 185.361C215.972 183.196 214.175 178.949 214.948 174.925M214.948 174.925L211.486 178.784M214.948 174.925L219.206 178.626" stroke="white" stroke-width="2" stroke-linecap="round"/>
<rect x="30" y="358.82" width="390" height="48" rx="12" fill="#333333"/>
<path d="M159.655 390.97C158.683 390.97 157.777 390.814 156.937 390.502C156.109 390.178 155.389 389.722 154.777 389.134C154.165 388.546 153.685 387.856 153.337 387.064C153.001 386.272 152.833 385.402 152.833 384.454C152.833 383.506 153.001 382.636 153.337 381.844C153.685 381.052 154.165 380.362 154.777 379.774C155.401 379.186 156.127 378.736 156.955 378.424C157.783 378.1 158.689 377.938 159.673 377.938C160.765 377.938 161.749 378.13 162.625 378.514C163.513 378.886 164.257 379.438 164.857 380.17L162.985 381.898C162.553 381.406 162.073 381.04 161.545 380.8C161.017 380.548 160.441 380.422 159.817 380.422C159.229 380.422 158.689 380.518 158.197 380.71C157.705 380.902 157.279 381.178 156.919 381.538C156.559 381.898 156.277 382.324 156.073 382.816C155.881 383.308 155.785 383.854 155.785 384.454C155.785 385.054 155.881 385.6 156.073 386.092C156.277 386.584 156.559 387.01 156.919 387.37C157.279 387.73 157.705 388.006 158.197 388.198C158.689 388.39 159.229 388.486 159.817 388.486C160.441 388.486 161.017 388.366 161.545 388.126C162.073 387.874 162.553 387.496 162.985 386.992L164.857 388.72C164.257 389.452 163.513 390.01 162.625 390.394C161.749 390.778 160.759 390.97 159.655 390.97ZM170.902 390.898C169.87 390.898 168.952 390.682 168.148 390.25C167.356 389.818 166.726 389.23 166.258 388.486C165.802 387.73 165.574 386.872 165.574 385.912C165.574 384.94 165.802 384.082 166.258 383.338C166.726 382.582 167.356 381.994 168.148 381.574C168.952 381.142 169.87 380.926 170.902 380.926C171.922 380.926 172.834 381.142 173.638 381.574C174.442 381.994 175.072 382.576 175.528 383.32C175.984 384.064 176.212 384.928 176.212 385.912C176.212 386.872 175.984 387.73 175.528 388.486C175.072 389.23 174.442 389.818 173.638 390.25C172.834 390.682 171.922 390.898 170.902 390.898ZM170.902 388.594C171.37 388.594 171.79 388.486 172.162 388.27C172.534 388.054 172.828 387.748 173.044 387.352C173.26 386.944 173.368 386.464 173.368 385.912C173.368 385.348 173.26 384.868 173.044 384.472C172.828 384.076 172.534 383.77 172.162 383.554C171.79 383.338 171.37 383.23 170.902 383.23C170.434 383.23 170.014 383.338 169.642 383.554C169.27 383.77 168.97 384.076 168.742 384.472C168.526 384.868 168.418 385.348 168.418 385.912C168.418 386.464 168.526 386.944 168.742 387.352C168.97 387.748 169.27 388.054 169.642 388.27C170.014 388.486 170.434 388.594 170.902 388.594ZM183.975 380.926C184.743 380.926 185.427 381.082 186.027 381.394C186.639 381.694 187.119 382.162 187.467 382.798C187.815 383.422 187.989 384.226 187.989 385.21V390.754H185.181V385.642C185.181 384.862 185.007 384.286 184.659 383.914C184.323 383.542 183.843 383.356 183.219 383.356C182.775 383.356 182.373 383.452 182.013 383.644C181.665 383.824 181.389 384.106 181.185 384.49C180.993 384.874 180.897 385.366 180.897 385.966V390.754H178.089V381.07H180.771V383.752L180.267 382.942C180.615 382.294 181.113 381.796 181.761 381.448C182.409 381.1 183.147 380.926 183.975 380.926ZM196.42 380.926C197.188 380.926 197.872 381.082 198.472 381.394C199.084 381.694 199.564 382.162 199.912 382.798C200.26 383.422 200.434 384.226 200.434 385.21V390.754H197.626V385.642C197.626 384.862 197.452 384.286 197.104 383.914C196.768 383.542 196.288 383.356 195.664 383.356C195.22 383.356 194.818 383.452 194.458 383.644C194.11 383.824 193.834 384.106 193.63 384.49C193.438 384.874 193.342 385.366 193.342 385.966V390.754H190.534V381.07H193.216V383.752L192.712 382.942C193.06 382.294 193.558 381.796 194.206 381.448C194.854 381.1 195.592 380.926 196.42 380.926ZM207.856 390.898C206.752 390.898 205.78 390.682 204.94 390.25C204.112 389.818 203.47 389.23 203.014 388.486C202.558 387.73 202.33 386.872 202.33 385.912C202.33 384.94 202.552 384.082 202.996 383.338C203.452 382.582 204.07 381.994 204.85 381.574C205.63 381.142 206.512 380.926 207.496 380.926C208.444 380.926 209.296 381.13 210.052 381.538C210.82 381.934 211.426 382.51 211.87 383.266C212.314 384.01 212.536 384.904 212.536 385.948C212.536 386.056 212.53 386.182 212.518 386.326C212.506 386.458 212.494 386.584 212.482 386.704H204.616V385.066H211.006L209.926 385.552C209.926 385.048 209.824 384.61 209.62 384.238C209.416 383.866 209.134 383.578 208.774 383.374C208.414 383.158 207.994 383.05 207.514 383.05C207.034 383.05 206.608 383.158 206.236 383.374C205.876 383.578 205.594 383.872 205.39 384.256C205.186 384.628 205.084 385.072 205.084 385.588V386.02C205.084 386.548 205.198 387.016 205.426 387.424C205.666 387.82 205.996 388.126 206.416 388.342C206.848 388.546 207.352 388.648 207.928 388.648C208.444 388.648 208.894 388.57 209.278 388.414C209.674 388.258 210.034 388.024 210.358 387.712L211.852 389.332C211.408 389.836 210.85 390.226 210.178 390.502C209.506 390.766 208.732 390.898 207.856 390.898ZM219.085 390.898C218.041 390.898 217.111 390.688 216.295 390.268C215.479 389.836 214.837 389.242 214.369 388.486C213.913 387.73 213.685 386.872 213.685 385.912C213.685 384.94 213.913 384.082 214.369 383.338C214.837 382.582 215.479 381.994 216.295 381.574C217.111 381.142 218.041 380.926 219.085 380.926C220.105 380.926 220.993 381.142 221.749 381.574C222.505 381.994 223.063 382.6 223.423 383.392L221.245 384.562C220.993 384.106 220.675 383.77 220.291 383.554C219.919 383.338 219.511 383.23 219.067 383.23C218.587 383.23 218.155 383.338 217.771 383.554C217.387 383.77 217.081 384.076 216.853 384.472C216.637 384.868 216.529 385.348 216.529 385.912C216.529 386.476 216.637 386.956 216.853 387.352C217.081 387.748 217.387 388.054 217.771 388.27C218.155 388.486 218.587 388.594 219.067 388.594C219.511 388.594 219.919 388.492 220.291 388.288C220.675 388.072 220.993 387.73 221.245 387.262L223.423 388.45C223.063 389.23 222.505 389.836 221.749 390.268C220.993 390.688 220.105 390.898 219.085 390.898ZM229.14 390.898C228 390.898 227.112 390.61 226.476 390.034C225.84 389.446 225.522 388.576 225.522 387.424V378.928H228.33V387.388C228.33 387.796 228.438 388.114 228.654 388.342C228.87 388.558 229.164 388.666 229.536 388.666C229.98 388.666 230.358 388.546 230.67 388.306L231.426 390.286C231.138 390.49 230.79 390.646 230.382 390.754C229.986 390.85 229.572 390.898 229.14 390.898ZM224.028 383.446V381.286H230.742V383.446H224.028ZM241.322 390.754L237.2 378.154H240.224L243.806 389.314H242.294L246.038 378.154H248.738L252.338 389.314H250.88L254.552 378.154H257.342L253.22 390.754H250.088L246.902 380.962H247.73L244.454 390.754H241.322ZM263.992 390.754V388.864L263.812 388.45V385.066C263.812 384.466 263.626 383.998 263.254 383.662C262.894 383.326 262.336 383.158 261.58 383.158C261.064 383.158 260.554 383.242 260.05 383.41C259.558 383.566 259.138 383.782 258.79 384.058L257.782 382.096C258.31 381.724 258.946 381.436 259.69 381.232C260.434 381.028 261.19 380.926 261.958 380.926C263.434 380.926 264.58 381.274 265.396 381.97C266.212 382.666 266.62 383.752 266.62 385.228V390.754H263.992ZM261.04 390.898C260.284 390.898 259.636 390.772 259.096 390.52C258.556 390.256 258.142 389.902 257.854 389.458C257.566 389.014 257.422 388.516 257.422 387.964C257.422 387.388 257.56 386.884 257.836 386.452C258.124 386.02 258.574 385.684 259.186 385.444C259.798 385.192 260.596 385.066 261.58 385.066H264.154V386.704H261.886C261.226 386.704 260.77 386.812 260.518 387.028C260.278 387.244 260.158 387.514 260.158 387.838C260.158 388.198 260.296 388.486 260.572 388.702C260.86 388.906 261.25 389.008 261.742 389.008C262.21 389.008 262.63 388.9 263.002 388.684C263.374 388.456 263.644 388.126 263.812 387.694L264.244 388.99C264.04 389.614 263.668 390.088 263.128 390.412C262.588 390.736 261.892 390.898 261.04 390.898ZM269.161 390.754V377.398H271.969V390.754H269.161ZM274.575 390.754V377.398H277.383V390.754H274.575ZM284.795 390.898C283.691 390.898 282.719 390.682 281.879 390.25C281.051 389.818 280.409 389.23 279.953 388.486C279.497 387.73 279.269 386.872 279.269 385.912C279.269 384.94 279.491 384.082 279.935 383.338C280.391 382.582 281.009 381.994 281.789 381.574C282.569 381.142 283.451 380.926 284.435 380.926C285.383 380.926 286.235 381.13 286.991 381.538C287.759 381.934 288.365 382.51 288.809 383.266C289.253 384.01 289.475 384.904 289.475 385.948C289.475 386.056 289.469 386.182 289.457 386.326C289.445 386.458 289.433 386.584 289.421 386.704H281.555V385.066H287.945L286.865 385.552C286.865 385.048 286.763 384.61 286.559 384.238C286.355 383.866 286.073 383.578 285.713 383.374C285.353 383.158 284.933 383.05 284.453 383.05C283.973 383.05 283.547 383.158 283.175 383.374C282.815 383.578 282.533 383.872 282.329 384.256C282.125 384.628 282.023 385.072 282.023 385.588V386.02C282.023 386.548 282.137 387.016 282.365 387.424C282.605 387.82 282.935 388.126 283.355 388.342C283.787 388.546 284.291 388.648 284.867 388.648C285.383 388.648 285.833 388.57 286.217 388.414C286.613 388.258 286.973 388.024 287.297 387.712L288.791 389.332C288.347 389.836 287.789 390.226 287.117 390.502C286.445 390.766 285.671 390.898 284.795 390.898ZM295.305 390.898C294.165 390.898 293.277 390.61 292.641 390.034C292.005 389.446 291.687 388.576 291.687 387.424V378.928H294.495V387.388C294.495 387.796 294.603 388.114 294.819 388.342C295.035 388.558 295.329 388.666 295.701 388.666C296.145 388.666 296.523 388.546 296.835 388.306L297.591 390.286C297.303 390.49 296.955 390.646 296.547 390.754C296.151 390.85 295.737 390.898 295.305 390.898ZM290.193 383.446V381.286H296.907V383.446H290.193Z" fill="white"/>
</g>
<rect x="0.5" y="1.17969" width="449" height="489.909" rx="19.5" stroke="#8B8B8B"/>
<path d="M0 112H450V492H0V112Z" fill="url(#paint0_linear_4848_10709)"/>
<defs>
<linearGradient id="paint0_linear_4848_10709" x1="225" y1="112" x2="225" y2="492" gradientUnits="userSpaceOnUse">
<stop stop-color="#333333" stop-opacity="0"/>
<stop offset="1" stop-color="#333333"/>
</linearGradient>
<clipPath id="clip0_4848_10709">
<rect y="0.679688" width="450" height="490.909" rx="20" fill="white"/>
</clipPath>
</defs>
</svg>
