<svg width="260" height="191" viewBox="0 0 260 191" fill="none" xmlns="http://www.w3.org/2000/svg">
<path d="M69.1655 59.774C69.1655 59.774 24.3785 72.7604 14.6348 102.385C1.26565 143.032 42.0434 144.929 42.0434 144.929M42.0434 144.929L33.4857 131.084M42.0434 144.929L28.2574 150.253" stroke="black" stroke-dasharray="2 2"/>
<path d="M69.8812 121.957C52.0928 111.618 43.4432 98.0139 43.9324 84.4995L43.9325 84.4995L43.9325 84.4958L43.9325 70.2619L70.1154 49.077C99.7076 32.0014 144.873 29.4009 179.208 41.2761L179.338 41.321L179.479 41.2886L196.438 37.382L196.438 48.8891L69.8812 121.957Z" fill="#4E9D00" stroke="black" stroke-width="0.5"/>
<path d="M70.0974 37.1889C104.938 17.0737 161.381 17.0321 196.311 37.0641L69.8812 110.058C35.1847 89.8916 35.2568 57.3041 70.0974 37.1889Z" fill="#70E000" stroke="black" stroke-width="0.5"/>
<mask id="mask0_5637_408" style="mask-type:alpha" maskUnits="userSpaceOnUse" x="43" y="21" width="154" height="90">
<path d="M70.0974 37.1889C104.938 17.0737 161.381 17.0321 196.311 37.0641L69.8812 110.058C35.1847 89.8916 35.2568 57.3041 70.0974 37.1889Z" fill="white" stroke="black" stroke-width="0.5"/>
</mask>
<g mask="url(#mask0_5637_408)">
<path fill-rule="evenodd" clip-rule="evenodd" d="M95.2832 54.2132L167.862 46.4562C169.253 46.3075 170.143 47.2848 169.143 47.8624L138.363 65.6329L155.183 75.3437C156.003 75.8174 155.567 76.628 154.427 76.7499L81.8478 84.5069C80.4565 84.6555 79.5663 83.6783 80.5667 83.1007L111.346 65.3301L94.5267 55.6194C93.7063 55.1457 94.1424 54.3351 95.2832 54.2132Z" fill="black"/>
</g>
<path d="M155.967 152.289C155.967 152.289 211.432 151.156 231.75 120.114C259.629 77.5223 213.354 62.7855 213.354 62.7855M213.354 62.7855L218.925 81.3308M213.354 62.7855L230.835 60.9131" stroke="#333333" stroke-dasharray="2 2"/>
<path d="M185.622 81.0442L211.641 104.545L211.641 116.326L211.641 116.326L211.641 116.33C212.126 129.894 203.405 143.548 185.476 153.899C150.593 174.039 94.0551 174.056 59.1351 153.951L59.135 142.415L185.622 81.0442Z" fill="#D9D9D9" stroke="black" stroke-width="0.5"/>
<path d="M185.476 142C150.635 162.115 94.1922 162.156 59.2622 142.124L185.692 69.1301C220.389 89.2969 220.316 121.884 185.476 142Z" fill="white" stroke="black" stroke-width="0.5"/>
<mask id="mask1_5637_408" style="mask-type:alpha" maskUnits="userSpaceOnUse" x="58" y="68" width="154" height="90">
<path d="M185.476 142C150.635 162.115 94.1922 162.156 59.2622 142.124L185.692 69.1301C220.389 89.2969 220.316 121.884 185.476 142Z" fill="white" stroke="black" stroke-width="0.5"/>
</mask>
<g mask="url(#mask1_5637_408)">
<path d="M144.072 115.921L143.266 115.765L143.714 116.182C145.905 118.221 147.043 120.216 146.646 122.173C146.25 124.126 144.317 126.075 140.247 128.018L140.442 128.154L140.247 128.018C135.209 130.421 130.35 130.956 125.427 130.221C120.475 129.481 115.429 127.452 110.064 124.684L109.849 124.573L109.644 124.691L100.058 130.221L94.4388 126.977L103.891 121.522L104.108 121.397L103.891 121.272C102.322 120.368 100.732 119.434 99.1036 118.455L98.8872 118.325L98.6663 118.453L89.1723 123.936L83.5612 120.695L93.1549 115.15L93.3695 115.026L93.1564 114.901C92.6751 114.619 92.1912 114.334 91.7038 114.046C90.7727 113.497 89.8289 112.941 88.8663 112.384L88.866 112.384L81.2474 107.985L88.9925 104.814L88.9994 104.818C89.1201 104.89 89.2926 104.992 89.4995 105.115C89.9132 105.36 90.4649 105.686 91.0163 106.009C91.5675 106.332 92.1194 106.653 92.5333 106.889C92.7398 107.006 92.9142 107.104 93.0376 107.169C93.0982 107.202 93.1518 107.229 93.1926 107.248C93.2071 107.255 93.2323 107.266 93.2611 107.276C94.1614 107.782 95.0724 107.937 95.8909 107.903C96.7078 107.868 97.3926 107.647 97.8479 107.45L97.8654 107.442L97.8808 107.433L113.411 98.4668L124.466 92.0823L124.486 92.0704L124.503 92.0565C125.01 91.6243 125.433 91.0653 125.392 90.4197C125.351 89.7788 124.856 89.0785 123.625 88.3559C123.608 88.3384 123.589 88.3237 123.577 88.3154C123.544 88.2904 123.496 88.2584 123.44 88.223C123.326 88.1508 123.158 88.0496 122.954 87.9303C122.547 87.6912 121.991 87.3733 121.431 87.0562C120.871 86.739 120.307 86.422 119.882 86.1844C119.686 86.0744 119.519 85.9814 119.397 85.9132L125.268 82.5226L133.18 87.0943L133.151 87.1109L133.367 87.2359C134.627 87.9629 135.941 88.6928 137.277 89.4342L137.493 89.5543L137.706 89.4318L147.193 83.9554L152.807 87.197L143.513 92.5639L143.293 92.6914L143.518 92.8163C145.166 93.7312 146.817 94.6496 148.408 95.5677L148.624 95.6926L148.84 95.5677L158.076 90.2376L163.695 93.4821L154.208 98.9613L154.009 99.0761L154.19 99.2002C157.752 101.641 160.463 104.073 161.511 106.432C162.554 108.78 161.954 111.063 158.867 113.236L158.866 113.236C156.595 114.839 154.177 115.755 151.7 116.149C149.221 116.544 146.654 116.422 144.072 115.921ZM137.146 96.6569L136.93 96.5319L136.713 96.6569L124.919 103.467L124.702 103.592L124.919 103.717C125.199 103.878 125.525 104.073 125.892 104.292C127.739 105.393 130.611 107.106 133.767 108.307C135.661 109.028 137.686 109.576 139.682 109.692C141.694 109.809 143.66 109.486 145.397 108.483L145.397 108.483C147.202 107.441 147.801 106.286 147.612 105.114C147.425 103.952 146.465 102.787 145.199 101.703C143.179 99.9734 140.319 98.4059 138.393 97.3502C137.909 97.085 137.484 96.852 137.146 96.6569ZM105.957 114.411L105.74 114.536L105.957 114.661C106.291 114.854 106.68 115.085 107.117 115.344C109.339 116.663 112.792 118.712 116.527 120.18C118.763 121.059 121.128 121.741 123.419 121.929C125.728 122.119 127.955 121.806 129.864 120.703C131.849 119.556 132.434 118.249 132.12 116.906C131.808 115.573 130.615 114.213 129.073 112.933C126.605 110.886 123.184 109.002 120.878 107.731C120.305 107.415 119.801 107.137 119.397 106.904L119.181 106.78L118.964 106.904L105.957 114.411Z" fill="black" stroke="black" stroke-width="0.5"/>
</g>
</svg>
