<svg width="62" height="62" viewBox="0 0 62 62" fill="none" xmlns="http://www.w3.org/2000/svg">
<path d="M18.4063 20.5371C17.5344 21.2152 17.4375 22.3777 18.1157 23.2496C18.7938 24.1215 19.9563 24.2184 20.8282 23.5402L29.0625 16.8743V40.2027C29.0625 41.2684 29.9344 42.1402 31 42.1402C32.0657 42.1402 32.9375 41.2684 32.9375 40.2027V16.8894L41.0751 23.5402C41.4625 23.8309 41.9469 23.9277 42.3344 23.9277C42.9157 23.9277 43.4969 23.6371 43.8844 23.1527C44.5625 22.3777 44.4657 21.1184 43.5938 20.4402L32.5703 11.6588C32.2176 11.1703 31.6451 10.8496 31 10.8496C30.4603 10.8496 29.971 11.0738 29.6187 11.433L18.4063 20.5371Z" fill="#70E000"/>
<path d="M58.6945 15.7906C57.6289 9.39683 52.5914 4.35933 46.1977 3.29371C46.1977 3.29371 40.5789 2.42183 37.8664 2.22808C36.8008 2.13121 35.832 3.00308 35.832 3.97183C35.7352 5.13433 36.5102 6.00621 37.5758 6.10308C40.1914 6.29683 45.5195 7.16871 45.5195 7.16871C50.3633 7.94371 54.0445 11.7218 54.9164 16.4687C54.9164 16.4687 56.9237 32.5457 54.8195 45.2406C53.9991 50.19 50.0727 53.9593 45.132 54.6375C35.6523 56.454 26.1582 56.3802 16.6508 54.6375C11.7102 53.9593 7.64249 50.2114 6.96328 45.2406C4.83917 29.6964 7.06015 16.4687 7.06015 16.4687C7.93203 11.7218 11.6133 7.94371 16.457 7.16871C16.457 7.16871 21.882 6.39371 24.4977 6.19996C25.5633 6.10308 26.3383 5.13433 26.2414 4.06871C26.1445 3.00308 25.1758 2.13121 24.1102 2.22808C21.3008 2.42183 15.7789 3.29371 15.7789 3.29371C9.38515 4.45621 4.34765 9.39683 3.28203 15.7906C3.28203 15.7906 0.442017 26.581 3.18515 45.9187C4.32634 53.2884 9.5789 57.5437 16.1664 58.5125C26.0098 60.4346 35.9244 60.4038 45.8102 58.5125C52.3977 57.5437 57.6566 52.5111 58.7914 45.9187C61.5872 26.9329 58.6945 15.7906 58.6945 15.7906Z" fill="#70E000"/>
</svg>
