<svg width="200" height="200" viewBox="0 0 200 200" fill="none" xmlns="http://www.w3.org/2000/svg">
<g clip-path="url(#clip0_3782_19581)">
<rect x="0.49939" y="0.49939" width="199.501" height="199.501" rx="99.7503" fill="#071927"/>
<path d="M49.2697 76.1064C48.4009 76.1064 47.837 77.0221 48.228 77.7979L74.2773 129.481C74.7083 130.337 75.9295 130.337 76.3605 129.481L102.41 77.7979C102.801 77.0221 102.237 76.1064 101.368 76.1064H89.6449C89.1911 76.1064 88.7786 76.3696 88.5872 76.781L76.5992 102.555C76.1809 103.455 74.9022 103.455 74.4839 102.555L62.4959 76.781C62.3045 76.3696 61.892 76.1064 61.4382 76.1064H49.2697Z" fill="url(#paint0_linear_3782_19581)"/>
<path d="M126.865 77.2134C112.254 77.2134 101.482 89.0302 101.482 103.962C101.482 118.895 113.32 130.711 128.679 130.711C138.037 130.711 144.911 126.459 147.644 124.443C148.417 123.873 148.552 122.816 148.022 122.016L143.88 115.757C143.193 114.719 141.688 114.547 140.663 115.252C138.454 116.774 134.356 118.895 128.679 118.895C121.976 118.895 117.22 114.822 115.29 110.847C114.748 109.732 115.661 108.582 116.901 108.582H150.404C151.439 108.582 152.295 107.773 152.323 106.738C152.356 105.498 152.356 104.402 152.356 103.748C152.356 88.0634 140.73 77.2134 126.865 77.2134ZM116.636 99.2357C115.487 99.2357 114.578 98.2381 114.914 97.1391C116.143 93.1118 119.887 88.9228 126.865 88.9228C134.055 88.9228 138.061 93.2252 139.214 97.2241C139.522 98.2941 138.625 99.2357 137.511 99.2357H116.636Z" fill="url(#paint1_linear_3782_19581)"/>
<path fill-rule="evenodd" clip-rule="evenodd" d="M66.02 102.194L77.7077 85.1959C77.9564 84.8343 78.5229 85.0103 78.5229 85.4491L78.5229 97.6057L85.1606 97.6057C85.5205 97.6057 85.7328 98.0093 85.5289 98.3058L73.8412 115.304C73.5926 115.665 73.026 115.489 73.026 115.05L73.026 102.894L66.3883 102.894C66.0284 102.894 65.8161 102.49 66.02 102.194Z" fill="#071927"/>
<rect x="15.1125" y="15.1125" width="170.274" height="170.274" rx="85.1372" stroke="url(#paint2_linear_3782_19581)" stroke-width="10.1656"/>
</g>
<defs>
<linearGradient id="paint0_linear_3782_19581" x1="13.9287" y1="200.115" x2="91.8575" y2="0.555641" gradientUnits="userSpaceOnUse">
<stop stop-color="#FF5400"/>
<stop offset="0.786574" stop-color="#FFB600"/>
</linearGradient>
<linearGradient id="paint1_linear_3782_19581" x1="69.5438" y1="200.032" x2="150.024" y2="5.55257" gradientUnits="userSpaceOnUse">
<stop stop-color="#FF5400"/>
<stop offset="0.786574" stop-color="#FFB600"/>
</linearGradient>
<linearGradient id="paint2_linear_3782_19581" x1="50.5114" y1="162.981" x2="149.988" y2="37.5071" gradientUnits="userSpaceOnUse">
<stop stop-color="#FF5400"/>
<stop offset="1" stop-color="#FFB600"/>
</linearGradient>
<clipPath id="clip0_3782_19581">
<rect width="200" height="200" fill="white"/>
</clipPath>
</defs>
</svg>
