<svg width="123" height="33" viewBox="0 0 123 33" fill="none" xmlns="http://www.w3.org/2000/svg">
<g clip-path="url(#clip0_12602_4050)">
<path fill-rule="evenodd" clip-rule="evenodd" d="M0.0655654 15.253L8.42026 3.10244C8.59798 2.84393 9.00297 2.96973 9.00297 3.28346V11.9733H13.7478C14.005 11.9733 14.1568 12.2617 14.0111 12.4737L5.65634 24.6243C5.47858 24.8828 5.0736 24.757 5.0736 24.4433L5.07361 15.7535H0.328817C0.0715695 15.7535 -0.0801872 15.4649 0.0655654 15.253Z" fill="#76EC00"/>
<path d="M17.8067 8.22314C17.5444 8.22314 17.3742 8.49958 17.4922 8.73378L25.3562 24.3364C25.4864 24.5946 25.855 24.5946 25.9851 24.3364L33.8491 8.73378C33.9672 8.49958 33.7969 8.22314 33.5346 8.22314H29.9956C29.8585 8.22314 29.734 8.30257 29.6763 8.42678L26.0572 16.2077C25.9309 16.4793 25.5449 16.4793 25.4186 16.2077L21.7996 8.42678C21.7418 8.30257 21.6173 8.22314 21.4803 8.22314H17.8067Z" fill="#181816"/>
<path d="M42.0977 7.82031C37.3589 7.82031 33.5947 11.4837 33.5947 16.1889C33.5947 20.8605 37.3589 24.5575 42.0977 24.5575C46.8366 24.5575 50.6007 20.8605 50.6007 16.1889C50.6007 11.4837 46.8366 7.82031 42.0977 7.82031ZM42.0977 20.7933C39.3754 20.7933 37.6949 18.6759 37.6949 16.1889C37.6949 13.7018 39.3754 11.5845 42.0977 11.5845C44.82 11.5845 46.5005 13.7018 46.5005 16.1889C46.5005 18.6759 44.82 20.7933 42.0977 20.7933Z" fill="#181816"/>
<path d="M53.083 23.8021C53.083 23.9966 53.2407 24.1542 53.4352 24.1542H56.7639C56.9584 24.1542 57.116 23.9966 57.116 23.8021V1.25986C57.116 1.06537 56.9584 0.907715 56.7639 0.907715H53.4352C53.2407 0.907715 53.083 1.06537 53.083 1.25986V23.8021Z" fill="#181816"/>
<path d="M59.3994 11.5007C59.3994 11.6952 59.5571 11.8529 59.7516 11.8529H62.1729C62.3674 11.8529 62.525 12.0106 62.525 12.205V18.9107C62.525 22.3052 64.8777 24.557 67.9696 24.557C69.7331 24.557 71.0302 23.9544 71.5504 23.6658C71.699 23.5833 71.7505 23.4025 71.6808 23.2474L70.5013 20.6202C70.4093 20.4152 70.1477 20.343 69.9478 20.4457C69.6362 20.6058 69.161 20.7928 68.6418 20.7928C67.5663 20.7928 66.558 20.2214 66.558 18.2722V12.205C66.558 12.0106 66.7157 11.8529 66.9102 11.8529H71.012C71.2065 11.8529 71.3641 11.6952 71.3641 11.5007V8.57526C71.3641 8.38077 71.2065 8.22312 71.012 8.22312H66.9102C66.7157 8.22312 66.558 8.06546 66.558 7.87098V7.01665C66.558 6.91226 66.5118 6.81326 66.4316 6.74635L63.1028 3.9668C62.8735 3.77533 62.525 3.93837 62.525 4.23709V7.87098C62.525 8.06546 62.3674 8.22312 62.1729 8.22312H59.7516C59.5571 8.22312 59.3994 8.38077 59.3994 8.57526V11.5007Z" fill="#181816"/>
<path d="M80.2643 21.4645C79.0733 21.4645 77.4955 21.1078 77.4955 19.4863C77.4955 17.8322 79.1373 17.3134 80.3291 17.3134C81.8362 17.3134 82.9765 17.7172 83.4963 17.9431C83.6914 18.0278 83.8061 18.2233 83.8061 18.436V19.4984C83.8061 19.6172 83.771 19.7326 83.6953 19.8243C83.3472 20.2481 82.1788 21.4645 80.2643 21.4645ZM80.7154 8.55713C78.3263 8.55713 76.136 9.34054 75.1886 9.73297C74.9062 9.85004 74.7799 10.1705 74.8913 10.4552L75.7185 12.5703C75.8434 12.8896 76.2145 13.0384 76.5328 12.911C77.3681 12.5767 78.9765 12.0272 80.5218 12.0272C81.8744 12.0272 83.8061 12.6758 83.8061 14.6865C83.8061 15.0455 83.3698 15.2863 83.042 15.1399C82.3451 14.8288 81.1775 14.4595 79.5564 14.4595C76.2398 14.4595 73.5674 16.5999 73.5674 19.5511C73.5674 22.8266 76.2076 24.7076 79.0733 24.7076C80.916 24.7076 82.2241 24.0396 83.0428 23.4183C83.4011 23.1463 84.0957 23.4125 84.0957 23.8623C84.0957 24.1142 84.3002 24.3184 84.5523 24.3184H87.0818C87.4065 24.3184 87.6703 24.0549 87.6703 23.7299V14.2973C87.6703 10.7948 85.0939 8.55713 80.7154 8.55713Z" fill="#181816"/>
<path d="M100.116 23.8457C100.586 23.5462 101.37 23.8591 101.37 24.4164V24.5778C101.37 26.8804 100.017 28.5344 97.0234 28.5344C94.959 28.5344 93.2935 27.4072 92.4904 26.7414C92.207 26.5063 91.7668 26.5388 91.5491 26.8359L90.0747 28.8445C89.9038 29.077 89.928 29.3962 90.1481 29.5824C91.0543 30.349 93.5674 32.1666 97.0234 32.1666C101.305 32.1666 105.233 29.7992 105.233 24.4481V9.5348C105.233 9.20973 104.97 8.94631 104.645 8.94631H102.091C101.853 8.94631 101.66 9.1394 101.66 9.37769C101.66 9.81679 100.941 10.0728 100.6 9.79533C99.8488 9.18288 98.6835 8.55713 97.0554 8.55713C93.0952 8.55713 89.6182 11.8975 89.6182 16.6323C89.6182 21.3672 93.0952 24.7076 97.0554 24.7076C98.3737 24.7076 99.3852 24.3111 100.116 23.8457ZM101.37 18.7895C101.37 18.885 101.347 18.9782 101.297 19.0592C101.01 19.5158 99.8753 21.0753 97.7313 21.0753C95.1237 21.0753 93.5456 19.162 93.5456 16.6323C93.5456 14.1028 95.1237 12.1894 97.7313 12.1894C99.9066 12.1894 101.023 13.7545 101.3 14.208C101.349 14.2875 101.37 14.3784 101.37 14.4715V18.7895Z" fill="#181816"/>
<path d="M114.851 8.55713C110.44 8.55713 107.188 12.1245 107.188 16.6323C107.188 21.1402 110.762 24.7076 115.399 24.7076C118.224 24.7076 120.299 23.4238 121.124 22.8153C121.357 22.6432 121.399 22.3242 121.239 22.0825L119.988 20.1929C119.781 19.8797 119.326 19.8276 119.017 20.0406C118.35 20.4999 117.112 21.1402 115.399 21.1402C113.375 21.1402 111.94 19.9106 111.357 18.7107C111.193 18.374 111.469 18.0269 111.843 18.0269H121.958C122.27 18.0269 122.528 17.7827 122.537 17.4703C122.547 17.0961 122.547 16.765 122.547 16.5675C122.547 11.8326 119.037 8.55713 114.851 8.55713ZM111.763 15.2054C111.416 15.2054 111.142 14.9042 111.243 14.5725C111.615 13.3567 112.745 12.0921 114.851 12.0921C117.022 12.0921 118.232 13.3909 118.58 14.5981C118.673 14.9212 118.402 15.2054 118.065 15.2054H111.763Z" fill="#181816"/>
</g>
<defs>
<clipPath id="clip0_12602_4050">
<rect width="122.537" height="32" fill="white" transform="translate(0.00830078 0.907227)"/>
</clipPath>
</defs>
</svg>
