<?xml version="1.0" encoding="UTF-8"?>
<!DOCTYPE svg PUBLIC "-//W3C//DTD SVG 1.1//EN" "http://www.w3.org/Graphics/SVG/1.1/DTD/svg11.dtd">
<svg xmlns="http://www.w3.org/2000/svg" version="1.1" width="192px" height="192px" style="shape-rendering:geometricPrecision; text-rendering:geometricPrecision; image-rendering:optimizeQuality; fill-rule:evenodd; clip-rule:evenodd" xmlns:xlink="http://www.w3.org/1999/xlink">
<g><path style="opacity:0.996" fill="#f1f3f6" d="M 81.5,-0.5 C 90.8333,-0.5 100.167,-0.5 109.5,-0.5C 154.502,9.16869 181.835,36.502 191.5,81.5C 191.5,90.8333 191.5,100.167 191.5,109.5C 181.831,154.502 154.498,181.835 109.5,191.5C 100.167,191.5 90.8333,191.5 81.5,191.5C 36.498,181.831 9.16465,154.498 -0.5,109.5C -0.5,100.167 -0.5,90.8333 -0.5,81.5C 9.16869,36.498 36.502,9.16465 81.5,-0.5 Z"/></g>
<g><path style="opacity:1" fill="#818283" d="M 98.5,28.5 C 97.5036,44.6581 97.1702,60.9915 97.5,77.5C 83.0231,83.5732 68.6898,89.9065 54.5,96.5C 68.3931,73.0559 82.5597,49.7225 97,26.5C 97.7172,27.0442 98.2172,27.7109 98.5,28.5 Z"/></g>
<g><path style="opacity:1" fill="#303131" d="M 98.5,28.5 C 112.194,51.184 125.86,73.8506 139.5,96.5C 125.526,90.181 111.526,83.8477 97.5,77.5C 97.1702,60.9915 97.5036,44.6581 98.5,28.5 Z"/></g>
<g><path style="opacity:1" fill="#353636" d="M 97.5,77.5 C 97.1707,92.0097 97.5041,106.343 98.5,120.5C 97.7494,121.573 96.7494,121.74 95.5,121C 81.77,112.807 68.1033,104.641 54.5,96.5C 68.6898,89.9065 83.0231,83.5732 97.5,77.5 Z"/></g>
<g><path style="opacity:1" fill="#141414" d="M 97.5,77.5 C 111.526,83.8477 125.526,90.181 139.5,96.5C 126.334,105.253 112.667,113.253 98.5,120.5C 97.5041,106.343 97.1707,92.0097 97.5,77.5 Z"/></g>
<g><path style="opacity:1" fill="#828384" d="M 97.5,129.5 C 97.1721,140.679 97.5054,151.679 98.5,162.5C 97.9924,164.233 97.159,164.566 96,163.5C 81.7777,144.324 68.111,124.99 55,105.5C 68.9781,113.904 83.1448,121.904 97.5,129.5 Z"/></g>
<g><path style="opacity:1" fill="#323333" d="M 98.5,162.5 C 97.5054,151.679 97.1721,140.679 97.5,129.5C 110.806,121.845 124.139,114.178 137.5,106.5C 137.833,106.833 138.167,107.167 138.5,107.5C 125.142,125.852 111.809,144.185 98.5,162.5 Z"/></g>
</svg>
