<svg width="200" height="200" viewBox="0 0 200 200" fill="none" xmlns="http://www.w3.org/2000/svg">
<g clip-path="url(#clip0_3198_20589)">
<g clip-path="url(#clip1_3198_20589)">
<path d="M55.21 10.5115L55.2088 10.5121C6.0666 34.9689 -13.9448 94.6327 10.512 143.775L10.5126 143.776C34.9694 192.918 94.6332 212.93 143.775 188.473L143.777 188.472C192.919 164.015 212.93 104.352 188.473 55.2095L188.473 55.2082C164.016 6.06606 104.352 -13.9454 55.21 10.5115Z" fill="#0B132B"/>
<path d="M123.417 28.1542C132.622 31.2372 141.146 36.0692 148.518 42.3847C158.024 50.5323 165.343 60.9259 169.81 72.621C174.278 84.3162 175.753 96.9423 174.1 109.352C172.179 123.83 166.101 137.439 156.602 148.532C148.454 158.037 138.061 165.356 126.366 169.823C114.671 174.291 102.045 175.765 89.6351 174.113C75.1578 172.192 61.5483 166.113 50.4551 156.615C40.9497 148.468 33.6308 138.074 29.1633 126.379C24.6958 114.685 23.2214 102.059 24.8739 89.649C26.7947 75.172 32.8727 61.5628 42.3717 50.4704C50.5185 40.963 60.912 33.6422 72.6077 29.1733C84.3035 24.7045 96.9306 23.2292 109.341 24.8817C114.127 25.5223 118.84 26.6181 123.417 28.1542ZM127.864 14.8959C106.212 7.63367 81.7891 8.6314 59.7284 19.6105C15.6069 41.5686 -2.36029 95.1376 19.5978 139.259C30.5769 161.32 49.4587 176.842 71.1109 184.104C92.7631 191.366 117.186 190.369 139.245 179.389C183.366 157.431 201.334 103.862 179.376 59.7405C168.4 37.675 149.516 22.1581 127.864 14.8959Z" fill="url(#paint0_linear_3198_20589)"/>
<path d="M64.4273 78.4657L44.5784 23.3727L33.8321 30.2978L11.159 67.7594L7.14738 119.904L60.4909 90.202L64.4273 78.4657Z" fill="#0B132B"/>
<path d="M36.6841 50.3652L39.3856 65.6741L50.9684 55.1562L63.0491 59.2081L44.0258 75.986L49.3193 101.97L37.1993 97.9053L34.119 81.6376L21.8525 92.7579L9.73251 88.6928L29.6234 71.1554L24.5641 46.3001L36.6841 50.3652Z" fill="url(#paint1_linear_3198_20589)"/>
<path fill-rule="evenodd" clip-rule="evenodd" d="M67.6376 95.8234L121.193 55.5454C122.333 54.6884 123.896 55.8157 123.442 57.1674L110.884 94.6087L131.326 101.465C132.434 101.837 132.671 103.299 131.737 104.002L78.1814 144.28C77.0419 145.137 75.4788 144.009 75.9322 142.658L88.4901 105.216L68.0486 98.3602C66.9403 97.9885 66.7033 96.5261 67.6376 95.8234Z" fill="url(#paint2_linear_3198_20589)"/>
</g>
</g>
<defs>
<linearGradient id="paint0_linear_3198_20589" x1="24.6858" y1="148.166" x2="174.293" y2="50.823" gradientUnits="userSpaceOnUse">
<stop stop-color="#FF5400"/>
<stop offset="1" stop-color="#FFB600"/>
</linearGradient>
<linearGradient id="paint1_linear_3198_20589" x1="13.5282" y1="100.704" x2="74.4259" y2="89.4303" gradientUnits="userSpaceOnUse">
<stop stop-color="#FF5400"/>
<stop offset="1" stop-color="#FFB600"/>
</linearGradient>
<linearGradient id="paint2_linear_3198_20589" x1="68.5269" y1="130.403" x2="143.219" y2="102.352" gradientUnits="userSpaceOnUse">
<stop stop-color="#FF5400"/>
<stop offset="1" stop-color="#FFB600"/>
</linearGradient>
<clipPath id="clip0_3198_20589">
<rect width="200" height="200" fill="white"/>
</clipPath>
<clipPath id="clip1_3198_20589">
<rect width="234" height="234" fill="white" transform="translate(-17 -17)"/>
</clipPath>
</defs>
</svg>
