<svg width="20" height="20" viewBox="0 0 200 200" fill="none" xmlns="http://www.w3.org/2000/svg">
<g clip-path="url(#clip0_3198_20587)">
<rect x="0.499268" y="0.499359" width="199.501" height="199.501" rx="99.7503" fill="#071927"/>
<rect x="20.1953" y="20.1953" width="160.109" height="160.109" rx="80.0544" stroke="url(#paint0_linear_3198_20587)" stroke-width="10.1656"/>
<path fill-rule="evenodd" clip-rule="evenodd" d="M65.2469 107.209L107.361 45.9608C108.257 44.6577 110.299 45.2918 110.299 46.8733L110.299 90.6772L134.216 90.6772C135.513 90.6772 136.278 92.1315 135.543 93.2001L93.4288 154.448C92.5328 155.752 90.4914 155.117 90.4914 153.536L90.4914 109.732L66.5739 109.732C65.2772 109.732 64.5122 108.278 65.2469 107.209Z" fill="url(#paint1_linear_3198_20587)"/>
</g>
<defs>
<linearGradient id="paint0_linear_3198_20587" x1="34.8084" y1="24.3251" x2="165.691" y2="176.81" gradientUnits="userSpaceOnUse">
<stop stop-color="#70E000"/>
<stop offset="1" stop-color="#57AE00"/>
</linearGradient>
<linearGradient id="paint1_linear_3198_20587" x1="80.431" y1="37.9544" x2="130.71" y2="163.866" gradientUnits="userSpaceOnUse">
<stop stop-color="#70E000"/>
<stop offset="1" stop-color="#57AE00"/>
</linearGradient>
<clipPath id="clip0_3198_20587">
<rect width="200" height="200" fill="white"/>
</clipPath>
</defs>
</svg>
