<svg width="200" height="200" viewBox="0 0 200 200" fill="none" xmlns="http://www.w3.org/2000/svg">
<g clip-path="url(#clip0_3198_20588)">
<g clip-path="url(#clip1_3198_20588)">
<path d="M100.39 200.002C155.404 200.002 200.002 155.404 200.002 100.39C200.002 45.3755 155.404 0.777649 100.39 0.777649C45.3755 0.777649 0.777588 45.3755 0.777588 100.39C0.777588 155.404 45.3755 200.002 100.39 200.002Z" fill="#071927"/>
<path d="M100.39 186.549C147.974 186.549 186.549 147.974 186.549 100.39C186.549 52.8051 147.974 14.2303 100.39 14.2303C52.8053 14.2303 14.2305 52.8051 14.2305 100.39C14.2305 147.974 52.8053 186.549 100.39 186.549Z" stroke="#70E000" stroke-width="8.66184" stroke-miterlimit="10"/>
<path d="M125.499 75.6988L130.413 63.594C127.327 61.5828 123.79 59.9655 119.803 58.7424L115.688 71.2607C119.044 72.3259 122.313 73.8046 125.497 75.6988H125.499Z" fill="#70E000"/>
<path d="M81.5236 100.401C80.0761 100.077 79.5845 98.2612 80.673 97.2507L87.8286 87.442C87.4852 87.1923 87.1555 86.9348 86.8454 86.6656C85.0467 85.1069 84.1494 83.0508 84.1494 80.4933C84.1494 78.3357 84.7678 76.418 86.0065 74.7403C87.2453 73.0626 89.2019 71.7049 91.8785 70.6651C94.3072 69.7229 97.4148 69.2098 101.192 69.122L110.269 56.6798C107.684 56.3364 105.089 56.1647 102.483 56.1647C94.8125 56.1647 88.4801 57.304 83.4861 59.5806C78.492 61.8572 74.7757 64.8946 72.3392 68.6889C69.9007 72.4852 68.6833 76.6599 68.6833 81.2131C68.6833 85.7663 69.6002 89.3636 71.4398 92.2391C73.2775 95.1165 75.6536 97.4126 78.572 99.1313C81.4885 100.85 84.7229 102.247 88.2792 103.326C89.9823 103.842 91.6873 104.326 93.3923 104.781L93.919 103.179L81.5197 100.403L81.5236 100.401Z" fill="#70E000"/>
<path d="M84.7473 126.876C79.7923 125.12 75.639 122.921 72.2817 120.284L66.8877 132.389C70.4031 135.346 75.1572 137.763 81.15 139.64C81.388 139.714 81.628 139.786 81.8679 139.856L85.9959 127.297C85.5784 127.162 85.1629 127.024 84.7473 126.876Z" fill="#70E000"/>
<path d="M131.191 106.621C129.394 103.743 127.036 101.467 124.119 99.7889C121.201 98.1112 117.964 96.7534 114.412 95.7136C112.352 95.1128 110.286 94.549 108.212 94.0145L107.871 95.0523L119.82 97.7269C121.267 98.0507 121.759 99.8669 120.672 100.877L113.507 110.823C114.342 111.314 115.105 111.851 115.789 112.432C117.627 113.991 118.546 116.049 118.546 118.604C118.546 120.684 117.906 122.541 116.628 124.178C115.348 125.817 113.351 127.114 110.635 128.074C107.933 129.028 104.402 129.506 100.044 129.511L91.1467 141.864C94.0281 142.258 96.9699 142.457 99.9683 142.457C107.639 142.457 113.991 141.318 119.024 139.041C124.057 136.764 127.793 133.729 130.231 129.933C132.668 126.138 133.887 122.005 133.887 117.528C133.887 113.05 132.988 109.498 131.191 106.621Z" fill="#70E000"/>
<path d="M90.9444 141.951L79.4651 157.885C78.2276 159.021 76.2625 157.898 76.6043 156.261L76.6094 156.246L81.9471 140C84.8803 140.873 87.8794 141.524 90.9444 141.951Z" fill="white" stroke="white" stroke-width="0.229519"/>
<mask id="path-8-inside-1_3198_20588" fill="white">
<path fill-rule="evenodd" clip-rule="evenodd" d="M125.296 42.0194L119.802 58.7397V58.7417C119.802 58.7416 119.802 58.7415 119.801 58.7414L115.687 71.2584C115.085 71.0672 114.48 70.8877 113.871 70.7239C109.874 69.6451 106.041 69.1067 102.365 69.1067V69.1028C101.967 69.1028 101.577 69.1086 101.193 69.1184L110.27 56.6761C110.271 56.6762 110.271 56.6762 110.272 56.6763L122.243 40.2656C123.569 39.0346 125.692 40.2519 125.296 42.0194ZM102.365 69.1067L102.367 69.1085C106.041 69.1085 109.876 69.6469 113.873 70.7257C114.482 70.8896 115.086 71.069 115.689 71.2602L108.212 94.0143L108.213 94.0145L107.871 95.0523L119.82 97.7268C121.269 98.0526 121.761 99.8669 120.672 100.877L113.507 110.823C112.102 109.995 110.487 109.293 108.659 108.718H108.658L108.659 108.718C110.487 109.293 112.102 109.996 113.507 110.823L100.044 129.512V129.513H99.9699C95.2119 129.513 90.5553 128.772 85.9982 127.297L93.3976 104.779L93.3962 104.779L93.9229 103.177L81.5235 100.401C80.076 100.078 79.5844 98.2614 80.673 97.2508L87.8283 87.4425L87.8278 87.4422L101.193 69.1221C101.577 69.1124 101.967 69.1065 102.365 69.1065L102.365 69.1067Z"/>
</mask>
<path fill-rule="evenodd" clip-rule="evenodd" d="M125.296 42.0194L119.802 58.7397V58.7417C119.802 58.7416 119.802 58.7415 119.801 58.7414L115.687 71.2584C115.085 71.0672 114.48 70.8877 113.871 70.7239C109.874 69.6451 106.041 69.1067 102.365 69.1067V69.1028C101.967 69.1028 101.577 69.1086 101.193 69.1184L110.27 56.6761C110.271 56.6762 110.271 56.6762 110.272 56.6763L122.243 40.2656C123.569 39.0346 125.692 40.2519 125.296 42.0194ZM102.365 69.1067L102.367 69.1085C106.041 69.1085 109.876 69.6469 113.873 70.7257C114.482 70.8896 115.086 71.069 115.689 71.2602L108.212 94.0143L108.213 94.0145L107.871 95.0523L119.82 97.7268C121.269 98.0526 121.761 99.8669 120.672 100.877L113.507 110.823C112.102 109.995 110.487 109.293 108.659 108.718H108.658L108.659 108.718C110.487 109.293 112.102 109.996 113.507 110.823L100.044 129.512V129.513H99.9699C95.2119 129.513 90.5553 128.772 85.9982 127.297L93.3976 104.779L93.3962 104.779L93.9229 103.177L81.5235 100.401C80.076 100.078 79.5844 98.2614 80.673 97.2508L87.8283 87.4425L87.8278 87.4422L101.193 69.1221C101.577 69.1124 101.967 69.1065 102.365 69.1065L102.365 69.1067Z" fill="white"/>
<path d="M119.802 58.7397L119.584 58.6681L119.573 58.703V58.7397H119.802ZM125.296 42.0194L125.514 42.091L125.517 42.0804L125.52 42.0696L125.296 42.0194ZM119.802 58.7417L119.734 58.961L120.032 59.0529V58.7417H119.802ZM119.801 58.7414L119.869 58.5222L119.654 58.4555L119.583 58.6698L119.801 58.7414ZM115.687 71.2584L115.618 71.4772L115.835 71.5458L115.906 71.3301L115.687 71.2584ZM113.871 70.7239L113.811 70.9455L113.812 70.9455L113.871 70.7239ZM102.365 69.1028H102.595V68.8732H102.365V69.1028ZM101.193 69.1184L101.008 68.9831L100.733 69.3596L101.199 69.3478L101.193 69.1184ZM110.27 56.6761L110.3 56.4486L110.165 56.4306L110.085 56.5408L110.27 56.6761ZM110.272 56.6763L110.241 56.9038L110.377 56.9218L110.457 56.8116L110.272 56.6763ZM122.243 40.2656L122.087 40.0974L122.07 40.1124L122.057 40.1303L122.243 40.2656ZM102.367 69.1085L102.204 69.2697L102.271 69.338H102.367V69.1085ZM113.873 70.7257L113.813 70.9473L113.813 70.9473L113.873 70.7257ZM115.689 71.2602L115.907 71.3319L115.98 71.1115L115.759 71.0414L115.689 71.2602ZM108.212 94.0143L107.994 93.9426L107.917 94.176L108.155 94.2367L108.212 94.0143ZM108.213 94.0145L108.431 94.0862L108.507 93.8528L108.269 93.7921L108.213 94.0145ZM107.871 95.0523L107.653 94.9806L107.574 95.221L107.821 95.2763L107.871 95.0523ZM119.82 97.7268L119.87 97.5029L119.87 97.5029L119.82 97.7268ZM120.672 100.877L120.516 100.709L120.499 100.725L120.486 100.743L120.672 100.877ZM113.507 110.823L113.391 111.02L113.571 111.127L113.693 110.957L113.507 110.823ZM108.659 108.718L108.728 108.499L108.695 108.488H108.659V108.718ZM108.658 108.718V108.488L108.589 108.937L108.658 108.718ZM108.659 108.718L108.728 108.499L108.728 108.499L108.659 108.718ZM113.507 110.823L113.693 110.957L113.84 110.753L113.623 110.625L113.507 110.823ZM100.044 129.512L99.8578 129.377L99.8145 129.437V129.512H100.044ZM100.044 129.513V129.743H100.274V129.513H100.044ZM85.9982 127.297L85.7802 127.226L85.7082 127.445L85.9276 127.516L85.9982 127.297ZM93.3976 104.779L93.6156 104.851L93.6917 104.619L93.456 104.557L93.3976 104.779ZM93.3962 104.779L93.1781 104.707L93.102 104.939L93.3377 105.001L93.3962 104.779ZM93.9229 103.177L94.1409 103.249L94.22 103.009L93.973 102.953L93.9229 103.177ZM81.5235 100.401L81.5737 100.177L81.5736 100.177L81.5235 100.401ZM80.673 97.2508L80.8291 97.4191L80.8454 97.404L80.8584 97.3861L80.673 97.2508ZM87.8283 87.4425L88.0137 87.5778L88.1494 87.3918L87.963 87.2567L87.8283 87.4425ZM87.8278 87.4422L87.6424 87.3069L87.5068 87.4929L87.6931 87.628L87.8278 87.4422ZM101.193 69.1221L101.187 68.8927L101.074 68.8956L101.007 68.9869L101.193 69.1221ZM102.365 69.1065L102.512 68.9304L102.449 68.877H102.365V69.1065ZM120.02 58.8114L125.514 42.091L125.078 41.9477L119.584 58.6681L120.02 58.8114ZM120.032 58.7417V58.7397H119.573V58.7417H120.032ZM119.733 58.9607L119.734 58.961L119.87 58.5224L119.869 58.5222L119.733 58.9607ZM115.906 71.3301L120.019 58.8131L119.583 58.6698L115.469 71.1867L115.906 71.3301ZM113.812 70.9455C114.417 71.1084 115.018 71.2869 115.618 71.4772L115.757 71.0396C115.151 70.8476 114.543 70.6671 113.931 70.5022L113.812 70.9455ZM102.365 69.3362C106.018 69.3362 109.831 69.8713 113.811 70.9455L113.931 70.5023C109.917 69.4189 106.063 68.8771 102.365 68.8771V69.3362ZM102.136 69.1028V69.1067H102.595V69.1028H102.136ZM101.199 69.3478C101.582 69.3381 101.97 69.3323 102.365 69.3323V68.8732C101.965 68.8732 101.573 68.8791 101.187 68.8889L101.199 69.3478ZM110.085 56.5408L101.008 68.9831L101.378 69.2536L110.456 56.8114L110.085 56.5408ZM110.302 56.4488C110.302 56.4488 110.301 56.4487 110.301 56.4487C110.301 56.4487 110.301 56.4486 110.3 56.4486L110.24 56.9036C110.24 56.9037 110.24 56.9037 110.241 56.9037C110.241 56.9038 110.241 56.9038 110.241 56.9038L110.302 56.4488ZM122.057 40.1303L110.086 56.541L110.457 56.8116L122.428 40.4009L122.057 40.1303ZM125.52 42.0696C125.965 40.0817 123.578 38.7134 122.087 40.0974L122.399 40.4338C123.56 39.3559 125.418 40.4222 125.072 41.9692L125.52 42.0696ZM102.202 69.2679L102.204 69.2697L102.531 68.9472L102.529 68.9454L102.202 69.2679ZM102.367 69.338C106.018 69.338 109.833 69.8731 113.813 70.9473L113.933 70.5041C109.919 69.4207 106.063 68.879 102.367 68.879V69.338ZM113.813 70.9473C114.418 71.1102 115.02 71.2887 115.62 71.479L115.759 71.0414C115.153 70.8494 114.545 70.6689 113.933 70.5041L113.813 70.9473ZM115.471 71.1886L107.994 93.9426L108.43 94.0859L115.907 71.3319L115.471 71.1886ZM108.155 94.2367L108.156 94.2369L108.269 93.7921L108.269 93.7919L108.155 94.2367ZM107.995 93.9427L107.653 94.9806L108.089 95.124L108.431 94.0862L107.995 93.9427ZM107.821 95.2763L119.77 97.9508L119.87 97.5029L107.921 94.8283L107.821 95.2763ZM119.77 97.9508C121.039 98.2362 121.469 99.8247 120.516 100.709L120.829 101.046C122.053 99.9091 121.499 97.8691 119.87 97.5029L119.77 97.9508ZM120.486 100.743L113.321 110.688L113.693 110.957L120.859 101.012L120.486 100.743ZM113.623 110.625C112.202 109.788 110.57 109.079 108.728 108.499L108.59 108.937C110.404 109.508 112.003 110.203 113.391 111.02L113.623 110.625ZM108.659 108.488H108.658V108.947H108.659V108.488ZM108.589 108.937L108.59 108.937L108.728 108.499L108.727 108.499L108.589 108.937ZM108.59 108.937C110.404 109.508 112.003 110.204 113.39 111.021L113.623 110.625C112.201 109.788 110.57 109.079 108.728 108.499L108.59 108.937ZM113.32 110.689L99.8578 129.377L100.23 129.646L113.693 110.957L113.32 110.689ZM99.8145 129.512V129.513H100.274V129.512H99.8145ZM100.044 129.284H99.9699V129.743H100.044V129.284ZM99.9699 129.284C95.2362 129.284 90.6034 128.547 86.0689 127.079L85.9276 127.516C90.5072 128.998 95.1876 129.743 99.9699 129.743V129.284ZM86.2163 127.369L93.6156 104.851L93.1795 104.708L85.7802 127.226L86.2163 127.369ZM93.456 104.557L93.4546 104.557L93.3377 105.001L93.3391 105.001L93.456 104.557ZM93.6142 104.851L94.1409 103.249L93.7048 103.106L93.1781 104.707L93.6142 104.851ZM93.973 102.953L81.5737 100.177L81.4734 100.625L93.8727 103.401L93.973 102.953ZM81.5736 100.177C80.3066 99.894 79.876 98.3039 80.8291 97.4191L80.5168 97.0826C79.2929 98.2188 79.8455 100.261 81.4734 100.625L81.5736 100.177ZM80.8584 97.3861L88.0137 87.5778L87.6429 87.3072L80.4876 97.1156L80.8584 97.3861ZM87.963 87.2567L87.9626 87.2564L87.6931 87.628L87.6936 87.6283L87.963 87.2567ZM88.0133 87.5774L101.378 69.2574L101.007 68.9869L87.6424 87.3069L88.0133 87.5774ZM101.199 69.3516C101.581 69.3419 101.97 69.336 102.365 69.336V68.877C101.965 68.877 101.573 68.8829 101.187 68.8927L101.199 69.3516ZM102.218 69.2827L102.218 69.2828L102.513 68.9305L102.512 68.9304L102.218 69.2827Z" fill="white" mask="url(#path-8-inside-1_3198_20588)"/>
<path d="M99.9704 129.514C95.2105 129.514 90.5539 128.774 85.9988 127.298L81.8708 139.857C84.8927 140.762 87.9847 141.431 91.1469 141.862L100.045 129.51C100.019 129.51 99.9958 129.51 99.9704 129.51V129.514Z" fill="#70E000"/>
</g>
</g>
<defs>
<clipPath id="clip0_3198_20588">
<rect width="200" height="200" fill="white"/>
</clipPath>
<clipPath id="clip1_3198_20588">
<rect width="199.222" height="199.222" fill="white" transform="translate(0.777588 0.777649)"/>
</clipPath>
</defs>
</svg>
