<svg width="120" height="66" viewBox="0 0 120 66" fill="none" xmlns="http://www.w3.org/2000/svg">
<circle cx="88" cy="34" r="32" fill="#0A2336"/>
<path d="M92.3514 44.0365C90.8037 44.6647 89.1495 44.9899 87.4789 44.9943C85.7988 44.993 84.1349 44.6672 82.5787 44.0349L74.3916 40.7199L70.3016 42.5385C69.1941 43.032 68.6969 44.3287 69.1912 45.4345C69.4215 45.9501 69.8423 46.3571 70.3657 46.5707L83.1668 52.1494C85.9462 53.2799 89.0576 53.2837 91.8396 52.1597L104.698 46.5948C106.015 46.0622 106.65 44.5646 106.116 43.2498C105.855 42.6054 105.343 42.0944 104.698 41.8335L101.283 40.4477L92.3514 44.0365Z" fill="url(#paint0_linear_6235_103)"/>
<path d="M92.3549 32.7352C90.8076 33.3593 89.1547 33.6809 87.486 33.6826C85.8059 33.6813 84.142 33.3555 82.5858 32.7231L75.2833 29.7665L70.3086 31.9783C69.201 32.4717 68.7039 33.7684 69.1982 34.8742C69.4286 35.3898 69.8493 35.7968 70.3727 36.0103L78.0048 39.1158L83.6439 41.4557C86.0994 42.4559 88.849 42.4595 91.3072 41.466L97.5256 38.9354L104.705 36.0361C106.021 35.5042 106.656 34.0077 106.123 32.6937C105.862 32.0488 105.349 31.5376 104.703 31.2769L100.355 29.5206L92.3549 32.7352Z" fill="url(#paint1_linear_6235_103)"/>
<path d="M84.6778 14.2629L70.3068 20.6437C69.1993 21.1373 68.7022 22.4338 69.1964 23.5397C69.4268 24.0552 69.8476 24.4622 70.371 24.6758L78.9085 28.1485L83.6405 30.1403C86.0961 31.1404 88.8455 31.1441 91.3038 30.1507L96.5665 27.9857L104.7 24.6948C106.012 24.1516 106.635 22.6488 106.091 21.3384C105.83 20.7108 105.331 20.2118 104.703 19.9508L90.3775 14.1642C89.5002 13.8096 88.5717 13.6327 87.644 13.6327C86.632 13.6327 85.6208 13.8431 84.6778 14.2629" fill="url(#paint2_linear_6235_103)"/>
<mask id="mask0_6235_103" style="mask-type:alpha" maskUnits="userSpaceOnUse" x="0" y="0" width="66" height="66">
<rect width="66" height="66" fill="#C4C4C4"/>
</mask>
<g mask="url(#mask0_6235_103)">
<path d="M10.0002 9.99984L9.99984 10.0002C-2.70262 22.7026 -2.70262 43.2974 9.99984 55.9998L10.0002 56.0002C22.7026 68.7026 43.2974 68.7026 55.9998 56.0002L56.0002 55.9998C68.7026 43.2974 68.7026 22.7026 56.0002 10.0002L55.9998 9.99984C43.2974 -2.70263 22.7026 -2.70263 10.0002 9.99984Z" fill="#071927"/>
<path d="M32.9996 8.37583C36.1766 8.37442 39.324 8.98669 42.2689 10.179C46.0661 11.7178 49.4186 14.181 52.0219 17.3448C54.6252 20.5085 56.3967 24.2727 57.1755 28.2951C58.0859 32.987 57.6163 37.8423 55.8236 42.2727C54.2847 46.0698 51.8215 49.4223 48.6577 52.0255C45.4939 54.6287 41.7298 56.4001 37.7074 57.1789C33.0155 58.0894 28.1603 57.6198 23.7298 55.827C19.9327 54.2883 16.5802 51.8252 13.977 48.6615C11.3738 45.4977 9.60236 41.7337 8.82366 37.7113C7.91304 33.0196 8.38264 28.1644 10.1756 23.7342C11.7139 19.9364 14.1769 16.5833 17.3407 13.9796C20.5046 11.3759 24.2689 9.6041 28.2917 8.82525C29.8431 8.52602 31.4196 8.37554 32.9996 8.37583ZM32.9996 3.79932C25.5257 3.79932 18.0517 6.65049 12.3494 12.3528C0.944728 23.7575 0.944728 42.2485 12.3494 53.6532C18.0517 59.3555 25.5257 62.2067 32.9996 62.2067C40.4735 62.2067 47.9474 59.3555 53.6493 53.6532C65.054 42.2485 65.054 23.7575 53.6493 12.3528C47.9474 6.64866 40.4735 3.79932 32.9996 3.79932Z" fill="url(#paint3_linear_6235_103)"/>
<path d="M22.2172 29.6377C21.6351 30.0848 22.4186 33.9232 22.9687 34.4719C23.5188 35.0206 28.2962 39.2937 28.2962 39.2937L29.747 37.1885C29.747 37.1885 22.971 29.0817 22.2172 29.6377Z" fill="url(#paint4_linear_6235_103)"/>
<path d="M11.7294 63.7017L43.8661 41.4255C44.4094 41.0484 44.8368 37.2151 44.1833 36.7643C43.5298 36.3135 11.7294 63.7017 11.7294 63.7017Z" fill="url(#paint5_linear_6235_103)"/>
<path d="M52.8664 1.9292L35.8029 29.748L37.1003 30.8601L52.8664 1.9292Z" fill="url(#paint6_linear_6235_103)"/>
<path d="M52.1915 1.54284L22.2153 29.6363C22.1692 29.6794 22.1326 29.7316 22.1077 29.7895C22.0828 29.8475 22.0701 29.91 22.0705 29.9731C22.0709 30.0362 22.0843 30.0985 22.1099 30.1561C22.1356 30.2138 22.1728 30.2655 22.2194 30.3081L29.7469 37.1889L11.1548 63.1583C10.8847 63.5354 11.3685 63.9917 11.7291 63.7002L44.1766 37.4694C44.2292 37.427 44.2716 37.3734 44.301 37.3126C44.3304 37.2518 44.346 37.1852 44.3466 37.1176C44.3472 37.0501 44.3329 36.9832 44.3046 36.9219C44.2763 36.8605 44.2348 36.8062 44.183 36.7628L35.867 29.7804L52.8038 2.04077C53.0459 1.64627 52.5301 1.22523 52.1915 1.54284Z" fill="#F3FC1F"/>
<path d="M41.3713 11.3653L46.7803 6.2959" stroke="#071927" stroke-width="0.5" stroke-miterlimit="10"/>
<path d="M17.9901 59.634L24.0874 55.4131" stroke="#071927" stroke-width="0.5" stroke-miterlimit="10"/>
</g>
<defs>
<linearGradient id="paint0_linear_6235_103" x1="87.3059" y1="14.027" x2="87.747" y2="52.7533" gradientUnits="userSpaceOnUse">
<stop stop-color="#B7FDBC"/>
<stop offset="1" stop-color="#FAFD89"/>
</linearGradient>
<linearGradient id="paint1_linear_6235_103" x1="87.8909" y1="13.0061" x2="87.4498" y2="52.7631" gradientUnits="userSpaceOnUse">
<stop stop-color="#B7FDBC"/>
<stop offset="1" stop-color="#FAFD89"/>
</linearGradient>
<linearGradient id="paint2_linear_6235_103" x1="87.7118" y1="13.8769" x2="87.4178" y2="52.7504" gradientUnits="userSpaceOnUse">
<stop stop-color="#B7FDBC"/>
<stop offset="1" stop-color="#FAFD89"/>
</linearGradient>
<linearGradient id="paint3_linear_6235_103" x1="14.8551" y1="55.8874" x2="51.1441" y2="10.1149" gradientUnits="userSpaceOnUse">
<stop offset="0.06" stop-color="#3AD889"/>
<stop offset="0.1" stop-color="#50DC7C"/>
<stop offset="0.2" stop-color="#7BE564"/>
<stop offset="0.3" stop-color="#A0EC4E"/>
<stop offset="0.41" stop-color="#BEF23D"/>
<stop offset="0.52" stop-color="#D6F630"/>
<stop offset="0.63" stop-color="#E6F926"/>
<stop offset="0.76" stop-color="#F0FB21"/>
<stop offset="0.93" stop-color="#F3FC1F"/>
</linearGradient>
<linearGradient id="paint4_linear_6235_103" x1="21.409" y1="37.9436" x2="29.1369" y2="30.9576" gradientUnits="userSpaceOnUse">
<stop stop-color="#3AD889"/>
<stop offset="0.15" stop-color="#35CE81"/>
<stop offset="0.4" stop-color="#29B36D"/>
<stop offset="0.71" stop-color="#15884C"/>
<stop offset="1" stop-color="#005B29"/>
</linearGradient>
<linearGradient id="paint5_linear_6235_103" x1="46.7004" y1="34.7694" x2="13.4945" y2="66.0316" gradientUnits="userSpaceOnUse">
<stop stop-color="#3AD889"/>
<stop offset="0.36" stop-color="#23A763"/>
<stop offset="0.79" stop-color="#0A7039"/>
<stop offset="1" stop-color="#005B29"/>
</linearGradient>
<linearGradient id="paint6_linear_6235_103" x1="13208.7" y1="10066.4" x2="19570.8" y2="10066.4" gradientUnits="userSpaceOnUse">
<stop stop-color="#3AD889"/>
<stop offset="0.36" stop-color="#23A763"/>
<stop offset="0.79" stop-color="#0A7039"/>
<stop offset="1" stop-color="#005B29"/>
</linearGradient>
</defs>
</svg>
