<svg width="112" height="64" viewBox="0 0 112 64" fill="none" xmlns="http://www.w3.org/2000/svg">
<circle cx="80" cy="32" r="32" fill="#0A2336"/>
<path d="M84.3514 42.0365C82.8037 42.6647 81.1495 42.9899 79.4789 42.9943C77.7988 42.993 76.1349 42.6672 74.5787 42.0349L66.3916 38.7199L62.3016 40.5385C61.1941 41.032 60.6969 42.3287 61.1912 43.4345C61.4215 43.9501 61.8423 44.3571 62.3657 44.5707L75.1668 50.1494C77.9462 51.2799 81.0576 51.2837 83.8396 50.1597L96.698 44.5948C98.0147 44.0622 98.6498 42.5646 98.1164 41.2498C97.855 40.6054 97.3433 40.0944 96.698 39.8335L93.2826 38.4477L84.3514 42.0365Z" fill="white"/>
<path d="M84.3549 30.7352C82.8076 31.3593 81.1547 31.6809 79.486 31.6826C77.8059 31.6813 76.142 31.3555 74.5858 30.7231L67.2833 27.7665L62.3086 29.9783C61.2011 30.4717 60.7039 31.7684 61.1982 32.8742C61.4286 33.3898 61.8493 33.7968 62.3727 34.0103L70.0048 37.1158L75.6439 39.4557C78.0995 40.4559 80.849 40.4595 83.3072 39.466L89.5257 36.9354L96.705 34.0361C98.021 33.5042 98.6559 32.0077 98.1231 30.6937C97.8616 30.0488 97.3492 29.5376 96.7033 29.2769L92.3547 27.5206L84.3549 30.7352Z" fill="white"/>
<path d="M76.6778 12.2629L62.3068 18.6437C61.1993 19.1373 60.7022 20.4338 61.1964 21.5397C61.4268 22.0552 61.8476 22.4622 62.371 22.6758L70.9085 26.1485L75.6405 28.1403C78.0961 29.1404 80.8455 29.1441 83.3038 28.1507L88.5665 25.9857L96.6999 22.6948C98.0123 22.1516 98.6351 20.6488 98.0909 19.3384C97.8304 18.7108 97.3314 18.2118 96.7033 17.9508L82.3775 12.1642C81.5002 11.8096 80.5717 11.6327 79.644 11.6327C78.632 11.6327 77.6208 11.8431 76.6778 12.2629Z" fill="white"/>
<circle cx="32" cy="32" r="32" fill="#EDEFF0"/>
<path d="M31.7293 8L31.4076 9.09353V40.8251L31.7293 41.1462L46.4588 32.4397L31.7293 8Z" fill="#343434"/>
<path d="M31.7294 8L17 32.4397L31.7294 41.1464V25.7448V8Z" fill="#8C8C8C"/>
<path d="M31.7293 43.9351L31.548 44.1561V55.4596L31.7293 55.9892L46.4675 35.2329L31.7293 43.9351Z" fill="#3C3C3B"/>
<path d="M31.7294 55.9892V43.9351L17 35.2329L31.7294 55.9892Z" fill="#8C8C8C"/>
<path d="M31.7294 41.1464L46.4586 32.44L31.7294 25.7451V41.1464Z" fill="#141414"/>
<path d="M17.0001 32.4395L31.7293 41.1459V25.7446L17.0001 32.4395Z" fill="#393939"/>
</svg>
