<svg width="112" height="64" viewBox="0 0 112 64" fill="none" xmlns="http://www.w3.org/2000/svg">
<circle cx="80" cy="32" r="32" fill="#0A2336"/>
<path d="M84.3514 42.0365C82.8037 42.6647 81.1495 42.9899 79.4789 42.9943C77.7988 42.993 76.1349 42.6672 74.5787 42.0349L66.3916 38.7199L62.3016 40.5385C61.1941 41.032 60.6969 42.3287 61.1912 43.4345C61.4215 43.9501 61.8423 44.3571 62.3657 44.5707L75.1668 50.1494C77.9462 51.2799 81.0576 51.2837 83.8396 50.1597L96.698 44.5948C98.0147 44.0622 98.6498 42.5646 98.1164 41.2498C97.855 40.6054 97.3433 40.0944 96.698 39.8335L93.2826 38.4477L84.3514 42.0365Z" fill="white"/>
<path d="M84.3549 30.7352C82.8076 31.3593 81.1547 31.6809 79.486 31.6826C77.8059 31.6813 76.142 31.3555 74.5858 30.7231L67.2833 27.7665L62.3086 29.9783C61.2011 30.4717 60.7039 31.7684 61.1982 32.8742C61.4286 33.3898 61.8493 33.7968 62.3727 34.0103L70.0048 37.1158L75.6439 39.4557C78.0995 40.4559 80.849 40.4595 83.3072 39.466L89.5257 36.9354L96.705 34.0361C98.021 33.5042 98.6559 32.0077 98.1231 30.6937C97.8616 30.0488 97.3492 29.5376 96.7033 29.2769L92.3547 27.5206L84.3549 30.7352Z" fill="white"/>
<path d="M76.6778 12.2629L62.3068 18.6437C61.1993 19.1373 60.7022 20.4338 61.1964 21.5397C61.4268 22.0552 61.8476 22.4622 62.371 22.6758L70.9085 26.1485L75.6405 28.1403C78.0961 29.1404 80.8455 29.1441 83.3038 28.1507L88.5665 25.9857L96.6999 22.6948C98.0123 22.1516 98.6351 20.6488 98.0909 19.3384C97.8304 18.7108 97.3314 18.2118 96.7033 17.9508L82.3775 12.1642C81.5002 11.8096 80.5717 11.6327 79.644 11.6327C78.632 11.6327 77.6208 11.8431 76.6778 12.2629Z" fill="white"/>
<mask id="mask0_6360_534" style="mask-type:alpha" maskUnits="userSpaceOnUse" x="0" y="0" width="64" height="64">
<rect width="64" height="64" fill="#C4C4C4"/>
</mask>
<g mask="url(#mask0_6360_534)">
<path d="M9.69702 9.69681L9.69671 9.69712C-2.62083 22.0147 -2.62083 41.9853 9.69671 54.3029L9.69702 54.3032C22.0146 66.6207 41.9852 66.6207 54.3028 54.3032L54.3031 54.3029C66.6206 41.9853 66.6206 22.0147 54.3031 9.69712L54.3028 9.69681C41.9852 -2.62073 22.0146 -2.62073 9.69702 9.69681Z" fill="#071927"/>
<path d="M31.9995 8.12192C35.0802 8.12055 38.1323 8.71426 40.9879 9.87042C44.67 11.3626 47.921 13.7511 50.4454 16.819C52.9698 19.887 54.6876 23.537 55.4428 27.4376C56.3256 31.9873 55.8703 36.6954 54.1318 40.9916C52.6396 44.6737 50.251 47.9245 47.1831 50.4488C44.1152 52.9731 40.4652 54.6909 36.5647 55.4461C32.0149 56.329 27.3068 55.8736 23.0106 54.1352C19.3286 52.6431 16.0777 50.2546 13.5533 47.1868C11.029 44.1189 9.31126 40.4689 8.55616 36.5684C7.67313 32.0189 8.1285 27.3108 9.8671 23.0148C11.3588 19.3322 13.7472 16.0807 16.8152 13.5559C19.8831 11.0311 23.5334 9.31296 27.4343 8.55771C28.9387 8.26756 30.4673 8.12163 31.9995 8.12192ZM31.9995 3.68408C24.752 3.68408 17.5046 6.44885 11.9751 11.9784C0.915984 23.0375 0.915984 40.9681 11.9751 52.0272C17.5046 57.5567 24.752 60.3215 31.9995 60.3215C39.2469 60.3215 46.4943 57.5567 52.0234 52.0272C63.0825 40.9681 63.0825 23.0375 52.0234 11.9784C46.4943 6.44708 39.2469 3.68408 31.9995 3.68408Z" fill="url(#paint0_linear_6360_534)"/>
<path d="M21.5439 28.7399C20.9794 29.1735 21.7391 32.8955 22.2726 33.4276C22.806 33.9597 27.4387 38.1033 27.4387 38.1033L28.8454 36.0619C28.8454 36.0619 22.2748 28.2007 21.5439 28.7399Z" fill="url(#paint1_linear_6360_534)"/>
<path d="M11.3739 61.7715L42.5369 40.1703C43.0636 39.8046 43.4781 36.0875 42.8444 35.6504C42.2107 35.2132 11.3739 61.7715 11.3739 61.7715Z" fill="url(#paint2_linear_6360_534)"/>
<path d="M51.2642 1.87061L34.7177 28.8464L35.9758 29.9248L51.2642 1.87061Z" fill="url(#paint3_linear_6360_534)"/>
<path d="M50.6098 1.496L21.542 28.7381C21.4973 28.7799 21.4618 28.8305 21.4377 28.8867C21.4135 28.9429 21.4012 29.0035 21.4016 29.0647C21.402 29.1259 21.415 29.1863 21.4398 29.2422C21.4647 29.2981 21.5008 29.3483 21.546 29.3896L28.8453 36.0619L10.8166 61.2444C10.5548 61.61 11.0239 62.0525 11.3736 61.7698L42.8378 36.3339C42.8888 36.2927 42.93 36.2408 42.9585 36.1818C42.987 36.1228 43.0021 36.0583 43.0026 35.9928C43.0032 35.9273 42.9893 35.8624 42.9619 35.803C42.9345 35.7435 42.8942 35.6908 42.844 35.6487L34.7801 28.8779L51.2036 1.97884C51.4384 1.59629 50.9382 1.18801 50.6098 1.496Z" fill="#F3FC1F"/>
<path d="M40.1176 11.0208L45.3626 6.10498" stroke="#071927" stroke-width="0.5" stroke-miterlimit="10"/>
<path d="M17.445 57.8269L23.3575 53.7339" stroke="#071927" stroke-width="0.5" stroke-miterlimit="10"/>
</g>
<defs>
<linearGradient id="paint0_linear_6360_534" x1="14.4048" y1="54.1937" x2="49.5942" y2="9.8083" gradientUnits="userSpaceOnUse">
<stop offset="0.06" stop-color="#3AD889"/>
<stop offset="0.1" stop-color="#50DC7C"/>
<stop offset="0.2" stop-color="#7BE564"/>
<stop offset="0.3" stop-color="#A0EC4E"/>
<stop offset="0.41" stop-color="#BEF23D"/>
<stop offset="0.52" stop-color="#D6F630"/>
<stop offset="0.63" stop-color="#E6F926"/>
<stop offset="0.76" stop-color="#F0FB21"/>
<stop offset="0.93" stop-color="#F3FC1F"/>
</linearGradient>
<linearGradient id="paint1_linear_6360_534" x1="20.7602" y1="36.7941" x2="28.2539" y2="30.0198" gradientUnits="userSpaceOnUse">
<stop stop-color="#3AD889"/>
<stop offset="0.15" stop-color="#35CE81"/>
<stop offset="0.4" stop-color="#29B36D"/>
<stop offset="0.71" stop-color="#15884C"/>
<stop offset="1" stop-color="#005B29"/>
</linearGradient>
<linearGradient id="paint2_linear_6360_534" x1="45.2852" y1="33.7159" x2="13.0856" y2="64.0308" gradientUnits="userSpaceOnUse">
<stop stop-color="#3AD889"/>
<stop offset="0.36" stop-color="#23A763"/>
<stop offset="0.79" stop-color="#0A7039"/>
<stop offset="1" stop-color="#005B29"/>
</linearGradient>
<linearGradient id="paint3_linear_6360_534" x1="12808.4" y1="9761.37" x2="18977.8" y2="9761.37" gradientUnits="userSpaceOnUse">
<stop stop-color="#3AD889"/>
<stop offset="0.36" stop-color="#23A763"/>
<stop offset="0.79" stop-color="#0A7039"/>
<stop offset="1" stop-color="#005B29"/>
</linearGradient>
</defs>
</svg>
