<svg width="112" height="64" viewBox="0 0 112 64" fill="none" xmlns="http://www.w3.org/2000/svg">
<path d="M80 64C97.6731 64 112 49.6731 112 32C112 14.3269 97.6731 0 80 0C62.3269 0 48 14.3269 48 32C48 49.6731 62.3269 64 80 64Z" fill="white"/>
<g clip-path="url(#clip0_5801_12011)">
<path d="M81.7649 36.784C78.8717 35.6405 76.0885 34.3025 73.8336 32.1166C71.783 30.1272 70.799 27.8519 72.1562 25.0495C72.1782 24.9551 72.1822 24.8575 72.168 24.7617C72.5333 23.6163 73.4545 22.9162 74.3286 22.2161C77.0431 20.0632 80.1818 18.7291 83.4757 17.7276C85.0065 17.2745 86.5663 16.9237 88.1445 16.6775C91.1949 16.1796 93.8524 16.6775 95.793 19.2912C97.1836 21.2359 98.6135 23.134 99.5053 25.3801C101.333 29.84 101.481 34.802 99.9217 39.3608C99.4994 40.6404 99.1635 40.8349 97.4763 40.8718C96.8104 41.2958 96.0817 41.1538 95.3825 41.041C90.9788 40.3273 86.7893 38.8649 82.6036 37.3946C82.2776 37.2721 81.926 37.1535 81.7649 36.784Z" fill="#5492F6"/>
<path d="M61.2571 25.7358C65.3524 30.3293 69.0862 35.0355 71.5866 40.5936C73.0146 43.7674 72.8948 47.0676 72.5883 50.4067C72.5294 51.0543 72.1837 51.0698 71.7339 50.922C70.932 50.6382 70.1738 50.2455 69.481 49.7552C63.0484 45.4165 59.8193 39.4073 60.0079 31.6848C60.0761 29.6455 60.4986 27.633 61.2571 25.7358Z" fill="#5492F6"/>
<path d="M81.7649 36.7842C86.2255 38.4469 90.7274 39.9755 95.4434 40.7728C96.1092 40.8856 96.8026 40.8409 97.4841 40.8681C97.2746 41.331 97.0638 41.7925 96.8517 42.2528C96.7711 42.8634 96.2467 42.9451 95.7989 43.1123C93.4183 44.0089 91.1733 45.1524 89.1777 46.7354C88.0424 47.6377 87.0171 48.6159 87.1291 50.2359C87.1389 50.3778 87.0171 50.4557 86.8973 50.5159C84.8153 51.5175 83.1339 50.7376 81.5822 49.3491C80.3593 48.2795 79.3718 46.9721 78.6812 45.5083C77.3534 42.6359 77.8621 40.2341 80.2329 38.0988C80.7337 37.6554 81.2542 37.2237 81.7649 36.7842Z" fill="#0E3CA4"/>
<path d="M95.8008 19.2874C95.5121 19.2583 95.3432 19.0463 95.1802 18.8499C93.6246 16.9713 91.4993 16.5667 89.2523 16.804C84.9327 17.262 80.7535 18.591 76.9724 20.709C75.1204 21.7368 73.4886 23.1121 72.168 24.7579C70.8933 23.8925 69.7344 22.926 69.1844 21.4247C69.2198 20.884 69.7187 20.8413 70.0605 20.6468C71.4452 19.8689 72.8437 19.1163 73.9456 17.9378C74.9277 16.8935 75.5169 15.7986 74.5191 14.4373C80.9419 11.5785 89.6746 13.0643 94.75 17.8853C95.1762 18.2919 95.5313 18.7657 95.8008 19.2874Z" fill="#0E3CA4"/>
<path d="M74.5191 14.449C75.5503 15.2405 75.5798 16.3334 74.6428 17.5197C73.5586 18.8927 72.1032 19.7814 70.6085 20.6313C70.1351 20.8997 69.5753 21.0202 69.1864 21.4267C67.8959 21.8545 66.6153 22.3154 65.3131 22.7005C64.4587 22.9514 63.5846 23.1906 62.5632 23.0894C63.7381 20.7496 65.3845 18.6727 67.401 16.9869C68.3793 16.1297 69.4637 15.3991 70.6281 14.8127C71.8307 14.2041 73.2228 14.0739 74.5191 14.449Z" fill="#5492F6"/>
<path d="M86.8973 50.5295C86.6871 48.7443 87.7006 47.5988 88.9832 46.5798C91.0869 44.9092 93.4537 43.7249 95.9698 42.809C96.3109 42.7115 96.6172 42.5208 96.8537 42.2586C97.3427 42.6475 97.8357 41.9513 98.3995 42.3383C97.9281 43.5285 97.1169 44.5514 96.3135 45.5646C94.919 47.3265 93.2121 48.752 91.3304 49.9967C89.9201 50.9185 88.5059 51.4085 86.8973 50.5295Z" fill="#5492F6"/>
</g>
<circle cx="32" cy="32" r="32" fill="#0A2336"/>
<path d="M36.3514 42.0365C34.8037 42.6647 33.1495 42.9899 31.4788 42.9943C29.7988 42.993 28.1348 42.6672 26.5787 42.0349L18.3916 38.7199L14.3015 40.5385C13.1941 41.032 12.6969 42.3287 13.1912 43.4345C13.4215 43.9501 13.8423 44.3571 14.3657 44.5707L27.1668 50.1494C29.9462 51.2799 33.0576 51.2837 35.8396 50.1597L48.698 44.5948C50.0147 44.0622 50.6498 42.5646 50.1164 41.2498C49.855 40.6054 49.3432 40.0944 48.698 39.8335L45.2826 38.4477L36.3514 42.0365Z" fill="url(#paint0_linear_5801_12011)"/>
<path d="M36.3549 30.7352C34.8076 31.3593 33.1547 31.6809 31.486 31.6826C29.8059 31.6813 28.142 31.3555 26.5858 30.7231L19.2833 27.7665L14.3086 29.9783C13.201 30.4717 12.7039 31.7684 13.1982 32.8742C13.4286 33.3898 13.8493 33.7968 14.3727 34.0103L22.0048 37.1158L27.6438 39.4557C30.0994 40.4559 32.8489 40.4595 35.3072 39.466L41.5256 36.9354L48.705 34.0361C50.021 33.5042 50.6558 32.0077 50.123 30.6937C49.8616 30.0488 49.3492 29.5376 48.7033 29.2769L44.3547 27.5206L36.3549 30.7352Z" fill="url(#paint1_linear_5801_12011)"/>
<path d="M28.6778 12.2629L14.3068 18.6437C13.1993 19.1373 12.7022 20.4338 13.1965 21.5397C13.4268 22.0552 13.8476 22.4622 14.371 22.6758L22.9085 26.1485L27.6405 28.1403C30.0961 29.1404 32.8455 29.1441 35.3038 28.1507L40.5665 25.9857L48.6999 22.6948C50.0123 22.1516 50.6351 20.6488 50.0909 19.3384C49.8304 18.7108 49.3314 18.2118 48.7033 17.9508L34.3775 12.1642C33.5002 11.8096 32.5717 11.6327 31.644 11.6327C30.632 11.6327 29.6209 11.8431 28.6778 12.2629Z" fill="url(#paint2_linear_5801_12011)"/>
<defs>
<linearGradient id="paint0_linear_5801_12011" x1="31.3059" y1="12.027" x2="31.747" y2="50.7533" gradientUnits="userSpaceOnUse">
<stop stop-color="#B7FDBC"/>
<stop offset="1" stop-color="#FAFD89"/>
</linearGradient>
<linearGradient id="paint1_linear_5801_12011" x1="31.8909" y1="11.0061" x2="31.4498" y2="50.7631" gradientUnits="userSpaceOnUse">
<stop stop-color="#B7FDBC"/>
<stop offset="1" stop-color="#FAFD89"/>
</linearGradient>
<linearGradient id="paint2_linear_5801_12011" x1="31.7118" y1="11.8769" x2="31.4178" y2="50.7504" gradientUnits="userSpaceOnUse">
<stop stop-color="#B7FDBC"/>
<stop offset="1" stop-color="#FAFD89"/>
</linearGradient>
<clipPath id="clip0_5801_12011">
<rect width="41" height="38" fill="white" transform="translate(60 13)"/>
</clipPath>
</defs>
</svg>
