<svg width="128" height="80" viewBox="0 0 128 80" fill="none" xmlns="http://www.w3.org/2000/svg">
<g filter="url(#filter0_d_5801_11698)">
<path d="M88 68C105.733 68 120 53.7334 120 36C120 18.2666 105.733 4 88 4C70.2666 4 56 18.2666 56 36C56 53.7334 70.2666 68 88 68Z" fill="#2775CA"/>
<path d="M96.8 41.0666C96.8 36.4 94 34.8 88.4 34.1335C84.4 33.6 83.6 32.5335 83.6 30.6666C83.6 28.7997 84.9334 27.6 87.6 27.6C90 27.6 91.3334 28.4 92 30.4C92.1334 30.8 92.5334 31.0666 92.9334 31.0666H95.0666C95.6 31.0666 96 30.6666 96 30.1335V30C95.4666 27.0666 93.0666 24.8 90 24.5335V21.3335C90 20.8 89.6 20.4 88.9334 20.2666H86.9334C86.4 20.2666 86 20.6666 85.8666 21.3335V24.4C81.8666 24.9335 79.3334 27.6 79.3334 30.9335C79.3334 35.3335 82 37.0666 87.6 37.7335C91.3334 38.4 92.5334 39.2 92.5334 41.3335C92.5334 43.4669 90.6666 44.9335 88.1334 44.9335C84.6666 44.9335 83.4666 43.4666 83.0666 41.4666C82.9334 40.9335 82.5334 40.6666 82.1334 40.6666H79.8666C79.3334 40.6666 78.9334 41.0666 78.9334 41.6V41.7335C79.4666 45.0666 81.6 47.4666 86 48.1335V51.3335C86 51.8666 86.4 52.2666 87.0666 52.4H89.0666C89.6 52.4 90 52 90.1334 51.3335V48.1335C94.1334 47.4666 96.8 44.6666 96.8 41.0666Z" fill="white"/>
<path d="M81.2 55.0666C70.8 51.3335 65.4665 39.7335 69.3334 29.4666C71.3334 23.8666 75.7334 19.6001 81.2 17.6001C81.7334 17.3335 82 16.9335 82 16.2666V14.4001C82 13.8666 81.7334 13.4666 81.2 13.3335C81.0666 13.3335 80.8 13.3335 80.6666 13.4666C68 17.4666 61.0665 30.9335 65.0665 43.6001C67.4665 51.0666 73.2 56.8001 80.6666 59.2001C81.2 59.4666 81.7334 59.2001 81.8666 58.6666C82 58.5335 82 58.4001 82 58.1335V56.2666C82 55.8666 81.6 55.3335 81.2 55.0666ZM95.3335 13.4666C94.8 13.2001 94.2666 13.4666 94.1335 14.0001C94 14.1335 94 14.2666 94 14.5335V16.4001C94 16.9335 94.4 17.4666 94.8 17.7335C105.2 21.4666 110.533 33.0666 106.667 43.3335C104.667 48.9335 100.267 53.2001 94.8 55.2001C94.2666 55.4666 94 55.8666 94 56.5335V58.4001C94 58.9335 94.2666 59.3335 94.8 59.4666C94.9335 59.4666 95.2 59.4666 95.3335 59.3335C108 55.3335 114.933 41.8666 110.933 29.2001C108.533 21.6001 102.667 15.8666 95.3335 13.4666Z" fill="white"/>
<circle cx="40" cy="36" r="32" fill="#0A2336"/>
<path d="M44.3514 46.0365C42.8037 46.6647 41.1495 46.9899 39.4789 46.9943C37.7988 46.993 36.1349 46.6672 34.5787 46.0349L26.3916 42.7199L22.3016 44.5385C21.1941 45.032 20.6969 46.3287 21.1912 47.4345C21.4215 47.9501 21.8423 48.3571 22.3657 48.5707L35.1668 54.1494C37.9462 55.2799 41.0576 55.2837 43.8396 54.1597L56.698 48.5948C58.0147 48.0622 58.6498 46.5646 58.1164 45.2498C57.855 44.6054 57.3433 44.0944 56.698 43.8335L53.2826 42.4477L44.3514 46.0365Z" fill="url(#paint0_linear_5801_11698)"/>
<path d="M44.3549 34.7352C42.8076 35.3593 41.1547 35.6809 39.486 35.6826C37.8059 35.6813 36.142 35.3555 34.5858 34.7231L27.2833 31.7665L22.3086 33.9783C21.201 34.4717 20.7039 35.7684 21.1982 36.8742C21.4286 37.3898 21.8493 37.7968 22.3727 38.0103L30.0048 41.1158L35.6439 43.4557C38.0994 44.4559 40.849 44.4595 43.3072 43.466L49.5257 40.9354L56.705 38.0361C58.021 37.5042 58.6558 36.0077 58.123 34.6937C57.8616 34.0488 57.3492 33.5376 56.7033 33.2769L52.3547 31.5206L44.3549 34.7352Z" fill="url(#paint1_linear_5801_11698)"/>
<path d="M36.6778 16.2629L22.3068 22.6437C21.1993 23.1373 20.7022 24.4338 21.1964 25.5397C21.4268 26.0552 21.8476 26.4622 22.371 26.6758L30.9085 30.1485L35.6405 32.1403C38.0961 33.1404 40.8455 33.1441 43.3038 32.1507L48.5665 29.9857L56.6999 26.6948C58.0123 26.1516 58.6351 24.6488 58.0909 23.3384C57.8304 22.7108 57.3314 22.2118 56.7033 21.9508L42.3775 16.1642C41.5002 15.8096 40.5717 15.6327 39.644 15.6327C38.632 15.6327 37.6208 15.8431 36.6778 16.2629Z" fill="url(#paint2_linear_5801_11698)"/>
</g>
<defs>
<filter id="filter0_d_5801_11698" x="0" y="0" width="128" height="80" filterUnits="userSpaceOnUse" color-interpolation-filters="sRGB">
<feFlood flood-opacity="0" result="BackgroundImageFix"/>
<feColorMatrix in="SourceAlpha" type="matrix" values="0 0 0 0 0 0 0 0 0 0 0 0 0 0 0 0 0 0 127 0" result="hardAlpha"/>
<feOffset dy="4"/>
<feGaussianBlur stdDeviation="4"/>
<feColorMatrix type="matrix" values="0 0 0 0 0.0823529 0 0 0 0 0.207843 0 0 0 0 0.313726 0 0 0 0.12 0"/>
<feBlend mode="normal" in2="BackgroundImageFix" result="effect1_dropShadow_5801_11698"/>
<feBlend mode="normal" in="SourceGraphic" in2="effect1_dropShadow_5801_11698" result="shape"/>
</filter>
<linearGradient id="paint0_linear_5801_11698" x1="39.3059" y1="16.027" x2="39.747" y2="54.7533" gradientUnits="userSpaceOnUse">
<stop stop-color="#B7FDBC"/>
<stop offset="1" stop-color="#FAFD89"/>
</linearGradient>
<linearGradient id="paint1_linear_5801_11698" x1="39.8909" y1="15.0061" x2="39.4498" y2="54.7631" gradientUnits="userSpaceOnUse">
<stop stop-color="#B7FDBC"/>
<stop offset="1" stop-color="#FAFD89"/>
</linearGradient>
<linearGradient id="paint2_linear_5801_11698" x1="39.7118" y1="15.8769" x2="39.4178" y2="54.7504" gradientUnits="userSpaceOnUse">
<stop stop-color="#B7FDBC"/>
<stop offset="1" stop-color="#FAFD89"/>
</linearGradient>
</defs>
</svg>
