<svg fill="none" xmlns="http://www.w3.org/2000/svg" viewBox="0.06 15.77 347.16 306.5"> <path d="M337.571 133.883L340.495 140.009L347.225 140.896L342.301 145.57L343.537 152.245L337.571 149.007L331.605 152.245L332.841 145.57L327.918 140.896L334.648 140.009L337.571 133.883Z" fill="white"></path> <path d="M6.21426 245.864L8.07719 249.768L12.3659 250.334L9.22855 253.312L10.0162 257.565L6.21426 255.502L2.41237 257.565L3.19998 253.312L0.0626683 250.334L4.35134 249.768L6.21426 245.864Z" fill="white"></path> <path d="M304.581 203.124C302.148 243.962 270.25 291.217 233.326 308.654C196.519 326.036 168.587 307.02 171.022 266.195C173.458 225.345 205.346 178.091 242.154 160.706C279.074 143.276 307.015 162.287 304.581 203.124Z" fill="#70E000" stroke="#333333" stroke-width="1.07125" stroke-miterlimit="10"></path> <path d="M313.853 210.049C311.418 250.887 279.524 298.144 242.6 315.58C224.33 324.208 208.235 323.87 196.963 316.342L187.703 309.824C198.969 317.354 215.057 317.704 233.329 309.067C270.253 291.629 302.146 244.374 304.583 203.536C305.802 182.987 299.349 167.974 287.921 160.339L297.191 166.841C308.617 174.49 315.074 189.501 313.853 210.049Z" fill="#4E9D00" stroke="#333333" stroke-width="0.5" stroke-miterlimit="10"></path> <path d="M304.23 203.454C301.798 244.292 269.9 291.547 232.975 308.983C196.168 326.366 168.236 307.35 170.671 266.525C173.107 225.675 204.996 178.42 241.804 161.036C278.724 143.606 306.665 162.617 304.23 203.454Z" stroke="#333333" stroke-width="0.5" stroke-miterlimit="10"></path> <path fill-rule="evenodd" clip-rule="evenodd" d="M206.332 250.475L238.727 180.598C239.146 179.694 240.18 179.596 240.214 180.457L241.796 219.776L261.565 211.18C262.212 210.899 262.626 211.524 262.282 212.265L229.887 282.142C229.468 283.046 228.435 283.144 228.4 282.284L226.819 242.964L207.05 251.56C206.402 251.842 205.989 251.216 206.332 250.475Z" fill="black"></path> <g filter="url(#filter0_d_8555_1850)"> <path fill-rule="evenodd" clip-rule="evenodd" d="M270.002 117.252L274.634 115.554L254.965 147.428L242.986 125.852L248.637 124.142C247.943 64.1625 192.552 45.9011 164.815 44.3656C159.201 44.0547 156.149 39.6718 157.999 34.576C159.848 29.4802 165.899 25.6012 171.513 25.912C203.877 27.7037 267.999 48.4139 270.002 117.252Z" fill="#62BC07"></path> <path d="M274.634 115.554L274.846 115.686L275.225 115.071L274.547 115.32L274.634 115.554ZM270.002 117.252L269.752 117.259L269.762 117.606L270.088 117.487L270.002 117.252ZM254.965 147.428L254.746 147.549L254.953 147.922L255.178 147.559L254.965 147.428ZM242.986 125.852L242.914 125.613L242.617 125.703L242.767 125.974L242.986 125.852ZM248.637 124.142L248.71 124.381L248.89 124.327L248.887 124.139L248.637 124.142ZM164.815 44.3656L164.801 44.6152L164.815 44.3656ZM157.999 34.576L158.234 34.6613L157.999 34.576ZM171.513 25.912L171.499 26.1616L171.513 25.912ZM274.547 115.32L269.915 117.017L270.088 117.487L274.72 115.789L274.547 115.32ZM255.178 147.559L274.846 115.686L274.421 115.423L254.752 147.297L255.178 147.559ZM242.767 125.974L254.746 147.549L255.183 147.307L243.205 125.731L242.767 125.974ZM248.565 123.903L242.914 125.613L243.058 126.091L248.71 124.381L248.565 123.903ZM248.887 124.139C248.539 94.0588 234.47 74.4276 217.011 62.1329C199.563 49.8456 178.733 44.8857 164.829 44.1159L164.801 44.6152C178.634 45.381 199.368 50.3195 216.723 62.5417C234.068 74.7565 248.041 94.2457 248.387 124.145L248.887 124.139ZM164.829 44.1159C162.084 43.964 159.995 42.8199 158.813 41.1223C157.632 39.4264 157.333 37.1437 158.234 34.6613L157.764 34.4907C156.815 37.1041 157.117 39.5608 158.403 41.408C159.688 43.2535 161.931 44.4563 164.801 44.6152L164.829 44.1159ZM158.234 34.6613C159.136 32.1746 161.07 29.9713 163.479 28.427C165.888 26.8829 168.753 26.0095 171.499 26.1616L171.527 25.6623C168.659 25.5036 165.692 26.4144 163.209 28.006C160.727 29.5975 158.711 31.8816 157.764 34.4907L158.234 34.6613ZM171.499 26.1616C187.646 27.0555 211.721 32.6708 232.001 46.6454C252.271 60.6131 268.753 82.9307 269.752 117.259L270.251 117.245C269.247 82.7352 252.667 60.2787 232.285 46.2337C211.912 32.1958 187.744 26.5601 171.527 25.6623L171.499 26.1616Z" fill="black"></path> <path fill-rule="evenodd" clip-rule="evenodd" d="M272.311 113.826L276.943 112.128L257.275 144.002L245.296 122.426L250.947 120.716C250.253 60.7363 194.862 42.4749 167.125 40.9393C161.511 40.6285 158.459 36.2455 160.308 31.1497C162.158 26.0539 168.209 22.1749 173.823 22.4857C206.187 24.2774 270.309 44.9876 272.311 113.826Z" fill="#9DEF4C"></path> <path d="M276.943 112.128L277.156 112.259L277.535 111.645L276.857 111.893L276.943 112.128ZM272.311 113.826L272.061 113.833L272.072 114.18L272.397 114.061L272.311 113.826ZM257.275 144.002L257.056 144.123L257.263 144.496L257.487 144.133L257.275 144.002ZM245.296 122.426L245.223 122.187L244.927 122.276L245.077 122.547L245.296 122.426ZM250.947 120.716L251.02 120.955L251.199 120.901L251.197 120.713L250.947 120.716ZM167.125 40.9393L167.111 41.1889L167.125 40.9393ZM160.308 31.1497L160.543 31.235L160.308 31.1497ZM173.823 22.4857L173.809 22.7353L173.823 22.4857ZM276.857 111.893L272.225 113.591L272.397 114.061L277.029 112.363L276.857 111.893ZM257.487 144.133L277.156 112.259L276.731 111.997L257.062 143.87L257.487 144.133ZM245.077 122.547L257.056 144.123L257.493 143.88L245.514 122.305L245.077 122.547ZM250.875 120.476L245.223 122.187L245.368 122.665L251.02 120.955L250.875 120.476ZM251.197 120.713C250.849 90.6325 236.779 71.0014 219.321 58.7067C201.873 46.4194 181.043 41.4594 167.138 40.6897L167.111 41.1889C180.943 41.9547 201.678 46.8933 219.033 59.1155C236.378 71.3302 250.351 90.8195 250.697 120.719L251.197 120.713ZM167.138 40.6897C164.394 40.5377 162.305 39.3936 161.123 37.696C159.942 36.0001 159.642 33.7174 160.543 31.235L160.073 31.0644C159.125 33.6778 159.426 36.1345 160.712 37.9817C161.997 39.8273 164.241 41.03 167.111 41.1889L167.138 40.6897ZM160.543 31.235C161.446 28.7483 163.38 26.545 165.789 25.0007C168.197 23.4566 171.062 22.5832 173.809 22.7353L173.837 22.2361C170.969 22.0773 168.002 22.9881 165.519 24.5798C163.037 26.1712 161.021 28.4553 160.073 31.0644L160.543 31.235ZM173.809 22.7353C189.956 23.6292 214.03 29.2445 234.311 43.2192C254.581 57.1868 271.063 79.5045 272.061 113.833L272.561 113.819C271.557 79.3089 254.977 56.8524 234.594 42.8074C214.222 28.7695 190.054 23.1339 173.837 22.2361L173.809 22.7353Z" fill="black"></path> </g> <g filter="url(#filter1_d_8555_1850)"> <path fill-rule="evenodd" clip-rule="evenodd" d="M60.2604 194.387L55.6285 196.084L75.2971 164.211L87.2759 185.786L81.6246 187.497C82.3191 247.476 137.71 265.738 165.447 267.273C171.061 267.584 174.113 271.967 172.263 277.063C170.414 282.159 164.363 286.038 158.749 285.727C126.385 283.935 62.2632 263.225 60.2604 194.387Z" fill="#62BC07"></path> <path d="M55.6285 196.084L55.4157 195.953L55.0365 196.568L55.7145 196.319L55.6285 196.084ZM60.2604 194.387L60.5103 194.379L60.5002 194.032L60.1744 194.152L60.2604 194.387ZM75.2971 164.211L75.5157 164.089L75.3085 163.716L75.0844 164.08L75.2971 164.211ZM87.2759 185.786L87.3483 186.026L87.6449 185.936L87.4945 185.665L87.2759 185.786ZM81.6246 187.497L81.5522 187.257L81.3724 187.312L81.3746 187.5L81.6246 187.497ZM165.447 267.273L165.461 267.023L165.447 267.273ZM172.263 277.063L172.028 276.977L172.263 277.063ZM158.749 285.727L158.763 285.477L158.749 285.727ZM55.7145 196.319L60.3465 194.621L60.1744 194.152L55.5424 195.85L55.7145 196.319ZM75.0844 164.08L55.4157 195.953L55.8412 196.216L75.5099 164.342L75.0844 164.08ZM87.4945 185.665L75.5157 164.089L75.0786 164.332L87.0573 185.908L87.4945 185.665ZM81.697 187.736L87.3483 186.026L87.2035 185.547L81.5522 187.257L81.697 187.736ZM81.3746 187.5C81.7229 217.58 95.7924 237.211 113.251 249.506C130.699 261.793 151.529 266.753 165.433 267.523L165.461 267.023C151.628 266.258 130.894 261.319 113.539 249.097C96.1939 236.882 82.2208 217.393 81.8745 187.494L81.3746 187.5ZM165.433 267.523C168.178 267.675 170.267 268.819 171.449 270.516C172.63 272.212 172.929 274.495 172.028 276.977L172.498 277.148C173.447 274.535 173.145 272.078 171.859 270.231C170.574 268.385 168.331 267.182 165.461 267.023L165.433 267.523ZM172.028 276.977C171.126 279.464 169.192 281.667 166.783 283.212C164.374 284.756 161.509 285.629 158.763 285.477L158.735 285.976C161.602 286.135 164.57 285.224 167.053 283.633C169.535 282.041 171.551 279.757 172.498 277.148L172.028 276.977ZM158.763 285.477C142.616 284.583 118.541 278.968 98.2611 264.993C77.9909 251.026 61.5091 228.708 60.5103 194.379L60.0105 194.394C61.0145 228.903 77.595 251.36 97.9774 265.405C118.35 279.443 142.518 285.079 158.735 285.976L158.763 285.477Z" fill="black"></path> <path fill-rule="evenodd" clip-rule="evenodd" d="M57.9494 197.813L53.3174 199.511L72.9861 167.637L84.9649 189.213L79.3135 190.923C80.0081 250.902 135.399 269.164 163.136 270.699C168.75 271.01 171.802 275.393 169.952 280.489C168.103 285.585 162.052 289.464 156.438 289.153C124.074 287.361 59.9521 266.651 57.9494 197.813Z" fill="#9DEF4C"></path> <path d="M53.3174 199.511L53.1047 199.379L52.7255 199.994L53.4035 199.745L53.3174 199.511ZM57.9494 197.813L58.1993 197.806L58.1892 197.459L57.8634 197.578L57.9494 197.813ZM72.9861 167.637L73.2047 167.516L72.9975 167.143L72.7733 167.506L72.9861 167.637ZM84.9649 189.213L85.0373 189.452L85.3339 189.362L85.1835 189.091L84.9649 189.213ZM79.3135 190.923L79.2411 190.684L79.0614 190.738L79.0635 190.926L79.3135 190.923ZM163.136 270.699L163.15 270.45L163.136 270.699ZM169.952 280.489L169.717 280.404L169.952 280.489ZM156.438 289.153L156.452 288.903L156.438 289.153ZM53.4035 199.745L58.0354 198.048L57.8634 197.578L53.2314 199.276L53.4035 199.745ZM72.7733 167.506L53.1047 199.379L53.5302 199.642L73.1989 167.768L72.7733 167.506ZM85.1835 189.091L73.2047 167.516L72.7675 167.758L84.7463 189.334L85.1835 189.091ZM79.3859 191.162L85.0373 189.452L84.8925 188.973L79.2411 190.684L79.3859 191.162ZM79.0635 190.926C79.4119 221.006 93.4814 240.637 110.94 252.932C128.388 265.219 149.218 270.179 163.122 270.949L163.15 270.45C149.317 269.684 128.583 264.745 111.228 252.523C93.8829 240.308 79.9097 220.819 79.5635 190.92L79.0635 190.926ZM163.122 270.949C165.867 271.101 167.956 272.245 169.138 273.943C170.319 275.639 170.618 277.921 169.717 280.404L170.187 280.574C171.136 277.961 170.834 275.504 169.548 273.657C168.263 271.811 166.02 270.609 163.15 270.45L163.122 270.949ZM169.717 280.404C168.815 282.89 166.881 285.094 164.472 286.638C162.063 288.182 159.198 289.055 156.452 288.903L156.424 289.403C159.291 289.561 162.259 288.651 164.742 287.059C167.224 285.467 169.24 283.183 170.187 280.574L169.717 280.404ZM156.452 288.903C140.305 288.009 116.23 282.394 95.95 268.42C75.6799 254.452 59.198 232.134 58.1993 197.806L57.6995 197.82C58.7035 232.33 75.284 254.786 95.6663 268.831C116.039 282.869 140.207 288.505 156.424 289.403L156.452 288.903Z" fill="black"></path> </g> <path d="M42.5343 74.6036C52.1781 118.256 94.4684 164.45 136.999 177.76C179.394 191.029 206.014 166.387 196.37 122.748C186.72 79.0836 144.44 32.8883 102.044 19.6169C59.5193 6.31306 32.8879 30.9513 42.5343 74.6036Z" fill="#F0B90B" stroke="#6562E7" stroke-width="0.203659" stroke-miterlimit="10"></path> <path d="M33.7307 83.0072C43.3771 126.659 85.6638 172.857 128.194 186.166C149.238 192.752 166.407 189.998 177.176 180.212L185.964 171.811C175.203 181.599 158.043 184.366 136.994 177.77C94.4646 164.458 52.1798 118.263 42.5304 74.6119C37.683 52.6454 42.0026 35.506 52.919 25.5812L44.1166 33.965C33.2051 43.9056 28.8808 61.0426 33.7307 83.0072Z" fill="#BF9100" stroke="#333333" stroke-width="0.203659" stroke-miterlimit="10"></path> <path d="M42.8954 74.4693C52.5392 118.122 94.8295 164.316 137.36 177.626C179.755 190.895 206.376 166.252 196.731 122.614C187.081 78.9493 144.801 32.7541 102.405 19.4826C59.8803 6.17878 33.2489 30.8171 42.8954 74.4693Z" stroke="#333333" stroke-width="0.203659" stroke-miterlimit="10"></path> <path d="M94.8564 118.468L86.7699 109.334C86.5397 109.074 86.4736 108.719 86.5971 108.406L98.0383 79.4294C98.1618 79.1163 98.4561 78.891 98.8092 78.8353L110.065 77.1132C110.421 77.0598 110.784 77.1868 111.015 77.4497L119.09 86.571C119.588 87.1309 119.255 87.9768 118.492 88.0938L108.391 89.6401C108.037 89.6931 107.743 89.9212 107.62 90.2343L96.5773 118.211C96.3095 118.888 95.3548 119.031 94.8564 118.468Z" fill="#010101"></path> <path d="M147.083 117.333L142.743 128.325C142.62 128.641 142.326 128.866 141.969 128.919L109.219 133.823C108.866 133.876 108.506 133.748 108.273 133.489L100.913 125.232C100.679 124.97 100.613 124.614 100.739 124.301L105.076 113.321C105.344 112.646 106.295 112.501 106.796 113.061L113.399 120.468C113.629 120.728 113.989 120.855 114.345 120.802L145.966 116.067C146.732 115.953 147.354 116.656 147.086 117.333L147.083 117.333Z" fill="#010101"></path> <path d="M119.297 75.7246L131.72 73.8645C132.077 73.8111 132.436 73.9385 132.667 74.2014L153.975 98.2744C154.206 98.5345 154.271 98.8872 154.148 99.2003L150.249 109.18C150.126 109.495 149.829 109.724 149.473 109.777L137.064 111.635C136.301 111.749 135.68 111.049 135.942 110.373L139.441 101.419C139.564 101.106 139.496 100.754 139.269 100.493L118.693 77.251C118.195 76.6883 118.528 75.8425 119.294 75.7278L119.297 75.7246Z" fill="#010101"></path> <path d="M140.435 161.82C177.702 169.865 198.298 147.136 186.631 110.84C174.965 74.543 135.597 38.8703 98.3302 30.8256C61.063 22.7808 40.4674 45.5095 52.134 81.8062C63.8007 118.103 103.168 153.776 140.435 161.82Z" fill="#F0B90B"></path> <g clip-path="url(#clip0_8555_1850)"> <path fill-rule="evenodd" clip-rule="evenodd" d="M93.758 45.8435C124.934 40.9939 161.841 59.8342 176.2 87.928C190.559 116.022 176.929 142.724 145.753 147.573C114.577 152.423 77.6699 133.582 63.3108 105.489C48.9517 77.3948 62.5822 50.693 93.758 45.8435Z" fill="#F0B90B"></path> <path d="M94.3328 100.663L101.248 114.107L117.367 118.859L121.392 126.733L95.857 119.235L84.9414 97.8781L94.3328 100.663ZM87.4585 87.2132L91.4644 95.0508L82.0663 92.2625L78.0604 84.4249L83.4339 79.3389L92.8681 82.1215L87.4585 87.2132ZM103.465 80.4731L108.839 75.3871L118.273 78.1697L112.863 83.2613L103.465 80.4731Z" fill="white"></path> <path d="M105.119 110.495L101.095 102.621L110.493 105.409L114.499 113.246L105.119 110.495ZM124.105 120.855L133.503 123.644L138.912 118.552L142.918 126.389L137.509 131.481L128.111 128.693L124.105 120.855ZM128.865 76.522L134.239 71.436L143.673 74.2186L147.679 82.0562L142.269 87.1479L138.263 79.3103L128.865 76.522ZM152.012 106.21L145.178 92.7538L150.552 87.6677L161.467 109.024L146.794 122.777L142.77 114.903L152.012 106.21Z" fill="white"></path> <path d="M145.291 104.246L139.899 109.295L135.893 101.458L141.266 96.3716L145.291 104.246Z" fill="white"></path> <path d="M134.392 82.9219L138.457 90.7898L129.176 99.4931L136.067 112.976L130.675 118.025L121.296 115.273L114.405 101.791L98.2494 97.0444L94.2247 89.1701L99.6298 84.0791L115.725 88.8702L124.989 80.1343L134.424 82.9169L134.392 82.9219ZM87.3479 75.725L101.966 61.9413L127.52 69.4761L122.146 74.5621L105.974 69.783L96.746 78.5133L87.3479 75.725Z" fill="white"></path> </g> <defs> <filter id="filter0_d_8555_1850" x="140.908" y="22.2183" width="152.927" height="162.004" filterUnits="userSpaceOnUse" color-interpolation-filters="sRGB"> <feFlood flood-opacity="0" result="BackgroundImageFix"></feFlood> <feColorMatrix in="SourceAlpha" type="matrix" values="0 0 0 0 0 0 0 0 0 0 0 0 0 0 0 0 0 0 127 0" result="hardAlpha"></feColorMatrix> <feOffset dy="20"></feOffset> <feGaussianBlur stdDeviation="8.15"></feGaussianBlur> <feComposite in2="hardAlpha" operator="out"></feComposite> <feColorMatrix type="matrix" values="0 0 0 0 0 0 0 0 0 0 0 0 0 0 0 0 0 0 0.1 0"></feColorMatrix> <feBlend mode="normal" in2="BackgroundImageFix" result="effect1_dropShadow_8555_1850"></feBlend> <feBlend mode="normal" in="SourceGraphic" in2="effect1_dropShadow_8555_1850" result="shape"></feBlend> </filter> <filter id="filter1_d_8555_1850" x="36.4253" y="163.716" width="152.928" height="162.004" filterUnits="userSpaceOnUse" color-interpolation-filters="sRGB"> <feFlood flood-opacity="0" result="BackgroundImageFix"></feFlood> <feColorMatrix in="SourceAlpha" type="matrix" values="0 0 0 0 0 0 0 0 0 0 0 0 0 0 0 0 0 0 127 0" result="hardAlpha"></feColorMatrix> <feOffset dy="20"></feOffset> <feGaussianBlur stdDeviation="8.15"></feGaussianBlur> <feComposite in2="hardAlpha" operator="out"></feComposite> <feColorMatrix type="matrix" values="0 0 0 0 0 0 0 0 0 0 0 0 0 0 0 0 0 0 0.1 0"></feColorMatrix> <feBlend mode="normal" in2="BackgroundImageFix" result="effect1_dropShadow_8555_1850"></feBlend> <feBlend mode="normal" in="SourceGraphic" in2="effect1_dropShadow_8555_1850" result="shape"></feBlend> </filter> <clipPath id="clip0_8555_1850"> <rect width="114.247" height="114.247" fill="white" transform="matrix(0.988117 -0.153707 0.455111 0.890435 37.3132 54.6238)"></rect> </clipPath> </defs> </svg>