<svg fill="none" xmlns="http://www.w3.org/2000/svg" viewBox="0.45 10.52 136.19 123.63"> <path d="M132.859 60.0918L134.006 62.4953L136.646 62.8433L134.714 64.6768L135.199 67.2954L132.859 66.0251L130.518 67.2954L131.003 64.6768L129.072 62.8433L131.712 62.4953L132.859 60.0918Z" fill="white"></path> <path d="M2.86442 104.023L3.59527 105.555L5.27775 105.777L4.04695 106.945L4.35594 108.614L2.86442 107.804L1.37291 108.614L1.68189 106.945L0.451099 105.777L2.13358 105.555L2.86442 104.023Z" fill="white"></path> <path d="M119.916 87.2559C118.962 103.277 106.448 121.815 91.9622 128.656C77.5225 135.475 66.5645 128.015 67.5199 111.999C68.4756 95.9734 80.9857 77.4349 95.4257 70.6147C109.91 63.7767 120.871 71.2349 119.916 87.2559Z" fill="#70E000" stroke="#333333" stroke-width="1.07125" stroke-miterlimit="10"></path> <path d="M123.554 89.9724C122.599 105.993 110.086 124.533 95.6006 131.373C88.4331 134.758 82.1189 134.625 77.6967 131.672L74.064 129.115C78.4837 132.069 84.7951 132.207 91.9636 128.818C106.449 121.977 118.961 103.438 119.917 87.4175C120.395 79.3558 117.864 73.4659 113.38 70.4709L117.017 73.0216C121.5 76.0224 124.033 81.9113 123.554 89.9724Z" fill="#4E9D00" stroke="#333333" stroke-width="0.5" stroke-miterlimit="10"></path> <path d="M119.778 87.3853C118.824 103.406 106.31 121.945 91.8245 128.785C77.3848 135.605 66.4269 128.144 67.3823 112.128C68.3379 96.1028 80.848 77.5643 95.288 70.7441C109.772 63.9061 120.734 71.3643 119.778 87.3853Z" stroke="#333333" stroke-width="0.5" stroke-miterlimit="10"></path> <path fill-rule="evenodd" clip-rule="evenodd" d="M81.8652 104.769L93.2466 80.219C93.6656 79.3154 94.699 79.2171 94.7336 80.0776L95.285 93.7883L102.111 90.82C102.759 90.5384 103.173 91.1636 102.829 91.9046L91.4478 116.455C91.0289 117.358 89.9955 117.457 89.9609 116.596L89.4095 102.885L82.5831 105.854C81.9355 106.135 81.5217 105.51 81.8652 104.769Z" fill="black"></path> <g filter="url(#filter0_d_8555_1850)"> <path fill-rule="evenodd" clip-rule="evenodd" d="M63.0496 30.5807C72.4916 31.1034 91.4709 37.4856 91.4678 58.1537L95.8862 57.1829L100.451 65.4057L107.037 54.7328L112.873 53.4506C112.878 22.1705 84.1571 12.9248 69.7478 12.1271C64.1337 11.8163 58.0831 15.6953 56.2334 20.7911C54.3838 25.8869 57.4355 30.2699 63.0496 30.5807Z" fill="#62BC07"></path> <path d="M91.4678 58.1537L91.2178 58.1537L91.2177 58.4646L91.5214 58.3979L91.4678 58.1537ZM63.0496 30.5807L63.0358 30.8303L63.0496 30.5807ZM95.8862 57.1829L96.1047 57.0616L96.0144 56.8988L95.8325 56.9388L95.8862 57.1829ZM100.451 65.4057L100.233 65.527L100.44 65.9002L100.664 65.5369L100.451 65.4057ZM107.037 54.7328L106.984 54.4886L106.88 54.5113L106.825 54.6015L107.037 54.7328ZM112.873 53.4506L112.927 53.6947L113.123 53.6516L113.123 53.4506L112.873 53.4506ZM69.7478 12.1271L69.734 12.3767L69.7478 12.1271ZM56.2334 20.7911L56.4684 20.8764L56.2334 20.7911ZM91.7178 58.1538C91.7194 47.7292 86.928 40.8947 80.9462 36.6095C74.9752 32.3319 67.8215 30.5945 63.0635 30.3311L63.0358 30.8303C67.7198 31.0896 74.7766 32.8047 80.655 37.0159C86.5226 41.2194 91.2193 47.9101 91.2178 58.1537L91.7178 58.1538ZM95.8325 56.9388L91.4141 57.9095L91.5214 58.3979L95.9398 57.4271L95.8325 56.9388ZM95.6676 57.3043L100.233 65.527L100.67 65.2843L96.1047 57.0616L95.6676 57.3043ZM100.664 65.5369L107.25 54.8641L106.825 54.6015L100.239 65.2744L100.664 65.5369ZM112.82 53.2064L106.984 54.4886L107.091 54.977L112.927 53.6947L112.82 53.2064ZM69.734 12.3767C76.9039 12.7736 87.6382 15.2743 96.572 21.5624C105.495 27.8425 112.626 37.9015 112.623 53.4505L113.123 53.4506C113.126 37.7196 105.899 27.5157 96.8598 21.1535C87.8319 14.7993 77.001 12.2783 69.7617 11.8775L69.734 12.3767ZM56.4684 20.8764C57.3711 18.3897 59.305 16.1864 61.7139 14.6421C64.1224 13.098 66.9873 12.2246 69.734 12.3767L69.7617 11.8775C66.8942 11.7187 63.9268 12.6295 61.444 14.2212C58.9617 15.8126 56.9455 18.0967 55.9985 20.7058L56.4684 20.8764ZM63.0635 30.3311C60.319 30.1791 58.2298 29.035 57.0478 27.3374C55.867 25.6415 55.5674 23.3588 56.4684 20.8764L55.9985 20.7058C55.0498 23.3192 55.3513 25.7759 56.6375 27.6231C57.9224 29.4687 60.1662 30.6714 63.0358 30.8303L63.0635 30.3311Z" fill="black"></path> <path fill-rule="evenodd" clip-rule="evenodd" d="M63.9559 29.2367C73.3978 29.7594 92.3772 36.1416 92.374 56.8097L96.7924 55.8389L101.358 64.0617L107.944 53.3888L113.78 52.1066C113.784 20.8265 85.0634 11.5808 70.6541 10.7831C65.04 10.4723 58.9894 14.3513 57.1397 19.4471C55.29 24.5429 58.3418 28.9259 63.9559 29.2367Z" fill="#9DEF4C"></path> <path d="M92.374 56.8097L92.124 56.8097L92.124 57.1206L92.4277 57.0539L92.374 56.8097ZM63.9559 29.2367L63.9697 28.9871L63.9559 29.2367ZM96.7924 55.8389L97.011 55.7176L96.9206 55.5548L96.7388 55.5948L96.7924 55.8389ZM101.358 64.0617L101.139 64.183L101.346 64.5562L101.57 64.1929L101.358 64.0617ZM107.944 53.3888L107.89 53.1446L107.787 53.1674L107.731 53.2575L107.944 53.3888ZM113.78 52.1066L113.833 52.3507L114.03 52.3076L114.03 52.1066L113.78 52.1066ZM70.6541 10.7831L70.6403 11.0327L70.6541 10.7831ZM57.1397 19.4471L57.3747 19.5324L57.1397 19.4471ZM92.624 56.8098C92.6256 46.3852 87.8342 39.5508 81.8525 35.2655C75.8815 30.9879 68.7277 29.2505 63.9697 28.9871L63.9421 29.4863C68.626 29.7456 75.6829 31.4607 81.5613 35.6719C87.4289 39.8754 92.1256 46.5662 92.124 56.8097L92.624 56.8098ZM96.7388 55.5948L92.3204 56.5656L92.4277 57.0539L96.8461 56.0831L96.7388 55.5948ZM96.5738 55.9603L101.139 64.183L101.576 63.9403L97.011 55.7176L96.5738 55.9603ZM101.57 64.1929L108.156 53.5201L107.731 53.2575L101.145 63.9304L101.57 64.1929ZM113.726 51.8624L107.89 53.1446L107.997 53.633L113.833 52.3507L113.726 51.8624ZM70.6403 11.0327C77.8102 11.4296 88.5444 13.9303 97.4782 20.2184C106.401 26.4985 113.532 36.5575 113.53 52.1065L114.03 52.1066C114.032 36.3756 106.805 26.1717 97.766 19.8095C88.7382 13.4553 77.9073 10.9343 70.6679 10.5335L70.6403 11.0327ZM57.3747 19.5324C58.2773 17.0457 60.2112 14.8424 62.6201 13.2981C65.0287 11.754 67.8935 10.8806 70.6403 11.0327L70.6679 10.5335C67.8005 10.3747 64.833 11.2855 62.3503 12.8772C59.8679 14.4686 57.8518 16.7527 56.9047 19.3618L57.3747 19.5324ZM63.9697 28.9871C61.2252 28.8351 59.136 27.691 57.954 25.9934C56.7732 24.2975 56.4736 22.0148 57.3747 19.5324L56.9047 19.3618C55.9561 21.9752 56.2576 24.4319 57.5437 26.2791C58.8287 28.1247 61.0724 29.3274 63.9421 29.4863L63.9697 28.9871Z" fill="black"></path> </g> <g filter="url(#filter1_d_8555_1850)"> <path fill-rule="evenodd" clip-rule="evenodd" d="M67.3678 106.815C57.9259 106.292 38.9465 99.9096 38.9497 79.2415L34.5313 80.2123L29.9661 71.9896L23.38 82.6625L17.5442 83.9447C17.5393 115.225 46.2604 124.47 60.6696 125.268C66.2838 125.579 72.3344 121.7 74.184 116.604C76.0337 111.508 72.982 107.125 67.3678 106.815Z" fill="#62BC07"></path> <path d="M38.9497 79.2415L39.1997 79.2416L39.1998 78.9306L38.8961 78.9974L38.9497 79.2415ZM67.3678 106.815L67.3817 106.565L67.3678 106.815ZM34.5313 80.2123L34.3127 80.3337L34.4031 80.4965L34.585 80.4565L34.5313 80.2123ZM29.9661 71.9896L30.1846 71.8683L29.9774 71.4951L29.7533 71.8583L29.9661 71.9896ZM23.38 82.6625L23.4336 82.9066L23.5371 82.8839L23.5927 82.7938L23.38 82.6625ZM17.5442 83.9447L17.4905 83.7005L17.2942 83.7437L17.2942 83.9447L17.5442 83.9447ZM60.6696 125.268L60.6835 125.019L60.6696 125.268ZM74.184 116.604L73.949 116.519L74.184 116.604ZM38.6997 79.2415C38.6981 89.6661 43.4895 96.5005 49.4713 100.786C55.4423 105.063 62.596 106.801 67.354 107.064L67.3817 106.565C62.6977 106.306 55.6408 104.591 49.7625 100.379C43.8948 96.1758 39.1981 89.4851 39.1997 79.2416L38.6997 79.2415ZM34.585 80.4565L39.0034 79.4857L38.8961 78.9974L34.4777 79.9682L34.585 80.4565ZM34.7499 80.091L30.1846 71.8683L29.7475 72.111L34.3127 80.3337L34.7499 80.091ZM29.7533 71.8583L23.1672 82.5312L23.5927 82.7938L30.1788 72.1209L29.7533 71.8583ZM17.5978 84.1889L23.4336 82.9066L23.3263 82.4183L17.4905 83.7005L17.5978 84.1889ZM60.6835 125.019C53.5136 124.622 42.7793 122.121 33.8455 115.833C24.923 109.553 17.7918 99.4938 17.7942 83.9447L17.2942 83.9447C17.2917 99.6757 24.5186 109.88 33.5577 116.242C42.5856 122.596 53.4164 125.117 60.6558 125.518L60.6835 125.019ZM73.949 116.519C73.0464 119.006 71.1125 121.209 68.7036 122.753C66.2951 124.297 63.4302 125.171 60.6835 125.019L60.6558 125.518C63.5232 125.677 66.4907 124.766 68.9734 123.174C71.4558 121.583 73.472 119.299 74.419 116.689L73.949 116.519ZM67.354 107.064C70.0985 107.216 72.1877 108.36 73.3697 110.058C74.5505 111.754 74.8501 114.036 73.949 116.519L74.419 116.689C75.3676 114.076 75.0662 111.619 73.78 109.772C72.495 107.927 70.2513 106.724 67.3817 106.565L67.354 107.064Z" fill="black"></path> <path fill-rule="evenodd" clip-rule="evenodd" d="M66.4614 108.159C57.0194 107.636 38.04 101.254 38.0432 80.5858L33.6248 81.5566L29.0596 73.3338L22.4735 84.0067L16.6377 85.2889C16.6328 116.569 45.3539 125.815 59.7632 126.612C65.3773 126.923 71.4279 123.044 73.2775 117.948C75.1272 112.853 72.0755 108.47 66.4614 108.159Z" fill="#9DEF4C"></path> <path d="M38.0432 80.5858L38.2932 80.5858L38.2933 80.2749L37.9896 80.3416L38.0432 80.5858ZM66.4614 108.159L66.4752 107.909L66.4614 108.159ZM33.6248 81.5566L33.4062 81.6779L33.4966 81.8407L33.6785 81.8008L33.6248 81.5566ZM29.0596 73.3338L29.2781 73.2125L29.071 72.8393L28.8468 73.2026L29.0596 73.3338ZM22.4735 84.0067L22.5271 84.2509L22.6306 84.2282L22.6863 84.138L22.4735 84.0067ZM16.6377 85.2889L16.584 85.0448L16.3877 85.0879L16.3877 85.2889L16.6377 85.2889ZM59.7632 126.612L59.777 126.363L59.7632 126.612ZM73.2775 117.948L73.0425 117.863L73.2775 117.948ZM37.7932 80.5857C37.7916 91.0103 42.583 97.8448 48.5648 102.13C54.5358 106.408 61.6895 108.145 66.4475 108.408L66.4752 107.909C61.7912 107.65 54.7343 105.935 48.856 101.724C42.9883 97.5201 38.2916 90.8294 38.2932 80.5858L37.7932 80.5857ZM33.6785 81.8008L38.0969 80.83L37.9896 80.3416L33.5712 81.3124L33.6785 81.8008ZM33.8434 81.4352L29.2781 73.2125L28.841 73.4552L33.4062 81.6779L33.8434 81.4352ZM28.8468 73.2026L22.2607 83.8754L22.6863 84.138L29.2723 73.4651L28.8468 73.2026ZM16.6913 85.5331L22.5271 84.2509L22.4199 83.7625L16.584 85.0448L16.6913 85.5331ZM59.777 126.363C52.6071 125.966 41.8728 123.465 32.939 117.177C24.0165 110.897 16.8853 100.838 16.8877 85.289L16.3877 85.2889C16.3852 101.02 23.6121 111.224 32.6512 117.586C41.6791 123.94 52.51 126.461 59.7493 126.862L59.777 126.363ZM73.0425 117.863C72.1399 120.35 70.206 122.553 67.7971 124.097C65.3886 125.642 62.5237 126.515 59.777 126.363L59.7493 126.862C62.6167 127.021 65.5842 126.11 68.067 124.518C70.5493 122.927 72.5655 120.643 73.5125 118.034L73.0425 117.863ZM66.4475 108.408C69.192 108.56 71.2812 109.704 72.4632 111.402C73.644 113.098 73.9436 115.381 73.0425 117.863L73.5125 118.034C74.4611 115.42 74.1597 112.964 72.8735 111.116C71.5885 109.271 69.3448 108.068 66.4752 107.909L66.4475 108.408Z" fill="black"></path> </g> <path d="M17.1132 36.8364C20.8965 53.9616 37.4874 72.0839 54.1724 77.3056C70.8045 82.5113 81.2478 72.8437 77.4642 55.7241C73.6785 38.594 57.0917 20.4712 40.4592 15.2647C23.7765 10.0455 13.3288 19.7113 17.1132 36.8364Z" fill="#F0B90B" stroke="#6562E7" stroke-width="0.203659" stroke-miterlimit="10"></path> <path d="M13.6595 40.1334C17.4439 57.2585 34.0333 75.3821 50.7181 80.6034C58.9738 83.1874 65.7097 82.1067 69.9342 78.2675L73.3818 74.9718C69.1602 78.8119 62.4281 79.8973 54.1707 77.3097C37.4859 72.0873 20.8972 53.9646 17.1117 36.8398C15.21 28.2222 16.9046 21.4983 21.1872 17.6047L17.734 20.8937C13.4533 24.7935 11.7568 31.5165 13.6595 40.1334Z" fill="#BF9100" stroke="#333333" stroke-width="0.203659" stroke-miterlimit="10"></path> <path d="M17.2548 36.784C21.0381 53.9091 37.629 72.0314 54.314 77.2531C70.9461 82.4588 81.3894 72.7913 77.6058 55.6716C73.8201 38.5415 57.2333 20.4187 40.6008 15.2122C23.9181 9.99301 13.4704 19.6588 17.2548 36.784Z" stroke="#333333" stroke-width="0.203659" stroke-miterlimit="10"></path> <path d="M37.6395 54.0451L34.4671 50.4618C34.3768 50.3598 34.3508 50.2203 34.3993 50.0975L38.8878 38.7298C38.9362 38.607 39.0517 38.5186 39.1902 38.4968L43.6059 37.8212C43.7458 37.8002 43.8881 37.85 43.9786 37.9532L47.1465 41.5315C47.3418 41.7512 47.2111 42.083 46.9119 42.1289L42.9491 42.7356C42.8104 42.7564 42.6952 42.8458 42.6467 42.9687L38.3146 53.944C38.2096 54.2098 37.835 54.2658 37.6395 54.0451Z" fill="#010101"></path> <path d="M58.1286 53.5997L56.4259 57.9118C56.3776 58.0357 56.2622 58.1241 56.1223 58.145L43.2744 60.0687C43.1356 60.0894 42.9944 60.0395 42.903 59.9376L40.0156 56.6984C39.924 56.5954 39.898 56.4559 39.9476 56.3329L41.6488 52.0256C41.7541 51.7609 42.1272 51.7039 42.3237 51.9234L44.9139 54.8293C45.0042 54.9313 45.1454 54.9813 45.2852 54.9604L57.6904 53.103C57.991 53.058 58.2348 53.3338 58.1298 53.5995L58.1286 53.5997Z" fill="#010101"></path> <path d="M47.2277 37.2763L52.1014 36.5466C52.2413 36.5256 52.3825 36.5756 52.473 36.6787L60.8324 46.1228C60.9227 46.2248 60.9485 46.3632 60.9 46.486L59.3706 50.401C59.3224 50.5249 59.206 50.6145 59.0661 50.6355L54.1981 51.3643C53.8987 51.4092 53.6551 51.1345 53.7578 50.8691L55.1304 47.3565C55.1788 47.2337 55.1519 47.0955 55.0628 46.9933L46.9909 37.8751C46.7954 37.6544 46.9261 37.3225 47.2267 37.2775L47.2277 37.2763Z" fill="#010101"></path> <path d="M55.5205 71.0522C70.1407 74.2082 78.2205 65.2916 73.6436 51.052C69.0667 36.8125 53.6226 22.8178 39.0023 19.6618C24.3821 16.5058 16.3023 25.4225 20.8792 39.662C25.4561 53.9015 40.9002 67.8962 55.5205 71.0522Z" fill="#F0B90B"></path> <g clip-path="url(#clip0_8555_1850)"> <path fill-rule="evenodd" clip-rule="evenodd" d="M37.2085 25.5535C49.439 23.6509 63.9181 31.0421 69.5513 42.0636C75.1845 53.085 69.8371 63.5604 57.6066 65.4629C45.3761 67.3654 30.897 59.9742 25.2638 48.9528C19.6306 37.9313 24.9779 27.456 37.2085 25.5535Z" fill="#F0B90B"></path> <path d="M37.434 47.0597L40.1468 52.3337L46.4705 54.198L48.0494 57.2871L38.032 54.3456L33.7497 45.9672L37.434 47.0597ZM34.7371 41.7832L36.3087 44.8579L32.6217 43.7641L31.0502 40.6893L33.1582 38.6941L36.8594 39.7857L34.7371 41.7832ZM41.0167 39.139L43.1247 37.1437L46.8258 38.2354L44.7036 40.2329L41.0167 39.139Z" fill="white"></path> <path d="M41.6656 50.9168L40.0867 47.8277L43.7737 48.9216L45.3452 51.9963L41.6656 50.9168ZM49.1138 54.9813L52.8007 56.0751L54.923 54.0776L56.4945 57.1524L54.3723 59.1499L50.6853 58.056L49.1138 54.9813ZM50.9813 37.589L53.0894 35.5937L56.7905 36.6853L58.3621 39.7601L56.2398 41.7576L54.6683 38.6828L50.9813 37.589ZM60.062 49.2358L57.3811 43.9568L59.4892 41.9615L63.7715 50.34L58.0151 55.7352L56.4362 52.6461L60.062 49.2358Z" fill="white"></path> <path d="M57.4254 48.4653L55.31 50.4462L53.7384 47.3715L55.8465 45.3762L57.4254 48.4653Z" fill="white"></path> <path d="M53.1495 40.0997L54.7444 43.1864L51.1034 46.6007L53.8068 51.89L51.6914 53.8709L48.0118 52.7915L45.3084 47.5022L38.9705 45.6401L37.3916 42.5509L39.5121 40.5537L45.8263 42.4333L49.4608 39.0061L53.162 40.0978L53.1495 40.0997ZM34.6938 37.2763L40.4287 31.8689L50.4535 34.8248L48.3454 36.8201L42.001 34.9452L38.3807 38.3702L34.6938 37.2763Z" fill="white"></path> </g> <defs> <filter id="filter0_d_8555_1850" x="39.1431" y="10.5156" width="91.1864" height="91.6845" filterUnits="userSpaceOnUse" color-interpolation-filters="sRGB"> <feFlood flood-opacity="0" result="BackgroundImageFix"></feFlood> <feColorMatrix in="SourceAlpha" type="matrix" values="0 0 0 0 0 0 0 0 0 0 0 0 0 0 0 0 0 0 127 0" result="hardAlpha"></feColorMatrix> <feOffset dy="20"></feOffset> <feGaussianBlur stdDeviation="8.15"></feGaussianBlur> <feComposite in2="hardAlpha" operator="out"></feComposite> <feColorMatrix type="matrix" values="0 0 0 0 0 0 0 0 0 0 0 0 0 0 0 0 0 0 0.1 0"></feColorMatrix> <feBlend mode="normal" in2="BackgroundImageFix" result="effect1_dropShadow_8555_1850"></feBlend> <feBlend mode="normal" in="SourceGraphic" in2="effect1_dropShadow_8555_1850" result="shape"></feBlend> </filter> <filter id="filter1_d_8555_1850" x="0.0876961" y="71.4951" width="91.1867" height="91.6848" filterUnits="userSpaceOnUse" color-interpolation-filters="sRGB"> <feFlood flood-opacity="0" result="BackgroundImageFix"></feFlood> <feColorMatrix in="SourceAlpha" type="matrix" values="0 0 0 0 0 0 0 0 0 0 0 0 0 0 0 0 0 0 127 0" result="hardAlpha"></feColorMatrix> <feOffset dy="20"></feOffset> <feGaussianBlur stdDeviation="8.15"></feGaussianBlur> <feComposite in2="hardAlpha" operator="out"></feComposite> <feColorMatrix type="matrix" values="0 0 0 0 0 0 0 0 0 0 0 0 0 0 0 0 0 0 0.1 0"></feColorMatrix> <feBlend mode="normal" in2="BackgroundImageFix" result="effect1_dropShadow_8555_1850"></feBlend> <feBlend mode="normal" in="SourceGraphic" in2="effect1_dropShadow_8555_1850" result="shape"></feBlend> </filter> <clipPath id="clip0_8555_1850"> <rect width="44.8202" height="44.8202" fill="white" transform="matrix(0.988117 -0.153707 0.455111 0.890435 15.0647 28.998)"></rect> </clipPath> </defs> </svg>