<svg width="62" height="63" viewBox="0 0 62 63" fill="none" xmlns="http://www.w3.org/2000/svg">
<path d="M0 31.9072C0 14.7864 13.8792 0.907227 31 0.907227C48.1208 0.907227 62 14.7864 62 31.9072C62 49.0281 48.1208 62.9072 31 62.9072C13.8792 62.9072 0 49.0281 0 31.9072Z" fill="#7AED08"/>
<mask id="mask0_12602_4039" style="mask-type:alpha" maskUnits="userSpaceOnUse" x="16" y="16" width="30" height="31">
<rect x="16" y="16.9072" width="30" height="30" fill="#26292E"/>
</mask>
<g mask="url(#mask0_12602_4039)">
<path d="M19.75 41.9072V40.6572H42.25V41.9072H19.75ZM21 38.4457V31.9072H23.5V38.4457H21ZM26.8172 38.4457V25.6572H29.3172V38.4457H26.8172ZM32.6588 38.4457V29.4072H35.1588V38.4457H32.6588ZM38.5 38.4457V21.9072H41V38.4457H38.5Z" fill="#26292E"/>
</g>
</svg>
