<svg width="62" height="63" viewBox="0 0 62 63" fill="none" xmlns="http://www.w3.org/2000/svg">
<path d="M0 31.9072C0 14.7864 13.8792 0.907227 31 0.907227C48.1208 0.907227 62 14.7864 62 31.9072C62 49.0281 48.1208 62.9072 31 62.9072C13.8792 62.9072 0 49.0281 0 31.9072Z" fill="#7AED08"/>
<mask id="mask0_12602_4008" style="mask-type:alpha" maskUnits="userSpaceOnUse" x="16" y="16" width="30" height="31">
<rect x="16" y="16.9072" width="30" height="30" fill="#D9D9D9"/>
</mask>
<g mask="url(#mask0_12602_4008)">
<path d="M31 44.4072C28.4583 44.4072 26.1803 43.7317 24.1659 42.3807C22.1515 41.0298 20.6394 39.2125 19.6296 36.9288V41.0419H18.3796V34.7919H24.6296V36.0419H20.6225C21.4302 38.183 22.7839 39.9041 24.6837 41.2054C26.5837 42.5066 28.6891 43.1572 31 43.1572C32.4983 43.1572 33.9058 42.8884 35.2225 42.3507C36.5389 41.813 37.6983 41.071 38.7006 40.1247C39.7031 39.1785 40.5172 38.0551 41.1431 36.7547C41.7689 35.4541 42.1298 34.0466 42.2259 32.5322H43.4759C43.3957 34.1876 43.0122 35.7365 42.3256 37.1788C41.6389 38.6211 40.7387 39.8791 39.625 40.9529C38.5112 42.0266 37.2131 42.8708 35.7306 43.4854C34.2483 44.0999 32.6714 44.4072 31 44.4072ZM18.524 31.2822C18.6361 29.5466 19.0435 27.9537 19.7462 26.5035C20.4491 25.0531 21.3655 23.799 22.4953 22.7413C23.6251 21.6836 24.9191 20.8635 26.3775 20.281C27.8358 19.6985 29.3766 19.4072 31 19.4072C33.4935 19.4072 35.7715 20.0867 37.834 21.4457C39.8965 22.8046 41.4086 24.6499 42.3703 26.9816V22.7725H43.6203V29.0225H37.3703V27.7725H41.3775C40.6179 25.6957 39.2841 23.9906 37.3762 22.6572C35.4683 21.3239 33.3429 20.6572 31 20.6572C29.5656 20.6572 28.1942 20.9181 26.8859 21.4397C25.5773 21.9614 24.4138 22.6873 23.3953 23.6175C22.3769 24.5477 21.5429 25.6632 20.8931 26.9638C20.2431 28.2642 19.8701 29.7037 19.774 31.2822H18.524Z" fill="#26292E"/>
<path d="M28.5007 40.1247V38.1247H25.5007V37.1247H27.5007V27.1247H25.5007V26.1247H28.5007V24.1247H29.5007V26.1247H31.693V24.1247H32.693V26.1535C33.5725 26.2073 34.2923 26.5307 34.8525 27.1237C35.4128 27.7167 35.693 28.4671 35.693 29.3747C35.693 29.9094 35.5904 30.3879 35.3852 30.8102C35.1801 31.2327 34.9147 31.5805 34.5892 31.8535C35.2494 32.0753 35.7651 32.4574 36.1362 32.9997C36.5074 33.5421 36.693 34.1671 36.693 34.8747C36.693 35.8209 36.3878 36.5991 35.7775 37.2092C35.1673 37.8196 34.3891 38.1247 33.443 38.1247H32.693V40.1247H31.693V38.1247H29.5007V40.1247H28.5007ZM28.5007 31.6247H32.443C33.0955 31.6247 33.6336 31.4129 34.0575 30.9892C34.4811 30.5654 34.693 30.0272 34.693 29.3747C34.693 28.7222 34.4811 28.1841 34.0575 27.7602C33.6336 27.3366 33.0955 27.1247 32.443 27.1247H28.5007V31.6247ZM28.5007 37.1247H33.443C34.0955 37.1247 34.6336 36.9129 35.0575 36.4892C35.4811 36.0654 35.693 35.5272 35.693 34.8747C35.693 34.2222 35.4811 33.6841 35.0575 33.2602C34.6336 32.8366 34.0955 32.6247 33.443 32.6247H28.5007V37.1247Z" fill="#26292E"/>
</g>
</svg>
