<svg width="62" height="63" viewBox="0 0 62 63" fill="none" xmlns="http://www.w3.org/2000/svg">
<rect y="0.907227" width="62" height="62" rx="31" fill="#7AED08"/>
<mask id="mask0_12602_4000" style="mask-type:alpha" maskUnits="userSpaceOnUse" x="16" y="16" width="30" height="31">
<rect x="16" y="16.9072" width="30" height="30" fill="#D9D9D9"/>
</mask>
<g mask="url(#mask0_12602_4000)">
<path d="M26.7884 41.9072C25.1811 41.9072 23.8146 41.3443 22.6887 40.2185C21.5629 39.0926 21 37.7261 21 36.1188C21 35.4392 21.1154 34.7806 21.3463 34.1429C21.5769 33.5049 21.9102 32.924 22.3463 32.4L26.7356 27.1285L24.1369 21.9072H37.8631L35.2644 27.1285L39.6537 32.4C40.0898 32.924 40.4231 33.5049 40.6537 34.1429C40.8846 34.7806 41 35.4392 41 36.1188C41 37.7261 40.4359 39.0926 39.3078 40.2185C38.1795 41.3443 36.8141 41.9072 35.2116 41.9072H26.7884ZM31 36.2582C30.4406 36.2582 29.9643 36.0615 29.5709 35.6682C29.1774 35.2746 28.9806 34.7983 28.9806 34.2391C28.9806 33.6797 29.1774 33.2033 29.5709 32.8097C29.9643 32.4164 30.4406 32.2197 31 32.2197C31.5594 32.2197 32.0357 32.4164 32.4291 32.8097C32.8226 33.2033 33.0194 33.6797 33.0194 34.2391C33.0194 34.7983 32.8226 35.2746 32.4291 35.6682C32.0357 36.0615 31.5594 36.2582 31 36.2582ZM27.8869 26.5947H34.1369L35.8438 23.1572H26.1562L27.8869 26.5947ZM26.7884 40.6572H35.2116C36.4793 40.6572 37.5526 40.2137 38.4316 39.3266C39.3105 38.4397 39.75 37.3705 39.75 36.1188C39.75 35.5867 39.6615 35.0702 39.4844 34.5694C39.3073 34.0686 39.0465 33.6147 38.7019 33.2079L34.2284 27.8447H27.8028L23.3222 33.2004C22.9776 33.6074 22.7127 34.0626 22.5275 34.566C22.3425 35.0691 22.25 35.5867 22.25 36.1188C22.25 37.3705 22.6935 38.4397 23.5806 39.3266C24.4675 40.2137 25.5368 40.6572 26.7884 40.6572Z" fill="#26292E"/>
</g>
</svg>
