<svg width="62" height="63" viewBox="0 0 62 63" fill="none" xmlns="http://www.w3.org/2000/svg">
<path d="M0 31.9072C0 14.7864 13.8792 0.907227 31 0.907227C48.1208 0.907227 62 14.7864 62 31.9072C62 49.0281 48.1208 62.9072 31 62.9072C13.8792 62.9072 0 49.0281 0 31.9072Z" fill="#7AED08"/>
<mask id="mask0_12602_4031" style="mask-type:alpha" maskUnits="userSpaceOnUse" x="16" y="16" width="30" height="31">
<rect x="16" y="16.9072" width="30" height="30" fill="#D9D9D9"/>
</mask>
<g mask="url(#mask0_12602_4031)">
<path d="M31 41.9072C28.0785 41.9072 25.6815 41.535 23.8088 40.7907C21.9363 40.0463 21 39.0884 21 37.9169V25.6572C21 24.6187 21.9748 23.7341 23.9244 23.0035C25.8738 22.2726 28.2323 21.9072 31 21.9072C33.7677 21.9072 36.1262 22.2726 38.0756 23.0035C40.0252 23.7341 41 24.6187 41 25.6572V37.9169C41 39.0884 40.0638 40.0463 38.1912 40.7907C36.3185 41.535 33.9215 41.9072 31 41.9072ZM31 28.0204C32.79 28.0204 34.5945 27.7707 36.4134 27.2713C38.2324 26.7721 39.3205 26.2285 39.6778 25.6404C39.3366 25.0201 38.2656 24.4513 36.465 23.9338C34.6646 23.4161 32.8429 23.1572 31 23.1572C29.1844 23.1572 27.3651 23.4068 25.5422 23.906C23.7193 24.4051 22.6299 24.9512 22.2741 25.5441C22.6139 26.1691 23.6872 26.7381 25.4941 27.251C27.3009 27.7639 29.1362 28.0204 31 28.0204ZM31 34.311C31.859 34.311 32.7027 34.2693 33.5313 34.186C34.3598 34.1026 35.1519 33.9789 35.9075 33.8147C36.6631 33.6504 37.365 33.4456 38.0131 33.2004C38.6615 32.9554 39.2404 32.679 39.75 32.3713V27.251C39.2404 27.5587 38.6615 27.8351 38.0131 28.0804C37.365 28.3256 36.6631 28.5302 35.9075 28.6944C35.1519 28.8588 34.3598 28.9826 33.5313 29.066C32.7027 29.1493 31.859 29.191 31 29.191C30.109 29.191 29.2428 29.1452 28.4016 29.0538C27.5601 28.9625 26.7656 28.8347 26.0181 28.6704C25.2704 28.5062 24.5777 28.3055 23.94 28.0682C23.3021 27.8311 22.7387 27.5587 22.25 27.251V32.3713C22.7387 32.679 23.3021 32.9514 23.94 33.1885C24.5777 33.4256 25.2704 33.6263 26.0181 33.7907C26.7656 33.9548 27.5601 34.0826 28.4016 34.1741C29.2428 34.2654 30.109 34.311 31 34.311ZM31 40.6572C32.0704 40.6572 33.0884 40.5963 34.0541 40.4744C35.0197 40.3527 35.8871 40.1801 36.6563 39.9566C37.4254 39.7331 38.0793 39.4662 38.6178 39.156C39.1564 38.846 39.5338 38.5107 39.75 38.15V33.6213C39.2404 33.929 38.6615 34.2054 38.0131 34.4504C37.365 34.6956 36.6631 34.9004 35.9075 35.0647C35.1519 35.2289 34.3598 35.3526 33.5313 35.436C32.7027 35.5193 31.859 35.561 31 35.561C30.109 35.561 29.2428 35.5154 28.4016 35.4241C27.5601 35.3326 26.7656 35.2048 26.0181 35.0407C25.2704 34.8763 24.5777 34.6756 23.94 34.4385C23.3021 34.2014 22.7387 33.929 22.25 33.6213V38.1572C22.4663 38.5339 22.8425 38.872 23.3787 39.1716C23.9148 39.4714 24.5674 39.7331 25.3366 39.9566C26.1057 40.1801 26.9743 40.3527 27.9422 40.4744C28.9103 40.5963 29.9296 40.6572 31 40.6572Z" fill="#26292E"/>
</g>
</svg>
