<svg width="62" height="63" viewBox="0 0 62 63" fill="none" xmlns="http://www.w3.org/2000/svg">
<path d="M0 31.9072C0 14.7864 13.8792 0.907227 31 0.907227C48.1208 0.907227 62 14.7864 62 31.9072C62 49.0281 48.1208 62.9072 31 62.9072C13.8792 62.9072 0 49.0281 0 31.9072Z" fill="#7AED08"/>
<mask id="mask0_12602_4016" style="mask-type:alpha" maskUnits="userSpaceOnUse" x="16" y="16" width="30" height="31">
<rect x="16" y="16.9072" width="30" height="30" fill="#D9D9D9"/>
</mask>
<g mask="url(#mask0_12602_4016)">
<path d="M30.375 37.5322H31.625V36.2822H33.1634C33.4374 36.2822 33.6661 36.1905 33.8497 36.0069C34.0332 35.8234 34.125 35.5946 34.125 35.3207V32.2438C34.125 31.9698 34.0332 31.7411 33.8497 31.5575C33.6661 31.374 33.4374 31.2822 33.1634 31.2822H29.125V28.7822H34.125V27.5322H31.625V26.2822H30.375V27.5322H28.8366C28.5626 27.5322 28.3339 27.624 28.1503 27.8075C27.9668 27.9911 27.875 28.2198 27.875 28.4938V31.5707C27.875 31.8446 27.9668 32.0734 28.1503 32.2569C28.3339 32.4405 28.5626 32.5322 28.8366 32.5322H32.875V35.0322H27.875V36.2822H30.375V37.5322ZM21.7694 40.6572C21.194 40.6572 20.7135 40.4645 20.3281 40.0791C19.9427 39.6937 19.75 39.2133 19.75 38.6379V25.1766C19.75 24.6012 19.9427 24.1208 20.3281 23.7354C20.7135 23.3499 21.194 23.1572 21.7694 23.1572H40.2306C40.806 23.1572 41.2865 23.3499 41.6719 23.7354C42.0573 24.1208 42.25 24.6012 42.25 25.1766V38.6379C42.25 39.2133 42.0573 39.6937 41.6719 40.0791C41.2865 40.4645 40.806 40.6572 40.2306 40.6572H21.7694ZM21.7694 39.4072H40.2306C40.4231 39.4072 40.5995 39.3271 40.7597 39.1669C40.9199 39.0067 41 38.8304 41 38.6379V25.1766C41 24.9841 40.9199 24.8077 40.7597 24.6475C40.5995 24.4873 40.4231 24.4072 40.2306 24.4072H21.7694C21.5769 24.4072 21.4005 24.4873 21.2403 24.6475C21.0801 24.8077 21 24.9841 21 25.1766V38.6379C21 38.8304 21.0801 39.0067 21.2403 39.1669C21.4005 39.3271 21.5769 39.4072 21.7694 39.4072Z" fill="#26292E"/>
</g>
</svg>
