<svg width="1000" height="658" viewBox="0 0 1000 658" fill="none" xmlns="http://www.w3.org/2000/svg">
<rect width="477.618" height="76.7556" transform="matrix(0.866026 0.499999 2.11612e-07 -1 0 107.884)" fill="url(#paint0_linear_369_691)"/>
<rect width="76.8264" height="463.048" transform="matrix(-0.866026 0.499999 -0.866026 -0.499999 480.164 231.524)" fill="url(#paint1_linear_369_691)"/>
<path fill-rule="evenodd" clip-rule="evenodd" d="M497.03 478.23L634.521 398.949V238.96L497.03 317.883V478.23ZM600.952 299.313V378.951L531.314 419.662V380.736V338.239L567.73 317.883L600.952 299.313Z" fill="#5DBB00"/>
<path fill-rule="evenodd" clip-rule="evenodd" d="M497.03 158.965L358.11 238.96L497.03 317.883L634.521 238.96L497.03 158.965ZM497.03 197.891L567.383 238.96L534.039 258.594L497.03 280.386L458.131 257.936L425.249 238.96L497.03 197.891Z" fill="#9AEC49"/>
<path d="M567.383 238.96L497.03 197.891V236.103L534.039 258.594L567.383 238.96Z" fill="#70E000"/>
<path d="M497.03 197.891L425.249 238.96L458.131 257.936L497.03 236.103V197.891Z" fill="#5DBB00"/>
<path fill-rule="evenodd" clip-rule="evenodd" d="M358.11 238.96V398.949L497.03 478.23V317.883L358.11 238.96ZM390.966 378.951V339.132V299.313L425.249 318.379L460.961 338.239V380.736V419.662L390.966 378.951Z" fill="#70E000"/>
<path d="M390.966 378.951L425.249 359.309V318.379L390.966 299.313V339.132V378.951Z" fill="#5DBB00"/>
<path d="M390.966 378.951L460.961 419.662V380.736L425.249 359.309L390.966 378.951Z" fill="#9AEC49"/>
<path fill-rule="evenodd" clip-rule="evenodd" d="M567.73 317.883L600.952 299.313V378.951L567.383 359.309L567.73 317.883Z" fill="#9AEC49"/>
<path d="M531.314 419.662L600.952 378.951L567.383 359.309L531.314 380.736V419.662Z" fill="#9AEC49"/>
<path d="M358.11 238.96L497.03 158.965L634.521 238.96M358.11 238.96V398.949L497.03 478.23M358.11 238.96L497.03 317.883M497.03 478.23L634.521 398.949V238.96M497.03 478.23V317.883M634.521 238.96L497.03 317.883M497.03 197.891L567.383 238.96L534.039 258.594M497.03 197.891L425.249 238.96L458.131 257.936M497.03 197.891V236.103M497.03 236.103L458.131 257.936M497.03 236.103L534.039 258.594M458.131 257.936L497.03 280.386L534.039 258.594M600.952 378.951V299.313L567.73 317.883M600.952 378.951L531.314 419.662V380.736M600.952 378.951L567.383 359.309M567.383 359.309L567.73 317.883M567.383 359.309L531.314 380.736M567.73 317.883L531.314 338.239V380.736M390.966 378.951L460.961 419.662V380.736M390.966 378.951L425.249 359.309M390.966 378.951V339.132V299.313L425.249 318.379M425.249 359.309L460.961 380.736M425.249 359.309V318.379M460.961 380.736V338.239L425.249 318.379" stroke="black" stroke-width="0.8" stroke-linecap="round" stroke-linejoin="round"/>
<path d="M531.652 338.301L600.402 300.133L999.157 531.327L932.624 569.74L531.652 338.301Z" fill="url(#paint2_linear_369_691)"/>
<path d="M945.247 577.023L531.617 338.215L531.617 418.853L945.247 653.779L945.247 577.023Z" fill="url(#paint3_linear_369_691)"/>
<defs>
<linearGradient id="paint0_linear_369_691" x1="814.517" y1="75.6492" x2="424.792" y2="450.478" gradientUnits="userSpaceOnUse">
<stop stop-color="#70E000"/>
<stop offset="1" stop-color="#70E000" stop-opacity="0"/>
</linearGradient>
<linearGradient id="paint1_linear_369_691" x1="49.8253" y1="-227.134" x2="38.2214" y2="463.045" gradientUnits="userSpaceOnUse">
<stop stop-color="#70E000"/>
<stop offset="1" stop-color="#70E000" stop-opacity="0"/>
</linearGradient>
<linearGradient id="paint2_linear_369_691" x1="378.059" y1="199.737" x2="667.032" y2="717.373" gradientUnits="userSpaceOnUse">
<stop stop-color="#70E000"/>
<stop offset="1" stop-color="#70E000" stop-opacity="0"/>
</linearGradient>
<linearGradient id="paint3_linear_369_691" x1="239.854" y1="245.415" x2="590" y2="807.232" gradientUnits="userSpaceOnUse">
<stop stop-color="#70E000"/>
<stop offset="1" stop-color="#70E000" stop-opacity="0"/>
</linearGradient>
</defs>
</svg>
